<svg width="20" height="24" viewBox="0 0 20 24" fill="none" xmlns="http://www.w3.org/2000/svg">
<g clip-path="url(#clip0_3651_4060)">
<path d="M9.99931 0.00325986C10.4079 -0.0264035 10.7405 0.149227 11.0348 0.413843C11.4361 0.774511 11.8327 1.14036 12.2708 1.4563C13.4026 2.27275 14.6565 2.78126 16.0135 3.04493C16.6294 3.165 17.255 3.19136 17.8741 3.27659C18.9797 3.42914 19.912 4.52339 19.9549 5.66661C20.0009 6.89081 20.0092 8.11925 19.9899 9.34486C19.9581 11.3761 19.7655 13.3876 19.1718 15.3402C18.2965 18.2123 16.6382 20.4794 14.17 22.1203C13.0599 22.8586 11.8668 23.426 10.6263 23.8855C10.5235 23.9237 10.4033 23.9133 10.3172 23.9986H9.99471L9.99747 18C10.559 17.9529 11.1182 17.903 11.6636 17.7368C14.3842 16.9095 16.2448 14.1112 15.7782 11.1002C15.499 9.30202 14.5966 7.92196 13.1115 6.93224C12.1662 6.30225 11.1122 6.03763 9.99747 5.99055C9.99839 3.99573 9.999 1.99996 9.99931 0.00325986Z" fill="#00A861"/>
<path d="M9.99931 0.00285933C9.99931 1.99925 9.99931 3.9958 9.99931 5.99251C9.99526 6.00141 9.99276 6.01097 9.99194 6.02075C9.86987 6.02593 9.7478 6.0297 9.62342 6.03723C8.32071 6.11634 7.16725 6.58954 6.18975 7.46625C4.74469 8.76155 4.06293 10.4029 4.16289 12.3706C4.22103 13.6695 4.71283 14.9089 5.55635 15.8822C6.72272 17.2542 8.20785 17.9468 9.9878 17.9727C9.98862 17.9825 9.99111 17.9921 9.99517 18.001L9.9924 23.9996H9.62388C9.59118 23.9205 9.51241 23.9294 9.4516 23.9054C7.29346 23.1299 5.3205 22.0385 3.70086 20.3543C2.11853 18.7063 1.12813 16.7288 0.590093 14.504C0.125758 12.5811 -0.00506303 10.6209 -0.00552368 8.64855C-0.00552368 7.74264 0.0405403 6.83579 0.0281028 5.93035C0.0046097 4.48438 1.03462 3.29785 2.55615 3.2244C3.64104 3.17367 4.71092 2.94523 5.72495 2.54779C6.74634 2.1466 7.6896 1.56256 8.5105 0.823077C8.77952 0.582474 9.02135 0.305143 9.35302 0.144585C9.56077 0.0494736 9.77175 -0.014562 9.99931 0.00285933Z" fill="#01DB7F"/>
<path d="M9.99149 6.02141C9.9923 6.01163 9.99479 6.00207 9.99885 5.99316C11.1136 6.04025 12.1676 6.30392 13.1128 6.93486C14.598 7.92364 15.5004 9.30463 15.7795 11.1028C16.2462 14.1115 14.3856 16.9121 11.665 17.7394C11.1196 17.9056 10.5595 17.9574 9.99885 18.0026C9.99479 17.9937 9.9923 17.9841 9.99149 17.9743C9.99333 16.6064 9.99502 15.2387 9.99655 13.8714L10.0426 13.7923C10.2389 13.5959 10.4365 13.4015 10.6309 13.2032C11.3007 12.52 11.9737 11.8378 12.6365 11.1499C13.0327 10.7379 12.854 10.0844 12.3178 9.95157C12.0156 9.87671 11.7848 10.0184 11.5807 10.2251C11.0556 10.7588 10.5311 11.2924 10.0071 11.826C10.003 11.7173 9.99563 11.608 9.99563 11.4992C9.99471 9.6733 9.99333 7.84736 9.99149 6.02141Z" fill="#E0EAEF"/>
<path d="M9.99148 6.02148C9.99332 7.8468 9.99532 9.67243 9.99747 11.4984C9.99747 11.6071 10.0048 11.7164 10.0085 11.8251C10.003 11.8501 9.99701 11.8751 9.99102 11.9C9.7068 12.1825 9.41382 12.4584 9.1425 12.7541C8.99924 12.9104 8.90849 12.8954 8.77766 12.7466C8.61091 12.5535 8.42481 12.3779 8.24469 12.1971C7.93975 11.8906 7.54497 11.8722 7.26121 12.15C6.97745 12.4278 6.98482 12.8808 7.2718 13.1774C7.66888 13.5889 8.06811 13.997 8.46949 14.4016C8.76385 14.6978 9.15171 14.6954 9.44975 14.4049C9.63401 14.2274 9.81274 14.048 9.99424 13.8696C9.9924 15.2369 9.99071 16.6045 9.98917 17.9725C8.20922 17.9466 6.72409 17.254 5.55773 15.882C4.71421 14.9086 4.22241 13.6693 4.16427 12.3704C4.06246 10.4027 4.74422 8.76134 6.19112 7.46604C7.16862 6.58933 8.32208 6.11612 9.6248 6.03702C9.74733 6.03043 9.86941 6.02666 9.99148 6.02148Z" fill="#FEFEFE"/>
<path d="M9.99101 11.8993C9.997 11.8743 10.003 11.8494 10.0085 11.8244C10.5334 11.2908 11.058 10.7571 11.5826 10.2235C11.7862 10.0168 12.0169 9.87509 12.3196 9.94996C12.8558 10.0827 13.0345 10.7363 12.6384 11.1483C11.9755 11.8381 11.3025 12.5184 10.6327 13.2016C10.4383 13.3999 10.2407 13.5943 10.0444 13.7907C9.97857 13.7191 10.0021 13.6296 10.0011 13.5472C9.99608 12.9977 9.99378 12.4487 9.99101 11.8993Z" fill="#6FA3A8"/>
<path d="M9.99103 11.8994C9.99379 12.4489 9.99609 12.9979 10.0007 13.5474C10.0007 13.6298 9.97812 13.7192 10.044 13.7908L9.99793 13.8699C9.81644 14.0484 9.6354 14.2278 9.45345 14.4053C9.15541 14.6958 8.76754 14.6981 8.47318 14.402C8.06965 13.9967 7.67043 13.5887 7.2755 13.1778C6.98943 12.8811 6.98805 12.4206 7.2649 12.1504C7.54175 11.8801 7.94344 11.8919 8.24839 12.1975C8.4285 12.3783 8.61691 12.5539 8.78136 12.7469C8.91219 12.8981 9.00293 12.9108 9.14619 12.7545C9.41383 12.4597 9.70681 12.1829 9.99103 11.8994Z" fill="#B3D0D6"/>
</g>
<defs>
<clipPath id="clip0_3651_4060">
<rect width="20" height="24" fill="white"/>
</clipPath>
</defs>
</svg>
