<svg width="21" height="24" viewBox="0 0 21 24" fill="none" xmlns="http://www.w3.org/2000/svg">
<path d="M10.5547 5.53846C11.638 5.53846 12.9959 4.8061 13.8045 3.82962C14.5369 2.94469 15.0709 1.70884 15.0709 0.472982C15.0709 0.30515 15.0556 0.137317 15.0251 0C13.8198 0.0457724 12.3703 0.808646 11.5006 1.8309C10.8141 2.60903 10.1885 3.82962 10.1885 5.08074C10.1885 5.26383 10.219 5.44692 10.2343 5.50795C10.3106 5.5232 10.4326 5.53846 10.5547 5.53846ZM6.74031 24C8.22028 24 8.87635 23.0083 10.7225 23.0083C12.5992 23.0083 13.0111 23.9695 14.6589 23.9695C16.2762 23.9695 17.3595 22.4743 18.3818 21.0095C19.5261 19.3312 19.999 17.6834 20.0296 17.6071C19.9228 17.5766 16.8255 16.3102 16.8255 12.7552C16.8255 9.67324 19.2667 8.28481 19.404 8.178C17.7867 5.85887 15.3303 5.79784 14.6589 5.79784C12.8433 5.79784 11.3633 6.89638 10.4326 6.89638C9.42562 6.89638 8.09822 5.85887 6.5267 5.85887C3.53624 5.85887 0.5 8.33058 0.5 12.9994C0.5 15.8983 1.62905 18.965 3.01748 20.9485C4.20756 22.6268 5.24507 24 6.74031 24Z" fill="black"/>
</svg>
