<svg width="34" height="35" viewBox="0 0 34 35" fill="none" xmlns="http://www.w3.org/2000/svg">
<g clip-path="url(#clip0_6291_8807)">
<circle cx="17" cy="17.4873" r="17" fill="#00A861"/>
<path d="M27.0607 13.548C27.6464 12.9622 27.6464 12.0124 27.0607 11.4266C26.4749 10.8409 25.5251 10.8409 24.9393 11.4266L27.0607 13.548ZM15 23.4873L13.9394 24.548C14.2207 24.8293 14.6022 24.9873 15 24.9873C15.3978 24.9873 15.7794 24.8293 16.0607 24.548L15 23.4873ZM10.0607 16.4266C9.47489 15.8409 8.52514 15.8409 7.93936 16.4266C7.35357 17.0124 7.35357 17.9622 7.93936 18.548L10.0607 16.4266ZM24.9393 11.4266L13.9394 22.4266L16.0607 24.548L27.0607 13.548L24.9393 11.4266ZM16.0607 22.4266L10.0607 16.4266L7.93936 18.548L13.9394 24.548L16.0607 22.4266Z" fill="white"/>
</g>
<defs>
<clipPath id="clip0_6291_8807">
<rect width="34" height="34" fill="white" transform="translate(0 0.487305)"/>
</clipPath>
</defs>
</svg>
