<svg width="34" height="17" viewBox="0 0 34 17" fill="none" xmlns="http://www.w3.org/2000/svg">
<g opacity="0.5">
<path d="M6.48223 8.25L0.366117 2.13388C-0.122039 1.64573 -0.122039 0.854272 0.366117 0.366117C0.854272 -0.122039 1.64573 -0.122039 2.13388 0.366117L9.13388 7.36612C9.62204 7.85427 9.62204 8.64573 9.13388 9.13388L2.13388 16.1339C1.64573 16.622 0.854272 16.622 0.366117 16.1339C-0.122039 15.6457 -0.122039 14.8543 0.366117 14.3661L6.48223 8.25Z" fill="white" fill-opacity="0.75"/>
<path d="M18.4822 8.25L12.3661 2.13388C11.878 1.64573 11.878 0.854272 12.3661 0.366117C12.8543 -0.122039 13.6457 -0.122039 14.1339 0.366117L21.1339 7.36612C21.622 7.85427 21.622 8.64573 21.1339 9.13388L14.1339 16.1339C13.6457 16.622 12.8543 16.622 12.3661 16.1339C11.878 15.6457 11.878 14.8543 12.3661 14.3661L18.4822 8.25Z" fill="white" fill-opacity="0.5"/>
<path d="M30.4822 8.25L24.3661 2.13388C23.878 1.64573 23.878 0.854272 24.3661 0.366117C24.8543 -0.122039 25.6457 -0.122039 26.1339 0.366117L33.1339 7.36612C33.622 7.85427 33.622 8.64573 33.1339 9.13388L26.1339 16.1339C25.6457 16.622 24.8543 16.622 24.3661 16.1339C23.878 15.6457 23.878 14.8543 24.3661 14.3661L30.4822 8.25Z" fill="white" fill-opacity="0.25"/>
</g>
</svg>
