<svg width="329" height="688" viewBox="0 0 329 688" fill="none" xmlns="http://www.w3.org/2000/svg">
<g opacity="0.26">
<path d="M267.034 52.5975C261.615 86.5879 238.495 106.577 200.433 106.577C162.37 106.577 145.39 86.5879 150.81 52.5975C156.261 19.9582 179.381 0 217.412 0C255.443 0 272.485 19.9582 267.034 52.5975ZM429.498 52.5975C423.233 86.5879 400.27 106.577 362.865 106.577C324.144 106.577 307.823 86.5879 313.274 52.5975C318.004 19.9582 341.813 0 379.876 0C417.249 0 434.228 19.9582 429.498 52.5975Z" fill="white"/>
<path d="M270.55 159.876C396.955 159.876 448.238 205.166 434.204 303.115C425.589 363.603 397.833 400.449 343.041 427.009C399.43 451.573 422.393 484.98 413.528 546.758C399.775 642.711 328.004 688.001 194.236 688.001H181.235C46.528 688.001 -11.4276 642.711 2.66972 545.438C11.4727 484.028 46.8099 446.169 111.407 417.521C60.7506 391.545 46.2147 355.589 53.8586 302.286C67.7992 205.012 133.43 159.723 259.178 159.723L270.55 159.876ZM192.795 464.93C148.937 480.896 134.808 499.565 131.394 523.545C126.037 560.852 151.036 580.841 199.28 580.841H206.767C255.701 580.841 284.804 567.515 289.503 534.783C293.795 504.815 272.774 490.138 247.399 482.155L192.795 464.93ZM246.334 267.067C210.307 267.067 183.428 279.042 178.573 313.124C174.343 342.448 190.508 357.769 219.674 367.749L259.554 379.723C288.751 365.722 302.691 344.413 306.325 319.081C310.993 286.442 295.424 267.128 253.288 267.128L246.334 267.067Z" fill="white"/>
</g>
</svg>
