<svg width="52" height="46" viewBox="0 0 52 46" fill="none" xmlns="http://www.w3.org/2000/svg">
<path d="M0 30.8493V21.7003C0.375369 20.8097 1.03151 20.4878 1.96037 20.5305C3.14585 20.5857 4.33637 20.5555 5.52386 20.5305C5.74974 20.5278 5.96907 20.4516 6.15082 20.3128C7.19331 19.4137 8.36287 18.6854 9.6187 18.1534C9.70207 18.1103 9.78243 18.0612 9.85922 18.0065C5.69092 14.1888 5.54298 8.30961 8.38894 4.43355C11.2842 0.500195 16.473 -0.660228 20.6302 1.71374C22.7184 2.9075 24.2199 4.66063 25.0139 6.98877C26.2919 10.7388 25.5331 14.1148 23.0927 17.1544H29.9712C26.0645 12.5232 26.9702 6.26585 30.7843 2.87729C34.543 -0.467518 40.2118 -0.271684 43.737 3.36063C45.5233 5.20126 46.5025 7.43981 46.5749 10.0398C46.6756 13.5357 45.2667 16.3274 42.6683 18.4232C43.5971 19.1076 44.4998 19.7836 45.4166 20.4388C45.561 20.5177 45.7237 20.5538 45.8866 20.543C47.1586 20.5503 48.4296 20.543 49.7017 20.543C50.8489 20.543 51.4276 21.1451 51.4286 22.3326C51.4286 24.8798 51.4286 27.4264 51.4286 29.9722C51.4286 31.3264 51.1156 31.7431 49.8184 32.0722V43.491C49.8184 44.7754 49.2458 45.3765 48.015 45.3765H3.43367C2.19485 45.3765 1.62224 44.7796 1.62224 43.5015C1.62224 39.8806 1.62224 36.2601 1.62224 32.6399V32.0097C0.779922 32.0066 0.32002 31.5295 0 30.8493ZM8.06087 42.2327V41.6077C8.06087 39.6841 8.06087 37.7608 8.06087 35.8379C8.05468 35.6289 8.06647 35.4197 8.0961 35.2129C8.23497 34.4097 8.92332 33.8389 9.66198 33.8972C10.0446 33.9174 10.4049 34.09 10.6673 34.3789C10.9297 34.6679 11.074 35.0507 11.0699 35.4472C11.086 37.5087 11.0769 39.5702 11.0779 41.6317V42.2317H24.2098V41.5952C24.2098 37.8868 24.1927 34.1795 24.2148 30.4722C24.238 26.618 25.6378 23.3701 28.3318 20.7159C28.4324 20.6118 28.524 20.5076 28.6709 20.3493C28.4576 20.3378 28.3288 20.3243 28.2 20.3243C23.6472 20.3243 19.0945 20.3128 14.5418 20.3336C13.7897 20.3408 13.0399 20.4193 12.3016 20.568C11.1809 20.7859 10.1166 21.244 9.17692 21.9128C10.9048 23.6628 11.564 25.7243 10.782 28.0587C9.79381 31.0056 7.58185 32.1556 4.66444 32.017V42.2389L8.06087 42.2327ZM46.7581 42.2327V31.9972C44.1044 32.1514 42.0111 31.2045 40.886 28.6743C39.7609 26.1441 40.3567 23.8618 42.2305 21.9159C40.5892 20.6888 37.8509 20.0586 35.7335 20.4034C30.6303 21.2368 27.2218 25.3566 27.2198 30.7045C27.2198 34.342 27.2198 37.9792 27.2198 41.616V42.2181H40.3547V41.616C40.3547 39.5556 40.3456 37.4941 40.3637 35.4327C40.3636 35.0374 40.5109 34.6573 40.7749 34.3716C41.0389 34.0859 41.3992 33.9168 41.7807 33.8993C42.5244 33.8504 43.1986 34.4202 43.3335 35.2306C43.3619 35.4375 43.373 35.6466 43.3667 35.8556C43.3667 37.7959 43.3667 39.7358 43.3667 41.6754C43.3667 41.8587 43.3838 42.041 43.3939 42.241L46.7581 42.2327ZM16.0765 3.61167C14.3332 3.60501 12.6585 4.31394 11.4194 5.58311C10.1803 6.85227 9.47771 8.57815 9.46574 10.3825C9.4597 14.1159 12.4315 17.2044 16.0412 17.2024C19.6108 17.2024 22.5704 14.1628 22.5976 10.4732C22.6258 6.72002 19.6923 3.62938 16.0765 3.61167ZM30.4462 10.3825C30.4391 14.1221 33.4179 17.2117 37.0196 17.2013C40.6214 17.1909 43.569 14.1378 43.58 10.42C43.5911 6.70231 40.6455 3.62625 37.0549 3.61063C33.425 3.595 30.4532 6.64085 30.4462 10.3836V10.3825ZM48.3974 23.6659C47.5108 23.6659 46.6625 23.6503 45.8141 23.6659C44.5512 23.6941 43.4895 24.7076 43.3848 25.9712C43.2681 27.3701 44.0893 28.6316 45.3975 28.8087C46.3747 28.9399 47.383 28.8347 48.3954 28.8347L48.3974 23.6659ZM3.04421 28.8826H3.54034C4.27599 28.8826 5.01163 28.9055 5.74526 28.8691C6.97905 28.8076 7.99747 27.7149 8.05987 26.4357C8.12125 25.0691 7.23265 23.8368 5.96364 23.7086C5.00962 23.6118 4.03748 23.6899 3.04522 23.6899L3.04421 28.8826Z" fill="#110628"/>
</svg>
