<svg width="30" height="26" viewBox="0 0 30 26" fill="none" xmlns="http://www.w3.org/2000/svg">
<path d="M0.714844 17.0504V11.9676C0.923382 11.4728 1.2879 11.294 1.80394 11.3178C2.46254 11.3484 3.12394 11.3316 3.78366 11.3178C3.90914 11.3162 4.03099 11.2739 4.13197 11.1968C4.71113 10.6973 5.36088 10.2927 6.05857 9.99714C6.10488 9.97318 6.14953 9.94591 6.19219 9.91554C3.87647 7.79458 3.79428 4.52835 5.37537 2.37498C6.98385 0.189779 9.86649 -0.454902 12.1761 0.863973C13.3362 1.52717 14.1703 2.50114 14.6114 3.79455C15.3215 5.8779 14.8999 7.75349 13.5442 9.44216H17.3655C15.1951 6.86922 15.6983 3.39293 17.8172 1.51039C19.9054 -0.347841 23.0547 -0.239044 25.0132 1.77891C26.0056 2.80149 26.5496 4.04513 26.5898 5.48959C26.6457 7.43173 25.863 8.98267 24.4195 10.147C24.9355 10.5272 25.437 10.9028 25.9463 11.2668C26.0265 11.3107 26.1169 11.3307 26.2074 11.3247C26.9141 11.3287 27.6202 11.3247 28.3269 11.3247C28.9643 11.3247 29.2857 11.6592 29.2863 12.3189C29.2863 13.7341 29.2863 15.1488 29.2863 16.5632C29.2863 17.3155 29.1124 17.547 28.3918 17.7298V24.0736C28.3918 24.7872 28.0736 25.1211 27.3899 25.1211H2.62244C1.93421 25.1211 1.61609 24.7895 1.61609 24.0794C1.61609 22.0678 1.61609 20.0564 1.61609 18.0452V17.6951C1.14813 17.6934 0.892633 17.4283 0.714844 17.0504ZM5.19311 23.3746V23.0273C5.19311 21.9586 5.19311 20.8902 5.19311 19.8219C5.18967 19.7058 5.19622 19.5896 5.21268 19.4746C5.28983 19.0285 5.67224 18.7113 6.08261 18.7437C6.29519 18.7549 6.49533 18.8508 6.64113 19.0113C6.78692 19.1719 6.86707 19.3845 6.86477 19.6048C6.87372 20.7501 6.86868 21.8954 6.86924 23.0406V23.374H14.1647V23.0204C14.1647 20.9602 14.1552 18.9006 14.1675 16.8409C14.1804 14.6997 14.9581 12.8953 16.4547 11.4208C16.5107 11.3629 16.5615 11.305 16.6432 11.2171C16.5246 11.2107 16.4531 11.2032 16.3815 11.2032C13.8522 11.2032 11.3229 11.1968 8.79361 11.2084C8.3758 11.2124 7.95922 11.256 7.54909 11.3386C6.92646 11.4597 6.33515 11.7141 5.81313 12.0857C6.77308 13.0579 7.13928 14.2032 6.70487 15.5001C6.15585 17.1372 4.92698 17.7761 3.3062 17.6992V23.378L5.19311 23.3746ZM26.6916 23.3746V17.6882C25.2173 17.7738 24.0544 17.2478 23.4293 15.8421C22.8043 14.4364 23.1352 13.1685 24.1763 12.0874C23.2644 11.4057 21.7431 11.0556 20.5668 11.2472C17.7317 11.7101 15.8381 13.9989 15.837 16.97C15.837 18.9908 15.837 21.0115 15.837 23.032V23.3665H23.1341V23.032C23.1341 21.8873 23.1291 20.742 23.1392 19.5967C23.1391 19.3771 23.2209 19.166 23.3676 19.0073C23.5142 18.8486 23.7144 18.7546 23.9263 18.7449C24.3395 18.7177 24.7141 19.0342 24.789 19.4845C24.8048 19.5995 24.811 19.7156 24.8075 19.8317C24.8075 20.9096 24.8075 21.9874 24.8075 23.0649C24.8075 23.1668 24.817 23.2681 24.8226 23.3792L26.6916 23.3746ZM9.64621 1.91838C8.67775 1.91468 7.74737 2.30853 7.05896 3.01362C6.37054 3.71872 5.98024 4.67754 5.97359 5.67998C5.97024 7.75407 7.62121 9.46994 9.62665 9.46878C11.6097 9.46878 13.254 7.78011 13.2691 5.73033C13.2847 3.64524 11.655 1.92822 9.64621 1.91838ZM17.6294 5.67998C17.6255 7.75754 19.2804 9.47399 21.2813 9.4682C23.2823 9.46241 24.9198 7.76622 24.926 5.70081C24.9321 3.6354 23.2957 1.92648 21.3009 1.9178C19.2843 1.90912 17.6333 3.60126 17.6294 5.68056V5.67998ZM27.6023 13.0597C27.1098 13.0597 26.6385 13.051 26.1672 13.0597C25.4655 13.0753 24.8757 13.6384 24.8175 14.3403C24.7527 15.1175 25.2089 15.8184 25.9357 15.9167C26.4786 15.9897 27.0388 15.9312 27.6012 15.9312L27.6023 13.0597ZM2.40607 15.9578H2.6817C3.09039 15.9578 3.49908 15.9706 3.90666 15.9503C4.59209 15.9162 5.15789 15.3091 5.19255 14.5984C5.22665 13.8392 4.73298 13.1546 4.02798 13.0834C3.49796 13.0296 2.95789 13.073 2.40663 13.073L2.40607 15.9578Z" fill="#110628"/>
</svg>
