<svg width="21" height="19" viewBox="0 0 21 19" fill="none" xmlns="http://www.w3.org/2000/svg">
<path d="M12.1642 0.500061H7.69298C6.88659 0.500061 6.30959 0.744827 5.80407 1.29613L5.71557 1.39661C5.70004 1.41494 5.2033 2.03345 5.02696 2.2522C4.85184 2.46942 4.38354 2.65351 3.92857 2.65351H3.75C1.54536 2.65351 0 4.36181 0 6.84904V14.3031C0 16.5522 1.90996 18.4986 4.35714 18.4986H15.5C17.9621 18.4986 20.0021 16.5321 20.0021 14.3031V6.84904C20.0021 4.36181 18.4568 2.65351 16.2521 2.65351H15.9286C15.4736 2.65351 15.0053 2.46942 14.8302 2.2522L14.1416 1.39661C13.6146 0.77447 13.018 0.500061 12.1642 0.500061ZM12.1642 2.00006C12.5467 2.00006 12.7274 2.0696 12.9424 2.30399L12.997 2.36607C12.9977 2.36697 13.4561 2.9377 13.6624 3.19362C14.1504 3.7989 15.0524 4.15351 15.9286 4.15351H16.2521C17.593 4.15351 18.5021 5.15857 18.5021 6.84904V14.3031C18.5021 15.6911 17.1457 16.9986 15.5 16.9986H4.35714C2.7448 16.9986 1.5 15.7301 1.5 14.3031V6.84904C1.5 5.15857 2.40919 4.15351 3.75 4.15351H3.92857C4.80473 4.15351 5.70679 3.7989 6.19474 3.19362L6.86019 2.36607C7.10106 2.08168 7.27852 2.00006 7.69298 2.00006H12.1642ZM10 5.75006C7.65279 5.75006 5.75 7.65285 5.75 10.0001C5.75 12.3473 7.65279 14.2501 10 14.2501C12.3472 14.2501 14.25 12.3473 14.25 10.0001C14.25 7.65285 12.3472 5.75006 10 5.75006ZM10 7.25006C11.5188 7.25006 12.75 8.48128 12.75 10.0001C12.75 11.5188 11.5188 12.7501 10 12.7501C8.48122 12.7501 7.25 11.5188 7.25 10.0001C7.25 8.48128 8.48122 7.25006 10 7.25006Z" fill="#A09BAE"/>
</svg>
