<svg width="28" height="27" viewBox="0 0 28 27" fill="none" xmlns="http://www.w3.org/2000/svg">
<g clip-path="url(#clip0_3990_4196)">
<path d="M27.3113 22.1023C27.1743 22.6024 26.9383 23.0379 26.4828 23.3179C25.9568 23.6404 25.4069 23.6597 24.8284 23.4568C23.436 22.9694 22.0356 22.5 20.6459 22.0133C20.5571 21.9785 20.462 21.9629 20.3668 21.9675C20.2716 21.972 20.1784 21.9967 20.0933 22.0398C18.7679 22.658 17.3324 23.0052 15.871 23.0612C15.6828 23.0685 15.5717 23.1456 15.456 23.2866C13.4858 25.6977 10.9464 26.7583 7.84842 26.4478C7.02788 26.3653 6.23992 26.1279 5.47856 25.8041C5.34373 25.7527 5.19559 25.7478 5.05765 25.7901C4.0762 26.114 3.10471 26.4684 2.12193 26.7876C1.08794 27.12 0.0818814 26.3746 0.135077 25.3247C0.152135 25.1311 0.195308 24.9408 0.263414 24.7588C0.565299 23.8631 0.868507 22.9681 1.18901 22.0791C1.23069 21.9704 1.25016 21.8544 1.24628 21.738C1.24239 21.6216 1.21523 21.5072 1.1664 21.4015C0.155026 18.908 0.269397 16.4663 1.54941 14.0931C2.07395 13.1252 2.79404 12.277 3.66393 11.6022C3.72391 11.5602 3.77233 11.5038 3.80476 11.4381C3.83718 11.3725 3.85254 11.2997 3.84945 11.2266C3.96914 6.02536 7.80054 1.43925 12.9 0.387976C18.5919 -0.788309 24.1575 2.28638 26.1224 7.74424C27.1597 10.6234 27.0194 13.492 25.7899 16.2974C25.7341 16.4093 25.702 16.5315 25.6959 16.6564C25.6897 16.7812 25.7095 16.906 25.754 17.0229C26.2733 18.5063 26.7714 19.9978 27.2774 21.486C27.282 21.5006 27.3 21.5119 27.3113 21.5245V22.1023ZM15.1681 1.74778C14.94 1.7644 14.5338 1.78036 14.1301 1.82491C12.5935 1.98881 11.1215 2.53118 9.84591 3.40348C7.95747 4.68682 6.63024 6.41236 5.92873 8.59537C5.38807 10.2795 5.31275 12.0786 5.71073 13.802C6.10871 15.5255 6.96519 17.1094 8.18953 18.386C9.85654 20.1241 11.8919 21.1388 14.2817 21.4068C16.1574 21.6249 18.0556 21.2795 19.7343 20.4147C19.8972 20.3276 20.0771 20.2771 20.2615 20.2666C20.446 20.2562 20.6305 20.2861 20.8022 20.3542C22.1593 20.833 23.5218 21.2958 24.8823 21.7639C25.0744 21.8304 25.2659 21.8969 25.4614 21.9541C25.6257 22.0006 25.6988 21.9202 25.6716 21.7579C25.6526 21.6715 25.6268 21.5868 25.5944 21.5046C25.078 20.0018 24.56 18.4995 24.0404 16.9976C23.984 16.8537 23.9594 16.6993 23.9683 16.5451C23.9773 16.3908 24.0196 16.2403 24.0923 16.1039C24.8316 14.6629 25.2031 13.0613 25.1735 11.442C25.1439 9.8226 24.7142 8.23571 23.9227 6.82263C23.0569 5.25765 21.779 3.9597 20.2277 3.06968C18.7202 2.19528 17.0898 1.75842 15.1681 1.74778ZM1.83135 25.1704C1.95104 25.1338 2.03083 25.1112 2.11262 25.084C2.98968 24.7827 3.87206 24.4988 4.73981 24.1737C5.178 24.0088 5.55769 24.036 5.98192 24.2328C7.97343 25.1578 9.9656 25.1192 11.9338 24.1524C12.533 23.8614 13.0774 23.4691 13.543 22.9927C8.34446 21.8557 5.15341 18.7118 3.94587 13.4887C3.90797 13.5472 3.87937 13.5931 3.85011 13.635C3.65994 13.8783 3.45115 14.1104 3.27959 14.3664C2.30966 15.8147 1.94705 17.4036 2.19175 19.1334C2.28789 19.8347 2.50168 20.5147 2.82411 21.1448C2.9091 21.295 2.95802 21.4628 2.96703 21.6351C2.97603 21.8074 2.94485 21.9794 2.87597 22.1376C2.76492 22.4036 2.68048 22.6862 2.58606 22.9615C2.33803 23.6856 2.09134 24.409 1.83135 25.1704Z" fill="black"/>
<path d="M15.3423 10.6417C16.9076 10.6417 18.4724 10.6417 20.0368 10.6417C20.5834 10.6417 20.9478 10.9801 20.9418 11.4642C20.9416 11.6469 20.8778 11.8239 20.7613 11.9647C20.6448 12.1055 20.4829 12.2012 20.3034 12.2355C20.1819 12.2572 20.0585 12.2672 19.9351 12.2655C16.8586 12.2655 13.7821 12.2655 10.7057 12.2655C10.5734 12.2675 10.4413 12.2562 10.3114 12.2316C10.1401 12.1923 9.98661 12.0975 9.87469 11.9621C9.76277 11.8266 9.6987 11.658 9.69241 11.4824C9.68612 11.3068 9.73796 11.134 9.8399 10.9909C9.94184 10.8478 10.0882 10.7423 10.2562 10.6909C10.393 10.6563 10.5339 10.6402 10.6751 10.643C12.2311 10.6404 13.7868 10.6399 15.3423 10.6417Z" fill="black"/>
<path d="M15.3129 8.93689C13.7304 8.93689 12.1485 8.93689 10.5659 8.93689C9.94883 8.93689 9.55386 8.42688 9.73605 7.87764C9.7771 7.73645 9.8585 7.61031 9.97025 7.51475C10.082 7.41918 10.2192 7.35835 10.3651 7.33971C10.4876 7.32285 10.6112 7.31596 10.7348 7.3191C13.7935 7.3191 16.8523 7.3191 19.911 7.3191C20.0171 7.31763 20.1233 7.32252 20.2289 7.33372C20.4289 7.35307 20.614 7.44797 20.7464 7.59908C20.8789 7.75019 20.9487 7.94613 20.9417 8.14695C20.9389 8.34813 20.8602 8.54081 20.7213 8.68643C20.5825 8.83205 20.3938 8.91986 20.1929 8.93225C19.9728 8.94754 19.7508 8.93822 19.528 8.93822L15.3129 8.93689Z" fill="black"/>
<path d="M27.4095 21.4292L27.3955 21.4152C27.2581 21.0109 27.1209 20.6064 26.9839 20.2017C26.6262 19.1424 26.2525 18.0473 25.8795 16.9734C25.8406 16.8722 25.8234 16.764 25.8289 16.6558C25.8344 16.5476 25.8625 16.4417 25.9114 16.345C27.1688 13.4765 27.2818 10.566 26.2478 7.69344C25.4479 5.43708 23.9669 3.48489 22.0094 2.10671C20.052 0.728519 17.7148 -0.0076112 15.3208 5.93416e-05C14.4985 0.000999318 13.6784 0.0854394 12.8732 0.252075C10.377 0.768071 8.07961 2.15714 6.40462 4.16261C4.72963 6.16807 3.77677 8.67556 3.71626 11.2216C3.72007 11.275 3.70979 11.3285 3.68645 11.3767C3.66311 11.4249 3.62753 11.4661 3.58327 11.4962C2.69908 12.1823 1.96703 13.0446 1.43351 14.0283C0.146185 16.4148 0.015193 18.9117 1.04452 21.4498C1.08743 21.5404 1.11139 21.6387 1.11494 21.7389C1.11848 21.8391 1.10153 21.9389 1.06513 22.0323C0.75128 22.9013 0.46004 23.7611 0.138873 24.7146C0.067577 24.9072 0.0228363 25.1085 0.00588406 25.3131C-0.00678188 25.5292 0.0250403 25.7457 0.0993835 25.949C0.173727 26.1524 0.289009 26.3383 0.438097 26.4954C0.591462 26.6548 0.775508 26.7815 0.97915 26.8679C1.18279 26.9543 1.40181 26.9986 1.62302 26.9981C1.80777 26.9977 1.99131 26.9683 2.16695 26.9109C2.6989 26.7381 3.24282 26.5512 3.76281 26.3704C4.20034 26.2187 4.65316 26.0625 5.10001 25.9149C5.1487 25.9 5.19937 25.8926 5.25028 25.8929C5.31076 25.8919 5.37086 25.9027 5.42715 25.9248C6.2816 26.2879 7.06957 26.502 7.83625 26.5785C8.18999 26.6137 8.54175 26.6317 8.88087 26.6317C11.5406 26.6317 13.7908 25.5338 15.5602 23.3695C15.6639 23.2425 15.7444 23.1979 15.8774 23.1926C17.3562 23.1347 18.8087 22.7832 20.1503 22.1586C20.2271 22.1205 20.3113 22.0998 20.397 22.0981C20.4674 22.0994 20.5372 22.1126 20.6031 22.1373C21.2847 22.3754 21.9796 22.6134 22.6512 22.8442C23.3513 23.0842 24.0755 23.3322 24.7856 23.5809C25.0309 23.6701 25.2894 23.7173 25.5503 23.7206C25.9052 23.7193 26.2527 23.6184 26.553 23.4293C26.9906 23.1633 27.2725 22.7497 27.4407 22.136C27.444 22.1245 27.4455 22.1127 27.4454 22.1008V21.5169C27.4446 21.4843 27.4318 21.453 27.4095 21.4292ZM11.8751 24.0337C10.8777 24.5225 9.86964 24.7698 8.87289 24.7698C7.89111 24.7609 6.92324 24.5366 6.03757 24.1129C5.8059 23.9987 5.55176 23.9373 5.29351 23.9333C5.0886 23.9354 4.88579 23.9748 4.69506 24.0497C4.07666 24.2811 3.43831 24.4965 2.82125 24.704L2.07119 24.958L2.04327 24.968L2.17226 24.5883L2.71353 23.0051C2.74013 22.9293 2.76539 22.8535 2.79 22.777C2.85649 22.5815 2.92298 22.378 3.00078 22.1885C3.0769 22.0126 3.11139 21.8215 3.10159 21.63C3.09179 21.4386 3.03795 21.252 2.94426 21.0847C2.62927 20.4672 2.42002 19.8012 2.3252 19.1145C2.08582 17.4269 2.44489 15.8563 3.38911 14.4406C3.49949 14.275 3.63048 14.1155 3.75748 13.9605C3.79938 13.9087 3.84193 13.8575 3.88316 13.8049C4.50355 16.2965 5.6027 18.3352 7.15268 19.8679C8.70266 21.4006 10.768 22.4838 13.2748 23.0689C12.8593 23.4589 12.3875 23.7842 11.8751 24.0337ZM25.5423 21.8348C25.5268 21.834 25.5114 21.8313 25.4964 21.8268C25.3382 21.7822 25.1786 21.7264 25.0243 21.6732L24.9253 21.6386L23.8979 21.2862C22.8965 20.9424 21.8605 20.5873 20.8452 20.2289C20.6776 20.1669 20.5005 20.1343 20.3219 20.1325C20.0955 20.1347 19.873 20.191 19.6729 20.2968C18.3478 20.9778 16.8798 21.3342 15.39 21.3367C15.025 21.3362 14.6602 21.3156 14.2975 21.2749C11.9536 21.0089 9.93147 20.0115 8.2864 18.294C7.07796 17.0351 6.23259 15.4728 5.83984 13.7726C5.4471 12.0724 5.52163 10.2976 6.05553 8.63634C6.73576 6.5185 8.03573 4.79497 9.92084 3.51628C11.1789 2.65725 12.6299 2.12251 14.1446 1.95964C14.4338 1.92773 14.7211 1.91111 14.9518 1.89781C15.0356 1.89249 15.11 1.8885 15.1719 1.88385C17.0337 1.89449 18.6668 2.32137 20.159 3.18779C21.6885 4.06718 22.9491 5.34731 23.8048 6.8902C24.586 8.284 25.0101 9.84943 25.0393 11.4469C25.0685 13.0444 24.702 14.6243 23.9724 16.0458C23.892 16.1982 23.8451 16.3661 23.8349 16.5381C23.8247 16.7101 23.8514 16.8823 23.9132 17.0432C24.3162 18.1995 24.7205 19.3778 25.1101 20.5169L25.4652 21.5495L25.4838 21.6027C25.5066 21.6607 25.5244 21.7206 25.537 21.7816C25.5411 21.799 25.5428 21.8169 25.5423 21.8348Z" fill="black"/>
<path d="M20.0368 10.5086C19.3546 10.5086 18.6719 10.5086 17.9888 10.5086H13.3242C12.4411 10.5086 11.5579 10.5086 10.6744 10.5086C10.5215 10.5057 10.369 10.5236 10.2209 10.5618C10.0258 10.6223 9.85599 10.7453 9.73768 10.9118C9.61938 11.0783 9.55913 11.2792 9.56624 11.4833C9.57335 11.6875 9.64741 11.8836 9.77701 12.0415C9.90661 12.1994 10.0846 12.3103 10.2834 12.3571C10.4225 12.3843 10.564 12.3967 10.7056 12.3943C12.2572 12.3943 13.8103 12.3943 15.3649 12.3943H19.935C20.0672 12.3968 20.1994 12.3858 20.3294 12.3618C20.5388 12.3215 20.7277 12.2096 20.8636 12.0454C20.9996 11.8811 21.0743 11.6747 21.0748 11.4614C21.079 11.3398 21.0585 11.2186 21.0146 11.1052C20.9708 10.9917 20.9044 10.8883 20.8194 10.8011C20.7148 10.7031 20.5917 10.6267 20.4574 10.5765C20.3231 10.5263 20.1801 10.5032 20.0368 10.5086Z" fill="black"/>
<path d="M10.5653 9.06691C11.248 9.06691 11.9305 9.06691 12.6127 9.06691H19.5321H19.7136H19.8978C20.0168 9.06691 20.1139 9.0669 20.2024 9.05759C20.4341 9.04034 20.6512 8.93744 20.8113 8.76892C20.9713 8.60041 21.0629 8.37834 21.0683 8.14599C21.0736 7.91363 20.9922 7.68761 20.84 7.51196C20.6878 7.33631 20.4757 7.2236 20.2449 7.19577C20.1345 7.18414 20.0235 7.17903 19.9125 7.18048H10.7362C10.6053 7.17707 10.4743 7.18464 10.3446 7.20309C10.1751 7.22579 10.0159 7.29708 9.88607 7.40835C9.75627 7.51963 9.66148 7.66613 9.61315 7.83012C9.56468 7.96773 9.54988 8.11495 9.57001 8.25944C9.59014 8.40394 9.64461 8.54151 9.72885 8.66063C9.82599 8.78992 9.95253 8.89422 10.098 8.96487C10.2435 9.03552 10.4037 9.0705 10.5653 9.06691Z" fill="black"/>
<path d="M16.4273 13.8458C16.0616 13.8458 15.666 13.8418 15.1805 13.8418H14.3307H13.4996H13.4816H11.7727C11.3698 13.8418 10.9666 13.8418 10.5632 13.8418C9.98469 13.8418 9.56179 14.2354 9.55713 14.7727C9.5543 14.8935 9.57566 15.0136 9.61997 15.126C9.66428 15.2383 9.73064 15.3407 9.81513 15.427C9.91266 15.5215 10.0281 15.5956 10.1546 15.6449C10.2811 15.6942 10.4161 15.7178 10.5519 15.7143C11.4021 15.7143 12.2528 15.7143 13.1039 15.7143C14.1896 15.7143 15.2756 15.7143 16.3621 15.7143C16.4911 15.7168 16.6197 15.6979 16.7425 15.6584C16.9539 15.588 17.1331 15.4441 17.2475 15.2529C17.3618 15.0616 17.4038 14.8357 17.3657 14.6161C17.3276 14.3966 17.2121 14.1979 17.04 14.0563C16.8679 13.9147 16.6508 13.8396 16.428 13.8445L16.4273 13.8458Z" fill="black"/>
<path d="M13.4851 13.9764C14.4665 13.9764 15.448 13.9711 16.4295 13.9764C16.621 13.9709 16.8082 14.0345 16.9568 14.1556C17.1053 14.2766 17.2053 14.4472 17.2385 14.6359C17.2717 14.8247 17.2358 15.0191 17.1374 15.1836C17.039 15.3481 16.8847 15.4716 16.7027 15.5317C16.5935 15.5662 16.4794 15.5826 16.365 15.5803C14.4286 15.5829 12.4921 15.5829 10.5553 15.5803C10.044 15.5803 9.69092 15.2365 9.69092 14.7724C9.69092 14.3082 10.054 13.9744 10.5647 13.9744C11.5375 13.9704 12.5103 13.9744 13.4824 13.9744L13.4851 13.9764Z" fill="black"/>
</g>
<defs>
<clipPath id="clip0_3990_4196">
<rect width="27.4442" height="27" fill="white"/>
</clipPath>
</defs>
</svg>
