<svg width="375" height="797" viewBox="0 0 375 797" fill="none" xmlns="http://www.w3.org/2000/svg">
<path d="M31.7578 91.0936C35.0614 99.644 39.958 107.432 42.8809 116.093C45.1605 122.847 46.6655 129.689 48.1121 136.632C49.2533 142.11 49.5988 147.93 49.5988 153.537" stroke="#FC63AB" stroke-opacity="0.1" stroke-width="10.6703" stroke-linecap="round" stroke-linejoin="round"/>
<path d="M8.14877 115.938C8.14877 125.487 7.72707 135.098 9.13993 144.572C10.0246 150.504 11.1223 156.063 11.1223 162.083C11.1223 162.729 11.441 171.797 13.1046 168.47" stroke="#FC63AB" stroke-opacity="0.1" stroke-width="10.6703" stroke-linecap="round" stroke-linejoin="round"/>
<path d="M31.9355 251.728C40.6614 260.283 50.1211 268.03 58.8072 276.618C61.6444 279.422 64.3933 283.278 67.6176 285.428" stroke="#FC63AB" stroke-opacity="0.1" stroke-width="10.6703" stroke-linecap="round" stroke-linejoin="round"/>
<path d="M236.115 384.545C233.778 387.4 229.857 391.256 226.203 392.474" stroke="#FC63AB" stroke-opacity="0.1" stroke-width="10.6703" stroke-linecap="round" stroke-linejoin="round"/>
<path d="M190.521 413.289C190.521 429.841 188.642 446.222 188.538 462.737C188.526 464.782 187.982 481.462 189.53 480.688" stroke="#FC63AB" stroke-opacity="0.1" stroke-width="10.6703" stroke-linecap="round" stroke-linejoin="round"/>
<path d="M410.56 556.017C391.386 556.017 372.22 556.017 353.072 556.017" stroke="#FC63AB" stroke-opacity="0.1" stroke-width="10.6703" stroke-linecap="round" stroke-linejoin="round"/>
<path d="M-1.76562 477.715C5.25973 484.953 15.7056 493.335 18.8286 503.485C19.2981 505.011 19.0238 505.009 20.0401 503.485" stroke="#FC63AB" stroke-opacity="0.1" stroke-width="10.6703" stroke-linecap="round" stroke-linejoin="round"/>
<path d="M36.8906 497.538C43.4501 503.91 51.2778 508.952 57.7051 515.379" stroke="#FC63AB" stroke-opacity="0.1" stroke-width="10.6703" stroke-linecap="round" stroke-linejoin="round"/>
<path d="M107.264 711.63C108.941 712.468 120.286 720.55 120.149 720.55" stroke="#FC63AB" stroke-opacity="0.1" stroke-width="10.6703" stroke-linecap="round" stroke-linejoin="round"/>
<path d="M34.9062 682.887C42.6172 701.318 55.2029 720.624 56.6569 740.98C56.954 745.141 56.7119 737.316 56.7119 736.41" stroke="#FC63AB" stroke-opacity="0.1" stroke-width="10.6703" stroke-linecap="round" stroke-linejoin="round"/>
<path d="M12.1123 705.683C8.14622 720.847 7.78288 738.106 12.1123 753.259" stroke="#FC63AB" stroke-opacity="0.1" stroke-width="10.6703" stroke-linecap="round" stroke-linejoin="round"/>
<path d="M312.435 633.328C318.331 634.376 323.753 635.08 323.338 627.821C323.097 623.597 317.809 619.562 313.922 619.562C306.11 619.562 296.227 627.796 290.299 632.282C283.091 637.737 280.477 645.542 287.987 651.719C294.95 657.448 309.1 657.443 317.391 655.684C328.165 653.399 340.663 638.119 337.16 626.775C332.078 610.321 318.314 596.642 300.927 595.333C290.079 594.517 273.826 597.254 266.842 606.566" stroke="#FC63AB" stroke-opacity="0.1" stroke-width="10.6703" stroke-linecap="round" stroke-linejoin="round"/>
<path d="M315.409 46.5567C316.564 39.298 314.85 29.2074 307.26 25.7422C301.203 22.9769 291.217 35.4788 287.767 38.9577C279.38 47.4135 274.053 57.5754 279.948 69.2434C285.301 79.8412 302.773 83.0935 313.207 81.2475C327.636 78.6947 340.867 67.4543 339.968 52.1733C339.593 45.789 337.211 39.4185 335.783 33.231C334.301 26.8078 333.375 19.9649 330.497 13.9583C325.496 3.52049 308.038 6.7835 299.441 9.33284C284.291 13.8249 269.488 18.6714 253.957 21.7775" stroke="#FC63AB" stroke-opacity="0.1" stroke-width="10.6703" stroke-linecap="round" stroke-linejoin="round"/>
<path d="M-52.4107 360.571C-46.3992 361.995 -28.3729 368.731 -32.5671 356.428C-35.57 347.619 -42.6267 339.511 -52.4652 339.147C-61.4444 338.814 -74.194 343.131 -80.1046 349.886C-92.4479 363.993 -74.7644 372.612 -62.7687 376.381C-48.477 380.871 -28.6697 385.951 -15.2856 376.49C-0.253402 365.863 -3.42329 345.98 -15.4492 334.24C-30.1589 319.881 -50.7494 322.793 -69.6376 322.083C-73.4232 321.941 -82.3064 323.087 -84.793 319.357" stroke="#FC63AB" stroke-opacity="0.1" stroke-width="10.6703" stroke-linecap="round" stroke-linejoin="round"/>
<path d="M342.062 471.456C342.892 463.253 341.232 453.337 332.195 450.413C323.975 447.754 315.84 452.934 309.407 457.882C300.736 464.552 284.869 482.193 292.017 494.571C300.25 508.828 337.856 502.974 340.481 486.175C341.419 480.171 335.221 474.084 331.595 470.039C328.553 466.645 323.992 458.7 319.493 458.7" stroke="#FC63AB" stroke-opacity="0.1" stroke-width="10.6703" stroke-linecap="round" stroke-linejoin="round"/>
<path d="M64.3601 394.916C76.2037 391.732 88.8969 389.08 101.213 388.756C106.607 388.614 93.6079 398.074 92.7082 398.732C85.015 404.358 76.924 409.623 68.8304 414.651C66.7331 415.954 60.7094 418.504 63.0517 419.285C70.7146 421.839 82.5473 419.934 90.5276 420.211C94.6113 420.353 100.865 419.633 104.865 421.411C105.589 421.733 97.7077 425.65 97.1785 425.881C94.6484 426.987 80.5111 430.524 86.0573 434.222C89.5644 436.56 99.2269 438.977 94.3437 442.999C87.9207 448.288 103.635 453.501 106.337 454.883C112.546 458.059 109.044 458.017 111.462 461.643" stroke="#FC63AB" stroke-opacity="0.1" stroke-width="10.6703" stroke-linecap="round" stroke-linejoin="round"/>
<path d="M284.168 277.162C293.063 278.199 301.951 279.297 310.881 279.997C315.435 280.354 320.846 280.004 325.218 281.578C327.475 282.391 318.169 287.383 317.531 287.738C308.099 292.997 297.606 295.938 287.93 300.659C278.958 305.035 295.422 303.636 297.47 303.602C307.357 303.438 317.241 303.134 327.126 302.894C327.585 302.882 335.994 302.676 338.029 302.676C338.651 302.676 339.47 302.429 339.883 302.894C341.15 304.32 336.3 304.251 334.431 304.638C326.211 306.341 318.063 308.495 310.008 310.853C307.922 311.464 285.181 317.591 290.982 320.884C301.168 326.665 337.186 325.914 325.545 327.208C322.085 327.592 308.852 326.359 306.955 330.151C306.389 331.285 310.554 332.311 310.554 334.077C310.554 337.472 305.085 339.121 304.012 342.145C302.208 347.229 318.387 349.118 320.693 349.777C328.826 352.101 324.499 351.702 318.622 352.339C316.671 352.551 299.925 353.712 300.904 358.118C301.293 359.868 310.851 362.406 312.625 363.515" stroke="#FC63AB" stroke-opacity="0.1" stroke-width="10.6703" stroke-linecap="round" stroke-linejoin="round"/>
<path d="M302.685 799.19C303.38 787.294 304.032 775.392 304.385 763.48C304.461 760.933 304.581 756.789 304.385 754.021C304.385 754.017 304.167 749.12 303.004 749.663C300.707 750.735 298.523 756.637 297.371 758.697C294.197 764.371 291 769.953 287.593 775.489C285.063 779.6 280.301 793.05 280.738 788.243C281.626 778.469 282.703 768.045 281.429 758.272C280.552 751.552 268.377 772.063 267.24 773.895C264.382 778.5 261.653 783.353 258.419 787.712C255.579 791.539 256.589 780.109 256.559 779.422C256.16 770.254 255.669 761.074 254.221 752.001C253.455 747.209 253.132 734.712 249.544 730.798C249.099 730.313 232.293 763.963 231.317 766.615C230.205 769.638 228.845 778.907 228.182 775.755C226.891 769.625 228.578 762.013 228.819 755.827C228.883 754.205 230.655 733.141 227.225 740.151C221.119 752.628 215.588 765.269 209.901 777.934C208.79 780.41 208.793 776.338 208.732 775.808C207.677 766.599 206.505 757.394 205.119 748.228C204.104 741.517 203.08 734.832 202.302 728.088C202.043 725.844 201.909 723.166 199.911 725.962C192.973 735.676 186.783 746.211 179.027 755.296C171.875 763.674 173.395 750.735 173.766 745.731C174.472 736.197 176.016 726.209 178.336 716.929" stroke="#28D99C" stroke-opacity="0.1" stroke-width="10.6703" stroke-linecap="round" stroke-linejoin="round"/>
<path d="M92.2518 591.623C78.9303 592.511 65.3242 592.839 52.0775 594.705C45.7873 595.591 51.3331 597.412 54.4157 598.319C70.881 603.162 87.4826 607.645 104.155 611.71C111.401 613.477 118.844 614.906 125.943 617.237C126.826 617.527 128.644 619.109 127.75 619.362C121.642 621.096 114.141 621.204 107.981 621.754C94.6772 622.94 81.357 623.67 68.0197 624.358C56.0684 624.974 44.0701 625.372 32.1498 626.483C30.2672 626.659 25.4405 626.54 26.6763 627.971C31.1272 633.125 43.999 634.581 50.0582 636.261C51.1528 636.565 65.5254 640.497 63.1307 641.15C61.2722 641.657 56.9094 642.031 61.1114 643.913C72.0363 648.807 84.5378 649.659 96.1842 651.672C97.6129 651.919 111.257 652.742 104.049 654.967C98.999 656.525 93.3014 656.417 88.4256 658.368C86.6962 659.059 73.5614 663.712 73.9714 664.532C75.3937 667.376 81.9824 668.8 84.5995 669.527C86.3285 670.007 97.7994 671.78 93.2083 672.928" stroke="#28D99C" stroke-opacity="0.1" stroke-width="10.6703" stroke-linecap="round" stroke-linejoin="round"/>
<path d="M167.817 518.927C165.052 528.607 159.626 538.989 158.305 548.898C157.873 552.141 167.465 545.408 167.499 545.391C183.829 536.923 200.155 528.443 216.76 520.521C219.411 519.256 222.384 515.588 224.89 517.12C227.186 518.523 221.628 521.427 219.683 523.284C208.286 534.168 194.563 543.891 185.141 556.657C181.68 561.346 198.534 550.127 199.595 549.483C208.383 544.147 218.242 537.896 228.398 535.507C232.367 534.573 226.227 541.595 226.166 541.671C221.054 547.944 212.836 553.565 208.842 560.589C207.515 562.922 223.443 557.923 224.89 557.294C232.839 553.843 253.633 538.285 247.422 544.328C243.782 547.869 227.052 567.011 240.195 566.753C247.311 566.614 255.167 565.379 261.876 562.927C264.503 561.967 261.573 561.971 260.601 561.971" stroke="#28D99C" stroke-opacity="0.1" stroke-width="10.6703" stroke-linecap="round" stroke-linejoin="round"/>
<path d="M193.643 134.401C193.643 146.445 193.561 158.496 193.856 170.537C194.005 176.634 193.873 194.434 195.981 188.711C197.712 184.014 197.05 177.138 197.629 172.29C198.966 161.088 201.204 149.824 204.697 139.078C205.943 135.242 207.254 133.51 208.204 138.334C210.946 152.256 209.789 167.066 209.957 181.165C210.069 190.454 210.557 199.726 210.808 209.011C211.024 217.022 213.435 209.107 215.112 205.716C220.213 195.403 224.877 184.914 229.46 174.363C230.91 171.025 232.951 166.239 234.562 162.778C235.348 161.087 236.926 156.133 237.378 157.942C238.065 160.691 234.856 167.974 234.296 170.484C232.577 178.179 230.784 185.93 229.46 193.706C228.778 197.712 230.852 194.093 232.011 192.856C240.653 183.63 250.128 175.182 258.953 166.126C264.827 160.099 270.5 153.811 276.649 148.058C278.707 146.133 273.403 158.533 272.929 159.909C271.554 163.897 260.009 207.036 263.257 207.469C265.465 207.764 270.263 200.785 271.229 199.552C275.973 193.489 279.588 186.84 282.601 179.783C283.743 177.108 284.408 176.077 282.919 179.89C280.86 185.164 278.077 190.124 276.064 195.407C275.65 196.494 274.102 199.853 276.649 198.223C281.832 194.906 286.396 190.315 290.891 186.16C292.883 184.319 296.838 178.142 297.055 180.846C297.349 184.521 293.439 190.746 292.219 194.078C291.753 195.351 288.682 201.247 289.509 202.899C289.683 203.249 296.555 196.552 296.842 196.257C300.404 192.59 303.621 188.709 306.301 184.353C309.041 179.901 308.158 183.561 307.417 186.585C306.677 189.609 303.359 196.504 307.47 197.532" stroke="#28D99C" stroke-opacity="0.1" stroke-width="10.6703" stroke-linecap="round" stroke-linejoin="round"/>
<path d="M92.2506 92.3141C87.0738 91.435 81.9087 90.4911 76.7335 89.6039C68.6535 88.2187 78.0495 90.6298 79.2311 90.9324C84.7851 92.3548 90.3955 93.8675 96.0236 94.9711C100.649 95.8781 97.7773 93.377 95.8641 91.7827C88.4793 85.6286 77.5713 83.9974 70.6755 77.5941C68.5787 75.6471 76.1721 75.8659 79.0186 75.5748C83.4698 75.1195 89.1902 75.2972 93.2602 73.0772C94.8593 72.2049 95.256 70.9896 93.7385 69.7825C93.4795 69.5764 89.9069 67.8921 90.6564 67.8694C93.5941 67.7804 111.646 70.3114 110.106 65.7438C108.118 59.8489 101.313 55.3324 96.2893 52.4586C84.3761 45.6441 71.2636 41.2727 58.3469 36.8353C49.0419 33.6387 49.441 33.4972 53.0328 26.3135" stroke="#28D99C" stroke-opacity="0.1" stroke-width="10.6703" stroke-linecap="round" stroke-linejoin="round"/>
<path d="M72.1621 512.231C84.6843 521.711 101.796 531.372 110.423 544.966C111.324 546.385 113.178 551.449 114.249 551.449" stroke="#28D99C" stroke-opacity="0.1" stroke-width="10.6703" stroke-linecap="round" stroke-linejoin="round"/>
<circle cx="383.873" cy="446.607" r="16.0054" fill="#28D99C" fill-opacity="0.1"/>
<circle cx="159.315" cy="450.972" r="15.0354" fill="#28D99C" fill-opacity="0.1"/>
<path d="M294.117 96.8777C282.295 99.1512 270.344 101.118 258.668 104.087C258.204 104.205 253.618 105.315 254.975 105.993" stroke="#8E5AFE" stroke-opacity="0.1" stroke-width="10.6703" stroke-linecap="round" stroke-linejoin="round"/>
<path d="M194.92 264.172C209.5 265.323 224.256 266.317 238.888 266.317" stroke="#8E5AFE" stroke-opacity="0.1" stroke-width="10.6703" stroke-linecap="round" stroke-linejoin="round"/>
<path d="M273.207 240.043C280.18 239.66 287.141 239.22 294.119 238.97" stroke="#8E5AFE" stroke-opacity="0.1" stroke-width="10.6703" stroke-linecap="round" stroke-linejoin="round"/>
<path d="M375.621 152.642C379.167 163.168 385.771 172.244 389.562 182.669" stroke="#8E5AFE" stroke-opacity="0.1" stroke-width="10.6703" stroke-linecap="round" stroke-linejoin="round"/>
<path d="M166.109 51.2608C176.857 52.9805 187.612 54.6584 198.535 54.4442C202.182 54.3727 204.139 53.8001 206.642 51.2978C211.726 46.2132 197.644 44.1445 195.278 43.5615C187.229 41.5785 178.982 40.6122 170.773 39.5637C168.578 39.2833 166.375 39.0658 164.184 38.7494C162.482 38.5035 163.707 38.1808 164.666 37.935C169.242 36.7615 174.244 36.8701 178.917 36.4544C180.044 36.3541 194.888 34.5266 194.501 34.0484C192.193 31.1981 186.876 29.3645 183.655 28.0147C178.525 25.8653 173.188 23.9307 167.886 22.2403C166.658 21.8488 165.98 21.6101 167.96 21.4259C173.256 20.9332 178.717 21.2778 184.025 21.2778C185.458 21.2778 197.732 22.4185 198.461 20.6856C199.503 18.2119 182.505 12.9705 181.582 12.6901C173.84 10.3387 166.019 8.10712 158.188 6.06426C157.076 5.77413 161.101 6.55687 161.445 6.6195" stroke="#8E5AFE" stroke-opacity="0.1" stroke-width="10.6703" stroke-linecap="round" stroke-linejoin="round"/>
<path d="M51.5072 173.192C47.9564 181.815 46.343 190.822 44.178 199.843C44.0327 200.448 43.5117 206.204 43.5117 203.841" stroke="#8E5AFE" stroke-opacity="0.1" stroke-width="10.6703" stroke-linecap="round" stroke-linejoin="round"/>
<path d="M70.1641 206.506C81.346 196.227 92.577 185.009 105.847 177.337C107.01 176.665 107.22 175.652 108.142 175.19" stroke="#8E5AFE" stroke-opacity="0.1" stroke-width="10.6703" stroke-linecap="round" stroke-linejoin="round"/>
<path d="M142.789 143.875C140.751 157.012 140.658 170.351 138.643 183.482C138.455 184.707 136.063 196.512 136.126 196.512" stroke="#8E5AFE" stroke-opacity="0.1" stroke-width="10.6703" stroke-linecap="round" stroke-linejoin="round"/>
<path d="M421.599 281.117C417.881 263.932 414.544 246.273 407.495 230.061C406.529 227.84 405.836 224.577 404.271 227.925C396.285 245.016 398.235 266.597 398.388 284.985C398.394 285.657 398.412 287.671 398.388 287C398.242 282.918 398.102 278.958 397.622 274.871C395.963 260.736 393.094 246.512 388.556 233.002C386.971 228.285 385.952 232.243 384.848 235.46C382.31 242.859 381.446 250.479 379.569 257.986C378.452 262.457 379.207 248.755 378.481 244.205C378.355 243.413 376.796 231.771 375.459 231.874C373.624 232.015 370.699 241.089 370.18 242.271C368.44 246.238 366.657 254.051 362.967 256.818C362.271 257.34 360.817 246.029 360.751 245.655C359.52 238.746 358.703 231.104 356.318 224.459C355.007 220.808 353.486 226.059 355.593 228.167" stroke="#8E5AFE" stroke-opacity="0.1" stroke-width="10.6703" stroke-linecap="round" stroke-linejoin="round"/>
<path d="M262.75 488.566C254.657 480.168 246.703 474.023 235.912 469.707" stroke="#8E5AFE" stroke-opacity="0.1" stroke-width="10.6703" stroke-linecap="round" stroke-linejoin="round"/>
<path d="M375.178 735.907C377.068 744.818 384.061 750.227 386.783 758.393" stroke="#8E5AFE" stroke-opacity="0.1" stroke-width="10.6703" stroke-linecap="round" stroke-linejoin="round"/>
<path d="M136.539 777.252C138.219 762.44 143.067 747.575 143.067 732.643C143.067 729.824 145.983 725.015 142.342 727.929" stroke="#8E5AFE" stroke-opacity="0.1" stroke-width="10.6703" stroke-linecap="round" stroke-linejoin="round"/>
<path d="M107.525 762.02C95.5961 769.475 83.1833 776.181 72.8296 785.795C71.2062 787.302 69.082 790.889 69.082 787.407" stroke="#8E5AFE" stroke-opacity="0.1" stroke-width="10.6703" stroke-linecap="round" stroke-linejoin="round"/>
<path d="M46.5977 796.836C46.8413 785.549 50.2244 775.312 50.2244 764.196" stroke="#8E5AFE" stroke-opacity="0.1" stroke-width="10.6703" stroke-linecap="round" stroke-linejoin="round"/>
<path d="M45.1465 446.495C53.9563 455.42 62.0561 465.468 73.4349 471.157" stroke="#8E5AFE" stroke-opacity="0.1" stroke-width="10.6703" stroke-linecap="round" stroke-linejoin="round"/>
<path d="M166.275 587.938C188.165 595.268 210.077 602.39 232.322 608.569C234.521 609.18 240.963 610.52 238.729 610.987C225.812 613.691 212.17 614.286 199.077 615.541C190.973 616.317 181.441 615.962 173.609 618.402C171.645 619.014 181.577 621.721 182.152 621.867C189.834 623.82 197.676 625.023 205.363 626.945C205.874 627.072 211.006 627.726 208.426 628.96C205.519 630.35 202.093 630.808 198.996 631.619C196.96 632.153 192.63 632.996 196.82 634.319C198.26 634.774 202.717 634.88 201.253 635.246C197.065 636.293 192.342 636.226 188.358 637.986C186.858 638.649 188.047 640.876 186.585 642.338C185.326 643.597 182.495 645.305 185.134 645.965" stroke="#8E5AFE" stroke-opacity="0.1" stroke-width="10.6703" stroke-linecap="round" stroke-linejoin="round"/>
<path d="M349.791 804.815C350.596 804.128 359.219 796.104 359.986 797.561C362.753 802.819 364.038 809.778 365.749 815.453C367.803 822.269 368.503 828.892 369.214 835.924C369.569 839.43 369.957 835.418 370.101 834.554C370.836 830.142 371.467 825.702 371.954 821.256C372.155 819.424 372.277 817.616 372.277 815.775C372.277 813.984 372.461 819.357 372.68 821.135C372.771 821.875 374.393 831.884 375.38 830.967C379.058 827.552 382.266 822.712 384.164 818.072C386.052 813.457 384.553 828.064 385.373 832.982C385.48 833.625 387.067 843.427 388.234 839.873C390.727 832.283 393.119 824.645 395.891 817.146C397.735 812.155 397.824 824.485 398.067 826.091C398.373 828.125 400.431 843.42 403.184 843.258C407.088 843.028 411.056 828.292 412.171 825.124C412.502 824.182 413.513 819.886 413.621 823.674C413.74 827.832 413.764 831.864 414.83 835.924C415.174 837.233 420.084 850.67 420.875 848.255C421.402 846.644 420.973 841.807 422.325 841.807" stroke="#8E5AFE" stroke-opacity="0.1" stroke-width="10.6703" stroke-linecap="round" stroke-linejoin="round"/>
<path d="M258.396 326.814C253.735 320.121 248.626 314.048 243.003 308.116C240.383 305.352 230.356 292.481 225.151 292.481C223.773 292.481 225.478 295.27 226.078 296.51C228.97 302.489 233.049 307.965 236.878 313.355C244.916 324.669 252.201 335.721 257.187 348.735C257.189 348.74 260.056 356.948 259.484 356.472C256.37 353.877 253.516 350.802 250.579 348.01C243.197 340.993 235.954 334.197 227.368 328.667C223.686 326.296 223.58 326.829 223.58 330.843C223.58 336.522 223.816 342.254 223.58 347.929C223.504 349.748 221.886 345.79 221.807 345.673C218.515 340.838 213.714 336.809 209.395 332.939C208.104 331.782 194.825 322.057 195.574 324.678C198.223 333.952 207.47 340.191 211.088 348.977C211.552 350.104 200.855 345.55 200.329 345.35C197.581 344.307 181.266 337.437 179.012 340.716C176.392 344.527 180.567 352.911 181.832 356.633C182.932 359.867 185.915 365.399 183.646 368.803C182.59 370.386 181.167 371.538 181.107 373.639C181.072 374.876 182.077 375.491 180.785 376.137" stroke="#8E5AFE" stroke-opacity="0.1" stroke-width="10.6703" stroke-linecap="round" stroke-linejoin="round"/>
<path d="M17.0161 285.7C4.79976 286.811 -7.51655 286.814 -19.713 288.131C-25.3646 288.741 -19.1081 289.627 -17.0573 290.066C-8.0609 291.991 1.24287 291.937 10.2644 293.712C11.5575 293.966 6.42314 296.142 6.16841 296.233C0.511002 298.245 -5.99181 299.285 -11.0709 302.624C-14.0622 304.591 -3.3199 305.106 -2.69879 305.145C1.52704 305.413 5.78575 305.457 9.99436 305.955C11.1005 306.086 12.9986 306.132 11.2547 307.305C8.13905 309.401 4.66035 310.951 1.35222 312.707C0.81899 312.99 -2.90903 314.358 -1.21342 315.408C7.43316 320.76 18.7364 322.085 28.1789 325.558C29.3623 325.993 39.5965 329.075 37.2936 331.927C34.7238 335.108 30.0353 335.363 26.4009 336.158C25.3741 336.382 17.668 338.316 21.4047 340.726C22.5438 341.461 32.7237 343.174 32.6575 343.472C32.2696 345.217 24.3978 346.812 22.7775 347.478C21.0214 348.199 18.8877 349.187 19.8968 351.349C20.9263 353.555 22.456 355.86 24.3079 357.403" stroke="#8E5AFE" stroke-opacity="0.1" stroke-width="10.6703" stroke-linecap="round" stroke-linejoin="round"/>
<circle cx="10.6574" cy="413.868" r="15.7629" fill="#8E5AFE" fill-opacity="0.1"/>
<circle cx="272.808" cy="415.082" r="14.0653" fill="#8E5AFE" fill-opacity="0.1"/>
<circle cx="125.362" cy="520.329" r="14.0653" fill="#8E5AFE" fill-opacity="0.1"/>
<ellipse cx="292.69" cy="550.157" rx="12.6103" ry="11.3978" fill="#8E5AFE" fill-opacity="0.1"/>
<circle cx="167.074" cy="679.897" r="13.0953" fill="#8E5AFE" fill-opacity="0.1"/>
<circle cx="89.2304" cy="234.9" r="11.8828" fill="#8E5AFE" fill-opacity="0.1"/>
<circle cx="166.83" cy="97.1562" r="11.8828" fill="#8E5AFE" fill-opacity="0.1"/>
<path d="M353.957 82.8807C367.36 84.2515 380.82 84.5334 394.269 85.229C396.943 85.3673 416.209 83.8631 406.206 89.6646C396.475 95.3085 380.446 100.571 373.265 109.625C371.837 111.425 373.83 111.696 375.352 111.712C384.53 111.812 393.687 110.607 402.879 111.19C412.109 111.776 390.734 119.488 400.792 126.193C404 128.332 407.893 128.535 411.424 129.781C412.359 130.111 405.2 132.753 404.314 133.108C398.749 135.334 403.771 134.825 404.836 136.956C405.52 138.324 401.339 140.471 403.792 144.457C406.678 149.147 408.478 152.552 403.271 155.677" stroke="#FCAC63" stroke-opacity="0.1" stroke-width="10.6703" stroke-linecap="round" stroke-linejoin="round"/>
<path d="M14.6313 47.6569C13.0723 49.4994 -0.0984536 67.5495 -4.54619 65.008C-6.21639 64.0536 8.18472 37.7115 9.41295 34.3501C12.9109 24.7768 -0.754769 35.0506 -3.6982 36.5026C-6.47852 37.8743 -22.1245 43.8684 -21.8973 43.6127C-18.3038 39.57 -11.5819 35.4466 -9.69933 30.1754C-9.228 28.8557 -26.0402 33.1124 -28.2898 33.5673C-35.4799 35.0215 -33.0026 31.3169 -30.5076 26.3268C-27.0002 19.3121 -26.2037 14.908 -28.8116 7.73639" stroke="#FCAC63" stroke-opacity="0.1" stroke-width="10.6703" stroke-linecap="round" stroke-linejoin="round"/>
<path d="M182.532 243.737C174.493 254.09 167.452 265.181 159.311 275.439C157.779 277.369 156.29 279.021 155.527 281.309" stroke="#FCAC63" stroke-opacity="0.1" stroke-width="10.6703" stroke-linecap="round" stroke-linejoin="round"/>
<path d="M380.96 405.767C379.036 403.485 365.021 384.555 363.348 392.917C362.702 396.146 363.379 406.737 363.348 406.028C363.038 398.888 353.969 411.462 352.911 412.616C346.869 419.208 349.431 406.186 346.91 401.984C343.931 397.018 341.069 411.054 338.104 410.725C333.859 410.253 334.218 391.992 327.863 401.593C324.234 407.075 320.736 412.895 316.057 417.574C311.779 421.852 310.034 415.945 308.816 412.29C306.13 404.232 307.294 405.173 301.119 409.29" stroke="#FCAC63" stroke-opacity="0.1" stroke-width="10.6703" stroke-linecap="round" stroke-linejoin="round"/>
<path d="M366.012 666.461C380.946 666.922 395.91 667.172 410.847 666.685C411.095 666.677 423.319 665.179 420.325 667.218C405.95 677.005 386.79 677.536 373.19 688.416C370.106 690.884 376.649 690.683 377.284 690.687C387.471 690.761 397.617 690.102 407.791 689.79C413.04 689.629 402.096 692.89 401.005 693.323C400.496 693.525 390.449 697.525 391.921 698.763C394.848 701.225 402.821 700.305 406.333 700.501C407.758 700.581 416.371 699.814 411.913 702.408C408.297 704.512 403.246 705.881 400.36 708.997C398.864 710.614 402.696 713.199 403.585 714.213C404.365 715.102 407.614 718.546 406.165 719.961C403.683 722.385 398.524 721.842 395.454 723.27C395.149 723.411 398.394 724.263 398.874 724.503C399.851 724.992 398.98 726.805 398.818 727.532" stroke="#FCAC63" stroke-opacity="0.1" stroke-width="10.6703" stroke-linecap="round" stroke-linejoin="round"/>
<path d="M15.6681 637.198C11.5363 641.431 6.18608 644.927 1.09087 647.901C-0.5783 648.876 -1.09922 648.729 -1.02436 646.614C-0.935328 644.099 -0.627972 641.596 -0.48918 639.084C-0.140953 632.781 -0.332807 626.452 -0.565633 620.148C-0.739711 615.435 -1.24943 610.854 -1.99278 606.208C-2.08981 605.602 -4.37248 609.286 -4.51576 609.496C-7.11926 613.306 -9.83075 617.01 -12.3396 620.887C-13.1595 622.155 -14.5157 624.542 -13.5628 621.397C-13.0461 619.692 -12.3312 618.055 -11.9318 616.313C-11.3162 613.628 -11.1928 610.802 -11.1928 608.056C-11.1928 605.565 -13.1559 607.598 -14.2127 608.476C-19.0735 612.519 -23.8527 616.314 -29.4143 619.384C-29.9393 619.674 -34.9833 622.535 -35.0974 620.594C-35.314 616.911 -34.3915 613.142 -34.3329 609.445C-34.3238 608.873 -34.2388 608.172 -34.3838 607.61C-34.6042 606.756 -37.0003 608.585 -37.1871 608.693C-38.7156 609.58 -40.2499 610.478 -41.8763 611.178C-42.9488 611.639 -44.9044 612.638 -46.1577 612.325C-48.0827 611.843 -43.8759 599.925 -43.278 598.206" stroke="#FCAC63" stroke-opacity="0.1" stroke-width="10.6703" stroke-linecap="round" stroke-linejoin="round"/>
<path d="M367.604 608.814C367.08 599.005 367.604 589.244 367.604 579.438" stroke="#FCAC63" stroke-opacity="0.1" stroke-width="10.6703" stroke-linecap="round" stroke-linejoin="round"/>
<path d="M68.5332 310.113C80.3798 304.955 92.3833 300.37 104.766 296.655C105.162 296.536 113.042 293.338 109.542 296.154C99.7663 304.02 88.1053 308.886 78.2845 316.525C77.3187 317.276 76.0965 318.533 78.1175 318.762C83.775 319.405 89.913 318.366 95.5161 317.66C100.591 317.021 105.602 316.119 110.644 315.323C113.697 314.841 105.029 317.927 102.128 318.996C96.577 321.041 92.6963 322.442 87.1007 324.673C81.9867 326.712 75.2921 328.696 70.7706 332.087C67.3824 334.628 86.7074 335.789 87.9689 335.827C91.1472 335.924 94.4639 335.913 97.6534 335.827C98.574 335.802 103.281 334.994 104.266 335.76C104.749 336.136 103.205 336.386 102.629 336.595C100.733 337.285 98.8689 337.891 97.2526 339.166C85.9261 348.103 108.832 351.437 114.017 351.923C118.217 352.317 117.059 351.881 122.633 352.19" stroke="#28D99C" stroke-opacity="0.1" stroke-width="10.6703" stroke-linecap="round" stroke-linejoin="round"/>
<circle cx="323.975" cy="705.846" r="13.8228" fill="#FCAC63" fill-opacity="0.1"/>
<circle cx="37.3326" cy="554.037" r="13.8228" fill="#FCAC63" fill-opacity="0.1"/>
<circle cx="153.251" cy="317.836" r="13.8228" fill="#FCAC63" fill-opacity="0.1"/>
<circle cx="-4.37635" cy="229.564" r="12.3678" fill="#FCAC63" fill-opacity="0.1"/>
<circle cx="324.46" cy="119.952" r="12.3678" fill="#FCAC63" fill-opacity="0.1"/>
<path d="M291.367 679.44C280.056 681.496 268.67 683.16 257.397 685.415C256.447 685.605 253.629 686.019 254.495 685.585" stroke="#28D99C" stroke-opacity="0.1" stroke-width="10.6703" stroke-linecap="round" stroke-linejoin="round"/>
<path d="M111.104 124.318C114.553 127.028 117.937 128.936 120.321 132.512" stroke="#FC63AB" stroke-opacity="0.1" stroke-width="10.6703" stroke-linecap="round" stroke-linejoin="round"/>
<path d="M364.084 530.929C355.737 532.478 345.523 533.087 338.023 537.587C334.871 539.478 331.87 540.566 328.236 541.172" stroke="#8E5AFE" stroke-opacity="0.1" stroke-width="10.6703" stroke-linecap="round" stroke-linejoin="round"/>
<path d="M452.166 323.014C453.47 327.458 462.97 348.855 457.743 354.082C456.84 354.984 449.861 344.537 449.037 343.555C443.369 336.808 437.408 330.294 431.568 323.697C428.486 320.216 428.003 323.282 426.789 326.883C424.175 334.631 422.464 342.31 422.464 350.497C422.464 352.958 424.361 360.039 423.261 357.837C421.445 354.205 418.589 350.937 415.693 348.164C409.874 342.593 403.777 337.161 397.826 331.72C394.745 328.903 394.197 329.606 394.241 333.825C394.273 336.75 397.678 360.617 396.745 360.284C392.351 358.715 387.868 357.355 383.487 355.732C378.961 354.056 373.366 350.668 368.409 350.668C365.347 350.668 368.181 357.687 368.181 356.813" stroke="#28D99C" stroke-opacity="0.1" stroke-width="10.6703" stroke-linecap="round" stroke-linejoin="round"/>
</svg>
