<svg width="35" height="35" viewBox="0 0 35 35" fill="none" xmlns="http://www.w3.org/2000/svg">
<g clip-path="url(#clip0_2546_12270)">
<path d="M24.5513 34.9996C24.3476 34.9585 24.1438 34.9203 23.9449 34.8841C23.4767 34.7969 23.0339 34.7147 22.6009 34.5903C18.9479 33.5544 16.1883 30.3153 15.7347 26.5308C15.4207 24.037 16.088 21.5188 17.596 19.5073C19.1177 17.498 21.3573 16.1541 23.847 15.7562C24.3424 15.6744 24.8437 15.6332 25.3458 15.6328C27.627 15.6473 29.8303 16.464 31.5693 17.9397C33.3362 19.4032 34.5111 21.4582 34.8756 23.7226C35.6896 29.0101 32.3599 33.7854 27.1297 34.8282C26.9024 34.8743 26.6653 34.9124 26.4361 34.9506L26.1422 34.9986L24.5513 34.9996ZM25.3771 17.7928C24.381 17.7888 23.3939 17.982 22.4728 18.3613C21.5517 18.7406 20.7149 19.2985 20.0108 20.0028C19.3054 20.7056 18.7466 21.5413 18.3668 22.4616C17.9869 23.3818 17.7935 24.3682 17.7978 25.3637C17.7978 29.4713 21.1804 32.8268 25.334 32.8435H25.3644C27.3501 32.8396 29.2534 32.0495 30.6575 30.6462C32.0617 29.2428 32.8524 27.3406 32.8566 25.3559C32.8566 21.1993 29.518 17.8065 25.4036 17.7928H25.3771Z" fill="black"/>
<path d="M12.8497 31.5396C12.7646 31.5395 12.6798 31.5296 12.597 31.5103C9.87363 30.866 7.52547 29.7145 5.6201 28.0881C3.71473 26.4617 2.21395 24.3409 1.12265 21.752C0.364419 19.9552 0.00783699 18.0194 0 15.6616C0.0293002 12.3385 1.12428 9.11247 3.12402 6.45754C5.14638 3.74317 7.97546 1.73727 11.2069 0.726533C12.7249 0.24545 14.3078 0.000412685 15.9003 0C23.3248 0 29.8844 5.22772 31.4979 12.4304C31.5864 12.7607 31.541 13.1125 31.3715 13.4096C31.2934 13.5274 31.1925 13.6284 31.0747 13.7066C30.957 13.7848 30.8247 13.8386 30.6857 13.8649C30.6101 13.8813 30.5329 13.8899 30.4555 13.8903C29.9569 13.8903 29.5455 13.4987 29.3779 12.8603C28.029 7.6198 24.7531 4.19765 19.6415 2.68975C18.4208 2.32908 17.1546 2.14573 15.8817 2.14533C12.6845 2.15955 9.59214 3.2869 7.13656 5.33347C4.62028 7.4105 2.92991 10.3183 2.37069 13.532C1.7785 16.9212 2.47198 20.4094 4.31561 23.3148C6.15924 26.2203 9.02052 28.3342 12.3403 29.2435C12.4628 29.2768 12.5862 29.3072 12.7096 29.3414C12.8331 29.3757 12.9614 29.4031 13.0819 29.4393C13.3492 29.507 13.5799 29.6753 13.726 29.909C13.872 30.1428 13.9221 30.4239 13.8656 30.6936C13.7422 31.1969 13.3356 31.5396 12.8497 31.5396Z" fill="black"/>
<path d="M12.7743 17.0237C11.7901 17.0237 10.8052 17.0221 9.81974 17.0188C9.65341 17.0254 9.48742 16.9991 9.33126 16.9415C9.1751 16.8838 9.03184 16.796 8.90967 16.683C8.81348 16.5826 8.73858 16.4638 8.68942 16.3337C8.64027 16.2037 8.61789 16.065 8.62362 15.9261C8.62852 15.2936 9.10853 14.8676 9.81876 14.8667H14.8648V13.6055C14.8648 12.9273 14.8648 12.2494 14.8648 11.5718C14.8648 9.9454 14.8648 8.26321 14.8648 6.60941C14.8648 5.98177 15.335 5.49121 15.9297 5.49121C16.0495 5.49167 16.1686 5.51117 16.2823 5.54898C16.7555 5.70663 17.017 6.11787 17.018 6.7083C17.018 8.22404 17.018 9.73946 17.018 11.2545V13.0092C17.018 13.2902 17.018 13.5703 17.018 13.8513C17.018 14.4877 17.018 15.1447 17.018 15.79C17.0131 16.5929 16.5889 17.0179 15.7906 17.0198C14.7881 17.0218 13.7826 17.0231 12.7743 17.0237Z" fill="black"/>
<path d="M25.3243 26.4116C24.6983 26.4057 24.2604 25.9122 24.2584 25.2111C24.2584 23.7747 24.2584 22.5997 24.2584 21.5129C24.2584 20.8274 24.6846 20.3555 25.3145 20.3486H25.3301C25.9659 20.3486 26.4009 20.8147 26.4077 21.508C26.4146 21.9319 26.4126 22.3657 26.4077 22.7809C26.4077 22.9767 26.4077 23.1725 26.4077 23.3684C26.4077 23.5642 26.4077 23.7551 26.4077 23.949C26.4077 24.37 26.4077 24.8048 26.4077 25.2307C26.3979 25.9161 25.9453 26.4126 25.3301 26.4126L25.3243 26.4116Z" fill="black"/>
<path d="M25.3331 30.3075C25.0491 30.3075 24.7766 30.1955 24.5749 29.9958C24.3731 29.7961 24.2583 29.5249 24.2555 29.2412C24.2534 28.9558 24.3646 28.6813 24.5648 28.4779C24.765 28.2745 25.0378 28.1588 25.3233 28.1562C25.6083 28.1585 25.8812 28.2716 26.0842 28.4715C26.2872 28.6715 26.4043 28.9426 26.4107 29.2274C26.4115 29.3674 26.3843 29.506 26.3308 29.6353C26.2773 29.7646 26.1986 29.8819 26.0991 29.9804C26.0007 30.0827 25.8829 30.1643 25.7525 30.2204C25.6221 30.2766 25.4819 30.3062 25.3399 30.3075H25.3331Z" fill="black"/>
</g>
<defs>
<clipPath id="clip0_2546_12270">
<rect width="35" height="35" fill="white"/>
</clipPath>
</defs>
</svg>
