<svg width="70" height="70" viewBox="0 0 70 70" fill="none" xmlns="http://www.w3.org/2000/svg">
<g clip-path="url(#clip0_3997_6891)">
<path d="M24.9516 29.9705C33.0782 29.994 39.7525 23.2329 39.7597 15.1931C39.7597 7.11343 33.1506 0.388541 24.9914 0.36141C16.8321 0.334279 10.1488 7.02481 10.1597 15.1931C10.174 19.1104 11.7375 22.8629 14.5088 25.6316C17.2801 28.4002 21.0342 29.96 24.9516 29.9705ZM24.9859 4.70238C30.9548 4.72047 35.35 9.46118 35.4314 15.1931C35.3066 20.9629 30.8553 25.6476 24.9244 25.6078C19.1473 25.568 14.5206 21.1727 14.5169 15.1297C14.5045 13.7534 14.7672 12.3884 15.2894 11.1148C15.8116 9.84131 16.5829 8.68487 17.5581 7.71343C18.5332 6.74199 19.6926 5.97509 20.9681 5.45772C22.2436 4.94035 23.6096 4.68294 24.9859 4.70057V4.70238Z" fill="#E1DFE7"/>
<path d="M68.8497 55.8245C68.7503 51.337 67.0211 47.555 63.7853 44.462C62.615 43.3442 61.253 42.5104 59.7934 41.8031C56.4472 40.1753 52.9799 39.7502 49.3552 40.5931C47.8086 40.916 46.3287 41.5015 44.9798 42.3241C44.5873 42.561 44.3992 42.5194 44.1152 42.1595C41.6533 39.0495 38.4703 36.5866 34.8418 34.9842C30.7577 33.1429 26.471 32.5442 22.036 33.0778C14.9909 33.9279 9.37479 37.3229 5.14053 42.9409C1.85948 47.2963 0.367269 52.3047 0.383548 57.7598C0.392591 60.6701 0.43781 63.5822 0.363652 66.4888C0.325668 67.9087 0.662094 69.0066 2.01141 69.6397H35.4333C35.6359 69.4262 35.8999 69.5131 36.1369 69.5131C40.004 69.5058 43.8717 69.5058 47.74 69.5131C48.2334 69.44 48.6836 69.1903 49.0069 68.8104C49.3302 68.4305 49.5047 67.9463 49.4981 67.4475C49.5161 66.5919 49.5107 65.7346 49.4981 64.8791C49.4981 64.5698 49.536 64.3364 49.9141 64.3617C55.5211 64.3726 61.1445 64.4052 66.7588 64.378C68.1064 64.378 68.8751 63.2367 68.8624 62.128C68.8461 60.0208 68.895 57.9208 68.8497 55.8245ZM44.4969 65.3095C37.9583 65.2896 31.4179 65.2969 24.8793 65.2969V65.2842C18.4076 65.2842 11.936 65.2842 5.46429 65.2969C4.87465 65.2969 4.71186 65.1666 4.71728 64.5607C4.75165 61.607 4.64855 58.6498 4.75708 55.6979C4.824 53.8584 5.35396 52.0677 6.03948 50.3512C8.93346 43.1163 14.2602 38.7175 21.8967 37.4966C29.0792 36.348 35.2542 38.6849 40.1288 44.1093C43.4876 47.848 45.1571 52.3137 45.1932 57.3619C45.2077 59.7748 45.177 62.1876 45.2113 64.5969C45.2168 65.1721 45.0576 65.3113 44.4969 65.3095ZM63.9101 60.0642C59.5148 60.0533 55.1202 60.0533 50.7262 60.0642C50.4567 60.0642 50.1836 60.0859 49.9195 60.0986C49.489 60.1076 49.5035 59.8218 49.5035 59.5107C49.5035 57.6911 49.5252 55.8751 49.2701 54.0628C48.9227 51.5239 48.1697 49.0574 47.04 46.7573C46.8247 46.3214 46.9025 46.1532 47.2986 45.947C48.0185 45.5811 48.7582 45.2556 49.5143 44.9721C53.461 43.9031 57.0622 44.623 60.2582 47.1552C62.9713 49.3076 64.3207 52.198 64.5033 55.6292C64.5721 56.9116 64.5033 58.1994 64.5359 59.4836C64.554 59.9954 64.3514 60.0642 63.9101 60.0624V60.0642Z" fill="#E1DFE7"/>
<path d="M24.9424 30.3326H24.984C28.9882 30.2999 32.819 28.6941 35.6497 25.8618C38.4804 23.0294 40.0839 19.1976 40.1141 15.1934C40.1118 11.1759 38.5192 7.32255 35.6845 4.47561C32.8497 1.62868 29.0033 0.0195972 24.9858 0H24.9424C20.9201 0 17.0625 1.59787 14.2182 4.4421C11.374 7.28633 9.77612 11.1439 9.77612 15.1663C9.77612 19.1886 11.374 23.0462 14.2182 25.8905C17.0625 28.7347 20.9201 30.3326 24.9424 30.3326ZM17.7689 8.01091C18.7087 7.06702 19.8274 6.32019 21.0595 5.81424C22.2916 5.30829 23.6123 5.0534 24.9442 5.06447H24.9768C26.3125 5.05616 27.6362 5.3169 28.8689 5.8312C30.1017 6.34549 31.2183 7.10282 32.152 8.05794C34.0214 9.95903 35.0659 12.5205 35.0588 15.1867C35.0516 17.853 33.9936 20.4089 32.1141 22.3C31.1846 23.2419 30.0756 23.9878 28.8528 24.4935C27.63 24.9993 26.3181 25.2547 24.9949 25.2446H24.9207C19.1942 25.2048 14.875 20.8566 14.8713 15.1283C14.8627 13.8088 15.1148 12.5005 15.6133 11.2788C16.1118 10.057 16.8469 8.94588 17.7762 8.0091L17.7689 8.01091Z" fill="#E1DFE7"/>
<path d="M69.2277 59.4059C69.2277 58.2302 69.2277 57.0148 69.2114 55.8174C69.1119 51.2955 67.3701 47.3887 64.0366 44.2017C62.9604 43.1725 61.6635 42.3079 59.9543 41.4777C57.7769 40.395 55.3807 39.8245 52.949 39.81C51.7146 39.8134 50.4846 39.9573 49.2827 40.2387C47.6967 40.5709 46.179 41.1717 44.7952 42.0149C44.7314 42.0623 44.6579 42.095 44.58 42.1108C44.58 42.1108 44.5275 42.0963 44.3991 41.9299C41.9002 38.7769 38.6725 36.2784 34.9937 34.6497C31.8912 33.2446 28.5238 32.5199 25.118 32.5245C24.0747 32.5224 23.0322 32.5828 21.9961 32.7053C14.9854 33.55 9.21915 36.9161 4.85647 42.7076C1.6333 46.9853 0.00724942 52.0462 0.0253368 57.7473C0.0253368 58.4202 0.0253364 59.0912 0.0361888 59.764C0.04885 61.9617 0.0633202 64.2353 0.00544058 66.4564C-0.0271167 67.6592 0.157374 69.1442 1.8612 69.9436C1.90931 69.9662 1.9618 69.978 2.01495 69.978H35.4332C35.4824 69.9778 35.531 69.9676 35.5761 69.9481C35.6212 69.9285 35.6618 69.8999 35.6955 69.8641C35.7117 69.8478 35.7244 69.8333 35.8094 69.8333C35.8546 69.8333 35.8998 69.8333 35.9451 69.8333C35.9903 69.8333 36.0735 69.8441 36.1368 69.8441C39.3479 69.8441 42.5578 69.8441 45.7665 69.8441H47.7399C47.7615 69.8459 47.7833 69.8459 47.805 69.8441C48.3796 69.7538 48.9028 69.4605 49.2797 69.0175C49.6567 68.5746 49.8624 68.0112 49.8597 67.4295C49.8796 66.4908 49.8597 65.5575 49.8597 64.8484C49.8559 64.7979 49.8559 64.7471 49.8597 64.6965H49.9085L54.4159 64.7092C56.9903 64.7164 59.563 64.7212 62.1338 64.7236C63.6748 64.7236 65.2153 64.72 66.7551 64.7128C67.0734 64.7175 67.3893 64.6576 67.6837 64.5367C67.9782 64.4157 68.245 64.2363 68.468 64.0092C68.9607 63.4952 69.2305 62.8074 69.2186 62.0955C69.2204 61.2129 69.224 60.294 69.2277 59.4059ZM44.8097 64.9099C44.8097 64.9099 44.7518 64.9479 44.4932 64.9479C40.4398 64.9352 36.4515 64.9334 33.0836 64.9334H24.9787C24.9463 64.9246 24.9128 64.9203 24.8792 64.9208H16.559C13.2924 64.9208 9.42173 64.9208 5.45155 64.9352C5.33917 64.9477 5.22543 64.9347 5.11874 64.8973C5.11874 64.8973 5.07714 64.8394 5.07895 64.5644C5.09342 63.4032 5.07895 62.2258 5.07895 61.0862C5.06629 59.3245 5.05363 57.5013 5.11874 55.7143C5.17662 54.1534 5.57635 52.4929 6.38486 50.4888C9.26075 43.3009 14.5007 39.0504 21.9635 37.8584C23.0999 37.6743 24.249 37.5799 25.4001 37.5763C30.9566 37.5763 35.8221 39.8571 39.87 44.3554C43.1258 47.9892 44.8061 52.3681 44.8404 57.3675C44.8404 58.3876 44.8404 59.424 44.8404 60.4278C44.8404 61.7989 44.8404 63.2151 44.8549 64.6097C44.8664 64.7109 44.8553 64.8135 44.8224 64.9099H44.8097ZM64.1632 59.6809C64.0812 59.698 63.9973 59.7047 63.9136 59.7008C62.0892 59.7008 60.2642 59.7008 58.4385 59.7008C56.4453 59.7008 54.4557 59.7008 52.4697 59.7008H50.7369C50.5434 59.7008 50.3517 59.7116 50.1654 59.7225L49.9103 59.7351H49.8814C49.8814 59.6827 49.8814 59.5976 49.8814 59.538V59.2232C49.8814 57.5176 49.8814 55.7541 49.6445 54.0104C49.2905 51.4334 48.526 48.9297 47.3799 46.5946C47.3434 46.5276 47.3166 46.4557 47.3003 46.3812C47.3546 46.3334 47.4155 46.2938 47.4812 46.2636C48.1868 45.9072 48.9114 45.5896 49.6517 45.3122C50.7349 45.0141 51.8526 44.8596 52.9761 44.8528C55.5084 44.8528 57.8959 45.721 60.0592 47.4357C62.6023 49.4488 63.9841 52.2126 64.1686 55.6455C64.2066 56.351 64.1994 57.0763 64.1939 57.7781C64.1939 58.3388 64.1831 58.9176 64.1939 59.4909C64.192 59.5554 64.1811 59.6194 64.1614 59.6809H64.1632Z" fill="#E1DFE7"/>
<path d="M50.7929 37.3489C51.5183 37.5167 52.2604 37.6023 53.005 37.6039C54.7808 37.5825 56.5209 37.1028 58.0568 36.2112C61.7972 34.1239 63.9008 29.5894 63.0597 25.4293C62.3869 22.0958 60.5275 19.6305 57.5503 18.1021C56.4179 17.4955 55.1745 17.1239 53.895 17.0096C52.6154 16.8952 51.3259 17.0404 50.1038 17.4365L50.035 17.4455C49.9382 17.4553 49.8426 17.474 49.7493 17.5016C44.7716 19.0789 41.7348 24.3206 42.8381 29.4393C43.6918 33.3932 47.0362 36.7195 50.7929 37.3489ZM50.1327 22.8302C50.2286 22.7687 50.3136 22.7035 50.4149 22.6366L50.4999 22.5752C51.2865 22.2329 52.1328 22.0485 52.9905 22.0325C54.0136 22.0353 55.0115 22.3508 55.8501 22.9369C56.7815 23.5636 57.4872 24.4726 57.8636 25.5302C58.2399 26.5879 58.267 27.7384 57.9409 28.8126C57.6148 29.8868 56.9526 30.828 56.0517 31.4979C55.1509 32.1678 54.0589 32.5309 52.9362 32.534C52.4872 32.5339 52.04 32.4774 51.605 32.3658C51.4549 32.326 51.3048 32.2917 51.1528 32.2573L50.9828 32.2175C49.3296 31.4343 48.3095 30.2876 47.8627 28.714C47.552 27.6198 47.6053 26.4541 48.0147 25.3928C48.4242 24.3315 49.1675 23.4321 50.1327 22.8302Z" fill="#E1DFE7"/>
<path d="M50.8635 36.9942C53.3487 37.5639 55.6621 37.1334 57.8796 35.8963C61.4736 33.8904 63.5211 29.535 62.7053 25.4997C62.0578 22.2928 60.2834 19.9088 57.3858 18.4239C55.096 17.2518 52.6831 16.9986 50.1871 17.789C50.0762 17.8002 49.9662 17.8189 49.8579 17.8451C45.0575 19.368 42.1291 24.4271 43.1927 29.3559C44.0211 33.2013 47.2243 36.3901 50.8635 36.9942ZM49.9393 22.5243C50.0695 22.4411 50.1961 22.3434 50.3227 22.2566C52.296 21.43 54.2223 21.4101 56.051 22.6328C57.1484 23.3715 57.9493 24.4744 58.3121 25.7466C58.6749 27.0187 58.5763 28.3782 58.0335 29.5846C57.4908 30.7911 56.539 31.7667 55.3464 32.3392C54.1538 32.9117 52.7972 33.044 51.5165 32.7129C51.2994 32.6568 51.0806 32.608 50.8635 32.5574C49.2139 31.7832 48.0202 30.5913 47.5155 28.8078C47.1845 27.6393 47.2418 26.3948 47.6789 25.2616C48.116 24.1285 48.9092 23.1679 49.9393 22.5243Z" fill="#E1DFE7"/>
</g>
<defs>
<clipPath id="clip0_3997_6891">
<rect width="69.2313" height="70" fill="white"/>
</clipPath>
</defs>
</svg>
