<svg width="13" height="13" viewBox="0 0 13 13" fill="none" xmlns="http://www.w3.org/2000/svg">
<g clip-path="url(#clip0_2508_7879)">
<path d="M13.0013 12.0194H0.00195312V11.1862H0.877965V11.0094C0.877965 8.25314 0.877965 5.49669 0.877965 2.74002C0.877965 2.37176 0.954671 2.27163 1.30766 2.1766L6.31494 0.827113C6.69474 0.725291 6.92588 0.902122 6.92588 1.29719C6.92588 1.75811 6.92588 2.21903 6.92588 2.68877H6.09806V1.75302C5.91172 1.80155 5.7427 1.84466 5.57435 1.88878C4.32578 2.22547 3.07676 2.56171 1.82729 2.8975C1.73735 2.9216 1.70918 2.95792 1.70918 3.05125C1.71189 5.71878 1.71268 8.3863 1.71155 11.0538V11.1753H6.08991V11.0189C6.08991 8.69414 6.08991 6.36965 6.08991 4.04538C6.08991 3.68595 6.24027 3.53627 6.59903 3.53627L11.6562 3.53287C11.9474 3.53287 12.1151 3.69681 12.1154 3.987C12.1154 5.60869 12.1154 7.23039 12.1154 8.85208C12.1154 8.88602 12.1114 8.91826 12.1086 8.95865H11.2832V4.37664H6.93572V11.173C6.95808 11.1778 6.98077 11.1809 7.0036 11.1825H12.9992L13.0013 12.0194Z" fill="white"/>
<path d="M2.91895 5.45117H4.88751V6.27153H2.91895V5.45117Z" fill="white"/>
<path d="M10.0731 6.27348H8.10449V5.45312H10.0731V6.27348Z" fill="white"/>
<path d="M2.91406 8.16809V7.35352H4.88602V8.16809H2.91406Z" fill="white"/>
<path d="M10.0781 7.35352V8.16809H8.10645V7.35352H10.0781Z" fill="white"/>
<path d="M2.91553 4.37106V3.56055H4.88409V4.37106H2.91553Z" fill="white"/>
<path d="M2.9209 9.24805H4.88946V10.0657H2.9209V9.24805Z" fill="white"/>
<path d="M10.0753 10.0653H8.104V9.24805H10.0753V10.0653Z" fill="white"/>
<path d="M11.2896 10.4818V9.7168H12.1041V10.4818H11.2896Z" fill="white"/>
</g>
<defs>
<clipPath id="clip0_2508_7879">
<rect width="13" height="11.2212" fill="white" transform="translate(0 0.798828)"/>
</clipPath>
</defs>
</svg>
