<svg width="40" height="40" viewBox="0 0 40 40" fill="none" xmlns="http://www.w3.org/2000/svg">
<g clip-path="url(#clip0_3023_9855)">
<path d="M39.9943 20.3116C39.6822 20.9876 39.146 21.1921 38.4192 21.1813C36.0898 21.152 33.7595 21.1725 31.4301 21.1696C30.7336 21.1696 30.2415 20.7959 30.1476 20.2128C30.0253 19.4507 30.5487 18.8353 31.3519 18.8295C32.8487 18.8197 34.3455 18.8295 35.8423 18.8295C36.7013 18.8295 37.5622 18.8608 38.4192 18.8197C39.147 18.7854 39.6822 19.0153 39.9943 19.6894V20.3116Z" fill="#110628"/>
<path d="M19.6835 40C19.0065 39.6879 18.8031 39.1518 18.8128 38.4249C18.8432 36.0829 18.8216 33.7388 18.8256 31.3958C18.8256 30.7159 19.2286 30.2218 19.8205 30.1484C20.5728 30.0506 21.1598 30.5681 21.1647 31.3567C21.1735 32.9053 21.1647 34.455 21.1647 36.0036C21.1647 36.8107 21.1334 37.6198 21.1735 38.4249C21.2107 39.1528 20.9778 39.6879 20.3048 40H19.6835Z" fill="#110628"/>
<path d="M11.3865 25.6648C11.3503 26.1628 11.093 26.4983 10.6615 26.741C8.76559 27.8259 6.87746 28.9226 4.98738 30.0143C4.75063 30.1513 4.51975 30.2981 4.27615 30.4203C3.66666 30.7275 3.00436 30.5417 2.67956 29.9879C2.60107 29.8555 2.55003 29.7087 2.52952 29.5561C2.509 29.4036 2.51942 29.2484 2.56014 29.1C2.60085 28.9515 2.67104 28.8128 2.76652 28.6921C2.862 28.5713 2.98081 28.4711 3.11588 28.3972C5.28315 27.1313 7.45662 25.8774 9.63629 24.6357C9.81501 24.5322 10.018 24.4781 10.2245 24.4788C10.431 24.4795 10.6336 24.535 10.8116 24.6397C10.9896 24.7443 11.1366 24.8944 11.2376 25.0745C11.3386 25.2546 11.39 25.4584 11.3865 25.6648Z" fill="#110628"/>
<path d="M36.2972 30.623C36.0585 30.532 35.808 30.4704 35.584 30.3441C33.4852 29.1428 31.3903 27.9346 29.2993 26.7195C28.6351 26.3331 28.4296 25.6639 28.7711 25.0652C29.1125 24.4665 29.8081 24.3139 30.4674 24.6925C32.5878 25.9108 34.7045 27.133 36.8176 28.3592C37.3713 28.6801 37.5807 29.1917 37.4203 29.7415C37.2755 30.2326 36.8294 30.5643 36.2972 30.623Z" fill="#110628"/>
<path d="M21.1675 4.94927C21.1675 6.14671 21.1675 7.34318 21.1675 8.54063C21.1675 9.34088 20.7048 9.85841 20.0004 9.86134C19.296 9.86428 18.8264 9.34479 18.8264 8.54845C18.8264 6.14182 18.8264 3.73519 18.8264 1.32855C18.8264 0.533191 19.298 0.002947 19.9935 1.2078e-05C20.6891 -0.00292284 21.1675 0.529278 21.1675 1.31975C21.1694 2.52991 21.1675 3.74008 21.1675 4.94927Z" fill="#110628"/>
<path d="M4.91795 18.8246C6.12714 18.8246 7.3373 18.8246 8.54648 18.8246C9.34282 18.8246 9.86133 19.2942 9.85937 19.9986C9.85742 20.7029 9.34087 21.1657 8.54062 21.1666C6.13399 21.1666 3.72768 21.1666 1.3217 21.1666C0.52927 21.1666 -0.00195122 20.6883 5.38684e-06 19.9927C0.001962 19.2971 0.53221 18.8265 1.32757 18.8246C2.52404 18.8246 3.71953 18.8246 4.91795 18.8246Z" fill="#110628"/>
<path d="M9.38697 36.2521C9.44205 36.0544 9.51372 35.8616 9.60121 35.6759C10.8293 33.5321 12.0629 31.3919 13.3021 29.2553C13.5956 28.7446 14.0779 28.5304 14.5739 28.6429C15.0954 28.7612 15.4681 29.1398 15.4935 29.6671C15.5047 29.925 15.4455 30.181 15.3223 30.4077C14.1021 32.5561 12.8697 34.6973 11.6253 36.8313C11.3064 37.3791 10.7801 37.5826 10.2342 37.4183C9.98764 37.3387 9.77276 37.1829 9.6205 36.9733C9.46823 36.7637 9.38646 36.5112 9.38697 36.2521Z" fill="#110628"/>
<path d="M15.5168 10.0648C15.5246 10.6752 15.2282 11.1145 14.7792 11.2925C14.5608 11.3809 14.3205 11.4002 14.0908 11.3477C13.8611 11.2952 13.653 11.1735 13.4947 10.999C13.409 10.9014 13.3336 10.7951 13.2696 10.6821C12.052 8.57805 10.8363 6.47242 9.62252 4.36515C9.1588 3.55706 9.54621 2.68539 10.4149 2.53571C10.8943 2.45256 11.3492 2.68246 11.6417 3.18237C12.2131 4.16068 12.7746 5.13898 13.3401 6.11729C13.9838 7.23158 14.6305 8.34489 15.2644 9.46505C15.3633 9.65843 15.4476 9.85888 15.5168 10.0648Z" fill="#110628"/>
<path d="M3.69201 9.37512C3.91996 9.45828 4.16649 9.51013 4.37683 9.62948C6.48605 10.838 8.5917 12.0534 10.6938 13.2756C11.36 13.6669 11.5742 14.339 11.2289 14.928C10.8835 15.5169 10.1958 15.6852 9.53251 15.3046C7.41154 14.0889 5.29448 12.867 3.18134 11.6389C2.62762 11.3171 2.41728 10.8074 2.57674 10.2566C2.71762 9.76058 3.15688 9.43284 3.69201 9.37512Z" fill="#110628"/>
<path d="M36.1729 9.42406C36.7922 9.41721 37.2344 9.72343 37.3997 10.192C37.4812 10.4203 37.4893 10.6683 37.423 10.9013C37.3567 11.1344 37.2193 11.341 37.0299 11.4922C36.9263 11.5708 36.8171 11.6418 36.7032 11.7045C34.6546 12.8882 32.6099 14.0808 30.5486 15.2421C30.2467 15.4078 29.9046 15.4864 29.5605 15.469C29.0616 15.4338 28.7544 15.0777 28.6439 14.5885C28.5333 14.0994 28.7055 13.7227 29.0812 13.4146C29.112 13.3894 29.1447 13.3665 29.179 13.3461C31.3626 12.0841 33.5475 10.8237 35.7337 9.56494C35.8734 9.49921 36.021 9.45186 36.1729 9.42406Z" fill="#110628"/>
<path d="M30.623 36.2961C30.5662 36.798 30.2923 37.2001 29.8481 37.3791C29.631 37.4705 29.3911 37.4928 29.1609 37.4429C28.9307 37.393 28.7214 37.2734 28.5617 37.1003C28.4589 36.9825 28.3687 36.8543 28.2926 36.7177C27.0952 34.6477 25.8909 32.5805 24.7169 30.4957C24.5606 30.2024 24.4927 29.8701 24.5213 29.5389C24.5702 29.038 24.9322 28.7436 25.4233 28.6418C25.888 28.544 26.2656 28.7123 26.561 29.0733C26.634 29.1657 26.6994 29.2638 26.7567 29.3668C27.9463 31.4271 29.1343 33.4884 30.3207 35.5506C30.4384 35.7919 30.5394 36.041 30.623 36.2961Z" fill="#110628"/>
</g>
<defs>
<clipPath id="clip0_3023_9855">
<rect width="39.9932" height="40" fill="white"/>
</clipPath>
</defs>
</svg>
