<svg width="35" height="35" viewBox="0 0 35 35" fill="none" xmlns="http://www.w3.org/2000/svg">
<g clip-path="url(#clip0_6291_8696)">
<path d="M0.5 18.4775C0.5 17.8127 0.5 17.1488 0.5 16.4841C0.551563 16.0473 0.593146 15.6097 0.655521 15.1755C1.18363 11.5282 2.67396 8.33271 5.26043 5.70209C9.26405 1.63054 14.1467 -0.0641339 19.8012 0.643853C23.7965 1.14468 27.2072 2.92089 29.9267 5.89593C33.7773 10.1089 35.1919 15.0773 34.1865 20.6904C33.5186 24.4184 31.7006 27.549 28.9013 30.0914C26.4761 32.2944 23.636 33.6788 20.4008 34.2287C19.7704 34.336 19.1334 34.4026 18.4988 34.4883H16.5062C16.3989 34.4683 16.2916 34.4442 16.1826 34.43C15.5589 34.3468 14.9277 34.2986 14.3106 34.1796C10.5939 33.4625 7.45519 31.6954 4.90947 28.9001C2.7039 26.4783 1.31752 23.6414 0.761142 20.4084C0.653026 19.7678 0.586493 19.1206 0.5 18.4775ZM31.6649 17.44C31.6183 9.50908 25.2336 3.28778 17.4543 3.32023C9.55763 3.3535 3.32765 9.71873 3.34512 17.5058C3.36341 25.4043 9.72479 31.6655 17.5358 31.6422C25.4573 31.6181 31.6782 25.2295 31.6649 17.4409V17.44Z" fill="#FE3850"/>
<path d="M19.4211 17.4978C19.5957 17.6243 19.7064 17.6842 19.7912 17.769C21.3347 19.3081 22.8783 20.8489 24.416 22.3938C25.1146 23.096 25.0964 24.0369 24.3869 24.5977C23.8746 25.0028 23.186 25.0128 22.6654 24.6168C22.5431 24.5236 22.4309 24.4146 22.3211 24.3056C20.81 22.7965 19.2997 21.2857 17.791 19.7732C17.7062 19.6875 17.6438 19.5794 17.5507 19.4546C17.4101 19.5877 17.3228 19.6667 17.2396 19.7499C15.6894 21.299 14.1425 22.8506 12.589 24.3963C11.8962 25.086 10.9747 25.0769 10.4059 24.3897C9.98339 23.8797 9.96593 23.1675 10.3693 22.6417C10.4633 22.5195 10.5722 22.408 10.6812 22.2982C12.1898 20.7865 13.7001 19.2749 15.2121 17.7665C15.2969 17.6817 15.4092 17.6234 15.5306 17.5378C15.3909 17.3872 15.3127 17.299 15.2295 17.215C13.681 15.6642 12.1291 14.1176 10.5839 12.5635C9.88526 11.8614 9.90688 10.9205 10.6196 10.3606C11.1344 9.95623 11.8197 9.94791 12.3403 10.3464C12.4626 10.4404 12.5749 10.5486 12.6838 10.6584C14.1949 12.1675 15.7052 13.6784 17.2139 15.1908C17.2987 15.2757 17.3577 15.3872 17.4492 15.5128C17.5956 15.373 17.6829 15.294 17.7661 15.2108C19.3155 13.6617 20.8624 12.1093 22.4159 10.5635C23.1178 9.86471 24.0593 9.88468 24.6198 10.596C25.0248 11.1093 25.034 11.7965 24.6356 12.3173C24.5416 12.4396 24.4335 12.5519 24.3237 12.6609C22.8143 14.1725 21.304 15.6833 19.7928 17.1917C19.7072 17.2765 19.6066 17.3464 19.4211 17.497V17.4978Z" fill="#FE3850"/>
</g>
<defs>
<clipPath id="clip0_6291_8696">
<rect width="34" height="34" fill="white" transform="translate(0.5 0.487305)"/>
</clipPath>
</defs>
</svg>
