<svg width="25" height="25" viewBox="0 0 25 25" fill="none" xmlns="http://www.w3.org/2000/svg">
<path d="M0 0H25V25H0V0ZM21.4915 21.4258H3.55729V21.1432C3.55729 18.293 3.55599 15.4427 3.55338 12.5925C3.55548 12.3904 3.51994 12.1897 3.44857 12.0006C3.34556 11.7594 3.16295 11.5608 2.93121 11.4379C2.69946 11.3151 2.4326 11.2754 2.17513 11.3255C1.60156 11.4421 1.22005 11.9069 1.2194 12.5091C1.2194 15.5786 1.2194 18.6482 1.2194 21.7181C1.2194 22.9551 2.04557 23.7813 3.27995 23.7813H21.7695C23.0065 23.7813 23.8288 22.9538 23.8301 21.7174C23.8301 20.2643 23.8301 18.8103 23.8301 17.3555C23.8301 15.7396 23.8301 14.1237 23.8301 12.5078C23.8301 11.9499 23.4974 11.5013 22.9922 11.3542C22.224 11.1296 21.4948 11.6914 21.4948 12.5182C21.4918 15.3828 21.4918 18.2493 21.4948 21.1178L21.4915 21.4258ZM13.694 15.0944V2.55924C13.694 2.46158 13.694 2.36393 13.694 2.26692C13.675 1.97207 13.5453 1.6953 13.3309 1.492C13.1165 1.2887 12.8332 1.1739 12.5378 1.17057C11.862 1.16536 11.3587 1.69141 11.3587 2.41667C11.3587 6.5421 11.3587 10.6678 11.3587 14.7936V15.0951C11.2643 15.0065 11.2051 14.9551 11.1497 14.8997C10.4199 14.1712 9.69466 13.4375 8.95898 12.7148C8.4681 12.2318 7.74023 12.237 7.2806 12.709C6.82096 13.181 6.84049 13.8965 7.3457 14.4063C8.75672 15.8212 10.1693 17.2339 11.5833 18.6445C12.2018 19.263 12.8516 19.2617 13.4714 18.6445C14.4544 17.6632 15.4366 16.6812 16.418 15.6986C16.8659 15.2507 17.3177 14.8066 17.7591 14.3522C18.1172 13.9837 18.2005 13.5417 18.0091 13.0703C17.6979 12.3034 16.7148 12.1133 16.1081 12.7051C15.3646 13.431 14.6361 14.1725 13.9004 14.9075C13.8451 14.9596 13.7858 15.0098 13.694 15.0944Z" fill="white"/>
<path d="M21.4917 21.4267V21.1201C21.4917 18.2555 21.4917 15.389 21.4917 12.5205C21.4917 11.6937 22.2222 11.1318 22.9891 11.3564C23.4943 11.5035 23.8257 11.9521 23.827 12.5101C23.8296 14.1259 23.8296 15.7418 23.827 17.3577C23.827 18.8117 23.827 20.2657 23.827 21.7197C23.827 22.9567 23.0008 23.7835 21.7664 23.7835H3.27686C2.03988 23.7835 1.21696 22.956 1.21631 21.7203C1.21631 18.6509 1.21631 15.5812 1.21631 12.5114C1.21631 11.9091 1.59847 11.4443 2.17204 11.3278C2.42951 11.2776 2.69638 11.3173 2.92812 11.4402C3.15987 11.5631 3.34248 11.7617 3.44548 12.0029C3.51686 12.1919 3.5524 12.3926 3.5503 12.5947C3.55681 15.4449 3.55811 18.2952 3.5542 21.1455V21.428L21.4917 21.4267Z" fill="black"/>
<path d="M13.6938 15.0944C13.7856 15.0098 13.8449 14.9597 13.8995 14.905C14.6352 14.17 15.3637 13.4284 16.1072 12.7025C16.714 12.1107 17.6971 12.3008 18.0083 13.0677C18.1997 13.5391 18.1163 13.9792 17.7583 14.3497C17.3169 14.8054 16.865 15.2481 16.4171 15.696C15.4353 16.6786 14.4531 17.6606 13.4705 18.642C12.8507 19.2618 12.201 19.2631 11.5825 18.642C10.1689 17.2296 8.75631 15.8169 7.34485 14.4037C6.83639 13.8939 6.81165 13.1836 7.27975 12.7064C7.74785 12.2292 8.46725 12.2292 8.95813 12.7123C9.69381 13.4349 10.4191 14.1687 11.1489 14.8972C11.2042 14.9525 11.2635 15.0039 11.3579 15.0925V14.7911C11.3579 10.6652 11.3579 6.53954 11.3579 2.4141C11.3579 1.69079 11.8611 1.1628 12.5369 1.16801C12.8324 1.17133 13.1156 1.28614 13.33 1.48943C13.5444 1.69273 13.6741 1.96952 13.6932 2.26437C13.699 2.36137 13.6932 2.45968 13.6932 2.55668V15.0918L13.6938 15.0944Z" fill="black"/>
</svg>
