<svg width="355" height="250" viewBox="0 0 355 250" fill="none" xmlns="http://www.w3.org/2000/svg">
<g clip-path="url(#clip0_5538_8366)">
<path d="M283.244 186.104C283.244 186.104 286.392 184.903 279.123 186.104C269.237 187.741 264.158 203.277 282.501 201.453C294.847 200.225 302.963 207.216 319.127 199.562C319.127 199.562 327.724 193.586 325.746 181.012C323.769 168.439 283.244 186.104 283.244 186.104Z" fill="#98919F"/>
<path d="M289.856 171.223C289.856 171.223 296.717 174.767 306.162 169.462C315.607 164.157 326.344 170.24 326.289 180.592C326.235 190.943 303.319 198.894 294.757 196.021C294.757 196.021 291.37 193.274 296.772 192.903C296.772 192.903 296.274 192.372 296.484 191.104C296.694 189.836 298.579 188.88 298.579 188.88L295.776 189.433C295.776 189.433 297.477 194.384 286.017 194.153C274.558 193.923 279.591 190.358 279.591 190.358C279.591 190.358 275.395 193.407 274.002 190.704C272.609 188.001 285.257 185.396 281.723 180.3C280.19 178.09 279.66 173.96 282.083 171.831C286.135 168.257 289.856 171.223 289.856 171.223Z" fill="#F1C000"/>
<path fill-rule="evenodd" clip-rule="evenodd" d="M279.8 190.586L279.603 190.358C279.405 190.129 279.405 190.129 279.405 190.129L279.416 190.12L279.446 190.094C279.473 190.071 279.512 190.038 279.561 189.996C279.661 189.912 279.803 189.792 279.977 189.648C280.324 189.362 280.797 188.98 281.298 188.6C281.798 188.222 282.331 187.842 282.798 187.563C283.031 187.423 283.255 187.304 283.455 187.223C283.642 187.146 283.854 187.083 284.044 187.107C284.553 187.172 285.005 187.436 285.322 187.76C285.63 188.075 285.858 188.498 285.823 188.905C285.813 189.026 285.755 189.119 285.696 189.185C285.638 189.249 285.568 189.3 285.499 189.341C285.362 189.422 285.185 189.49 284.998 189.548C284.619 189.665 284.13 189.762 283.655 189.84C283.177 189.918 282.702 189.978 282.347 190.018C282.169 190.038 282.021 190.053 281.917 190.064C281.865 190.069 281.825 190.073 281.797 190.075L281.765 190.078L281.756 190.079L281.753 190.079C281.753 190.079 281.753 190.079 281.726 189.779L281.753 190.079C281.587 190.094 281.44 189.971 281.426 189.805C281.411 189.639 281.534 189.492 281.7 189.478L281.71 189.477L281.74 189.474C281.767 189.472 281.807 189.468 281.858 189.463C281.959 189.453 282.104 189.438 282.279 189.418C282.628 189.378 283.093 189.32 283.557 189.244C284.025 189.168 284.482 189.076 284.819 188.971C284.99 188.918 285.114 188.867 285.191 188.821C285.204 188.814 285.214 188.807 285.222 188.801C285.214 188.64 285.112 188.409 284.89 188.182C284.653 187.939 284.321 187.751 283.968 187.706C283.942 187.703 283.854 187.712 283.683 187.782C283.523 187.847 283.329 187.949 283.109 188.081C282.669 188.344 282.156 188.709 281.663 189.082C281.171 189.454 280.705 189.831 280.361 190.114C280.19 190.256 280.049 190.374 279.952 190.457C279.903 190.498 279.865 190.531 279.839 190.553L279.81 190.578L279.8 190.586ZM279.374 190.555C279.265 190.429 279.279 190.238 279.405 190.129L279.603 190.358L279.8 190.586C279.674 190.695 279.483 190.681 279.374 190.555Z" fill="#211928"/>
<path fill-rule="evenodd" clip-rule="evenodd" d="M293.689 184.381C293.806 184.261 293.997 184.259 294.116 184.375C295.191 185.423 295.683 186.694 295.906 187.692C296.018 188.192 296.064 188.627 296.082 188.939C296.091 189.095 296.093 189.22 296.092 189.308C296.092 189.351 296.091 189.386 296.09 189.41C296.09 189.422 296.09 189.431 296.089 189.438L296.089 189.446L296.089 189.448L296.089 189.449C296.089 189.449 296.089 189.45 295.79 189.433L296.089 189.449C296.08 189.616 295.937 189.744 295.771 189.734C295.604 189.725 295.477 189.583 295.486 189.417C295.486 189.417 295.486 189.417 295.486 189.417L295.486 189.412L295.487 189.391C295.488 189.372 295.488 189.343 295.488 189.305C295.489 189.229 295.487 189.116 295.479 188.973C295.463 188.688 295.42 188.286 295.317 187.824C295.11 186.898 294.66 185.748 293.695 184.808C293.575 184.691 293.573 184.5 293.689 184.381Z" fill="#211928"/>
<path fill-rule="evenodd" clip-rule="evenodd" d="M312.283 178.237C312.285 178.404 312.151 178.54 311.985 178.542C309.583 178.567 308.016 179.189 306.999 180.072C305.981 180.956 305.478 182.131 305.266 183.328C305.053 184.526 305.136 185.73 305.274 186.641C305.343 187.095 305.426 187.473 305.491 187.736C305.523 187.868 305.551 187.971 305.571 188.04C305.581 188.075 305.589 188.101 305.594 188.118L305.6 188.137L305.601 188.141C305.601 188.142 305.601 188.142 305.601 188.143C305.629 188.231 305.615 188.329 305.561 188.406C305.498 188.497 305.391 188.546 305.281 188.534C303.061 188.293 300.814 188.509 298.68 189.168C298.521 189.217 298.352 189.128 298.303 188.969C298.253 188.809 298.343 188.64 298.502 188.591C300.574 187.951 302.749 187.714 304.907 187.892C304.906 187.888 304.906 187.885 304.905 187.881C304.836 187.603 304.75 187.207 304.677 186.732C304.533 185.785 304.443 184.509 304.671 183.222C304.9 181.933 305.451 180.616 306.603 179.616C307.756 178.615 309.475 177.964 311.978 177.938C312.145 177.936 312.282 178.07 312.283 178.237Z" fill="#211928"/>
<path fill-rule="evenodd" clip-rule="evenodd" d="M320.758 182.008C320.909 182.077 320.976 182.256 320.907 182.408C319.8 184.846 317.716 186.73 315.248 188.186C312.778 189.643 309.902 190.684 307.173 191.425C304.442 192.167 301.848 192.611 299.938 192.87C298.982 193 298.197 193.083 297.65 193.134C297.376 193.16 297.162 193.177 297.016 193.188C296.943 193.194 296.887 193.197 296.849 193.2L296.806 193.203L296.795 193.204L296.792 193.204L296.791 193.204C296.791 193.204 296.791 193.204 296.773 192.902C296.754 192.601 296.754 192.601 296.755 192.601L296.757 192.601L296.768 192.6L296.808 192.598C296.845 192.595 296.899 192.591 296.971 192.586C297.113 192.575 297.324 192.558 297.594 192.533C298.134 192.483 298.911 192.4 299.857 192.272C301.75 192.015 304.316 191.575 307.014 190.843C309.714 190.109 312.535 189.086 314.941 187.666C317.349 186.246 319.32 184.442 320.358 182.158C320.427 182.006 320.606 181.939 320.758 182.008ZM296.471 192.921C296.461 192.754 296.588 192.611 296.755 192.601L296.773 192.902L296.791 193.204C296.625 193.214 296.481 193.087 296.471 192.921Z" fill="#211928"/>
<path fill-rule="evenodd" clip-rule="evenodd" d="M298.893 194.539L298.893 194.543C298.893 194.548 298.893 194.557 298.893 194.571C298.894 194.597 298.897 194.638 298.904 194.692C298.919 194.8 298.954 194.956 299.031 195.137C299.184 195.493 299.514 195.963 300.241 196.348C300.388 196.426 300.444 196.608 300.366 196.756C300.288 196.903 300.105 196.959 299.958 196.881C299.107 196.43 298.683 195.855 298.477 195.376C298.375 195.138 298.328 194.929 298.306 194.776C298.296 194.699 298.291 194.636 298.29 194.591C298.289 194.568 298.289 194.549 298.289 194.535C298.289 194.529 298.289 194.523 298.29 194.518L298.29 194.512L298.29 194.51L298.29 194.509L298.29 194.509C298.29 194.509 298.29 194.508 298.591 194.525L298.29 194.508C298.299 194.342 298.442 194.214 298.608 194.224C298.774 194.233 298.901 194.374 298.893 194.539Z" fill="#211928"/>
<path fill-rule="evenodd" clip-rule="evenodd" d="M305.358 193.597C305.514 193.538 305.688 193.617 305.747 193.774C305.852 194.055 306.026 194.351 306.311 194.59C306.593 194.827 307.001 195.023 307.598 195.084C307.764 195.1 307.885 195.249 307.868 195.415C307.851 195.58 307.703 195.701 307.537 195.684C306.831 195.613 306.306 195.375 305.922 195.052C305.541 194.731 305.315 194.341 305.181 193.986C305.123 193.83 305.202 193.656 305.358 193.597Z" fill="#211928"/>
<path fill-rule="evenodd" clip-rule="evenodd" d="M305.29 192.601C305.456 192.603 305.589 192.741 305.586 192.908C305.585 193.004 305.591 193.1 305.604 193.196C305.627 193.361 305.511 193.513 305.346 193.536C305.181 193.559 305.029 193.443 305.006 193.278C304.988 193.152 304.981 193.025 304.983 192.897C304.986 192.731 305.123 192.598 305.29 192.601Z" fill="#211928"/>
<path fill-rule="evenodd" clip-rule="evenodd" d="M313.067 191.571C313.193 191.462 313.384 191.475 313.493 191.602C313.76 191.911 314.268 192.216 315.247 192.279C315.413 192.289 315.539 192.433 315.529 192.599C315.518 192.766 315.375 192.892 315.208 192.881C314.115 192.811 313.437 192.46 313.036 191.996C312.927 191.87 312.941 191.68 313.067 191.571Z" fill="#211928"/>
<path d="M283.984 185.033C288.693 185.033 292.511 181.21 292.511 176.494C292.511 171.778 288.693 167.955 283.984 167.955C279.275 167.955 275.457 171.778 275.457 176.494C275.457 181.21 279.275 185.033 283.984 185.033Z" fill="#F1C000"/>
<path fill-rule="evenodd" clip-rule="evenodd" d="M292.393 177.93C292.556 177.964 292.661 178.124 292.628 178.287C292.567 178.583 292.49 178.876 292.398 179.165C292.348 179.324 292.178 179.411 292.019 179.361C291.86 179.31 291.772 179.14 291.823 178.981C291.908 178.713 291.98 178.441 292.036 178.165C292.07 178.001 292.23 177.896 292.393 177.93Z" fill="#211928"/>
<path fill-rule="evenodd" clip-rule="evenodd" d="M290.853 171.426C290.99 171.332 291.178 171.368 291.272 171.506C292.138 172.777 292.66 174.252 292.785 175.786C292.799 175.952 292.675 176.098 292.509 176.112C292.343 176.125 292.197 176.002 292.184 175.836C292.066 174.406 291.58 173.031 290.773 171.845C290.679 171.708 290.715 171.52 290.853 171.426Z" fill="#211928"/>
<path fill-rule="evenodd" clip-rule="evenodd" d="M290.694 181.773C290.821 181.88 290.837 182.071 290.73 182.198C289.605 183.532 288.111 184.503 286.435 184.988C284.761 185.472 282.981 185.45 281.32 184.923C281.245 184.901 281.169 184.875 281.101 184.852C281.074 184.843 281.048 184.834 281.025 184.826C280.867 184.773 280.781 184.602 280.834 184.444C280.887 184.286 281.058 184.2 281.216 184.253C281.249 184.264 281.281 184.275 281.31 184.285C281.374 184.307 281.431 184.327 281.493 184.345L281.499 184.347L281.499 184.347C283.048 184.838 284.707 184.86 286.268 184.408C287.828 183.956 289.22 183.052 290.268 181.809C290.376 181.681 290.566 181.665 290.694 181.773Z" fill="#211928"/>
<path fill-rule="evenodd" clip-rule="evenodd" d="M282.566 176.876C282.731 176.904 282.842 177.059 282.814 177.224C282.695 177.933 282.4 178.449 282.012 178.815C281.628 179.177 281.168 179.377 280.738 179.486C280.308 179.594 279.898 179.613 279.598 179.606C279.447 179.602 279.322 179.592 279.233 179.583C279.189 179.578 279.154 179.574 279.129 179.57C279.117 179.569 279.107 179.567 279.1 179.566L279.091 179.565L279.089 179.564L279.088 179.564L279.087 179.564C279.087 179.564 279.087 179.564 279.138 179.266L279.087 179.564C278.923 179.536 278.812 179.38 278.84 179.216C278.868 179.051 279.024 178.941 279.188 178.969C279.188 178.969 279.188 178.969 279.188 178.969C279.188 178.969 279.188 178.969 279.188 178.969C279.188 178.969 279.188 178.969 279.188 178.969L279.189 178.969L279.193 178.969C279.197 178.97 279.204 178.971 279.213 178.972C279.232 178.975 279.26 178.979 279.297 178.982C279.371 178.99 279.48 178.999 279.612 179.002C279.877 179.008 280.23 178.991 280.591 178.9C280.951 178.809 281.309 178.648 281.598 178.375C281.884 178.106 282.12 177.712 282.219 177.124C282.246 176.96 282.402 176.849 282.566 176.876Z" fill="#211928"/>
<path fill-rule="evenodd" clip-rule="evenodd" d="M287.397 173.071C287.564 173.071 287.699 173.207 287.698 173.373C287.697 174.123 287.525 174.688 287.245 175.107C286.964 175.526 286.591 175.776 286.226 175.923C285.863 176.067 285.507 176.111 285.245 176.12C285.113 176.124 285.002 176.12 284.923 176.114C284.884 176.111 284.852 176.108 284.83 176.106C284.819 176.104 284.81 176.103 284.803 176.102L284.795 176.101L284.792 176.101L284.791 176.101C284.791 176.101 284.79 176.101 284.835 175.802L284.79 176.101C284.625 176.076 284.512 175.922 284.537 175.757C284.561 175.593 284.715 175.479 284.879 175.503L284.882 175.504C284.885 175.504 284.89 175.505 284.898 175.506C284.913 175.507 284.936 175.51 284.966 175.512C285.028 175.516 285.117 175.52 285.224 175.516C285.442 175.509 285.724 175.473 286.002 175.362C286.276 175.252 286.542 175.071 286.743 174.771C286.943 174.471 287.093 174.029 287.095 173.372C287.095 173.205 287.23 173.07 287.397 173.071ZM284.879 175.503C284.88 175.503 284.879 175.503 284.879 175.503V175.503Z" fill="#211928"/>
<path d="M284.643 179.672C284.433 179.185 285.382 178.18 286.177 178.231C286.971 178.283 286.306 179.762 286.306 179.762C286.306 179.762 284.965 180.422 284.643 179.672Z" fill="#211928"/>
<path fill-rule="evenodd" clip-rule="evenodd" d="M288.437 179.202C288.586 179.276 288.648 179.457 288.575 179.607C288.37 180.023 288.101 180.284 287.787 180.407C287.476 180.53 287.167 180.501 286.911 180.426C286.861 180.411 286.812 180.394 286.765 180.376C286.79 180.534 286.797 180.682 286.787 180.822C286.762 181.183 286.631 181.467 286.466 181.681C286.303 181.893 286.11 182.034 285.962 182.121C285.887 182.165 285.821 182.197 285.773 182.218C285.749 182.229 285.729 182.237 285.714 182.242C285.706 182.245 285.7 182.247 285.695 182.249L285.689 182.251L285.687 182.252L285.686 182.252L285.686 182.252C285.686 182.253 285.685 182.253 285.59 181.966M286.432 179.478L286.433 179.479L286.441 179.486C286.449 179.492 286.461 179.503 286.478 179.516C286.511 179.543 286.559 179.58 286.62 179.621C286.744 179.704 286.907 179.795 287.082 179.847C287.255 179.897 287.419 179.903 287.565 179.846C287.707 179.79 287.877 179.656 288.033 179.34C288.106 179.191 288.287 179.129 288.437 179.202" fill="#211928"/>
<path d="M288.13 170.635C288.268 168.422 286.513 164.612 286.513 164.612C283.244 166.215 282.248 170.264 282.248 170.264L288.13 170.635Z" fill="#F1C000"/>
<path fill-rule="evenodd" clip-rule="evenodd" d="M286.388 164.338C286.539 164.268 286.719 164.334 286.788 164.486L286.514 164.612C286.788 164.486 286.788 164.486 286.788 164.486L286.79 164.489L286.794 164.498L286.809 164.531C286.822 164.561 286.841 164.603 286.866 164.658C286.914 164.769 286.983 164.928 287.065 165.126C287.229 165.522 287.447 166.074 287.66 166.696C288.082 167.925 288.506 169.482 288.433 170.654C288.422 170.82 288.279 170.947 288.113 170.936C287.946 170.926 287.82 170.783 287.83 170.616C287.895 169.575 287.511 168.12 287.089 166.892C286.881 166.284 286.668 165.745 286.507 165.358C286.427 165.164 286.36 165.008 286.313 164.902C286.29 164.848 286.271 164.807 286.259 164.78L286.245 164.748L286.241 164.741L286.24 164.739" fill="#211928"/>
<path fill-rule="evenodd" clip-rule="evenodd" d="M283.325 180.822C283.387 180.977 283.312 181.153 283.157 181.215L280.492 182.284C280.338 182.346 280.162 182.271 280.1 182.116C280.038 181.962 280.113 181.786 280.268 181.724L282.933 180.655C283.087 180.593 283.263 180.668 283.325 180.822Z" fill="#211928"/>
<path fill-rule="evenodd" clip-rule="evenodd" d="M283.37 182.176C283.497 182.284 283.511 182.475 283.402 182.601L282.343 183.832C282.234 183.958 282.044 183.973 281.917 183.864C281.791 183.755 281.777 183.564 281.886 183.438L282.945 182.207C283.053 182.081 283.244 182.067 283.37 182.176Z" fill="#211928"/>
<path fill-rule="evenodd" clip-rule="evenodd" d="M290.427 174.374C290.548 174.489 290.554 174.68 290.44 174.801L287.807 177.602C287.693 177.724 287.502 177.73 287.38 177.616C287.259 177.501 287.253 177.31 287.367 177.189L290 174.388C290.115 174.266 290.306 174.26 290.427 174.374Z" fill="#211928"/>
<path fill-rule="evenodd" clip-rule="evenodd" d="M291.254 176.771C291.308 176.928 291.224 177.1 291.066 177.154L289.132 177.817C288.975 177.871 288.803 177.787 288.749 177.629C288.695 177.471 288.779 177.3 288.937 177.246L290.87 176.583C291.028 176.529 291.2 176.613 291.254 176.771Z" fill="#211928"/>
<path fill-rule="evenodd" clip-rule="evenodd" d="M286.739 165.451C286.885 165.531 286.939 165.715 286.859 165.861L286.858 165.862L286.856 165.866L286.847 165.883C286.839 165.898 286.827 165.921 286.811 165.952C286.78 166.013 286.735 166.104 286.681 166.218C286.573 166.448 286.43 166.774 286.293 167.157C286.149 167.559 286.013 168.015 285.925 168.484C286.012 168.441 286.122 168.416 286.245 168.447C286.392 168.485 286.494 168.588 286.563 168.688C286.746 168.953 286.779 169.219 286.747 169.448C286.836 169.455 286.95 169.487 287.039 169.588C287.132 169.693 287.151 169.821 287.148 169.922C287.144 170.023 287.117 170.132 287.077 170.244C287.021 170.401 286.848 170.483 286.691 170.427C286.566 170.382 286.489 170.264 286.491 170.139C286.479 170.145 286.466 170.152 286.455 170.159C286.42 170.179 286.39 170.197 286.369 170.211C286.358 170.217 286.35 170.222 286.345 170.226L286.34 170.23L286.339 170.23C286.211 170.318 286.038 170.294 285.938 170.177C285.838 170.059 285.843 169.885 285.949 169.774L285.95 169.772C285.952 169.77 285.955 169.766 285.96 169.761C285.969 169.75 285.984 169.732 286.001 169.708C286.035 169.661 286.076 169.594 286.107 169.518C286.157 169.396 286.177 169.265 286.12 169.129C286.099 169.166 286.076 169.208 286.054 169.256C285.989 169.394 285.933 169.552 285.892 169.68C285.872 169.743 285.856 169.797 285.846 169.835C285.841 169.853 285.837 169.868 285.834 169.878L285.831 169.889L285.83 169.891C285.794 170.034 285.659 170.13 285.512 170.118C285.365 170.105 285.249 169.988 285.237 169.841C285.156 168.829 285.436 167.756 285.725 166.953C285.87 166.548 286.02 166.205 286.134 165.962C286.191 165.84 286.239 165.744 286.274 165.677C286.291 165.643 286.304 165.618 286.314 165.6L286.325 165.579L286.328 165.573L286.329 165.572L286.329 165.571C286.329 165.571 286.329 165.571 286.594 165.716L286.329 165.571C286.409 165.425 286.593 165.371 286.739 165.451Z" fill="#211928"/>
<path d="M276.851 173.18C276.851 173.18 272.845 174.226 271.035 176.975C271.035 176.975 273.962 179.26 276.112 178.9C276.112 178.891 277.47 173.966 276.851 173.18Z" fill="#F1C000"/>
<path fill-rule="evenodd" clip-rule="evenodd" d="M271.22 176.728C271.22 176.728 271.22 176.728 271.22 176.728L271.221 176.729L271.227 176.734L271.25 176.751C271.271 176.767 271.302 176.791 271.343 176.82C271.424 176.88 271.544 176.966 271.694 177.068C271.996 177.272 272.419 177.54 272.907 177.797C273.9 178.32 275.091 178.756 276.061 178.594C276.225 178.566 276.381 178.677 276.408 178.842C276.436 179.006 276.325 179.162 276.161 179.189C274.98 179.387 273.633 178.861 272.626 178.331C272.113 178.062 271.67 177.781 271.356 177.568C271.198 177.461 271.073 177.371 270.986 177.307C270.942 177.276 270.908 177.25 270.885 177.233L270.859 177.212L270.851 177.207L270.849 177.205L270.849 177.205C270.849 177.205 270.848 177.204 271.034 176.966L270.849 177.205C270.717 177.102 270.694 176.912 270.796 176.781C270.899 176.649 271.089 176.626 271.22 176.728ZM271.22 176.728C271.22 176.728 271.22 176.728 271.22 176.728V176.728Z" fill="#211928"/>
<path fill-rule="evenodd" clip-rule="evenodd" d="M271.874 177.197L271.874 177.197L271.878 177.195L271.895 177.187C271.911 177.18 271.934 177.169 271.965 177.155C272.026 177.127 272.117 177.087 272.232 177.04C272.461 176.945 272.787 176.821 273.169 176.705C273.566 176.583 274.014 176.473 274.474 176.409C274.43 176.492 274.402 176.597 274.426 176.716C274.456 176.863 274.552 176.97 274.648 177.044C274.897 177.236 275.156 177.283 275.381 177.264C275.384 177.351 275.41 177.466 275.507 177.559C275.608 177.656 275.734 177.68 275.834 177.681C275.935 177.681 276.043 177.658 276.155 177.623C276.314 177.573 276.402 177.403 276.352 177.244C276.314 177.123 276.206 177.043 276.087 177.034C276.092 177.025 276.097 177.017 276.103 177.008C276.124 176.974 276.144 176.946 276.158 176.926C276.165 176.916 276.17 176.908 276.174 176.903L276.178 176.898L276.178 176.897C276.178 176.897 276.178 176.897 275.937 176.715C275.74 176.487 275.74 176.487 275.74 176.487C275.74 176.487 275.741 176.486 275.741 176.486M275.868 176.383C276.013 176.353 276.115 176.224 276.109 176.076C276.104 175.929 275.993 175.807 275.847 175.788C274.858 175.659 273.792 175.883 272.992 176.127C272.589 176.25 272.245 176.381 272.002 176.482C271.88 176.532 271.783 176.574 271.716 176.605C271.682 176.62 271.656 176.632 271.638 176.641L271.617 176.651L271.612 176.653L271.61 176.654L271.609 176.654C271.609 176.654 271.609 176.654 271.741 176.926L271.609 176.654C271.459 176.727 271.397 176.908 271.47 177.058C271.543 177.208 271.724 177.27 271.874 177.197M275.74 176.487C275.74 176.487 275.74 176.487 275.74 176.487L275.937 176.715L275.74 176.487Z" fill="#211928"/>
<path d="M219.963 121.457L305.512 145.436C307.564 146.012 309.711 146.169 311.825 145.899C313.938 145.628 315.976 144.934 317.818 143.86L354.101 121.65L286.567 107.221C283.698 106.805 280.777 106.938 277.957 107.613L219.963 121.457Z" fill="#98919F"/>
<path d="M250.526 120.344C250.33 116.269 250.198 112.197 250.103 108.125C250.008 104.053 249.933 99.9785 249.896 95.9065L249.861 92.8518V89.7971L249.844 83.6876C249.844 81.6502 249.898 79.6127 250.014 77.5782C250.129 75.5436 250.264 73.5062 250.537 71.4688H251.688C251.976 73.5062 252.111 75.5407 252.215 77.5782C252.319 79.6156 252.373 81.6502 252.385 83.6876L252.368 89.7971V92.8518L252.333 95.9065C252.297 99.9794 252.228 104.052 252.126 108.125C252.031 112.197 251.899 116.269 251.7 120.344H250.526Z" fill="#211928"/>
<path d="M271.128 111.587C271.039 109.742 270.987 107.898 270.924 106.053C270.86 104.209 270.823 102.365 270.777 100.523L270.682 94.9902L270.624 89.4571C270.624 85.7684 270.581 82.0826 270.642 78.3938C270.702 74.7051 270.826 71.0164 271.128 67.3306H272.279C272.581 71.0164 272.702 74.7051 272.765 78.3938C272.829 82.0826 272.794 85.7684 272.783 89.4571L272.725 94.9902L272.63 100.523C272.584 102.365 272.55 104.209 272.483 106.053C272.417 107.898 272.371 109.742 272.279 111.587H271.128Z" fill="#211928"/>
<path d="M317.481 137.419C317.302 133.114 317.193 128.808 317.098 124.503C317.05 122.349 317.01 120.196 316.977 118.045C316.948 115.892 316.908 113.739 316.894 111.586L316.836 105.128L316.816 98.6702C316.779 94.3647 316.796 90.0593 317.481 85.7539H318.632C319.317 90.0593 319.334 94.3647 319.297 98.6702L319.277 105.128L319.219 111.586C319.219 113.739 319.164 115.892 319.133 118.045C319.101 120.197 319.061 122.35 319.015 124.503C318.923 128.808 318.81 133.114 318.632 137.419H317.481Z" fill="#211928"/>
<path d="M338.084 127.912C337.934 124.742 337.848 121.546 337.762 118.364L337.652 113.589L337.575 108.814C337.532 105.629 337.501 102.445 337.48 99.2637V94.4885C337.532 92.8949 337.221 91.3185 338.098 89.7134H339.25C340.113 91.3041 339.825 92.8834 339.865 94.4885V99.2637C339.844 102.445 339.813 105.629 339.77 108.814L339.693 113.589L339.586 118.364C339.497 121.534 339.411 124.73 339.264 127.912H338.084Z" fill="#211928"/>
<path d="M326.056 98.6296L354.999 87.7393L258.211 69.0767L228.869 76.1803L326.056 98.6296Z" fill="#86829D"/>
<path d="M267.467 72.6299L263.415 74.5405C263.147 74.6406 262.92 74.8241 262.765 75.064C262.61 75.3038 262.537 75.5872 262.556 75.8721C262.574 76.157 262.684 76.4283 262.869 76.6458C263.054 76.8632 263.304 77.0153 263.581 77.0794L315.256 88.9842C315.45 89.0288 315.652 89.029 315.846 88.9847C316.041 88.9405 316.222 88.8529 316.378 88.7286C316.534 88.6043 316.66 88.4464 316.747 88.2666C316.834 88.0869 316.879 87.8898 316.879 87.6902V83.186L267.467 72.6299Z" fill="#473D58"/>
<path d="M264.994 73.7943L316.881 86.1774V83.1832L266.951 72.8721L264.994 73.7943Z" fill="#372F46"/>
<path d="M253.219 8.16087V68.0132C253.219 68.5122 253.391 68.9959 253.706 69.3831C254.02 69.7703 254.458 70.0375 254.945 70.14L330.609 87.3617C330.925 87.4281 331.251 87.4232 331.565 87.3473C331.879 87.2714 332.171 87.1265 332.422 86.923C332.672 86.7196 332.875 86.4628 333.014 86.1712C333.153 85.8797 333.225 85.5608 333.225 85.2378V18.6362C333.225 18.1118 333.036 17.605 332.692 17.2093C332.348 16.8137 331.873 16.5559 331.355 16.4835L255.685 6.01103C255.378 5.96817 255.066 5.99174 254.768 6.08014C254.471 6.16854 254.197 6.31973 253.963 6.52349C253.729 6.72725 253.542 6.97884 253.413 7.2613C253.285 7.54377 253.219 7.85053 253.219 8.16087Z" fill="#211928"/>
<path d="M330.526 21.5959V81.6558C330.527 81.962 330.46 82.2646 330.33 82.5415C330.199 82.8184 330.008 83.0626 329.771 83.256C329.534 83.4494 329.257 83.5873 328.96 83.6595C328.662 83.7316 328.353 83.7363 328.054 83.673L300.248 77.6472L276.857 72.5781L257.328 68.3447C256.867 68.2466 256.454 67.9924 256.159 67.625C255.863 67.2576 255.703 66.7993 255.705 66.3274V11.2848C255.705 10.9905 255.769 10.6997 255.891 10.432C256.013 10.1643 256.192 9.92604 256.414 9.73319C256.636 9.54034 256.896 9.39744 257.178 9.31413C257.46 9.23082 257.757 9.20904 258.048 9.25026L311.428 17.0484L324.422 18.9476L328.762 19.5816C329.248 19.6494 329.694 19.8902 330.018 20.26C330.342 20.6299 330.522 21.104 330.526 21.5959Z" fill="#F9F8FB"/>
<path d="M330.526 21.5963V81.6561C330.527 81.9623 330.46 82.265 330.33 82.5419C330.199 82.8188 330.008 83.0629 329.771 83.2563C329.534 83.4498 329.257 83.5876 328.96 83.6598C328.662 83.7319 328.353 83.7366 328.054 83.6734L300.248 77.6475L276.857 72.5784L257.328 68.345C256.867 68.2469 256.454 67.9928 256.159 67.6253C255.863 67.2579 255.703 66.7996 255.705 66.3277V13.3716C255.705 13.3716 263.726 33.9074 265.274 40.864L272.089 32.5241C272.397 32.1467 272.792 31.8486 273.239 31.6548C273.686 31.4609 274.173 31.3768 274.66 31.4095C275.146 31.4422 275.617 31.5907 276.034 31.8428C276.452 32.0948 276.803 32.443 277.059 32.8584C278.155 34.6365 284.662 49.3135 287.894 56.6535C288.06 57.0317 288.33 57.3551 288.672 57.5869C289.013 57.8186 289.413 57.9491 289.826 57.9636C290.238 57.978 290.647 57.8758 291.004 57.6685C291.361 57.4613 291.652 57.1574 291.845 56.7918C296.113 48.7055 305.794 30.0832 311.428 17.0228L324.422 18.9219L328.762 19.5559C329.253 19.6243 329.702 19.8689 330.027 20.2442C330.351 20.6194 330.528 21.0999 330.526 21.5963Z" fill="#86829D"/>
<path d="M276.857 72.5665L257.328 68.3332C256.867 68.2351 256.454 67.9809 256.159 67.6135C255.863 67.246 255.703 66.7878 255.705 66.3159V35.6621C256.773 32.0022 258.73 28.7918 260.22 26.7054C260.412 26.4355 260.672 26.2215 260.974 26.0853C261.276 25.9491 261.608 25.8956 261.937 25.9301C262.266 25.9647 262.58 26.0862 262.847 26.2822C263.113 26.4781 263.323 26.7415 263.455 27.0454L270.937 44.3104C271.09 44.6552 271.154 45.0329 271.123 45.4088C271.092 45.7847 270.968 46.1468 270.761 46.4622C270.554 46.7775 270.272 47.0359 269.94 47.2137C269.608 47.3916 269.236 47.4833 268.86 47.4804C268.635 47.4774 268.413 47.5333 268.217 47.6425C268.021 47.7517 267.856 47.9104 267.74 48.1029C267.623 48.2954 267.559 48.515 267.554 48.7399C267.548 48.9649 267.602 49.1873 267.709 49.3852C270.765 55.0422 279.289 71.4167 276.857 72.5665Z" fill="#C66D80"/>
<path d="M330.526 21.5961V81.6559C330.527 81.9621 330.46 82.2648 330.329 82.5417C330.199 82.8186 330.008 83.0627 329.771 83.2562C329.534 83.4496 329.257 83.5875 328.96 83.6596C328.662 83.7318 328.353 83.7364 328.054 83.6732L300.248 77.6473C300.136 77.532 300.032 77.4225 299.937 77.313C294.918 71.5033 320.583 45.9474 313.21 44.8465C312.39 44.7226 309.469 44.6535 307.82 44.1059C307.52 44.0066 307.245 43.8441 307.013 43.6293C306.781 43.4145 306.598 43.1524 306.476 42.8608C306.353 42.5691 306.295 42.2547 306.305 41.9385C306.314 41.6224 306.391 41.312 306.53 41.0281C310.03 33.9648 317.512 25.0168 324.422 18.9448L328.762 19.5788C329.249 19.6467 329.695 19.8879 330.019 20.2584C330.343 20.6288 330.523 21.1037 330.526 21.5961Z" fill="#BD5F72"/>
<path fill-rule="evenodd" clip-rule="evenodd" d="M236.242 -0.327508C236.9 -1.08099 238.044 -1.1582 238.798 -0.499955L246.792 6.48556C247.546 7.1438 247.623 8.28824 246.965 9.04173C246.307 9.79521 245.162 9.87242 244.409 9.21417L236.415 2.22866C235.661 1.57042 235.584 0.425979 236.242 -0.327508Z" fill="#86829D"/>
<path fill-rule="evenodd" clip-rule="evenodd" d="M226.426 31.0302C226.567 30.0396 227.484 29.3507 228.474 29.4914L239.712 31.0879C240.703 31.2286 241.391 32.1457 241.251 33.1362C241.11 34.1268 240.193 34.8158 239.203 34.6751L227.965 33.0786C226.975 32.9379 226.286 32.0208 226.426 31.0302Z" fill="#86829D"/>
<path fill-rule="evenodd" clip-rule="evenodd" d="M244.905 59.2973C245.17 60.2621 244.603 61.2591 243.639 61.5242L236.237 63.5588C235.272 63.8239 234.276 63.2568 234.011 62.292C233.745 61.3273 234.312 60.3302 235.277 60.0651L242.679 58.0306C243.643 57.7654 244.64 58.3326 244.905 59.2973Z" fill="#86829D"/>
<path d="M228.869 76.1805C228.869 76.1805 228.82 76.1603 228.82 76.2035C228.82 76.2468 228.82 76.3505 228.82 76.3505V77.5695C228.82 77.8513 228.915 78.1249 229.09 78.346C229.264 78.5672 229.508 78.7231 229.782 78.7885L324.882 101.238C325.627 101.5 326.439 101.5 327.184 101.238C328.301 100.788 354.492 90.3619 354.492 90.3619C354.492 90.3619 355.022 90.287 355.007 89.3302C354.993 88.3734 355.007 87.7394 355.007 87.7394L326.045 98.6298L228.869 76.1805Z" fill="#372F46"/>
<path d="M0.873019 199.176L218.653 134.082L259.026 150.845L258.738 161.712C258.662 164.554 257.803 167.32 256.257 169.705C254.71 172.089 252.537 173.999 249.975 175.225L146.744 224.591C143.73 226.119 140.436 227.015 137.064 227.226C133.692 227.437 130.312 226.957 127.132 225.815L0.985254 201.582C0.716263 201.525 0.473777 201.38 0.295746 201.17C0.117715 200.961 0.0141836 200.697 0.00135445 200.422C-0.0114747 200.147 0.0671223 199.876 0.224845 199.65C0.382568 199.425 0.610518 199.258 0.873019 199.176Z" fill="#98919F"/>
<path d="M255.721 128.442C255.721 128.442 261.215 129.546 260.826 134.566C260.323 141.116 251.088 129.6 251.088 129.6L255.721 128.442Z" fill="#FFDA41"/>
<path d="M137.823 197.557L133.037 195.11C132.912 195.046 132.773 195.016 132.633 195.022C132.493 195.027 132.356 195.069 132.237 195.142C132.117 195.216 132.019 195.319 131.95 195.441C131.882 195.564 131.846 195.702 131.846 195.842V211.917C131.846 212.107 131.913 212.291 132.034 212.438C132.155 212.585 132.324 212.685 132.51 212.721L137.918 213.775C138.102 213.813 138.294 213.784 138.459 213.695L141.55 212.052C141.681 211.982 141.791 211.878 141.867 211.751C141.944 211.623 141.984 211.478 141.984 211.329V197.104C141.985 196.963 141.948 196.823 141.879 196.7C141.809 196.577 141.709 196.474 141.588 196.401C141.467 196.328 141.329 196.288 141.187 196.284C141.046 196.281 140.906 196.314 140.781 196.381L138.58 197.534C138.465 197.598 138.336 197.634 138.204 197.638C138.072 197.642 137.942 197.614 137.823 197.557Z" fill="#211928"/>
<path d="M251.468 151.191L248.878 149.865C248.579 149.713 248.245 149.641 247.909 149.655C247.574 149.669 247.247 149.77 246.961 149.946C246.675 150.123 246.439 150.37 246.276 150.664C246.113 150.958 246.028 151.29 246.029 151.626V164.254C246.029 164.697 246.179 165.127 246.454 165.473C246.729 165.82 247.112 166.064 247.543 166.165L251.773 167.159C252.172 167.252 252.59 167.218 252.968 167.061L254.956 166.24C255.315 166.091 255.621 165.84 255.837 165.517C256.052 165.195 256.168 164.815 256.168 164.427V152.923C256.167 152.585 256.079 152.253 255.912 151.959C255.746 151.665 255.506 151.419 255.216 151.245C254.927 151.071 254.597 150.975 254.26 150.966C253.922 150.957 253.588 151.035 253.29 151.194C253.009 151.341 252.696 151.417 252.379 151.417C252.062 151.416 251.749 151.339 251.468 151.191Z" fill="#211928"/>
<path d="M68.8074 186.09L64.672 183.977C64.4958 183.885 64.2988 183.841 64.1002 183.847C63.9016 183.854 63.7082 183.912 63.5387 184.016C63.3692 184.12 63.2294 184.266 63.133 184.44C63.0366 184.614 62.9868 184.81 62.9885 185.009V200.251C62.9837 200.523 63.0749 200.787 63.246 200.998C63.4171 201.209 63.6572 201.353 63.9238 201.404L68.9427 202.381C69.2022 202.432 69.4716 202.392 69.7053 202.268L72.5112 200.778C72.6973 200.68 72.8528 200.532 72.9609 200.351C73.069 200.17 73.1254 199.963 73.1242 199.752V186.297C73.1259 186.097 73.0754 185.899 72.9774 185.724C72.8795 185.549 72.7376 185.402 72.5658 185.299C72.394 185.196 72.1982 185.139 71.9979 185.135C71.7975 185.13 71.5995 185.178 71.4234 185.274L69.878 186.096C69.7124 186.181 69.5285 186.226 69.342 186.225C69.1555 186.224 68.9721 186.177 68.8074 186.09Z" fill="#211928"/>
<path d="M42.1465 90.0678C42.1465 85.5319 44.9409 84.8806 44.9409 84.8806L160.558 57.3276C162.014 56.9477 163.537 56.8975 165.015 57.1806L176.653 59.3592L59.9631 88.4252C59.9631 88.4252 42.1465 94.6009 42.1465 90.0678Z" fill="#FFDA41"/>
<path d="M138.033 176.225C137.806 183.058 137.458 193.286 137.279 199.28C137.236 200.646 136.666 201.942 135.688 202.895C134.71 203.849 133.401 204.385 132.036 204.392C128.411 204.41 124.792 204.098 121.224 203.461L98.941 199.482L97.5711 199.237L97.4301 199.211L59.9637 192.482C39.2059 188.753 42.0895 153.943 42.1471 153.289V89.5865C42.1508 88.9232 42.2974 88.2686 42.5768 87.6672C42.8562 87.0658 43.2619 86.5319 43.7662 86.1019C44.2705 85.6718 44.8615 85.3558 45.4989 85.1754C46.1363 84.9949 46.805 84.9543 47.4595 85.0563L53.1145 85.9497C55.025 86.2505 56.7655 87.2246 58.0223 88.6966C59.2791 90.1686 59.9696 92.0417 59.9694 93.9784L60.1594 150.217C60.1594 151.312 66.2345 158.197 67.3165 158.364L131.368 168.194C133.267 168.486 134.993 169.465 136.221 170.944C137.449 172.424 138.094 174.302 138.033 176.225Z" fill="#E0AC00"/>
<path d="M255.723 128.442L164.119 160.142L155.718 163.099L155.209 163.277L144.515 167.024L144.092 167.136L143.744 167.226C143.539 167.277 143.338 167.326 143.133 167.373L142.771 167.456L142.641 167.485L142.066 167.603C141.81 167.655 141.551 167.704 141.292 167.75L141.191 167.767C141.041 167.796 140.889 167.819 140.739 167.842L140.627 167.862C140.365 167.906 140.106 167.943 139.844 167.978H139.775L139.271 168.041C139.168 168.041 139.067 168.067 138.963 168.076C138.756 168.102 138.546 168.122 138.336 168.142H138.267C135.375 168.398 132.462 168.301 129.593 167.854L106.838 164.335L106.15 164.228L69.0783 158.465L66.9948 158.139C65.6398 157.66 64.3978 156.906 63.3457 155.926L66.1948 154.984L86.1697 148.376L179.84 117.434L255.723 128.442Z" fill="#FFDA41"/>
<path d="M179.721 63.4427L179.839 117.448L86.1344 148.396L66.1853 155.024L63.3334 155.972C62.2695 154.983 61.4211 153.785 60.8412 152.452C60.2613 151.12 59.9625 149.682 59.9634 148.228V93.8689C59.9479 92.4902 59.5686 91.1401 58.8641 89.9554L58.1504 88.8488L60.2541 88.356L175.062 59.4745C177.428 58.8779 179.721 60.6704 179.721 63.4427Z" fill="#F1C000"/>
<path d="M260.866 135.255V150.932C260.866 155.742 259.715 159.753 254.76 161.667C248.567 164.053 188.103 187.548 163.904 196.476C153.627 200.268 143.529 204.364 132.38 204.387C133.681 204.294 134.902 203.722 135.806 202.78C136.71 201.838 137.232 200.594 137.272 199.289C137.465 193.286 137.799 183.058 138.026 176.234C138.089 174.308 137.445 172.426 136.216 170.944C134.987 169.462 133.258 168.483 131.356 168.191L131.146 168.159C130.915 168.107 130.662 168.061 130.389 168.024C138.159 169.041 144.49 167.058 151.636 164.543C157.391 162.525 228.353 137.903 252.714 129.454C253.638 129.132 254.626 129.036 255.595 129.175C256.564 129.313 257.486 129.682 258.284 130.249C259.081 130.817 259.732 131.568 260.181 132.438C260.631 133.309 260.866 134.275 260.866 135.255Z" fill="#F1C000"/>
<path d="M216.98 130.434C216.98 130.434 212.663 137.062 212.729 139.367C212.795 141.673 213.915 144.753 217.843 143.854C221.771 142.955 232.442 145.056 235.637 144.393C238.831 143.73 252.616 141.909 240.762 138.874C228.908 135.84 216.98 130.434 216.98 130.434Z" fill="#F1C000"/>
<path d="M114.924 137.48C114.924 137.48 122.89 137.48 123.011 139.436C123.131 141.393 121.362 152.445 137.21 155.621C153.058 158.796 184.452 150.206 193.232 140.033C204.859 126.566 129.152 131.128 125.028 134.073C120.904 137.018 114.938 137.48 114.938 137.48" fill="#F1C000"/>
<path d="M68.0564 219.496C68.0564 219.496 41.5199 209.698 34.2476 222.455C29.9309 230.014 30.7194 248.634 49.0138 249.957C58.1912 250.622 80.3073 248.634 94.4201 227.738L68.0564 219.496Z" fill="#98919F"/>
<path d="M92.507 179.934C92.6988 180.866 92.8955 181.807 93.0969 182.758L81.1942 182.6C81.1942 182.6 80.2992 174.116 80.3309 162.819C80.3309 158.049 80.5122 152.776 80.987 147.427C81.6921 139.447 83.0677 131.289 85.5685 124.413L85.5944 124.332C87.678 118.618 90.5357 113.776 94.4294 110.624C94.4207 110.624 83.6404 135.9 92.507 179.934Z" fill="#64BC9C"/>
<path d="M75.4238 181.796C75.3921 182.421 75.3662 182.759 75.3662 182.759H66.6464C68.0213 170.408 67.8037 157.932 65.9989 145.638C64.6866 136.739 63.0117 131.396 63.0117 131.396C76.7764 143.845 75.7461 175.833 75.4238 181.796Z" fill="#64BC9C"/>
<path d="M93.0969 182.749L81.1942 182.591C81.1942 182.591 80.2992 174.107 80.3309 162.81L80.987 147.418C81.6921 139.439 83.0677 131.28 85.5685 124.404C85.3038 125.269 83.5915 131.102 84.5095 134.159C84.5095 134.159 87.8161 159.655 86.383 177.755C86.383 177.755 86.0434 180.381 92.5156 179.925C92.6979 180.863 92.8917 181.804 93.0969 182.749Z" fill="#526752"/>
<path d="M100.165 185.006C100.472 185.977 100.873 186.915 101.362 187.807H94.4207C94.4207 187.807 91.7673 166.465 98.582 147.897C99.3685 145.725 100.296 143.607 101.359 141.557C101.359 141.557 96.8093 165.813 99.1288 180.525C99.3554 182.044 99.7018 183.542 100.165 185.006Z" fill="#51974F"/>
<path d="M84.1435 178.577C84.0572 180.896 83.9555 183.28 83.8384 185.729L72.5977 187.807C72.5977 187.807 78.2123 145.609 75.5561 113.866C74.9805 107.096 74.051 100.805 72.5977 95.4971C72.5977 95.4971 86.9148 103.05 84.1435 178.577Z" fill="#51974F"/>
<path d="M75.4229 181.796C75.3913 182.421 75.3654 182.758 75.3654 182.758H66.6456C68.0205 170.408 67.8028 157.932 65.998 145.638C66.1448 146.056 71.2587 160.802 70.2803 178.317C70.2803 178.317 70.0874 180.562 73.5466 179.66C74.6085 179.384 75.1697 180.338 75.4229 181.796Z" fill="#526752"/>
<path d="M84.1435 178.577C84.0572 180.896 83.9555 183.28 83.8384 185.73L72.5977 187.807C72.5977 187.807 78.2123 145.609 75.5561 113.866C75.5705 113.719 75.5791 113.641 75.5791 113.641C75.5791 113.641 80.2009 147.646 77.4468 178.096C77.4468 178.096 77.6655 180.401 83.8384 178.649C83.9389 178.62 84.0407 178.596 84.1435 178.577Z" fill="#526752"/>
<path d="M100.165 185.006C100.087 185.951 99.9461 186.928 99.7964 187.807H94.4207C94.4207 187.807 91.7673 166.464 98.582 147.897C98.4726 148.367 94.4379 165.793 95.7416 178.317C95.7416 178.317 95.2552 181.199 98.5849 180.525C98.7647 180.483 98.9518 180.483 99.1317 180.525C100.205 180.816 100.346 182.827 100.165 185.006Z" fill="#514C63"/>
<path d="M107.864 186.035V208.974C107.865 213.99 106.199 218.864 103.131 222.829C100.063 226.794 95.7649 229.624 90.9141 230.876C89.0741 231.348 87.1818 231.587 85.2822 231.585H82.3871C79.4221 231.585 76.4861 231 73.7468 229.864C71.0075 228.727 68.5185 227.062 66.422 224.962C64.3256 222.862 62.6627 220.37 61.5283 217.627C60.3938 214.883 59.8102 211.943 59.8105 208.974V186.035C59.8105 184.736 60.326 183.489 61.2435 182.571C62.161 181.652 63.4053 181.136 64.7029 181.136H102.978C104.274 181.137 105.517 181.654 106.434 182.573C107.35 183.491 107.864 184.737 107.864 186.035Z" fill="#E7314A"/>
<path d="M90.9141 230.876C89.0741 231.348 87.1818 231.587 85.2822 231.585H82.3871C79.4221 231.585 76.4861 231 73.7468 229.864C71.0075 228.727 68.5185 227.062 66.422 224.962C64.3256 222.862 62.6627 220.37 61.5283 217.627C60.3938 214.883 59.8102 211.943 59.8105 208.974V186.035C59.8105 184.736 60.326 183.489 61.2435 182.571C62.161 181.652 63.4053 181.136 64.7029 181.136H71.7679C70.6225 187.752 64.6309 228.57 90.9141 230.876Z" fill="#D22945"/>
<path d="M184.584 198.661C184.584 198.661 178.895 207.347 179.001 214.848C179.108 222.349 206.577 219.664 211.184 218.381C215.792 217.099 220.592 210.935 218.646 208.511C216.701 206.087 209.46 212.298 202.531 207.18C195.244 201.791 192.919 189.232 190.101 194.099C187.284 198.966 184.584 198.661 184.584 198.661Z" fill="#98919F"/>
<path d="M124.537 17.6336C112.948 21.4722 106.076 37.6334 105.417 62.4832C104.772 86.6587 97.6696 104.713 132.416 102.54C148.509 101.543 159.908 97.5491 160.933 87.3936C161.957 77.2381 146.063 59.3737 146.457 46.6851C147.119 25.3223 138.828 12.9017 124.537 17.6336Z" fill="#211928"/>
<path fill-rule="evenodd" clip-rule="evenodd" d="M124.156 20.9334C124.285 20.8279 124.304 20.6377 124.199 20.5086L124.156 20.9334ZM123.965 20.6998C123.774 20.4661 123.774 20.4661 123.773 20.4663L123.772 20.4679L123.766 20.4722L123.746 20.4888C123.729 20.5032 123.704 20.5245 123.671 20.5526C123.605 20.6088 123.509 20.692 123.387 20.8016C123.142 21.0209 122.792 21.3459 122.365 21.7711C121.512 22.6213 120.353 23.8733 119.127 25.4837C116.677 28.7027 113.952 33.3645 112.876 39.1195C112.846 39.2835 112.954 39.4412 113.118 39.4718C113.281 39.5025 113.439 39.3945 113.47 39.2306C114.523 33.5967 117.194 29.0208 119.608 25.8494C120.814 24.2646 121.954 23.0332 122.791 22.1989C123.21 21.7818 123.553 21.4641 123.79 21.2514C123.909 21.145 124.001 21.0649 124.063 21.0117C124.094 20.985 124.118 20.9652 124.134 20.9521L124.151 20.9377L124.155 20.9343L124.156 20.9334M124.199 20.5086C124.093 20.3795 123.903 20.3607 123.773 20.4663L124.199 20.5086ZM123.773 20.4663L123.965 20.6998L123.773 20.4663Z" fill="#352B41"/>
<path fill-rule="evenodd" clip-rule="evenodd" d="M113.243 56.6454C113.405 56.6848 113.505 56.8482 113.465 57.0102L113.172 56.9387L112.879 56.8673C112.918 56.7052 113.081 56.6059 113.243 56.6454ZM113.172 56.9387C112.879 56.8673 112.879 56.8671 112.879 56.8673L112.87 56.902L112.846 57.003C112.825 57.0917 112.794 57.2225 112.754 57.3913C112.676 57.729 112.563 58.2187 112.429 58.8279C112.16 60.0462 111.803 61.7427 111.449 63.6561C110.743 67.476 110.045 72.1845 110.099 75.6751C110.101 75.8419 110.238 75.975 110.405 75.9724C110.572 75.9698 110.705 75.8326 110.702 75.6658C110.65 72.2401 111.337 67.5827 112.043 63.7659C112.395 61.8609 112.751 60.1713 113.019 58.958C113.152 58.3514 113.264 57.864 113.342 57.5285C113.381 57.3607 113.412 57.2309 113.433 57.1432L113.457 57.0436L113.465 57.0102C113.465 57.0101 113.465 57.0102 113.172 56.9387Z" fill="#352B41"/>
<path d="M155.932 67.7487C160.591 75.1434 163.127 84.005 165.889 92.2441C167.417 96.7887 168.894 101.362 170.183 105.982C170.315 106.454 178.327 110.78 183.3 113.688C185.315 114.863 187.844 115.886 189.631 117.388C192.627 119.901 189.732 122.137 186.92 121.33C180.589 119.517 174.402 116.506 168.261 114.126C166.246 113.348 163.961 112.875 162.75 110.956C160.865 107.947 159.759 104.068 158.433 100.74C155.644 93.7484 152.873 86.6735 150.663 79.4747C149.759 76.541 147.698 71.6737 148.74 68.6017C149.796 65.4749 154.168 64.9562 155.932 67.7487Z" fill="#FAD8E3"/>
<path d="M156.45 82.2124C154.311 83.3882 153.713 83.8695 151.454 84.2729C149.425 76.5698 142.403 70.7284 139.125 63.6564C136.719 58.4519 141.177 53.8871 146.659 55.6652C152.049 57.4144 154.355 61.5268 157.48 66.0397C160.358 70.1981 163.259 74.4229 163.264 75.6794C163.273 77.1981 158.591 81.0337 156.45 82.2124Z" fill="#E7314A"/>
<path fill-rule="evenodd" clip-rule="evenodd" d="M160.155 79.4862C160.271 79.6058 160.268 79.7969 160.149 79.9131C158.654 81.365 156.884 82.5029 154.943 83.2601C154.788 83.3207 154.613 83.2439 154.552 83.0886C154.491 82.9332 154.568 82.7582 154.723 82.6976C156.589 81.9696 158.291 80.8756 159.728 79.4798C159.848 79.3637 160.039 79.3665 160.155 79.4862Z" fill="#211928"/>
<path d="M128.216 106.529C128.216 106.529 130.409 114.696 126.818 122.993C123.905 129.716 125.505 144.165 136.027 147.837C151.792 153.344 156.459 130.373 156.459 130.373L157.28 108.405C157.28 108.405 155.677 105.843 154.908 100.912C154.016 95.192 128.216 106.529 128.216 106.529Z" fill="#211928"/>
<path fill-rule="evenodd" clip-rule="evenodd" d="M155.897 105.826C156.062 105.805 156.213 105.922 156.234 106.088C156.379 107.227 156.547 108.324 156.717 109.429C157.191 112.517 157.675 115.669 157.675 119.996C157.675 120.163 157.54 120.298 157.374 120.298C157.207 120.298 157.072 120.163 157.072 119.996C157.072 115.719 156.597 112.628 156.125 109.552C155.954 108.439 155.783 107.328 155.635 106.164C155.614 105.998 155.731 105.847 155.897 105.826Z" fill="#352B41"/>
<path d="M141.621 67.8294C127.471 71.5556 117.493 64.3165 118.475 62.6768C122.886 55.2907 126.725 55.9708 127.29 52.8209C127.29 52.8209 128.619 49.5588 126.472 45.4522C125.897 44.36 126.15 43.9479 127.154 43.1467C129.12 41.5963 133.111 41.092 135.212 43.4522C136.076 44.4176 136.628 45.8585 136.596 47.9046C136.531 48.5046 136.516 49.1091 136.553 49.7115C136.619 50.9853 136.913 52.7114 137.891 54.112C139.681 56.6912 151.104 65.3338 141.621 67.8294Z" fill="#FAD8E3"/>
<path d="M137.581 53.6157C137.581 53.6157 145.366 59.0912 151.746 66.6703C159.317 75.6645 156.12 83.2234 153.035 84.6586C153.732 90.3014 155.277 95.8064 157.617 100.987C157.737 101.25 157.781 101.542 157.741 101.828C157.701 102.115 157.58 102.384 157.392 102.604C155.855 104.411 153.363 107.007 144.73 108.984C139.109 110.266 130.933 110.462 126.617 109.246C126.144 109.115 125.73 108.826 125.443 108.427C125.155 108.029 125.012 107.544 125.037 107.053C125.307 102.096 126.208 98.6959 125.037 92.6614L116.777 60.7886C116.777 60.7886 118.674 59.3966 120.706 57.9615C122.737 56.5263 124.375 56.2065 124.375 56.2065C124.375 56.2065 131.028 64.8519 138.05 62.4773C140.689 61.5926 143.104 59.7482 137.581 53.6157Z" fill="#E7314A"/>
<path d="M137.898 54.123C140.436 54.8352 143.04 55.289 145.669 55.4775C149.698 55.7253 152.256 62.4832 152.256 62.4832L141.372 58.3017L137.898 54.123Z" fill="#E7314A"/>
<path fill-rule="evenodd" clip-rule="evenodd" d="M149.074 63.5447C149.194 63.4294 149.385 63.4337 149.501 63.5542C151.792 65.951 153.603 68.6107 154.841 71.0391C156.075 73.4578 156.759 75.6802 156.759 77.1979C156.759 79.0731 156.422 81.073 155.314 82.734C154.198 84.4056 152.325 85.6961 149.332 86.1902C149.167 86.2174 149.012 86.106 148.985 85.9415C148.957 85.777 149.069 85.6216 149.233 85.5944C152.088 85.1231 153.802 83.9107 154.811 82.3987C155.828 80.876 156.155 79.0114 156.155 77.1979C156.155 75.8222 155.522 73.7017 154.304 71.3135C153.09 68.9351 151.314 66.324 149.064 63.9716C148.949 63.851 148.953 63.6599 149.074 63.5447Z" fill="#211928"/>
<path fill-rule="evenodd" clip-rule="evenodd" d="M142.836 86.1439C142.94 86.2738 142.92 86.4639 142.79 86.5684C139.906 88.8901 136.64 89.3949 134.112 89.3245C132.847 89.2892 131.761 89.1101 130.991 88.9396C130.605 88.8543 130.298 88.771 130.087 88.7087C129.981 88.6775 129.899 88.6516 129.842 88.6332C129.814 88.624 129.793 88.6167 129.778 88.6116L129.76 88.6057L129.756 88.604L129.754 88.6035L129.754 88.6033C129.754 88.6032 129.753 88.6032 129.855 88.3188L129.753 88.6032C129.596 88.5472 129.514 88.3745 129.57 88.2174C129.626 88.0604 129.799 87.9784 129.956 88.0343M129.956 88.0343L129.956 88.0345L129.959 88.0355L129.973 88.0402C129.985 88.0444 130.004 88.0508 130.03 88.0592C130.081 88.0758 130.157 88.1 130.257 88.1294C130.457 88.1882 130.751 88.2679 131.121 88.35C131.863 88.5141 132.91 88.6869 134.128 88.7208C136.568 88.7887 139.675 88.3008 142.411 86.098C142.541 85.9934 142.731 86.014 142.836 86.1439" fill="#211928"/>
<path fill-rule="evenodd" clip-rule="evenodd" d="M187.338 173.719C187.473 173.621 187.661 173.651 187.759 173.786L187.515 173.963C187.759 173.786 187.759 173.786 187.759 173.786L187.759 173.786L187.76 173.787L187.765 173.793C187.769 173.799 187.777 173.809 187.787 173.822C187.807 173.849 187.839 173.889 187.882 173.94C187.969 174.043 188.101 174.193 188.281 174.374C188.641 174.737 189.189 175.225 189.938 175.719C191.434 176.706 193.736 177.72 196.944 177.802C197.111 177.807 197.243 177.945 197.239 178.112C197.234 178.279 197.096 178.41 196.929 178.406C193.594 178.321 191.184 177.265 189.605 176.223C188.817 175.703 188.237 175.187 187.852 174.799C187.66 174.605 187.516 174.443 187.42 174.328C187.372 174.271 187.335 174.225 187.31 174.193C187.298 174.177 187.288 174.165 187.282 174.156L187.274 174.145L187.272 174.142L187.271 174.141L187.271 174.14C187.27 174.14 187.27 174.14 187.515 173.963L187.27 174.14C187.173 174.005 187.203 173.816 187.338 173.719ZM187.759 173.786C187.759 173.786 187.759 173.786 187.759 173.786L187.759 173.786Z" fill="#352B41"/>
<path fill-rule="evenodd" clip-rule="evenodd" d="M126.627 46.2357C126.759 46.1339 126.949 46.1583 127.051 46.2904C127.413 46.7597 127.837 47.1776 128.311 47.5328C128.444 47.6328 128.471 47.822 128.371 47.9555C128.271 48.089 128.082 48.1161 127.949 48.0162C127.431 47.6282 126.968 47.1717 126.573 46.6592C126.471 46.5272 126.495 46.3376 126.627 46.2357Z" fill="#211928"/>
<path fill-rule="evenodd" clip-rule="evenodd" d="M127.261 61.3449C127.377 61.2253 127.569 61.2226 127.688 61.3389C128.712 62.3348 129.923 63.1178 131.25 63.6428C132.578 64.1677 133.996 64.4242 135.423 64.3975C135.59 64.3944 135.728 64.527 135.731 64.6937C135.734 64.8605 135.601 64.9981 135.435 65.0013C133.928 65.0295 132.43 64.7586 131.028 64.2043C129.627 63.6501 128.348 62.8233 127.267 61.7718C127.148 61.6556 127.145 61.4644 127.261 61.3449Z" fill="#211928"/>
<path fill-rule="evenodd" clip-rule="evenodd" d="M139.786 63.4402C139.918 63.542 139.943 63.7316 139.841 63.8637C139.581 64.2016 139.197 64.3903 138.907 64.494C138.758 64.5472 138.624 64.5815 138.527 64.6026C138.478 64.6132 138.438 64.6206 138.41 64.6254C138.395 64.6278 138.384 64.6296 138.376 64.6308L138.366 64.6323L138.362 64.6327L138.361 64.6329L138.361 64.6329C138.36 64.633 138.36 64.633 138.321 64.3336L138.361 64.6329C138.195 64.6545 138.044 64.5379 138.022 64.3725C138.001 64.2072 138.117 64.0558 138.282 64.0342C138.282 64.0342 138.282 64.0342 138.282 64.0342L138.287 64.0335C138.291 64.0328 138.299 64.0317 138.309 64.03C138.329 64.0265 138.36 64.0209 138.399 64.0125C138.477 63.9956 138.585 63.9679 138.704 63.9253C138.95 63.8374 139.206 63.6989 139.363 63.4951C139.465 63.363 139.654 63.3384 139.786 63.4402Z" fill="#211928"/>
<path d="M192.651 95.6732C192.651 95.6732 182.434 110.713 172.293 119.751C168.316 123.295 162.796 128.713 156.997 127.82C151.011 126.892 147.558 120.249 150.157 114.774C155.455 103.803 165.608 94.656 175.038 87.2814C179.43 83.8463 184.247 80.1835 189.404 77.976C189.404 77.976 194.461 75.6879 197.644 78.8031C202.041 83.0999 192.651 95.6732 192.651 95.6732Z" fill="#211928"/>
<path d="M224.975 126.44C224.975 126.44 226.915 131.805 224.27 132.909C221.625 134.013 218.537 131.872 215.636 128.243C215.559 128.147 215.49 128.044 215.429 127.935C214.065 126.294 212.728 124.633 211.418 122.95C209.522 120.525 207.668 118.07 205.855 115.584C205.719 115.395 205.612 115.187 205.538 114.967C204.099 110.719 212.661 99.8346 216.572 107.215C216.641 107.339 216.704 107.469 216.767 107.604C217.7 109.594 218.608 111.582 219.493 113.566C220.192 115.128 220.88 116.685 221.562 118.221C222.73 120.863 223.864 123.529 224.897 126.223L224.975 126.437C225.081 126.725 225.191 126.984 225.294 127.261" fill="#FAD8E3"/>
<path d="M192.651 95.6733C194.458 98.6934 196.254 101.725 198.173 104.607C201.552 109.656 203.558 113.768 206.91 118.229C207.8 119.411 211.843 119.255 214.468 117.607C217.702 115.575 219.328 113.215 219.092 110.007C215.034 100.088 209.264 91.901 202.645 83.7339C199.172 79.4458 195.057 75.1144 189.407 77.9703C185.347 80.0193 189.088 89.7166 192.651 95.6733Z" fill="#211928"/>
<path fill-rule="evenodd" clip-rule="evenodd" d="M190.026 90.1274C190.181 90.0658 190.357 90.1414 190.418 90.2963C191.133 92.0931 191.968 93.8399 192.916 95.5249C192.998 95.6702 192.946 95.8544 192.801 95.9362C192.656 96.018 192.472 95.9665 192.39 95.8212C191.428 94.1126 190.582 92.3415 189.857 90.5196C189.796 90.3647 189.871 90.1891 190.026 90.1274Z" fill="#352B41"/>
<path d="M216.977 130.817C217.464 132.857 216.531 134.644 216.114 137.232C215.969 138.069 215.936 138.922 216.013 139.768C216.215 141.534 217.078 142.292 217.996 142.362H218.062C223.335 142.785 223.067 141.826 228.06 142.797C234.823 144.108 236.374 147.635 239.384 147.004C239.468 146.987 239.551 146.967 239.632 146.944L239.724 146.918C240.62 146.636 241.418 146.105 242.026 145.387C242.121 145.275 242.213 145.154 242.314 145.03C242.383 144.929 242.449 144.825 242.512 144.722C242.848 144.15 243.055 143.512 243.117 142.851C243.14 142.563 242.921 141.552 241.076 140.987C235.168 139.186 233.735 136.278 229.876 133.782C228.866 133.128 227.378 131.506 226.569 130.215C226.265 129.721 226.001 129.204 225.781 128.667C225.628 128.183 225.45 127.708 225.28 127.255C225.28 127.255 223.081 122.376 218.661 123.849C214.241 125.321 216.785 130.027 216.977 130.817Z" fill="#FAD8E3"/>
<path d="M241.886 144.964H241.865C240.139 144.73 238.147 142.998 238.064 142.923C238.05 142.91 238.04 142.895 238.032 142.877C238.025 142.86 238.021 142.841 238.021 142.823C238.021 142.804 238.025 142.785 238.032 142.768C238.04 142.75 238.05 142.735 238.064 142.722C238.091 142.695 238.128 142.68 238.166 142.68C238.204 142.68 238.241 142.695 238.268 142.722C238.288 142.739 240.283 144.471 241.917 144.69C241.955 144.692 241.991 144.71 242.016 144.738C242.042 144.767 242.055 144.804 242.052 144.843C242.05 144.881 242.033 144.917 242.004 144.942C241.976 144.967 241.938 144.98 241.9 144.978L241.886 144.964Z" fill="#211928"/>
<path d="M242.844 143.673C241.583 143.673 239.998 142.419 239.931 142.365C239.915 142.354 239.901 142.339 239.89 142.322C239.879 142.306 239.872 142.287 239.869 142.267C239.866 142.247 239.867 142.227 239.872 142.208C239.877 142.189 239.886 142.171 239.898 142.155C239.911 142.139 239.926 142.127 239.944 142.117C239.962 142.108 239.981 142.102 240.001 142.101C240.021 142.1 240.041 142.102 240.059 142.109C240.078 142.116 240.095 142.126 240.11 142.14C240.127 142.14 241.687 143.385 242.844 143.385H242.878C242.916 143.386 242.952 143.401 242.978 143.427C243.005 143.453 243.021 143.489 243.022 143.526C243.022 143.564 243.007 143.6 242.98 143.627C242.954 143.654 242.919 143.671 242.881 143.673H242.844Z" fill="#211928"/>
<path d="M242.657 142.428C241.906 142.428 240.697 141.731 240.548 141.641C240.515 141.621 240.491 141.59 240.481 141.552C240.472 141.515 240.477 141.476 240.496 141.442C240.516 141.41 240.547 141.387 240.584 141.378C240.62 141.369 240.659 141.374 240.692 141.393C241.126 141.65 242.361 142.278 242.833 142.117C242.851 142.11 242.87 142.108 242.889 142.109C242.908 142.11 242.926 142.115 242.943 142.123C242.961 142.131 242.976 142.143 242.988 142.157C243.001 142.171 243.011 142.188 243.017 142.206C243.029 142.242 243.026 142.281 243.009 142.315C242.993 142.349 242.963 142.375 242.928 142.388C242.84 142.416 242.749 142.43 242.657 142.428Z" fill="#211928"/>
<path d="M219.527 207.58C219.527 207.681 219.504 207.779 219.489 207.868C219.029 210.718 216.036 212.825 214.182 212.966L213.662 213.001C213.492 213.001 213.325 213.001 213.161 213.001C212.997 213.001 212.752 213.001 212.554 213.001H212.237C208.999 212.891 206.481 211.9 200.878 211.761H200.352H199.966C199.641 211.761 199.327 211.761 199.028 211.761H198.423C195.471 211.851 193.649 212.225 191.882 212.28C191.655 212.28 191.43 212.28 191.203 212.28H190.895C190.117 212.241 189.345 212.121 188.593 211.92C188.377 211.862 188.17 211.779 187.974 211.672C185.859 210.519 185.03 206.586 185.738 204.597C186.414 202.695 187.983 200.087 188.141 197.71C188.245 196.203 188.302 191.589 192.23 191.171C196.061 190.762 196.746 195.142 196.918 196.009C197.252 197.646 198.202 199.468 200.947 200.995C206.55 204.096 208.772 204.638 212.024 205.188C215.656 205.802 217.699 203.747 219.535 206.439C219.763 206.776 219.567 207.223 219.527 207.58Z" fill="#FAD8E3"/>
<path d="M215.87 206.897H215.827C215.789 206.895 215.753 206.878 215.727 206.851C215.701 206.824 215.686 206.788 215.686 206.75C215.686 206.712 215.702 206.676 215.729 206.65C215.756 206.623 215.792 206.609 215.829 206.609H215.847C216.907 206.589 217.934 206.231 218.776 205.586C218.791 205.573 218.808 205.564 218.826 205.559C218.844 205.553 218.863 205.551 218.882 205.553C218.9 205.555 218.919 205.56 218.936 205.569C218.952 205.578 218.967 205.59 218.979 205.604C218.991 205.619 219 205.636 219.006 205.654C219.012 205.672 219.014 205.691 219.012 205.71C219.01 205.729 219.005 205.747 218.996 205.764C218.987 205.78 218.975 205.795 218.961 205.807C218.076 206.497 216.991 206.88 215.87 206.897Z" fill="#211928"/>
<path d="M216.222 208.338C216.184 208.338 216.147 208.323 216.12 208.296C216.093 208.269 216.078 208.232 216.078 208.194C216.078 208.156 216.093 208.119 216.12 208.092C216.147 208.065 216.184 208.05 216.222 208.05C216.239 208.05 217.949 207.972 219.149 207.11C219.164 207.097 219.182 207.088 219.201 207.082C219.22 207.076 219.24 207.074 219.26 207.077C219.279 207.079 219.299 207.086 219.316 207.096C219.333 207.106 219.348 207.12 219.359 207.136C219.371 207.152 219.379 207.171 219.383 207.19C219.387 207.21 219.387 207.23 219.383 207.249C219.379 207.269 219.371 207.287 219.359 207.304C219.348 207.32 219.333 207.334 219.316 207.344C218.041 208.257 216.308 208.335 216.234 208.338H216.222Z" fill="#211928"/>
<path d="M216.528 209.923C216.272 209.933 216.016 209.891 215.777 209.799C215.742 209.783 215.715 209.754 215.702 209.718C215.689 209.682 215.691 209.642 215.707 209.607C215.723 209.573 215.752 209.546 215.788 209.532C215.824 209.519 215.863 209.521 215.898 209.537C215.898 209.537 216.531 209.825 217.688 209.427C217.724 209.416 217.763 209.42 217.797 209.437C217.831 209.454 217.857 209.484 217.869 209.519C217.881 209.555 217.879 209.595 217.862 209.629C217.845 209.663 217.816 209.689 217.78 209.701C217.377 209.841 216.955 209.916 216.528 209.923Z" fill="#211928"/>
<path d="M159.938 146.633C154.13 148.2 147.12 149.243 142.49 148.938C135.007 148.462 131.468 145.039 129.519 141.494C126.535 136.071 130.319 132.477 135.851 129.754C151.117 122.287 169.127 119.267 185.835 117.103C189.741 116.598 193.666 116.183 197.597 115.976C197.597 115.976 207.252 115.846 208.334 121.739C210.602 134.013 168.848 144.226 159.938 146.633Z" fill="#211928"/>
<path d="M202.029 175.05C201.657 176.522 200.126 180.393 199.741 181.857C198.978 184.756 198.469 186.525 198.037 187.998C197.372 190.275 196.941 205.061 192.23 204.548C187.999 204.084 188.273 192.701 188.273 192.502C188.313 189.407 187.122 184.393 187.041 180.165C187.041 179.914 187.041 179.669 187.041 179.427C187.072 177.523 187.115 175.62 187.171 173.716C187.171 173.615 187.171 173.517 187.188 173.427V173.341C187.188 173.257 187.208 173.171 187.219 173.09C187.219 173.09 187.219 173.07 187.219 173.061C187.219 172.958 187.254 172.86 187.277 172.759C187.3 172.658 187.323 172.574 187.349 172.471C189.28 165.566 205.079 162.886 202.029 175.05Z" fill="#FAD8E3"/>
<path d="M190.788 135.171C189.81 140.315 188.466 145.678 188.008 150.788C187.197 159.825 186.322 166.877 186.135 175.952C186.12 176.6 188.083 179.41 192.017 180.324C196.521 181.367 199.655 181.073 201.629 179.332C204.976 166.16 207.687 152.658 208.76 139.238C209.109 134.846 209.296 130.405 209.022 126.004C208.864 123.431 208.542 120.987 206.801 118.944C206.801 118.944 197.056 110.431 190.788 135.171Z" fill="#211928"/>
<path fill-rule="evenodd" clip-rule="evenodd" d="M193.721 127.659C193.861 127.749 193.901 127.936 193.81 128.076C192.803 129.63 192.12 131.415 191.69 132.82C191.475 133.521 191.323 134.124 191.226 134.55C191.177 134.764 191.142 134.933 191.119 135.048C191.108 135.106 191.099 135.15 191.094 135.18L191.088 135.213L191.086 135.221L191.086 135.223" fill="#352B41"/>
<path d="M141.839 34.1579C141.64 28.1983 139.617 23.0715 136.788 20.4462C135.827 19.0226 134.276 18.2935 131.93 18.6047H131.876C118.114 20.5269 122.163 37.0051 122.163 37.0051C124.552 44.3854 127.631 47.6678 129.772 49.1087C130.365 49.5483 131.029 49.8836 131.735 50.1C131.928 50.1676 132.128 50.2168 132.33 50.247C132.688 50.3129 133.052 50.3399 133.415 50.3277C138.357 50.175 142.132 42.9215 141.839 34.1579Z" fill="#FAD8E3"/>
<path d="M135.957 27.0284C135.957 27.0284 138.104 32.622 141.681 31.9592C142.959 31.7229 144.147 29.1494 140.852 24.1207C137.557 19.0919 134.973 18.0689 132.688 17.6856C127.542 16.8182 135.957 27.0284 135.957 27.0284Z" fill="#211928"/>
<path d="M125.209 35.5961C125.209 35.5961 123.865 45.3798 121.045 45.9302C119.568 46.2184 117.188 42.4461 118.167 35.3108C119.145 28.1754 121.318 26.9535 123.548 25.455C125.779 23.9564 125.209 35.5961 125.209 35.5961Z" fill="#211928"/>
<path d="M121.637 21.1986C121.637 21.1986 116.81 30.2561 122.935 33.8785C124.258 34.6595 128.569 34.354 133.439 30.3022C139.669 25.1149 137.18 24.0487 136.342 21.4378C133.807 13.5646 121.637 21.1986 121.637 21.1986Z" fill="#211928"/>
<path d="M125.671 42.1137C126.773 41.6782 127.15 40.0195 126.515 38.4089C125.88 36.7983 124.472 35.8457 123.371 36.2812C122.27 36.7168 121.892 38.3755 122.527 39.9861C123.162 41.5967 124.57 42.5492 125.671 42.1137Z" fill="#FAD8E3"/>
<path d="M126.476 33.9707L125.066 36.5153L123.506 34.1033L126.476 33.9707Z" fill="#211928"/>
<path d="M140.252 31.478L142.641 36.1581L142.787 30.8901L140.252 31.478Z" fill="#211928"/>
<path fill-rule="evenodd" clip-rule="evenodd" d="M133.213 23.8125C133.364 23.8829 133.43 24.0625 133.359 24.2137L133.086 24.0861C133.359 24.2137 133.36 24.2135 133.359 24.2137L133.359 24.2156L133.357 24.2195L133.35 24.2335C133.344 24.2456 133.336 24.2629 133.325 24.2853C133.302 24.33 133.269 24.3949 133.225 24.4777C133.137 24.6433 133.005 24.8805 132.826 25.1714C132.469 25.7529 131.925 26.5498 131.176 27.4167C129.679 29.1499 127.357 31.1709 124.064 32.3024C123.906 32.3566 123.735 32.2727 123.681 32.115C123.626 31.9572 123.71 31.7855 123.868 31.7313C127.033 30.6438 129.271 28.6994 130.719 27.022C131.443 26.1837 131.968 25.4139 132.312 24.8551C132.484 24.5758 132.61 24.3495 132.692 24.194C132.734 24.1163 132.764 24.0563 132.784 24.0163C132.794 23.9963 132.801 23.9813 132.806 23.9716L132.811 23.961L132.812 23.9588C132.883 23.8077 133.062 23.742 133.213 23.8125Z" fill="#352B41"/>
<path fill-rule="evenodd" clip-rule="evenodd" d="M128.736 20.9145C128.736 20.9145 128.736 20.9145 128.736 20.9145L128.735 20.9157L128.73 20.9204L128.711 20.9398C128.693 20.9572 128.668 20.9833 128.634 21.0176C128.568 21.0863 128.472 21.1876 128.353 21.3169C128.116 21.5755 127.792 21.9454 127.442 22.3892C126.738 23.282 125.949 24.4526 125.554 25.6072C125.5 25.765 125.329 25.8492 125.171 25.7952C125.013 25.7412 124.929 25.5695 124.983 25.4118C125.411 24.1601 126.25 22.9258 126.968 22.0153C127.329 21.5574 127.663 21.1761 127.908 20.9089C128.031 20.7753 128.131 20.67 128.201 20.5978C128.235 20.5617 128.263 20.5339 128.282 20.5149L128.303 20.4931L128.309 20.4873L128.311 20.4852C128.311 20.4852 128.311 20.485 128.524 20.6998L128.311 20.4852C128.43 20.368 128.621 20.3689 128.738 20.4875C128.855 20.6061 128.854 20.7973 128.736 20.9145Z" fill="#352B41"/>
<path fill-rule="evenodd" clip-rule="evenodd" d="M141.805 34.2188C141.805 34.2189 141.805 34.219 141.621 34.458L141.805 34.219C141.937 34.3209 141.962 34.5105 141.86 34.6425C141.758 34.7743 141.569 34.7988 141.437 34.6975M141.437 34.6971L141.437 34.6973L141.435 34.696L141.423 34.6871C141.411 34.6787 141.392 34.6657 141.367 34.649C141.316 34.6155 141.238 34.5677 141.136 34.5142C140.931 34.4069 140.631 34.2777 140.257 34.1934C139.515 34.0264 138.466 34.0319 137.253 34.7653C137.11 34.8516 136.925 34.8059 136.839 34.6632C136.752 34.5205 136.798 34.3349 136.941 34.2486C138.301 33.4258 139.513 33.4069 140.39 33.6043C140.825 33.7023 141.174 33.8527 141.416 33.9794C141.537 34.0428 141.631 34.1006 141.697 34.1435C141.73 34.165 141.756 34.1828 141.774 34.1957C141.783 34.2022 141.79 34.2075 141.795 34.2114L141.802 34.2163L141.804 34.2179L141.805 34.2185L141.805 34.2188M141.437 34.6971C141.437 34.6971 141.437 34.6971 141.437 34.6971L141.437 34.6971Z" fill="#211928"/>
<path fill-rule="evenodd" clip-rule="evenodd" d="M127.16 34.874C127.032 34.9804 127.014 35.1708 127.12 35.2992C127.227 35.4275 127.417 35.4453 127.545 35.3391" fill="#211928"/>
<path fill-rule="evenodd" clip-rule="evenodd" d="M137.184 44.4448C137.298 44.3231 137.488 44.3166 137.61 44.4304C137.732 44.5442 137.739 44.7353 137.625 44.8571L137.404 44.6511C137.625 44.8571 137.625 44.8573 137.625 44.8574L137.624 44.8577L137.624 44.8584L137.622 44.8604L137.616 44.8666C137.611 44.8717 137.604 44.8788 137.595 44.8876C137.578 44.9051 137.553 44.9296 137.521 44.9595C137.457 45.0191 137.364 45.1006 137.248 45.1913C137.015 45.3716 136.678 45.5933 136.27 45.7485C135.86 45.9041 135.371 45.9956 134.84 45.9029C134.307 45.8096 133.757 45.5344 133.224 44.9961C133.107 44.8776 133.108 44.6864 133.226 44.5691C133.345 44.4517 133.536 44.4527 133.653 44.5712C134.109 45.0314 134.549 45.2389 134.944 45.308C135.343 45.3777 135.721 45.3112 136.056 45.184C136.391 45.0564 136.676 44.8705 136.878 44.714C136.978 44.6362 137.056 44.5669 137.109 44.5179C137.135 44.4934 137.155 44.4741 137.168 44.4614C137.174 44.4551 137.178 44.4504 137.181 44.4476L137.184 44.445L137.184 44.4448L137.184 44.4448Z" fill="#211928"/>
<path fill-rule="evenodd" clip-rule="evenodd" d="M136.058 36.8697C136.058 36.8697 136.058 36.8697 136.058 36.8697L136.057 36.8709L136.057 36.8764L136.055 36.8999C136.054 36.921 136.052 36.9528 136.049 36.9941C136.045 37.0768 136.039 37.1978 136.036 37.3484C136.03 37.6501 136.033 38.069 136.071 38.5376C136.147 39.4875 136.363 40.5891 136.886 41.3467L136.887 41.3479C137.041 41.5746 137.102 41.853 137.054 42.1234C137.007 42.391 136.858 42.63 136.639 42.7902C136.221 43.1234 135.724 43.342 135.196 43.4246C135.032 43.4504 134.877 43.3377 134.851 43.173C134.826 43.0082 134.938 42.8538 135.103 42.828C135.529 42.7613 135.931 42.5843 136.267 42.3143C136.271 42.311 136.276 42.3078 136.28 42.3047C136.375 42.2366 136.439 42.134 136.459 42.0188C136.48 41.9038 136.454 41.7855 136.389 41.6892C135.772 40.7956 135.548 39.5604 135.469 38.5862C135.429 38.0925 135.426 37.6525 135.432 37.3358C135.436 37.1772 135.441 37.0491 135.446 36.96C135.449 36.9155 135.451 36.8807 135.453 36.8567L135.455 36.8289L135.456 36.8214L135.456 36.8192L135.456 36.8185C135.456 36.8185 135.456 36.8182 135.757 36.8439L135.456 36.8185C135.47 36.6524 135.616 36.5289 135.783 36.5431C135.949 36.5573 136.072 36.7036 136.058 36.8697Z" fill="#211928"/>
<path d="M138.833 37.5497C139.263 37.5497 139.613 37.0027 139.613 36.3278C139.613 35.653 139.263 35.106 138.833 35.106C138.402 35.106 138.053 35.653 138.053 36.3278C138.053 37.0027 138.402 37.5497 138.833 37.5497Z" fill="#211928"/>
<path d="M130.965 37.7487C131.432 37.7487 131.811 37.1913 131.811 36.5037C131.811 35.8162 131.432 35.2588 130.965 35.2588C130.498 35.2588 130.119 35.8162 130.119 36.5037C130.119 37.1913 130.498 37.7487 130.965 37.7487Z" fill="#211928"/>
<path fill-rule="evenodd" clip-rule="evenodd" d="M132.203 34.7299C132.276 34.88 132.213 35.0605 132.063 35.133L130.462 35.9053C130.312 35.9778 130.132 35.9148 130.059 35.7646C129.987 35.6145 130.05 35.434 130.2 35.3615L131.8 34.5892C131.95 34.5167 132.131 34.5797 132.203 34.7299Z" fill="#211928"/>
<path fill-rule="evenodd" clip-rule="evenodd" d="M139.941 34.5215C140.017 34.6698 139.959 34.8518 139.811 34.928L138.493 35.6052C138.344 35.6814 138.162 35.6229 138.086 35.4746C138.01 35.3263 138.068 35.1443 138.217 35.0681L139.535 34.3909C139.683 34.3147 139.865 34.3731 139.941 34.5215Z" fill="#211928"/>
<path d="M112.098 105.745C112.098 102.719 112.656 95.2525 113.194 86.3592C113.453 81.292 114.089 76.2512 115.096 71.2787C115.502 69.3565 115.755 66.1376 117.281 64.7514C118.944 63.2413 121.672 63.7831 122.351 66.0684C124.576 73.7311 124.849 81.9587 124.921 89.8808C124.982 96.4657 124.633 101.947 124.524 105.76C124.415 109.572 122.872 117.699 118.124 117.682C113.375 117.664 112.118 113.509 112.098 105.745Z" fill="#FAD8E3"/>
<path d="M125.819 77.3594C125.922 79.3392 126.472 89.2036 126.472 89.2036C126.4 89.2238 121.942 91.4572 117.654 90.8953C114.946 90.5167 112.302 89.7742 109.792 88.6878C109.49 77.5381 112.606 66.7659 114.572 63.5555C115.185 62.5584 115.594 62.0282 115.594 62.0282C115.594 62.0282 118.952 57.4173 122.213 60.8755C125.695 64.5728 125.729 75.6562 125.819 77.3594Z" fill="#E7314A"/>
<path fill-rule="evenodd" clip-rule="evenodd" d="M121.904 60.8275C121.928 60.6624 122.081 60.5475 122.246 60.5709L122.203 60.8698C122.246 60.5709 122.246 60.571 122.247 60.5711L122.248 60.5713L122.252 60.5718L122.261 60.5733C122.267 60.5744 122.275 60.576 122.284 60.578C122.303 60.582 122.327 60.5879 122.357 60.5966C122.416 60.614 122.495 60.6422 122.591 60.6877C122.784 60.7789 123.041 60.938 123.335 61.214C123.922 61.7655 124.65 62.7776 125.31 64.6347C126.627 68.3426 127.691 75.4751 126.772 89.2239C126.765 89.3363 126.695 89.4352 126.592 89.4804L126.471 89.2038C126.592 89.4804 126.592 89.4803 126.592 89.4804L126.591 89.4809L126.588 89.4822L126.578 89.4867L126.538 89.5038C126.503 89.5185 126.451 89.5399 126.385 89.5668C126.252 89.6207 126.058 89.697 125.812 89.7875C125.321 89.9685 124.62 90.2068 123.781 90.437C122.108 90.8962 119.868 91.3278 117.636 91.1968C117.469 91.1871 117.342 91.0442 117.352 90.8777C117.362 90.7113 117.505 90.5842 117.671 90.594C119.811 90.7195 121.979 90.3052 123.622 89.8546C124.441 89.6298 125.125 89.3971 125.604 89.2208C125.843 89.1327 126.031 89.0588 126.158 89.0072C126.166 89.0038 126.174 89.0005 126.182 88.9974C127.077 75.3993 126.011 68.4123 124.741 64.8369C124.104 63.0442 123.421 62.1233 122.922 61.6543C122.672 61.42 122.467 61.297 122.333 61.2336C122.266 61.2018 122.216 61.1846 122.186 61.1759C122.171 61.1715 122.162 61.1693 122.157 61.1683C122.156 61.1682 122.156 61.168 122.155 61.168C122.155 61.1678 122.155 61.1679 122.155 61.168L122.157 61.1683L122.159 61.1685L122.16 61.1686" fill="#211928"/>
<path d="M160.637 127.096C163.469 125.699 164.666 124.215 164.666 124.215L163.543 118.494C163.543 118.494 164.222 118.414 160.09 119.393C157.58 119.99 151.511 119.52 150.881 122.78C150.13 126.719 158.251 128.272 160.637 127.096Z" fill="#FAD8E3"/>
<path d="M163.448 123.099L167.244 120.88L167.296 120.848C167.396 120.791 167.511 120.764 167.627 120.771L170.933 120.998C171 121.002 171.065 121.019 171.124 121.049C171.184 121.078 171.237 121.119 171.281 121.169C171.324 121.219 171.358 121.278 171.378 121.341C171.399 121.404 171.407 121.471 171.402 121.537C171.394 121.659 171.342 121.775 171.256 121.861C171.17 121.948 171.055 122.001 170.933 122.01L167.627 122.235L168.007 122.125L164.311 124.505C164.127 124.624 163.904 124.664 163.691 124.617C163.477 124.57 163.291 124.44 163.173 124.256C163.055 124.072 163.015 123.848 163.062 123.635C163.109 123.421 163.238 123.234 163.422 123.116L163.448 123.099Z" fill="#FAD8E3"/>
<path d="M162.154 122.111L166.039 119.578L166.071 119.558C166.184 119.484 166.318 119.449 166.453 119.457L171.679 119.745C171.807 119.776 171.921 119.851 172 119.956C172.08 120.061 172.121 120.19 172.117 120.322C172.113 120.454 172.064 120.581 171.978 120.681C171.892 120.781 171.775 120.848 171.645 120.872L166.41 120.834L166.825 120.713L163.083 123.465C162.996 123.534 162.896 123.585 162.79 123.615C162.683 123.644 162.571 123.652 162.461 123.637C162.351 123.622 162.245 123.586 162.149 123.529C162.054 123.472 161.971 123.397 161.905 123.308C161.839 123.218 161.792 123.116 161.766 123.008C161.741 122.9 161.737 122.788 161.756 122.678C161.775 122.569 161.815 122.464 161.875 122.37C161.935 122.277 162.013 122.196 162.105 122.134C162.12 122.124 162.137 122.116 162.154 122.111Z" fill="#FAD8E3"/>
<path d="M162.254 120.22L165.949 118.491L165.987 118.474C166.077 118.432 166.176 118.414 166.275 118.422L170.951 118.811C171.087 118.819 171.214 118.88 171.305 118.982C171.395 119.083 171.442 119.217 171.434 119.353C171.427 119.489 171.366 119.617 171.264 119.707C171.163 119.798 171.029 119.845 170.893 119.837L166.203 119.69L166.531 119.621L162.988 121.638C162.804 121.73 162.593 121.748 162.396 121.689C162.2 121.629 162.033 121.496 161.932 121.317C161.83 121.139 161.8 120.928 161.849 120.728C161.898 120.528 162.021 120.355 162.194 120.244L162.254 120.22Z" fill="#FAD8E3"/>
<path d="M162.39 118.895L166.419 117.511H166.439C166.531 117.481 166.631 117.475 166.727 117.494L170.275 118.218C170.415 118.244 170.539 118.326 170.62 118.444C170.7 118.563 170.73 118.708 170.704 118.849C170.677 118.989 170.596 119.114 170.477 119.194C170.359 119.275 170.214 119.305 170.073 119.278L166.508 118.65L166.821 118.624L162.847 120.18C162.764 120.213 162.675 120.228 162.586 120.227C162.497 120.225 162.409 120.205 162.327 120.17C162.245 120.134 162.171 120.082 162.109 120.018C162.048 119.953 161.999 119.877 161.967 119.794C161.934 119.711 161.918 119.622 161.92 119.532C161.922 119.443 161.941 119.355 161.977 119.273C162.013 119.191 162.064 119.117 162.129 119.055C162.193 118.993 162.269 118.945 162.352 118.912L162.39 118.895Z" fill="#FAD8E3"/>
<path fill-rule="evenodd" clip-rule="evenodd" d="M167.036 119.521C166.596 119.6 165.806 119.915 165.096 120.227C164.747 120.381 164.428 120.529 164.196 120.639C164.08 120.694 163.986 120.739 163.921 120.77C163.888 120.786 163.863 120.799 163.846 120.807L163.827 120.816L163.821 120.819C163.671 120.893 163.49 120.832 163.416 120.682C163.342 120.533 163.404 120.352 163.553 120.278L163.687 120.548C163.553 120.278 163.553 120.278 163.553 120.278L163.56 120.274L163.58 120.264C163.598 120.256 163.624 120.243 163.657 120.227C163.724 120.195 163.819 120.149 163.937 120.093C164.173 119.981 164.497 119.831 164.853 119.674C165.55 119.368 166.408 119.02 166.931 118.926L166.934 118.925C167.04 118.907 167.188 118.907 167.342 118.913C167.503 118.92 167.697 118.934 167.91 118.954C168.335 118.994 168.845 119.056 169.334 119.12C169.823 119.185 170.294 119.253 170.643 119.304C170.817 119.33 170.961 119.352 171.061 119.367L171.177 119.385L171.219 119.392L171.172 119.69L171.125 119.988L171.085 119.982L170.97 119.964C170.871 119.949 170.728 119.927 170.554 119.902C170.208 119.851 169.74 119.783 169.255 119.719C168.769 119.655 168.268 119.594 167.854 119.555C167.647 119.536 167.464 119.522 167.318 119.517C167.165 119.511 167.075 119.514 167.036 119.521ZM171.47 119.737C171.444 119.901 171.29 120.014 171.125 119.988L171.172 119.69L171.219 119.392C171.383 119.417 171.496 119.572 171.47 119.737Z" fill="#211928"/>
<path fill-rule="evenodd" clip-rule="evenodd" d="M166.613 120.51C166.667 120.476 166.73 120.459 166.794 120.464L170.126 120.68C170.293 120.69 170.419 120.834 170.408 121C170.397 121.167 170.254 121.293 170.087 121.282L166.853 121.072L164.585 122.51C164.444 122.599 164.257 122.557 164.168 122.416C164.079 122.275 164.121 122.089 164.261 122L166.613 120.51Z" fill="#211928"/>
<path fill-rule="evenodd" clip-rule="evenodd" d="M163.147 119.83L163.023 119.555C162.898 119.28 162.898 119.28 162.898 119.28L162.908 119.276L162.934 119.264C162.957 119.253 162.991 119.238 163.035 119.219C163.122 119.18 163.246 119.125 163.397 119.059C163.698 118.927 164.106 118.753 164.529 118.58C164.951 118.409 165.394 118.237 165.764 118.115C165.948 118.053 166.12 118.002 166.265 117.969C166.393 117.94 166.552 117.911 166.681 117.935C166.914 117.978 167.794 118.104 168.627 118.22C169.041 118.278 169.44 118.333 169.736 118.373L170.223 118.44L170.183 118.739L170.142 119.038L169.654 118.972C169.358 118.931 168.958 118.876 168.544 118.818C167.72 118.703 166.821 118.575 166.571 118.529C166.573 118.529 166.572 118.529 166.567 118.53C166.553 118.531 166.502 118.534 166.399 118.558C166.281 118.585 166.13 118.629 165.954 118.688C165.603 118.804 165.175 118.97 164.757 119.14C164.34 119.309 163.937 119.482 163.638 119.612C163.489 119.678 163.366 119.732 163.28 119.77C163.238 119.789 163.204 119.804 163.182 119.814L163.156 119.826L163.147 119.83ZM170.183 118.739L170.142 119.038C170.307 119.061 170.459 118.945 170.482 118.78C170.504 118.615 170.388 118.463 170.223 118.44L170.183 118.739ZM162.748 119.679C162.679 119.527 162.746 119.349 162.898 119.28L163.023 119.555L163.147 119.83C162.995 119.899 162.816 119.831 162.748 119.679Z" fill="#211928"/>
<path d="M118.682 119.212C123.379 120.549 129.244 121.122 133.486 122.053L147.792 125.183C149.749 125.612 154.839 127.272 156.874 126.471C160.089 125.209 158.995 121.768 156.434 120.549C155.691 120.197 144.525 116.584 140.514 115.284C140.514 115.284 130.979 112.013 124.637 110.059C119.882 108.595 114.826 108.076 113.767 111.35C112.512 115.235 115.013 118.166 118.682 119.212Z" fill="#FAD8E3"/>
<path d="M109.562 159.059L105.648 160.436C105.514 160.473 105.397 160.555 105.315 160.668C105.234 160.781 105.193 160.918 105.2 161.057C105.207 161.196 105.26 161.329 105.352 161.433C105.444 161.538 105.569 161.608 105.706 161.632L121.977 164.358C122.419 164.433 122.871 164.416 123.307 164.309L126.582 163.468L109.562 159.059Z" fill="#F1C000"/>
<path d="M110.043 158.358L109.137 157.468V158.194L109.165 159.776C109.168 159.898 109.212 160.016 109.291 160.109C109.369 160.202 109.477 160.266 109.597 160.289L126.576 163.476L126.591 161.286L110.043 158.358Z" fill="#211928"/>
<path d="M136.991 156.897V156.321L136.588 156.577L136.3 157.194L127.172 161.174C126.99 161.251 126.794 161.288 126.596 161.28C126.596 161.485 126.582 163.252 126.582 163.471C126.798 163.482 127.013 163.439 127.207 163.344L136.528 159.067C136.667 159.003 136.785 158.9 136.868 158.771C136.95 158.642 136.994 158.492 136.994 158.338V156.897H136.991Z" fill="#473D58"/>
<path d="M126.498 161.272L109.764 158.307C109.6 158.277 109.45 158.195 109.337 158.073C109.225 157.95 109.155 157.794 109.14 157.628C109.125 157.462 109.164 157.295 109.252 157.154C109.341 157.013 109.473 156.904 109.629 156.845L120.113 152.926C120.296 152.857 120.495 152.838 120.688 152.871L136.364 155.649C136.522 155.679 136.668 155.759 136.778 155.877C136.888 155.996 136.958 156.146 136.978 156.307C136.997 156.467 136.964 156.63 136.885 156.771C136.806 156.912 136.684 157.024 136.536 157.09L127.129 161.191C126.931 161.279 126.712 161.307 126.498 161.272Z" fill="#584F6D"/>
<path d="M126.293 160.883L110.465 158.079C110.349 158.059 110.244 158.001 110.164 157.915C110.085 157.828 110.036 157.718 110.026 157.601C110.015 157.484 110.043 157.367 110.106 157.268C110.169 157.169 110.263 157.093 110.373 157.053L120.497 153.266C120.589 153.233 120.689 153.225 120.785 153.243L135.58 155.863C135.692 155.883 135.795 155.939 135.874 156.023C135.952 156.106 136.002 156.213 136.015 156.327C136.029 156.441 136.005 156.556 135.949 156.655C135.892 156.755 135.805 156.834 135.701 156.88L126.612 160.845C126.512 160.89 126.401 160.903 126.293 160.883Z" fill="#777086"/>
<path d="M110.641 158.108L128.572 154.621L132.708 155.353L116.062 159.07L110.641 158.108Z" fill="#584F6D"/>
<path d="M118.018 159.416C118.164 159.442 134.116 155.604 134.116 155.604L134.554 155.681L120.139 159.791L118.018 159.416Z" fill="#584F6D"/>
</g>
<defs>
<clipPath id="clip0_5538_8366">
<rect width="355" height="250" fill="white"/>
</clipPath>
</defs>
</svg>
