<svg width="32" height="32" viewBox="0 0 32 32" fill="none" xmlns="http://www.w3.org/2000/svg">
<path fill-rule="evenodd" clip-rule="evenodd" d="M32 16C32 24.8366 24.8366 32 16 32C7.16344 32 0 24.8366 0 16C0 7.16344 7.16344 0 16 0C24.8366 0 32 7.16344 32 16ZM20.616 13.5657C20.3035 13.2533 20.3035 12.7467 20.616 12.4343C20.9284 12.1219 21.4349 12.1219 21.7473 12.4343L24.9293 15.6163C25.2417 15.9287 25.2417 16.4352 24.9293 16.7477L21.7473 19.9296C21.4349 20.2421 20.9284 20.2421 20.616 19.9296C20.3035 19.6172 20.3035 19.1107 20.616 18.7983L22.4142 17H16C15.4477 17 15 16.5523 15 16C15 15.4477 15.4477 15 16 15H22.0503L20.616 13.5657ZM11 7C9.89543 7 9 7.89543 9 9V23C9 24.1046 9.89543 25 11 25H15C15.5523 25 16 24.5523 16 24C16 23.4477 15.5523 23 15 23H11V9H15C15.5523 9 16 8.55229 16 8C16 7.44772 15.5523 7 15 7H11Z" fill="#E1DFE7"/>
</svg>
