<svg width="46" height="46" viewBox="0 0 46 46" fill="none" xmlns="http://www.w3.org/2000/svg">
    <path fill-rule="evenodd" clip-rule="evenodd"
          d="M23 46C35.7025 46 46 35.7025 46 23C46 10.2975 35.7025 0 23 0C10.2975 0 0 10.2975 0 23C0 35.7025 10.2975 46 23 46ZM24 12L21.3572 12H21.3571C20.2734 12 19.3992 12 18.6914 12.0578C17.9625 12.1174 17.3223 12.2432 16.73 12.545C15.7892 13.0243 15.0243 13.7892 14.545 14.73C14.2432 15.3223 14.1174 15.9625 14.0578 16.6914C14 17.3992 14 18.2734 14 19.3571V19.3572V26.6428V26.6429C14 27.7266 14 28.6008 14.0578 29.3086C14.1174 30.0375 14.2432 30.6777 14.545 31.27C15.0243 32.2108 15.7892 32.9757 16.73 33.455C17.3223 33.7568 17.9625 33.8826 18.6914 33.9422C19.3992 34 20.2732 34 21.3569 34H21.3572H24C24.5523 34 25 33.5523 25 33C25 32.4477 24.5523 32 24 32H21.4C20.2634 32 19.4711 31.9992 18.8542 31.9488C18.2491 31.8994 17.9014 31.8072 17.638 31.673C17.0735 31.3854 16.6146 30.9265 16.327 30.362C16.1928 30.0986 16.1006 29.7509 16.0512 29.1458C16.0008 28.5289 16 27.7366 16 26.6V19.4C16 18.2634 16.0008 17.4711 16.0512 16.8542C16.1006 16.2491 16.1928 15.9014 16.327 15.638C16.6146 15.0735 17.0735 14.6146 17.638 14.327C17.9014 14.1928 18.2491 14.1006 18.8542 14.0512C19.4711 14.0008 20.2634 14 21.4 14H24C24.5523 14 25 13.5523 25 13C25 12.4477 24.5523 12 24 12ZM31.7071 18.2929C31.3166 17.9024 30.6834 17.9024 30.2929 18.2929C29.9024 18.6834 29.9024 19.3166 30.2929 19.7071L32.5858 22H23C22.4477 22 22 22.4477 22 23C22 23.5523 22.4477 24 23 24H32.5858L30.2929 26.2929C29.9024 26.6834 29.9024 27.3166 30.2929 27.7071C30.6834 28.0976 31.3166 28.0976 31.7071 27.7071L35.7071 23.7071C35.8946 23.5196 36 23.2652 36 23C36 22.7348 35.8946 22.4804 35.7071 22.2929L31.7071 18.2929Z"
          fill="#FE3850" fill-opacity="0.5"/>
</svg>
