<svg width="12" height="8" viewBox="0 0 12 8" fill="none" xmlns="http://www.w3.org/2000/svg">
<path d="M5.62162 0C8.43228 0 11.2432 2.29042 11.2432 4C11.2432 5.70959 8.43228 8 5.62162 8C2.81096 8 0 5.70959 0 4C0 2.29042 2.81096 0 5.62162 0ZM5.62162 0.972973C3.30943 0.972973 0.972973 2.87675 0.972973 4C0.972973 5.12325 3.30943 7.02703 5.62162 7.02703C7.93381 7.02703 10.2703 5.12325 10.2703 4C10.2703 2.87675 7.93381 0.972973 5.62162 0.972973ZM5.62162 2.16216C6.63663 2.16216 7.45946 2.98499 7.45946 4C7.45946 5.01501 6.63663 5.83784 5.62162 5.83784C4.60661 5.83784 3.78378 5.01501 3.78378 4C3.78378 2.98499 4.60661 2.16216 5.62162 2.16216ZM5.62162 3.13514C5.14397 3.13514 4.75676 3.52235 4.75676 4C4.75676 4.47765 5.14397 4.86487 5.62162 4.86487C6.09927 4.86487 6.48649 4.47765 6.48649 4C6.48649 3.52235 6.09927 3.13514 5.62162 3.13514Z" fill="white"/>
</svg>
