<svg width="11" height="14" viewBox="0 0 11 14" fill="none" xmlns="http://www.w3.org/2000/svg">
    <rect x="-1143" y="-481" width="8641" height="3553" stroke="#FE3850" stroke-width="12" stroke-dasharray="50 50"/>
    <path d="M4.91622 13C4.69393 12.9619 4.46976 12.9311 4.24958 12.8842C2.66699 12.547 1.34428 11.1587 1.06935 9.55683C0.919672 8.68387 1.028 7.82925 1.24418 6.98238C1.39128 6.40644 1.60723 5.85447 1.86218 5.30132L3.43655 5.75883C3.48989 5.49189 3.52655 5.23294 3.59422 4.9834C3.98218 3.54813 4.83328 2.47262 6.13202 1.75288C6.55874 1.51649 6.99064 1.28973 7.42018 1.05875C7.45355 1.04089 7.48786 1.02467 7.53767 1C7.4942 1.38137 7.45966 1.74606 7.41008 2.10864C7.31608 2.79831 7.31773 3.47881 7.5661 4.14193C7.76842 4.68238 8.08001 5.14882 8.51519 5.52832C8.99502 5.94729 9.43397 6.39774 9.71759 6.97979C10.0511 7.65679 10.1847 8.41489 10.1025 9.16511C9.93354 10.7907 9.07891 11.9379 7.61381 12.6365C7.19836 12.8346 6.75401 12.9398 6.29486 12.9798C6.26451 12.9844 6.23452 12.991 6.2051 12.9998L4.91622 13ZM4.35227 8.97548C4.36261 8.94282 4.37107 8.92167 4.37577 8.90006C4.54214 8.15047 4.93972 7.55643 5.59203 7.15086C5.95884 6.92246 6.35032 6.73306 6.73098 6.52675C6.73545 6.52416 6.74461 6.53004 6.75871 6.53403C6.72722 6.81601 6.70748 7.1001 6.6619 7.37996C6.55169 8.05671 6.73709 8.61079 7.26744 9.06454C7.93549 9.63578 8.12677 10.3804 7.96017 11.2264C7.92633 11.3979 7.85536 11.5622 7.79779 11.741C8.0807 11.5609 8.33677 11.3417 8.55843 11.0901C9.47861 10.0531 9.68634 8.48179 9.0681 7.25636C8.83312 6.78993 8.46937 6.43229 8.08494 6.09062C7.0139 5.13919 6.56556 3.93656 6.65673 2.51892C6.6619 2.43902 6.672 2.35936 6.68281 2.24657C4.8892 3.20999 4.06442 4.69413 4.1274 6.69546L2.27575 6.15501C2.26282 6.16699 2.2546 6.17122 2.25225 6.17851C2.23979 6.20717 2.22875 6.23631 2.21747 6.26545C1.95077 6.95747 1.77101 7.66899 1.71602 8.41153C1.64294 9.38693 1.89155 10.2599 2.51496 11.0186C2.74681 11.3015 3.02325 11.5446 3.33339 11.7384C2.8773 10.681 3.18113 9.72014 3.60973 8.76165L4.35227 8.97548ZM5.90127 7.78859C5.86954 7.81209 5.83077 7.83559 5.79552 7.86426C5.29079 8.27767 5.03364 8.81076 5.02408 9.46354C5.0222 9.60688 5.02408 9.75021 5.02408 9.90648L4.02118 9.61628C3.99745 9.67271 3.97721 9.73054 3.96056 9.78946C3.91356 10.0061 3.85599 10.2221 3.82521 10.4415C3.70772 11.2717 4.18309 12.0267 4.97239 12.2295C5.22452 12.2944 5.49804 12.2922 5.76169 12.2915C6.07838 12.2887 6.38677 12.19 6.64613 12.0082C6.90549 11.8265 7.10362 11.5703 7.21434 11.2736C7.40749 10.7538 7.35533 10.0418 6.78597 9.57233C6.42245 9.27226 6.15152 8.90311 6.02581 8.44443C5.96894 8.23224 5.94309 8.01136 5.90221 7.78813L5.90127 7.78859Z" fill="#A09BAE"/>
    <rect x="-19.5" y="-262.5" width="250" height="319" rx="4.5" stroke="#9747FF" stroke-dasharray="10 5"/>
</svg>
