<svg width="24" height="24" viewBox="0 0 24 24" fill="none" xmlns="http://www.w3.org/2000/svg">
<path d="M8.96484 7.86719V3.36719L4.46484 3.36719" stroke="white" stroke-width="1.6" stroke-linecap="round" stroke-linejoin="round"/>
<path d="M17.4508 6.54917C18.6046 7.70295 19.3903 9.17296 19.7087 10.7733C20.027 12.3736 19.8636 14.0324 19.2392 15.5399C18.6148 17.0474 17.5574 18.3359 16.2006 19.2424C14.8439 20.1489 13.2489 20.6328 11.6172 20.6328C9.98549 20.6328 8.39044 20.1489 7.03374 19.2424C5.67703 18.3359 4.61961 17.0474 3.99518 15.5399C3.37076 14.0324 3.20738 12.3736 3.52571 10.7733C3.84404 9.17296 4.62978 7.70295 5.78356 6.54917L8.96554 3.36719" stroke="white" stroke-width="1.6" stroke-linecap="round" stroke-linejoin="round"/>
<path d="M12.0313 13.1011L12.0313 13.1011C11.941 13.1797 11.862 13.2736 11.7945 13.3804C11.7668 13.4241 11.7186 13.4529 11.6648 13.4529H11.0467C10.9589 13.4529 10.8899 13.3778 10.8972 13.2904L11.1646 10.0875C11.1711 10.0098 11.2361 9.95 11.3141 9.95H14.5638C14.6467 9.95 14.7138 10.0172 14.7138 10.1V10.673C14.7138 10.7558 14.6467 10.823 14.5638 10.823H12.0375C12.0117 10.823 11.9901 10.8426 11.9877 10.8683L11.8341 12.4992C12.1177 12.1581 12.5746 11.9704 13.099 11.9704C14.2322 11.9704 15.05 12.8078 15.05 13.9632V13.9714C15.05 14.5832 14.826 15.1038 14.4407 15.4713C14.0556 15.8385 13.5125 16.05 12.8789 16.05C11.7003 16.05 10.8706 15.3181 10.7881 14.3149L10.7881 14.3149C10.7836 14.2593 10.8274 14.2118 10.8832 14.2118H11.6574C11.7013 14.2118 11.7383 14.2443 11.7439 14.2878M12.0313 13.1011L11.6943 14.2945M12.0313 13.1011L12.0323 13.1003C12.2536 12.8975 12.5489 12.7944 12.8949 12.7944C13.2409 12.7944 13.5339 12.9176 13.7409 13.1257C13.9479 13.3339 14.0716 13.6297 14.0736 13.9797M12.0313 13.1011L14.1236 13.9796M11.7439 14.2878C11.7439 14.288 11.744 14.2882 11.744 14.2884L11.6943 14.2945M11.7439 14.2878C11.7439 14.2877 11.7439 14.2875 11.7438 14.2874L11.6943 14.2945M11.7439 14.2878C11.8162 14.7918 12.2647 15.1852 12.8869 15.1852C13.239 15.1852 13.535 15.0609 13.7429 14.8508C13.9508 14.6407 14.0736 14.3419 14.0736 13.9877V13.9797M11.6943 14.2945C11.7704 14.8262 12.2426 15.2352 12.8869 15.2352C13.6153 15.2352 14.1236 14.7198 14.1236 13.9877V13.9796M14.0736 13.9797C14.0736 13.9797 14.0736 13.9798 14.0736 13.9798L14.1236 13.9796M14.0736 13.9797V13.9796H14.1236M11.8254 12.5916C11.8216 12.5968 11.8178 12.6021 11.8141 12.6073C11.8072 12.5981 11.7963 12.5921 11.7838 12.5921C11.7808 12.5921 11.7778 12.5925 11.775 12.5932L11.7769 12.5734L11.8254 12.5916ZM9.47876 15.8018C9.47876 15.8847 9.54592 15.9518 9.62876 15.9518H10.3052C10.388 15.9518 10.4552 15.8847 10.4552 15.8018V10.1C10.4552 10.0172 10.388 9.95 10.3052 9.95H9.55324C9.52157 9.95 9.49072 9.96002 9.4651 9.97862L8.01186 11.0339C7.973 11.0621 7.95 11.1072 7.95 11.1553V11.7785C7.95 11.9001 8.08704 11.9712 8.18642 11.9012L9.47876 10.9903V15.8018Z" fill="white" stroke="black" stroke-width="0.1"/>
</svg>
