<svg width="42" height="53" viewBox="0 0 42 53" fill="none" xmlns="http://www.w3.org/2000/svg">
<path d="M21 0.441895C9.40227 0.441895 0 9.92954 0 21.6326C0 35.5683 13.6538 42.2395 15.3644 43.7922C17.1112 45.3777 18.5545 48.9319 19.1367 50.947C19.4193 51.9256 20.2135 52.4207 21 52.4419C21.7885 52.4188 22.5807 51.9237 22.8633 50.947C23.4455 48.9319 24.8888 45.3796 26.6356 43.7922C28.3462 42.2395 42 35.5683 42 21.6326C42 9.92954 32.5977 0.441895 21 0.441895ZM21 27.4118C17.8366 27.4118 15.2727 24.8247 15.2727 21.6326C15.2727 18.4405 17.8366 15.8533 21 15.8533C24.1634 15.8533 26.7273 18.4405 26.7273 21.6326C26.7273 24.8247 24.1634 27.4118 21 27.4118Z" fill="#F8C925"/>
</svg>
