<svg width="33" height="32" viewBox="0 0 33 32" fill="none" xmlns="http://www.w3.org/2000/svg">
<path fill-rule="evenodd" clip-rule="evenodd" d="M28.02 16.2728C28.02 15.4219 27.9436 14.6037 27.8018 13.8182H16.5V18.4601H22.9582C22.68 19.9601 21.8345 21.231 20.5636 22.0819V25.0928H24.4418C26.7109 23.0037 28.02 19.9273 28.02 16.2728Z" fill="#4285F4"/>
<path fill-rule="evenodd" clip-rule="evenodd" d="M16.5 28C19.74 28 22.4564 26.9255 24.4418 25.0928L20.5636 22.0818C19.4891 22.8018 18.1145 23.2273 16.5 23.2273C13.3745 23.2273 10.7291 21.1164 9.78546 18.28H5.77637V21.3891C7.75091 25.3109 11.8091 28 16.5 28Z" fill="#34A853"/>
<path fill-rule="evenodd" clip-rule="evenodd" d="M9.78545 18.2799C9.54545 17.5599 9.40909 16.7908 9.40909 15.9999C9.40909 15.209 9.54545 14.4399 9.78545 13.7199V10.6108H5.77636C4.96364 12.2308 4.5 14.0636 4.5 15.9999C4.5 17.9363 4.96364 19.769 5.77636 21.389L9.78545 18.2799Z" fill="#FBBC05"/>
<path fill-rule="evenodd" clip-rule="evenodd" d="M16.5 8.77273C18.2618 8.77273 19.8436 9.37818 21.0873 10.5673L24.5291 7.12545C22.4509 5.18909 19.7346 4 16.5 4C11.8091 4 7.75091 6.68909 5.77637 10.6109L9.78546 13.72C10.7291 10.8836 13.3746 8.77273 16.5 8.77273Z" fill="#EA4335"/>
</svg>
