<svg width="25" height="25" viewBox="0 0 25 25" fill="none" xmlns="http://www.w3.org/2000/svg">
<path d="M13.2331 24.994H11.7689C11.6894 24.9793 11.6111 24.9616 11.5317 24.95C11.001 24.8754 10.4624 24.8369 9.94211 24.7226C6.69333 24.0097 4.09198 22.2924 2.21203 19.5511C0.198203 16.6165 -0.437004 13.3696 0.291742 9.88356C0.874371 7.09696 2.28418 4.77807 4.46124 2.95193C7.15124 0.693549 10.2765 -0.269355 13.7717 0.0644497C16.2459 0.300436 18.4602 1.23032 20.3811 2.81559C22.7655 4.78356 24.2547 7.29321 24.805 10.3451C24.89 10.8147 24.9358 11.2915 25 11.7647V13.232C24.9798 13.4081 24.9597 13.5835 24.9389 13.7596C24.6625 16.2369 23.7638 18.4604 22.1761 20.3856C20.2094 22.7699 17.7015 24.2543 14.6563 24.8039C14.1831 24.884 13.7063 24.9298 13.2331 24.994ZM12.5092 17.621C15.3301 17.6136 17.6331 15.3021 17.6257 12.4855C17.6184 9.66897 15.3074 7.36047 12.4903 7.36842C9.67311 7.37636 7.36644 9.68731 7.37378 12.5039C7.38111 15.3204 9.69451 17.6277 12.5092 17.621ZM15.3594 6.53818L17.6997 2.79419C14.5921 1.00289 10.3059 1.04875 7.30653 2.79419C8.08826 4.04382 8.86836 5.2914 9.64683 6.53696C12.162 5.69327 12.7293 5.69327 15.3594 6.53757V6.53818ZM2.79161 17.7017L6.55944 15.3449C5.69864 13.4289 5.70781 11.533 6.55944 9.64268L2.80383 7.29444C1.13359 10.2125 0.941621 14.349 2.79161 17.7011V17.7017ZM18.4425 9.64391C19.2984 11.5465 19.2984 13.4474 18.4425 15.3467L22.2042 17.698C24.0995 14.3355 23.8274 10.0468 22.1902 7.30055L18.4425 9.64391ZM7.29736 22.2025C10.7161 24.1192 15.0005 23.8006 17.6942 22.186L15.3515 18.4396C13.4481 19.2955 11.5476 19.2955 9.64988 18.4396L7.29736 22.2025ZM6.0514 3.55595C5.09439 4.2463 4.255 5.08651 3.56559 6.0442L7.25212 8.34965L8.36052 7.2492L6.0514 3.55595ZM18.9512 3.55595L16.6439 7.24614C17.029 7.6313 17.3775 7.97978 17.748 8.3521L21.4382 6.04298C20.7467 5.08787 19.9069 4.2495 18.9506 3.55962L18.9512 3.55595ZM8.35746 17.7433L7.25701 16.6342L3.56376 18.9452C4.25389 19.9026 5.09413 20.7422 6.05201 21.4316L8.35746 17.7433ZM21.437 18.944L17.7474 16.6385L16.6347 17.7298L18.9512 21.4328C19.9072 20.7415 20.7464 19.9017 21.437 18.9452V18.944Z" fill="black"/>
</svg>
