<svg width="16" height="16" viewBox="0 0 16 16" fill="none" xmlns="http://www.w3.org/2000/svg">
<path d="M11.3156 0L16 4.68444V11.3156L11.3156 16H4.68444L0 11.3156V4.68444L4.68444 0H11.3156ZM8.22222 10.4444H7.77778C7.28686 10.4444 6.88889 10.8424 6.88889 11.3333V11.7778C6.88889 12.2687 7.28686 12.6667 7.77778 12.6667H8.22222C8.71314 12.6667 9.11111 12.2687 9.11111 11.7778V11.3333C9.11111 10.8424 8.71314 10.4444 8.22222 10.4444ZM8 3.55556C7.50908 3.55556 7.11111 3.95352 7.11111 4.44444V8C7.11111 8.49092 7.50908 8.88889 8 8.88889C8.49092 8.88889 8.88889 8.49092 8.88889 8V4.44444C8.88889 3.95352 8.49092 3.55556 8 3.55556Z" fill="#A09BAE"/>
</svg>
