<svg width="12" height="12" viewBox="0 0 12 12" fill="none" xmlns="http://www.w3.org/2000/svg">
<path d="M6 10.8632C8.68585 10.8632 10.8632 8.68585 10.8632 6C10.8632 3.31415 8.68585 1.13684 6 1.13684C3.31415 1.13684 1.13684 3.31415 1.13684 6C1.13684 8.68585 3.31415 10.8632 6 10.8632ZM6 12C2.68629 12 0 9.31371 0 6C0 2.68629 2.68629 0 6 0C9.31371 0 12 2.68629 12 6C12 9.31371 9.31371 12 6 12ZM6 4.57663C5.56399 4.57663 5.21053 4.22318 5.21053 3.78716C5.21053 3.35115 5.56399 2.99769 6 2.99769C6.43601 2.99769 6.78947 3.35115 6.78947 3.78716C6.78947 4.22318 6.43601 4.57663 6 4.57663ZM5.43158 6.26992C5.43158 5.94516 5.68607 5.6819 6 5.6819C6.31393 5.6819 6.56842 5.94516 6.56842 6.26992V8.56756C6.56842 8.89232 6.31393 9.15558 6 9.15558C5.68607 9.15558 5.43158 8.89232 5.43158 8.56756V6.26992Z" fill="#A09BAE"/>
</svg>
