<svg width="29" height="26" viewBox="0 0 29 26" fill="none" xmlns="http://www.w3.org/2000/svg">
<g clip-path="url(#clip0_6203_8068)">
<path d="M14.5293 25.8974C13.8397 25.8974 13.2306 25.8752 12.6644 25.8285C11.2532 25.7135 10.0595 24.6095 9.75305 23.1369H2.21329C1.44713 23.1369 0.822714 22.7186 0.5921 22.0482C0.468207 21.7025 0.469342 21.3242 0.595308 20.9792C0.721274 20.6342 0.964114 20.3442 1.28164 20.1596C1.37282 20.106 1.38584 20.083 1.38507 19.9505C1.37894 19.133 1.38048 18.3025 1.38124 17.4988V16.9387C1.38124 15.8247 2.00873 15.1597 3.0576 15.1597C3.1564 15.1601 3.25512 15.1658 3.35333 15.1766H3.36406L3.3449 15.0057C3.30966 14.6824 3.27518 14.3652 3.24147 14.048C3.22615 13.9032 3.20853 13.7584 3.19091 13.6144C3.14953 13.2681 3.1074 12.9103 3.09207 12.5525C3.07947 12.3368 3.1111 12.1208 3.18501 11.9177C3.25892 11.7147 3.37356 11.5289 3.52189 11.3718C3.6746 11.2143 3.85791 11.0897 4.06055 11.0056C4.26319 10.9216 4.48088 10.8798 4.70024 10.883C4.80682 10.8831 4.91319 10.8923 5.01819 10.9106C8.41074 11.5028 11.4271 13.2152 14.242 16.145C14.3186 16.2216 14.3952 16.3074 14.4634 16.3833C14.6932 16.1749 14.9231 15.9649 15.1407 15.7611C15.7674 15.1827 16.3589 14.6364 17.0017 14.1208C19.1469 12.4023 21.522 11.3174 24.0564 10.896C24.1461 10.8808 24.2368 10.8731 24.3277 10.873C24.5443 10.8733 24.7586 10.9172 24.9578 11.0023C25.1569 11.0873 25.3369 11.2117 25.4869 11.368C25.6342 11.5227 25.7483 11.7061 25.8221 11.9066C25.8959 12.1072 25.9278 12.3207 25.9159 12.5341C25.8929 13.0122 25.8393 13.4918 25.7803 13.9561C25.7566 14.1606 25.732 14.3644 25.7106 14.569C25.6891 14.7736 25.6677 14.9666 25.6455 15.175C25.6692 15.175 25.6922 15.1704 25.7152 15.1674C25.8071 15.1546 25.8997 15.1482 25.9925 15.1482C26.9318 15.1482 27.6183 15.8431 27.6267 16.8016C27.6344 17.7348 27.6336 18.7285 27.6267 19.9298C27.6267 20.0746 27.6405 20.1045 27.7394 20.1596C28.0369 20.3344 28.2677 20.6032 28.3955 20.9236C28.5233 21.2441 28.5407 21.598 28.445 21.9295C28.2397 22.6658 27.626 23.127 26.8445 23.1323C26.4236 23.1354 26.0033 23.1354 25.5834 23.1323H19.2496C19.1213 23.7359 18.8347 24.2944 18.4191 24.7505C17.7717 25.4584 17.0093 25.8315 16.1543 25.8606C15.7107 25.8805 15.1261 25.8974 14.5293 25.8974ZM6.28389 21.7349H10.2058C10.7927 21.7349 11.0187 21.941 11.0693 22.5209C11.1743 23.7177 11.9259 24.326 12.6246 24.398C13.2531 24.4631 13.8844 24.4956 14.5162 24.4953C15.1363 24.4958 15.7559 24.4641 16.3726 24.4003C17.4154 24.2915 17.8651 23.3331 17.9371 22.4719C17.9785 21.9846 18.2122 21.7571 18.6956 21.7356H18.8121H26.7656C26.9954 21.7356 27.118 21.659 27.1188 21.5173C27.1195 21.3755 27.0023 21.302 26.7686 21.3005H17.4836V21.505C17.4836 21.8115 17.4836 22.1126 17.4836 22.4121C17.4767 23.3369 16.7841 24.0425 15.8746 24.0548C15.4916 24.0594 15.0932 24.0617 14.6488 24.0617C14.1324 24.0617 13.6229 24.0617 13.1487 24.0556C12.92 24.0569 12.6937 24.009 12.4851 23.9153C12.2765 23.8216 12.0905 23.6842 11.9397 23.5123C11.6669 23.2129 11.5196 22.8202 11.5282 22.4152C11.5282 22.1088 11.5282 21.7962 11.5282 21.4836V21.302H2.35886C1.8915 21.302 1.88921 21.4315 1.88767 21.5173C1.88514 21.5391 1.88731 21.5612 1.89405 21.582C1.9008 21.6029 1.91194 21.6221 1.92675 21.6383C1.95586 21.6682 2.05699 21.7387 2.3489 21.7387L6.28389 21.7349ZM11.9864 19.8961C12.6759 19.8961 12.8997 20.1206 12.9004 20.8201C12.9004 20.9863 12.9004 21.1534 12.9004 21.3204C12.9004 21.6498 12.9004 21.9793 12.9004 22.3087C12.9004 22.5953 12.9609 22.6535 13.2467 22.6558C13.6553 22.6558 14.064 22.6558 14.4726 22.6558C14.8955 22.6558 15.3187 22.6558 15.7421 22.6558C16.0555 22.6558 16.1068 22.6006 16.1076 22.2727C16.1076 22.0515 16.1076 21.8301 16.1076 21.6084C16.1076 21.2905 16.1076 20.9618 16.1076 20.6377C16.1122 20.2072 16.3497 19.9482 16.7779 19.9045C16.8484 19.8976 16.9166 19.8969 16.968 19.8969H26.2293V18.8794C26.2293 18.246 26.2293 17.6127 26.2293 16.9793C26.2293 16.5304 26.1427 16.5304 25.9711 16.5304C25.8884 16.5318 25.8059 16.5395 25.7244 16.5533C24.736 16.7066 23.9362 16.8269 23.2052 16.9364L22.8574 16.987C20.4203 17.3463 17.9011 17.7171 15.4257 18.0742L15.3307 18.088C15.0617 18.1333 14.7897 18.1589 14.517 18.1646C14.4331 18.1649 14.3492 18.1608 14.2657 18.1523C13.6597 18.0903 13.0483 17.9991 12.4576 17.9056C12.2277 17.8704 11.9979 17.8344 11.7634 17.8006L11.1835 17.7164C9.62203 17.4886 8.06035 17.2602 6.49841 17.0314C6.07958 16.9701 5.66049 16.9078 5.24114 16.8445C4.57765 16.7449 3.89194 16.6422 3.21619 16.5464C3.15126 16.5366 3.08572 16.5312 3.02005 16.5304C2.85763 16.5304 2.77642 16.5304 2.77565 16.9303C2.77565 17.8691 2.77565 18.8076 2.77565 19.7459V19.8225C2.77565 19.8455 2.77565 19.8685 2.77565 19.8938H11.9864V19.8961ZM24.3215 12.2713C24.2853 12.2717 24.2491 12.2753 24.2135 12.282C23.8687 12.3448 23.5117 12.41 23.1669 12.4988C21.2217 13.0007 19.3997 13.9545 17.5954 15.4179C17.1955 15.7427 16.8055 16.0982 16.4278 16.443L16.329 16.5327L20.5674 15.9159L21.8116 15.7336C22.5956 15.6186 23.3797 15.5042 24.1637 15.3903C24.1838 15.388 24.2035 15.3837 24.2227 15.3773C24.2258 15.3639 24.2279 15.3504 24.2288 15.3367C24.248 15.0831 24.2794 14.8295 24.3093 14.5843L24.3461 14.2779C24.3655 14.1083 24.3851 13.9387 24.405 13.7691C24.451 13.3776 24.4985 12.9731 24.5361 12.5755C24.5529 12.49 24.5353 12.4013 24.487 12.3287C24.4645 12.3095 24.4382 12.2951 24.4099 12.2864C24.3816 12.2777 24.3518 12.2749 24.3223 12.2782L24.3215 12.2713ZM4.78452 15.3781C4.80318 15.3842 4.82244 15.3883 4.84198 15.3903C5.43728 15.4723 6.03642 15.5589 6.54361 15.6332L9.17383 16.0163L11.4401 16.3495L12.6752 16.5281L12.4997 16.3748C12.0668 15.9872 11.6179 15.5872 11.1574 15.2256C9.08879 13.6029 7.00637 12.639 4.78911 12.2789C4.75667 12.2739 4.72388 12.2713 4.69104 12.2713C4.65838 12.2686 4.62552 12.2725 4.59436 12.2826C4.56319 12.2928 4.53434 12.3089 4.50947 12.3303C4.46713 12.3932 4.45118 12.4702 4.46503 12.5448C4.51406 13.0328 4.57076 13.5293 4.62592 14.0097C4.67572 14.4426 4.72705 14.8908 4.77302 15.3329C4.77465 15.3506 4.77851 15.3681 4.78452 15.385V15.3781Z" fill="#110628"/>
<path d="M14.4452 16.7074C15.3646 15.8837 16.215 15.044 17.1436 14.3001C19.1877 12.6636 21.4893 11.5557 24.0927 11.1228C24.2932 11.0869 24.4993 11.0966 24.6956 11.1513C24.8918 11.206 25.0732 11.3043 25.2262 11.4388C25.3792 11.5734 25.4999 11.7407 25.5793 11.9283C25.6587 12.116 25.6948 12.3191 25.6848 12.5226C25.6518 13.1984 25.5507 13.8711 25.4794 14.5445C25.4503 14.8272 25.4189 15.1099 25.3852 15.4202C25.5239 15.411 25.6357 15.4103 25.7453 15.3949C26.6647 15.2655 27.3872 15.8707 27.3948 16.8031C27.4032 17.8451 27.4009 18.8863 27.3948 19.9283C27.3948 20.1252 27.4278 20.2493 27.6247 20.3612C27.878 20.5103 28.0744 20.7395 28.1829 21.0127C28.2914 21.2859 28.3058 21.5875 28.2238 21.8697C28.0484 22.501 27.5274 22.9002 26.8447 22.9048C25.8219 22.9125 24.7991 22.9048 23.7801 22.9048H19.2705C19.2046 22.9048 19.1395 22.9132 19.059 22.9194C18.9544 23.5446 18.6735 24.127 18.2492 24.598C17.6815 25.2178 16.9774 25.6048 16.1461 25.6331C14.9923 25.6714 13.8308 25.6906 12.6823 25.5963C11.3254 25.486 10.239 24.3981 9.97469 23.0519C9.9678 23.0151 9.95937 22.9753 9.94251 22.904H9.61C7.1445 22.904 4.67875 22.904 2.21275 22.904C1.537 22.904 1.00681 22.5455 0.808379 21.9709C0.703447 21.6754 0.704541 21.3526 0.81147 21.0578C0.918399 20.763 1.12451 20.5146 1.39449 20.355C1.57607 20.2485 1.61208 20.1321 1.61131 19.9459C1.60442 18.9422 1.60748 17.9386 1.61131 16.9357C1.61131 15.8508 2.24722 15.2846 3.32827 15.4034C3.41255 15.4126 3.49683 15.4156 3.62248 15.4241C3.56961 14.9437 3.51905 14.4832 3.46925 14.0227C3.41715 13.5293 3.34206 13.0367 3.32061 12.5418C3.28154 11.6155 4.06378 10.9765 4.97934 11.1366C8.62932 11.7733 11.556 13.6795 14.0759 16.3036C14.2115 16.4484 14.3441 16.597 14.4452 16.7074ZM2.55828 20.1329H11.9859C12.552 20.1329 12.6693 20.2531 12.67 20.827C12.67 21.3235 12.67 21.823 12.67 22.3172C12.67 22.7286 12.8317 22.8903 13.2447 22.8926C14.0762 22.8966 14.9075 22.8966 15.7385 22.8926C16.1813 22.8926 16.3315 22.7324 16.333 22.2796C16.333 21.7349 16.333 21.1902 16.333 20.6462C16.333 20.3313 16.4863 20.1696 16.7927 20.1398C16.8975 20.1323 17.0026 20.1303 17.1076 20.1336H26.4586V19.795C26.4586 18.8587 26.4586 17.9222 26.4586 16.9855C26.4586 16.384 26.2847 16.2408 25.6924 16.3327C24.8532 16.4624 24.014 16.5901 23.1748 16.7158C20.5816 17.0973 17.9874 17.4766 15.3922 17.8535C15.0275 17.9064 14.6505 17.97 14.2889 17.9301C13.4546 17.8443 12.6264 17.7003 11.7958 17.58L6.53081 16.8139C5.43674 16.653 4.34343 16.4844 3.24859 16.3289C2.71228 16.2523 2.54603 16.4055 2.54526 16.9418C2.54526 17.9061 2.54526 18.871 2.54526 19.8363C2.54373 19.9168 2.55445 20.0018 2.55828 20.1329V20.1329ZM17.2524 21.0714C17.2524 21.5357 17.2524 21.9724 17.2524 22.4099C17.2463 23.2082 16.6632 23.8135 15.8672 23.8242C14.9593 23.8357 14.0514 23.8311 13.1435 23.8242C12.9592 23.8243 12.7768 23.7879 12.6066 23.7171C12.4365 23.6462 12.2821 23.5423 12.1524 23.4115C12.0227 23.2806 11.9202 23.1253 11.8508 22.9546C11.7814 22.7838 11.7466 22.601 11.7483 22.4168C11.7522 21.9716 11.7483 21.5273 11.7483 21.0714H2.35832C1.87947 21.0714 1.66265 21.2078 1.65728 21.5119C1.65192 21.8161 1.88713 21.967 2.34682 21.967C4.96555 21.967 7.58453 21.967 10.2038 21.967C10.6734 21.967 10.7983 22.0858 10.8389 22.5432C10.9324 23.6158 11.5752 24.5229 12.6011 24.6294C13.8629 24.7597 15.1348 24.7597 16.3966 24.6294C17.4417 24.5206 18.0722 23.6112 18.1665 22.4926C18.1979 22.121 18.3396 21.9824 18.7028 21.9663C18.7886 21.9617 18.8744 21.9663 18.9602 21.9663C21.5605 21.9663 24.1604 21.9663 26.7597 21.9663C27.1267 21.9663 27.3412 21.7954 27.3427 21.5196C27.3443 21.2438 27.129 21.0745 26.7643 21.0714H17.2524V21.0714ZM15.7431 16.7602L15.7898 16.846C15.8741 16.8353 15.9584 16.8261 16.0427 16.8139L20.6005 16.1504C21.7996 15.9757 22.9978 15.7979 24.1969 15.6248C24.3585 15.6018 24.4451 15.5397 24.4581 15.3605C24.485 15.0088 24.5348 14.6587 24.5746 14.3078C24.6389 13.7393 24.7117 13.1708 24.7654 12.6008C24.8037 12.197 24.57 11.9878 24.1724 12.0645C23.8169 12.1288 23.4598 12.1947 23.1097 12.2851C20.9928 12.8306 19.1356 13.8818 17.4509 15.2478C16.8601 15.7252 16.3108 16.2538 15.7431 16.7602V16.7602ZM13.2148 16.8483L13.2661 16.751C12.6133 16.1825 11.9828 15.5857 11.3024 15.0517C9.38705 13.5454 7.26556 12.4544 4.82918 12.0591C4.4461 11.997 4.20093 12.1932 4.23923 12.5755C4.33347 13.5056 4.45146 14.4334 4.5457 15.3635C4.56485 15.5443 4.64989 15.6033 4.80925 15.6248C5.37621 15.7029 5.94291 15.7839 6.50936 15.8677L11.4059 16.5871C12.0088 16.6783 12.6118 16.761 13.214 16.8483H13.2148Z" fill="#110628"/>
<path d="M9.14328 10.023C9.11331 10.0231 9.08338 10.0213 9.05364 10.0176C8.83375 9.99466 8.4614 9.86441 8.42998 9.24382C8.41301 8.73543 8.23029 8.24654 7.90966 7.85163C7.58904 7.45673 7.1481 7.17748 6.65403 7.05644C6.48038 7.01695 6.30386 6.99133 6.12615 6.97983C5.65803 6.93846 5.37608 6.66494 5.3891 6.26654C5.40213 5.86813 5.68714 5.62297 6.13228 5.59768C7.30297 5.53103 8.17179 4.78096 8.40087 3.63938C8.41669 3.54747 8.42566 3.45451 8.42769 3.36127C8.4614 2.65793 8.88125 2.55067 9.12872 2.54838C9.37619 2.54608 9.80447 2.65334 9.83895 3.35437C9.84988 3.66858 9.92594 3.9771 10.0623 4.26038C10.1987 4.54367 10.3924 4.79555 10.6312 5.00008C11.0426 5.37167 11.5414 5.5678 12.1566 5.59922C12.5872 5.62067 12.8913 5.91717 12.8806 6.30408C12.8699 6.69099 12.5864 6.94612 12.1413 6.97753C11.1399 7.04802 10.4335 7.52227 10.0412 8.38726C9.94391 8.60332 9.90637 8.85692 9.86653 9.12584C9.85657 9.19249 9.84661 9.25915 9.83588 9.32427C9.73628 9.93567 9.35857 10.023 9.14328 10.023ZM9.13255 7.15221L9.99678 6.29105L9.13332 5.423L8.27062 6.28722L9.13255 7.15221Z" fill="#110628"/>
<path d="M12.6512 6.29813C12.6444 6.55939 12.449 6.72564 12.1257 6.74863C11.0653 6.82524 10.2739 7.31865 9.83255 8.29243C9.69541 8.5989 9.66476 8.95133 9.6096 9.28844C9.55137 9.64317 9.37975 9.82475 9.07789 9.79027C8.81688 9.76269 8.67744 9.57703 8.65956 9.23328C8.64056 8.67574 8.43995 8.13968 8.08825 7.70666C7.73655 7.27363 7.25301 6.96736 6.71122 6.83444C6.52551 6.79183 6.33669 6.76416 6.14657 6.75169C5.80716 6.72105 5.61026 6.54942 5.61945 6.27514C5.62864 6.00085 5.82095 5.84609 6.1458 5.82771C7.41992 5.75569 8.37762 4.93053 8.62662 3.68246C8.64511 3.57923 8.65562 3.47472 8.65803 3.36987C8.67642 2.97377 8.83041 2.7784 9.13075 2.77686C9.43108 2.77533 9.59044 2.95921 9.6096 3.36374C9.62281 3.70805 9.70669 4.04597 9.85602 4.35649C10.0053 4.66702 10.2169 4.94352 10.4777 5.16881C10.9504 5.59556 11.5158 5.79399 12.1456 5.82617C12.452 5.84456 12.6581 6.0384 12.6512 6.29813ZM9.13381 5.09756L7.94704 6.2874L9.13228 7.47724C9.52839 7.08344 9.94671 6.66588 10.3221 6.292L9.13381 5.09756Z" fill="#110628"/>
<path d="M19.4692 7.59975C19.0908 7.59975 18.8341 7.31933 18.7797 6.85044C18.6518 5.69737 18.0695 4.93505 17.0942 4.65387C16.9174 4.60418 16.7358 4.57362 16.5525 4.5627C15.853 4.51289 15.7381 4.1076 15.7327 3.87315C15.7273 3.67548 15.7955 3.20966 16.5303 3.15143C17.5791 3.06792 18.353 2.47874 18.6541 1.53484C18.7063 1.34912 18.7419 1.15914 18.7605 0.967118C18.769 0.906591 18.7766 0.846832 18.7851 0.786305C18.8464 0.366451 19.1091 0.105957 19.4746 0.105957C19.8707 0.105957 20.1641 0.420847 20.1726 0.84683C20.2009 1.95086 21.1065 3.1453 22.4082 3.15526C22.9897 3.16063 23.2058 3.51153 23.215 3.83791C23.2265 4.2593 22.9292 4.52745 22.4197 4.5627C21.472 4.62246 20.7901 5.08598 20.3932 5.94178C20.2722 6.20151 20.2231 6.5141 20.1802 6.83895C20.0952 7.47333 19.7282 7.59055 19.5167 7.60511L19.4692 7.59975ZM19.4769 4.71899L20.3419 3.85477L19.4777 2.98748L18.6119 3.854L19.4769 4.71899Z" fill="#110628"/>
<path d="M22.9865 3.84127C22.9949 4.13701 22.7865 4.30633 22.4065 4.33084C21.3707 4.39597 20.6206 4.90623 20.1847 5.83941C20.0475 6.13361 19.9954 6.47608 19.9548 6.80247C19.9096 7.14111 19.7732 7.3518 19.5051 7.36866C19.2369 7.38551 19.0531 7.19474 19.0124 6.82545C18.8745 5.58121 18.2325 4.74457 17.1629 4.43351C16.9704 4.37941 16.7726 4.34577 16.573 4.33314C16.1846 4.30633 15.9739 4.15309 15.967 3.86502C15.9601 3.57694 16.1616 3.40533 16.5531 3.37774C17.6839 3.28734 18.5451 2.63763 18.8776 1.60179C18.9542 1.35049 18.9787 1.08003 19.017 0.816475C19.0615 0.510012 19.2293 0.330731 19.4813 0.33303C19.7334 0.335328 19.941 0.544493 19.9456 0.849424C19.9855 2.39936 21.2795 3.37085 22.4088 3.38234C22.7881 3.38541 22.9788 3.56162 22.9865 3.84127ZM20.6666 3.85583C20.2758 3.46355 19.856 3.04293 19.4775 2.66215L18.2869 3.85429L19.4767 5.04414L20.6666 3.85583Z" fill="#110628"/>
<path d="M15.1599 12.5579C14.6421 12.5548 14.1464 12.3479 13.7801 11.9819C13.4138 11.616 13.2065 11.1204 13.2031 10.6026C13.2114 10.0891 13.4178 9.59856 13.7791 9.23352C14.1405 8.86848 14.6288 8.65712 15.1423 8.64355H15.163C15.6794 8.64609 16.1743 8.85081 16.5417 9.21385C16.909 9.57689 17.1195 10.0694 17.1281 10.5858C17.1319 10.8412 17.0844 11.0948 16.9886 11.3317C16.8928 11.5685 16.7506 11.7838 16.5704 11.9648C16.3887 12.1517 16.1716 12.3004 15.9318 12.4024C15.692 12.5043 15.4343 12.5574 15.1737 12.5586L15.1599 12.5579ZM15.1507 10.0357C15.0036 10.0393 14.8638 10.1004 14.7614 10.206C14.659 10.3116 14.602 10.4532 14.6029 10.6003C14.6013 10.6753 14.6145 10.7499 14.6419 10.8197C14.6692 10.8895 14.7101 10.9532 14.7623 11.0071C14.87 11.11 15.0132 11.1674 15.1622 11.1674C15.3111 11.1674 15.4544 11.11 15.5621 11.0071C15.6145 10.953 15.6556 10.8889 15.683 10.8186C15.7103 10.7484 15.7234 10.6734 15.7215 10.598C15.7221 10.5246 15.7082 10.4518 15.6805 10.3837C15.6528 10.3157 15.6119 10.2539 15.5602 10.2017C15.5085 10.1496 15.447 10.1082 15.3792 10.08C15.3114 10.0517 15.2387 10.0372 15.1653 10.0372L15.1507 10.0357Z" fill="#110628"/>
<path d="M15.1694 12.3279C14.8281 12.3284 14.4943 12.2277 14.2101 12.0387C13.926 11.8496 13.7042 11.5806 13.5727 11.2656C13.4413 10.9506 13.4061 10.6038 13.4715 10.2688C13.537 9.93383 13.7002 9.62576 13.9406 9.38346C14.181 9.14116 14.4878 8.97548 14.8222 8.90734C15.1567 8.8392 15.5038 8.87165 15.8198 9.00058C16.1358 9.12952 16.4066 9.34916 16.5979 9.63181C16.7892 9.91446 16.8925 10.2475 16.8948 10.5888C16.895 11.0477 16.7137 11.4881 16.3905 11.8139C16.0673 12.1397 15.6283 12.3245 15.1694 12.3279ZM15.9516 10.5941C15.9513 10.4905 15.9305 10.3879 15.8906 10.2923C15.8506 10.1967 15.7921 10.1099 15.7186 10.0369C15.6451 9.96387 15.5579 9.90603 15.462 9.8667C15.3661 9.82737 15.2635 9.8073 15.1598 9.80766C15.0562 9.80801 14.9536 9.82877 14.858 9.86875C14.7624 9.90873 14.6756 9.96716 14.6026 10.0407C14.5296 10.1142 14.4717 10.2014 14.4324 10.2973C14.3931 10.3932 14.373 10.4958 14.3734 10.5995C14.3737 10.7031 14.3945 10.8057 14.4345 10.9013C14.4744 10.9969 14.5329 11.0837 14.6064 11.1567C14.6799 11.2297 14.7671 11.2876 14.863 11.3269C14.9589 11.3662 15.0616 11.3863 15.1652 11.3859C15.2688 11.3856 15.3714 11.3648 15.467 11.3248C15.5626 11.2849 15.6494 11.2264 15.7224 11.1529C15.7954 11.0794 15.8533 10.9922 15.8926 10.8963C15.9319 10.8004 15.952 10.6977 15.9516 10.5941V10.5941Z" fill="#110628"/>
</g>
<defs>
<clipPath id="clip0_6203_8068">
<rect width="28" height="25.7942" fill="white" transform="translate(0.5 0.103027)"/>
</clipPath>
</defs>
</svg>
