<svg width="12" height="13" viewBox="0 0 12 13" fill="none" xmlns="http://www.w3.org/2000/svg">
<path d="M0.262703 12.6645C0.0598799 12.5706 0.00322689 12.4097 0.000409899 12.1925C-0.00585008 11.6961 0.0580019 11.2187 0.301828 10.7793C0.725942 10.0143 1.37761 9.58738 2.24242 9.47815C2.8847 9.39677 3.52572 9.30944 4.16831 9.22493C4.19053 9.22211 4.21275 9.21867 4.24499 9.21397C4.24499 9.01866 4.24844 8.82805 4.24186 8.63774C4.24186 8.60488 4.20368 8.56481 4.17269 8.54228C3.42368 7.99077 2.98329 7.25741 2.85809 6.33375C2.85173 6.31153 2.84082 6.29088 2.82606 6.2731C2.8113 6.25532 2.793 6.2408 2.77233 6.23046C2.3695 6.03546 2.14352 5.71777 2.13913 5.27049C2.13475 4.82322 2.35385 4.4977 2.75637 4.30364C2.82711 4.26952 2.84088 4.23071 2.83931 4.16185C2.83149 3.80628 2.84495 3.45322 2.92727 3.1036C3.28847 1.5699 4.75111 0.525107 6.3136 0.686302C7.81162 0.840924 9.00227 2.0322 9.1428 3.52489C9.16315 3.7418 9.16033 3.96122 9.16221 4.17969C9.16221 4.24229 9.18224 4.27359 9.24077 4.30051C9.64423 4.49394 9.86458 4.8179 9.8627 5.26486C9.86082 5.71182 9.6364 6.03077 9.23482 6.22827C9.21274 6.23958 9.19324 6.25535 9.17756 6.27459C9.16188 6.29382 9.15037 6.3161 9.14374 6.34001C9.01854 7.25439 8.58483 7.98472 7.8426 8.53101C7.81354 8.54888 7.79006 8.57454 7.77485 8.60508C7.75963 8.63562 7.75329 8.66982 7.75653 8.70378C7.76216 8.86373 7.75903 9.02398 7.75966 9.18393C7.76166 9.19463 7.7647 9.20511 7.76874 9.21523C8.05044 9.24809 8.33652 9.27407 8.62072 9.31632C9.15626 9.39645 9.70026 9.44841 10.2236 9.57956C11.1488 9.81149 11.8584 10.6679 11.9764 11.6141C11.9811 11.6519 11.992 11.6892 11.9999 11.7267V12.4063C11.9464 12.5194 11.8552 12.6105 11.7419 12.6639L0.262703 12.6645ZM5.16677 8.30252C5.4034 8.34227 5.63847 8.40581 5.87634 8.41739C7.27796 8.48562 8.43198 7.40045 8.46234 5.99916C8.46766 5.76221 8.58942 5.63232 8.82542 5.61198C9.02292 5.59476 9.16471 5.4489 9.16534 5.26173C9.16597 5.07455 9.02355 4.92682 8.8273 4.9096C8.58598 4.88863 8.46422 4.75592 8.46297 4.51303C8.46297 4.40536 8.46297 4.298 8.46297 4.20003C8.30428 4.17061 8.15998 4.1631 8.03009 4.11552C7.71709 4.00128 7.40409 3.87671 7.10048 3.73993C6.41658 3.43444 5.72736 3.41441 5.03312 3.68891C4.79806 3.78281 4.57865 3.91646 4.34108 4.00191C4.08661 4.09268 3.81931 4.14714 3.54293 4.22101V4.49144C3.54293 4.76187 3.43495 4.88018 3.16389 4.9096C3.07632 4.91689 2.99465 4.95669 2.93494 5.02117C2.87523 5.08564 2.84182 5.17013 2.84127 5.258C2.84072 5.34588 2.87308 5.43077 2.93197 5.49599C2.99087 5.56121 3.07204 5.60203 3.15951 5.61041C3.44121 5.64359 3.53511 5.75189 3.54419 6.03609C3.54981 6.29975 3.60096 6.56045 3.69536 6.80669C3.71602 6.78353 3.72917 6.77039 3.74044 6.75536C3.96517 6.45645 4.26471 6.31247 4.63812 6.31403C5.0832 6.31622 5.52798 6.31403 5.97306 6.31403C6.19811 6.31403 6.3568 6.4649 6.35367 6.66991C6.35054 6.87493 6.19435 7.01421 5.97494 7.01609C5.85193 7.01609 5.72892 7.01609 5.60403 7.01609C5.69731 7.6496 5.62 7.8687 5.16677 8.30252ZM0.713734 11.9533H11.2931C11.3319 11.1471 10.6671 10.3314 9.85957 10.2077C9.18099 10.1038 8.49928 10.0199 7.81944 9.92605C7.73869 9.91509 7.698 9.93106 7.66951 10.0199C7.56251 10.3529 7.35821 10.6462 7.08295 10.862C6.80768 11.0778 6.47409 11.2061 6.12519 11.2305C5.77629 11.2549 5.42808 11.1742 5.12548 10.9988C4.82287 10.8234 4.57975 10.5614 4.42747 10.2466C4.37645 10.1426 4.33826 10.0328 4.29382 9.92448C4.2737 9.92322 4.25353 9.92322 4.23341 9.92448C3.52979 10.0184 2.82241 10.0907 2.1238 10.2131C1.22862 10.3714 0.695267 11.2131 0.713734 11.9533ZM8.42635 3.47826C8.27986 2.34019 7.29204 1.49791 6.3543 1.40933C6.3543 1.50323 6.3543 1.59713 6.3543 1.69103C6.3521 1.91733 6.20656 2.07602 6.00154 2.07539C5.79653 2.07477 5.65317 1.91608 5.65161 1.68853C5.65161 1.59463 5.65161 1.49885 5.65161 1.40213C5.1281 1.47941 4.64341 1.72324 4.2693 2.09751C3.8952 2.47179 3.65159 2.95659 3.57455 3.48014C3.61148 3.47607 3.63089 3.4745 3.64998 3.47168C3.97237 3.42693 4.25939 3.28576 4.54391 3.13928C5.17773 2.81251 5.84942 2.74678 6.5471 2.84036C6.9684 2.89702 7.34368 3.07605 7.71709 3.26323C7.93874 3.37678 8.17897 3.44961 8.42635 3.47826ZM7.03757 8.95387C6.34897 9.18653 5.65297 9.18466 4.94955 8.94824C4.94955 9.1473 4.94548 9.33041 4.94955 9.51164C4.95862 9.77131 5.06302 10.0185 5.24281 10.2061C5.4226 10.3937 5.66518 10.5085 5.92423 10.5286C6.46228 10.5661 6.95431 10.1952 7.03131 9.66501C7.06511 9.43808 7.03757 9.20114 7.03757 8.95387ZM4.59618 7.01828C4.52657 7.01847 4.4586 7.03934 4.40088 7.07824C4.34316 7.11714 4.2983 7.17231 4.272 7.23676C4.2457 7.3012 4.23914 7.372 4.25315 7.44018C4.26717 7.50836 4.30113 7.57083 4.35072 7.61967C4.40031 7.66852 4.46329 7.70152 4.53167 7.7145C4.60006 7.72747 4.67075 7.71983 4.73479 7.69255C4.79882 7.66527 4.85331 7.61958 4.89132 7.56128C4.92934 7.50297 4.94917 7.43468 4.9483 7.36509C4.94619 7.2728 4.9082 7.18497 4.8424 7.12022C4.77661 7.05547 4.68817 7.01891 4.59586 7.01828H4.59618Z" fill="white"/>
</svg>
