<svg width="25" height="25" viewBox="0 0 25 25" fill="none" xmlns="http://www.w3.org/2000/svg">
<path d="M20.2702 25.0005C19.8202 24.8705 19.3502 24.7885 18.9252 24.6005C18.1002 24.2305 17.4154 23.606 16.9711 22.8186C16.5268 22.0311 16.3463 21.122 16.4563 20.2246C16.4711 20.1672 16.4645 20.1063 16.4376 20.0534C16.4107 20.0006 16.3654 19.9594 16.3103 19.9376C13.6943 18.5156 11.0814 17.0887 8.47146 15.6567C8.29246 15.5567 8.22247 15.6297 8.11047 15.7407C6.8105 17.0406 5.25853 17.5036 3.49358 17.0216C1.72862 16.5397 0.605646 15.3507 0.169657 13.5717C-0.594325 10.4578 2.06961 7.48088 5.24253 7.87187C6.35077 7.99303 7.3782 8.50959 8.13647 9.32684C8.24447 9.44183 8.32047 9.45984 8.46246 9.38184C11.0664 7.95587 13.673 6.53457 16.2823 5.11794C16.3484 5.09245 16.4025 5.04301 16.4338 4.97945C16.4651 4.9159 16.4713 4.84289 16.4513 4.77494C16.1513 2.575 17.8672 0.36205 20.0772 0.088057C22.5201 -0.211936 24.5681 1.32503 24.9551 3.75297C24.966 3.79995 24.9804 3.84607 24.9981 3.89097V4.76895C24.9821 4.83095 24.9621 4.89195 24.9501 4.95494C24.6681 6.5629 23.7851 7.71587 22.2711 8.31186C20.7572 8.90784 19.3132 8.67685 18.0342 7.66488C17.6342 7.34888 17.3162 6.92689 16.9433 6.5339C16.9592 6.5279 16.9283 6.5339 16.9013 6.5519C14.352 7.94187 11.8027 9.3315 9.25343 10.7208C9.10044 10.8028 9.10044 10.8808 9.15344 11.0268C9.49296 11.9761 9.49615 13.0133 9.16245 13.9647C9.09145 14.1647 9.13444 14.2557 9.31944 14.3547C11.1521 15.3454 12.9827 16.3417 14.8113 17.3436L16.9993 18.5346C17.0543 18.4566 17.0992 18.3916 17.1442 18.3276C18.1992 16.8597 19.6332 16.1977 21.4111 16.4897C23.1601 16.7766 24.2951 17.8486 24.8351 19.5376C24.9111 19.7746 24.9461 20.0256 25.0011 20.2696V21.1475C24.9851 21.2095 24.9651 21.2706 24.9541 21.3336C24.6721 22.9445 23.7811 24.0765 22.2691 24.6985C21.9151 24.8435 21.5241 24.8985 21.1502 24.9985L20.2702 25.0005Z" fill="#110628"/>
</svg>
