<svg width="28" height="20" viewBox="0 0 28 20" fill="none" xmlns="http://www.w3.org/2000/svg">
<g clip-path="url(#clip0_3013_8048)">
<path d="M-0.000107798 10.037C0.186239 9.43868 0.527171 9.00135 1.15892 8.8766C1.28011 8.85521 1.40302 8.84574 1.52596 8.84831C5.43501 8.84831 9.34383 8.84831 13.2524 8.84831C14.7533 8.84317 16.1956 9.44612 17.2667 10.5264C18.3378 11.6067 18.9513 13.0773 18.9741 14.6193C18.9918 15.6136 18.9847 16.6094 18.9741 17.6045C18.9671 18.4298 18.4214 19.0187 17.621 19.0869C17.5158 19.0956 17.4092 19.0927 17.3041 19.0927C12.1365 19.0927 6.96885 19.0826 1.80125 19.1021C0.911865 19.1058 0.284355 18.812 -0.00292969 17.912L-0.000107798 10.037ZM9.74076 15.9704C9.69912 15.8486 9.68147 15.8087 9.67018 15.7674C9.47489 14.897 9.2796 14.0267 9.08431 13.1564C8.90714 12.3651 8.73138 11.5731 8.55209 10.7819C8.46457 10.3975 8.17728 10.2176 7.87941 10.354C7.63871 10.4642 7.5526 10.684 7.62742 11.0183C8.08293 13.0491 8.53915 15.0798 8.99608 17.1106C9.0949 17.5515 9.22407 17.6298 9.805 17.6262C10.2335 17.6262 10.3697 17.5131 10.4622 17.0873C10.7916 15.6276 11.121 14.1679 11.4504 12.7082C11.5866 12.1011 11.7263 11.4948 11.8485 10.8849C11.8626 10.8228 11.8642 10.7584 11.8534 10.6957C11.8425 10.633 11.8193 10.5731 11.7853 10.5199C11.7512 10.4666 11.7069 10.4211 11.6552 10.3859C11.6034 10.3508 11.5453 10.3268 11.4842 10.3155C11.3664 10.2922 11.2443 10.3156 11.1426 10.381C11.0409 10.4464 10.967 10.5489 10.9358 10.668C10.9146 10.7369 10.9005 10.808 10.885 10.8783C10.5087 12.5501 10.1318 14.2204 9.74006 15.9704H9.74076ZM13.7846 13.7221V11.2838C14.3945 11.2838 14.9846 11.2838 15.5733 11.2838C15.9199 11.2838 16.1231 11.1039 16.1281 10.8065C16.1337 10.4961 15.9276 10.3112 15.5634 10.3097C14.8505 10.3097 14.1373 10.3097 13.4239 10.3097C12.9764 10.3097 12.8141 10.4693 12.8134 10.9248C12.8134 12.9512 12.8134 14.9778 12.8134 17.0047C12.8134 17.4601 12.9778 17.6262 13.4218 17.6277C14.1277 17.6277 14.8335 17.6277 15.5352 17.6277C15.6062 17.6295 15.6772 17.6234 15.7469 17.6095C15.8607 17.5896 15.963 17.5262 16.0333 17.4321C16.1036 17.3379 16.1367 17.22 16.126 17.1019C16.1249 17.0426 16.1124 16.9842 16.0893 16.93C16.0662 16.8757 16.0329 16.8267 15.9914 16.7856C15.9498 16.7446 15.9008 16.7124 15.8471 16.6909C15.7934 16.6694 15.7361 16.6589 15.6785 16.6602C15.142 16.6486 14.6041 16.6551 14.0677 16.6529C13.9745 16.6529 13.8806 16.6449 13.7776 16.6406V14.699C14.3804 14.699 14.9691 14.699 15.557 14.699C15.9199 14.699 16.1274 14.5148 16.1274 14.2073C16.1274 13.8998 15.9255 13.7272 15.5535 13.7257C14.9733 13.7236 14.3931 13.725 13.7839 13.725L13.7846 13.7221ZM2.37511 16.6507V16.3062C2.37511 14.5156 2.37935 12.7249 2.36805 10.9342C2.36805 10.7688 2.31229 10.5534 2.20288 10.4519C2.09347 10.3503 1.87607 10.3228 1.72784 10.359C1.4822 10.4185 1.42291 10.6492 1.42291 10.895C1.42667 12.9388 1.42667 14.9826 1.42291 17.0264C1.42291 17.4456 1.59231 17.6233 1.99889 17.6262C2.57981 17.6313 3.16073 17.6262 3.74166 17.6262C3.91742 17.6262 4.09459 17.6349 4.26964 17.6211C4.55199 17.5987 4.74257 17.392 4.74327 17.1338C4.74327 16.864 4.53928 16.6638 4.24353 16.6507C4.12988 16.6457 4.01483 16.6507 3.90048 16.6507H2.37511ZM5.69901 13.9455C5.69901 14.9754 5.69124 16.006 5.70748 17.0359C5.70748 17.1976 5.77806 17.413 5.89453 17.5029C6.011 17.5929 6.23052 17.6037 6.37663 17.5559C6.60321 17.4833 6.6498 17.2527 6.64909 17.0206C6.64909 14.9899 6.64909 12.9565 6.64909 10.9204C6.64909 10.5338 6.46345 10.3054 6.16417 10.3097C5.86488 10.3141 5.70183 10.5331 5.70112 10.9088C5.69877 11.9208 5.69807 12.933 5.69901 13.9455Z" fill="#A09BAE"/>
<path d="M18.5271 0.549806C22.7566 0.555608 26.3621 3.74823 26.9494 8.06285C27.3623 11.109 26.4214 13.6917 24.2601 15.8094C23.8196 16.241 23.2232 16.2402 22.8484 15.8254C22.4735 15.4105 22.5251 14.81 22.9698 14.3821C25.4071 12.0417 25.8899 8.43129 24.0589 5.59622C22.6302 3.38415 20.5621 2.355 17.9744 2.53776C16.1582 2.66541 14.6625 3.49367 13.4632 4.89488C13.123 5.2916 12.6635 5.39677 12.2555 5.17629C12.0656 5.07647 11.9151 4.91225 11.8296 4.71147C11.744 4.51069 11.7287 4.28569 11.7861 4.07461C11.8347 3.91119 11.9159 3.76 12.0247 3.63074C12.8269 2.66426 13.8238 1.88825 14.9465 1.35631C16.0691 0.824381 17.2908 0.549208 18.5271 0.549806Z" fill="#A09BAE"/>
<path d="M23.255 9.15366C23.2472 10.3504 22.9656 11.2758 22.408 12.1098C22.0677 12.6175 21.5087 12.7452 21.0534 12.429C20.5981 12.1128 20.4944 11.5289 20.8353 11.0219C21.1048 10.6283 21.2756 10.1724 21.3327 9.69472C21.3897 9.21702 21.3312 8.73224 21.1624 8.28331C20.9935 7.83439 20.7195 7.43519 20.3646 7.12107C20.0097 6.80696 19.5849 6.58762 19.1278 6.4825C18.321 6.2961 17.5792 6.46727 16.8881 6.92781C16.3517 7.28537 15.7086 7.10623 15.4602 6.54632C15.2604 6.09593 15.4023 5.62161 15.8286 5.31337C17.5036 4.09999 19.8563 4.17832 21.4628 5.51282C22.6409 6.4941 23.2211 7.78073 23.255 9.15366Z" fill="#A09BAE"/>
<path d="M19.4498 9.34585C19.4477 9.60164 19.3474 9.84623 19.1706 10.0264C18.9939 10.2065 18.755 10.3076 18.506 10.3075C18.2542 10.3075 18.0128 10.2048 17.8347 10.0218C17.6567 9.8389 17.5566 9.59078 17.5566 9.33207C17.5566 9.07335 17.6567 8.82523 17.8347 8.6423C18.0128 8.45936 18.2542 8.35658 18.506 8.35658C18.6316 8.35656 18.7559 8.38227 18.8716 8.43222C18.9874 8.48217 19.0923 8.55536 19.1802 8.64748C19.2681 8.73961 19.3372 8.84883 19.3835 8.96875C19.4298 9.08867 19.4523 9.21687 19.4498 9.34585Z" fill="#A09BAE"/>
<path d="M9.7401 15.9704C10.1333 14.2204 10.5088 12.5501 10.8843 10.8798C10.8998 10.8073 10.9139 10.7384 10.9351 10.6695C10.9663 10.5504 11.0402 10.4479 11.1419 10.3825C11.2437 10.3171 11.3657 10.2937 11.4836 10.317C11.5446 10.3283 11.6028 10.3523 11.6545 10.3874C11.7063 10.4225 11.7505 10.4681 11.7846 10.5213C11.8187 10.5746 11.8418 10.6344 11.8527 10.6972C11.8636 10.7599 11.8619 10.8243 11.8478 10.8863C11.7257 11.4963 11.5859 12.1026 11.4497 12.7096C11.1203 14.1694 10.7909 15.6291 10.4615 17.0888C10.3655 17.5145 10.2328 17.6248 9.80433 17.6277C9.22341 17.6313 9.09424 17.5552 8.99542 17.112C8.53802 15.0813 8.0818 13.0505 7.62676 11.0198C7.55193 10.6854 7.63805 10.4657 7.87875 10.3554C8.17662 10.2191 8.4639 10.3989 8.55143 10.7833C8.73072 11.5746 8.90436 12.3666 9.08365 13.1579C9.27847 14.0282 9.47376 14.8985 9.66952 15.7688C9.68081 15.8087 9.69846 15.8486 9.7401 15.9704Z" fill="white"/>
<path d="M13.7843 13.725C14.3935 13.725 14.9737 13.725 15.5546 13.725C15.9266 13.725 16.1278 13.8969 16.1285 14.2066C16.1292 14.5163 15.9209 14.6969 15.5581 14.6983C14.9701 14.6983 14.3815 14.6983 13.7787 14.6983V16.637C13.8817 16.6413 13.9756 16.6486 14.0688 16.6493C14.6052 16.6493 15.1431 16.6449 15.6795 16.6565C15.7372 16.6553 15.7945 16.6657 15.8482 16.6873C15.9019 16.7088 15.9509 16.741 15.9925 16.782C16.034 16.823 16.0673 16.8721 16.0904 16.9264C16.1135 16.9806 16.126 17.039 16.1271 17.0982C16.1378 17.2164 16.1047 17.3343 16.0344 17.4284C15.9641 17.5226 15.8618 17.586 15.748 17.6059C15.6783 17.6198 15.6073 17.6258 15.5362 17.6241C14.8304 17.6241 14.1245 17.6241 13.4229 17.6241C12.9789 17.6241 12.8152 17.4565 12.8145 17.001C12.8145 14.9737 12.8145 12.947 12.8145 10.9211C12.8145 10.4657 12.9775 10.3068 13.425 10.3061C14.1379 10.3061 14.8511 10.3061 15.5645 10.3061C15.9252 10.3061 16.1292 10.4925 16.1292 10.8029C16.1242 11.1003 15.9174 11.2787 15.5744 11.2801C14.985 11.2801 14.3956 11.2801 13.7857 11.2801L13.7843 13.725Z" fill="white"/>
<path d="M2.37516 16.6507H3.90335C4.0177 16.6507 4.13275 16.6471 4.2464 16.6507C4.54215 16.6638 4.74685 16.864 4.74615 17.1338C4.74615 17.392 4.55274 17.5987 4.27251 17.6211C4.09746 17.6349 3.91959 17.6262 3.74453 17.6262C3.16361 17.6262 2.58269 17.6298 2.00176 17.6262C1.59519 17.6262 1.42578 17.4456 1.42578 17.0264C1.42578 14.9826 1.42578 12.9388 1.42578 10.895C1.42578 10.647 1.48507 10.4185 1.73071 10.359C1.87894 10.3228 2.10058 10.3554 2.20576 10.4519C2.31093 10.5483 2.3674 10.7688 2.3674 10.932C2.37869 12.7227 2.37446 14.5134 2.37446 16.3041L2.37516 16.6507Z" fill="white"/>
<path d="M5.6994 13.9455C5.6994 12.933 5.6994 11.9208 5.6994 10.9088C5.6994 10.5331 5.87233 10.3141 6.16244 10.3097C6.45255 10.3054 6.64737 10.5338 6.64737 10.9204C6.64737 12.954 6.64737 14.9875 6.64737 17.0206C6.64737 17.2527 6.60149 17.4826 6.37491 17.5559C6.22879 17.6037 6.00503 17.5907 5.8928 17.5029C5.78057 17.4152 5.70787 17.1976 5.70575 17.0359C5.69163 16.0089 5.6994 14.9754 5.6994 13.9455Z" fill="white"/>
</g>
<defs>
<clipPath id="clip0_3013_8048">
<rect width="27.045" height="18.5494" fill="white" transform="translate(0 0.549805)"/>
</clipPath>
</defs>
</svg>
