<svg width="22" height="15" viewBox="0 0 22 15" fill="none" xmlns="http://www.w3.org/2000/svg">
<g clip-path="url(#clip0_3237_2938)">
<path d="M0.934747 7.64797C1.07539 7.19637 1.33271 6.8663 1.80951 6.77215C1.90098 6.75601 1.99374 6.74886 2.08653 6.7508C5.03685 6.7508 7.98699 6.7508 10.937 6.7508C12.0697 6.74692 13.1583 7.20199 13.9667 8.01734C14.7751 8.83268 15.2381 9.94258 15.2554 11.1064C15.2687 11.8568 15.2633 12.6084 15.2554 13.3594C15.25 13.9823 14.8382 14.4268 14.2341 14.4783C14.1547 14.4848 14.0743 14.4827 13.9949 14.4827C10.0947 14.4827 6.1945 14.475 2.2943 14.4898C1.62305 14.4925 1.14944 14.2708 0.932617 13.5915L0.934747 7.64797ZM8.28657 12.1262C8.25514 12.0342 8.24182 12.0041 8.2333 11.9729C8.08591 11.316 7.93851 10.6592 7.79112 10.0023C7.6574 9.40509 7.52475 8.80734 7.38943 8.21014C7.32337 7.92002 7.10655 7.78427 6.88173 7.88718C6.70007 7.97038 6.63507 8.13624 6.69155 8.38859C7.03534 9.92127 7.37967 11.454 7.72453 12.9866C7.79911 13.3195 7.8966 13.3786 8.33505 13.3758C8.65842 13.3758 8.76124 13.2904 8.83103 12.9691C9.07964 11.8674 9.32826 10.7657 9.57687 9.664C9.67969 9.20584 9.78517 8.74822 9.87733 8.28787C9.88797 8.24103 9.88923 8.19245 9.88103 8.1451C9.87283 8.09774 9.85534 8.0526 9.82963 8.01241C9.80392 7.97221 9.77052 7.93781 9.73146 7.9113C9.6924 7.88478 9.64851 7.86671 9.60244 7.85817C9.5135 7.84059 9.42138 7.85825 9.34459 7.9076C9.2678 7.95695 9.21204 8.03433 9.1885 8.1242C9.17252 8.1762 9.16186 8.22984 9.15014 8.28294C8.86619 9.54467 8.58171 10.8053 8.28604 12.1262H8.28657ZM11.3386 10.4292V8.58893C11.7989 8.58893 12.2443 8.58893 12.6886 8.58893C12.9502 8.58893 13.1036 8.45318 13.1073 8.22875C13.1116 7.99447 12.956 7.85488 12.6811 7.85379C12.1431 7.85379 11.6048 7.85379 11.0664 7.85379C10.7287 7.85379 10.6061 7.97421 10.6056 8.31797C10.6056 9.84737 10.6056 11.377 10.6056 12.9067C10.6056 13.2505 10.7297 13.3758 11.0648 13.3769C11.5976 13.3769 12.1303 13.3769 12.6598 13.3769C12.7134 13.3783 12.767 13.3737 12.8197 13.3632C12.9056 13.3482 12.9828 13.3003 13.0358 13.2293C13.0889 13.1582 13.1138 13.0692 13.1057 12.9801C13.1049 12.9354 13.0955 12.8913 13.0781 12.8504C13.0606 12.8094 13.0355 12.7724 13.0042 12.7414C12.9728 12.7105 12.9358 12.6862 12.8952 12.6699C12.8547 12.6537 12.8115 12.6458 12.768 12.6467C12.3631 12.638 11.9572 12.6429 11.5523 12.6412C11.4819 12.6412 11.4111 12.6352 11.3333 12.6319V11.1666C11.7883 11.1666 12.2326 11.1666 12.6764 11.1666C12.9502 11.1666 13.1068 11.0275 13.1068 10.7955C13.1068 10.5634 12.9544 10.4331 12.6737 10.432C12.2358 10.4303 11.7979 10.4314 11.3381 10.4314L11.3386 10.4292ZM2.72742 12.6396V12.3796C2.72742 11.0281 2.73062 9.67659 2.72209 8.32509C2.72209 8.20028 2.68001 8.03771 2.59743 7.96108C2.51486 7.88444 2.35077 7.86364 2.2389 7.89101C2.0535 7.9359 2.00875 8.10996 2.00875 8.29553C2.01159 9.83807 2.01159 11.3806 2.00875 12.9231C2.00875 13.2395 2.13661 13.3736 2.44347 13.3758C2.88191 13.3797 3.32036 13.3758 3.75881 13.3758C3.89146 13.3758 4.02518 13.3824 4.1573 13.372C4.37039 13.355 4.51423 13.199 4.51476 13.0042C4.51476 12.8005 4.3608 12.6495 4.13759 12.6396C4.05181 12.6358 3.96498 12.6396 3.87867 12.6396H2.72742ZM5.2361 10.5978C5.2361 11.3751 5.23024 12.153 5.24249 12.9303C5.24249 13.0523 5.29576 13.2149 5.38366 13.2828C5.47157 13.3507 5.63725 13.3589 5.74753 13.3227C5.91854 13.268 5.9537 13.0939 5.95316 12.9188C5.95316 11.3861 5.95316 9.85139 5.95316 8.31469C5.95316 8.02293 5.81305 7.8505 5.58717 7.85379C5.36129 7.85707 5.23823 8.02238 5.23769 8.30593C5.23592 9.06972 5.23539 9.83369 5.2361 10.5978Z" fill="#FE3850"/>
<path d="M14.9181 0.48755C18.1103 0.491929 20.8316 2.90153 21.2748 6.15794C21.5865 8.45698 20.8763 10.4062 19.2451 12.0046C18.9126 12.3303 18.4625 12.3297 18.1796 12.0166C17.8967 11.7035 17.9356 11.2503 18.2712 10.9273C20.1108 9.16092 20.4752 6.43602 19.0932 4.29628C18.015 2.62674 16.454 1.85 14.501 1.98794C13.1303 2.08428 12.0014 2.7094 11.0963 3.76695C10.8395 4.06637 10.4927 4.14575 10.1847 3.97934C10.0414 3.904 9.92783 3.78006 9.86327 3.62852C9.7987 3.47698 9.78711 3.30717 9.83047 3.14786C9.86712 3.02452 9.92845 2.91041 10.0105 2.81285C10.616 2.08341 11.3684 1.49772 12.2157 1.09625C13.063 0.694782 13.9851 0.487099 14.9181 0.48755Z" fill="#FE3850"/>
<path d="M18.4864 6.98123C18.4806 7.88442 18.268 8.58288 17.8471 9.21238C17.5904 9.59555 17.1684 9.69189 16.8248 9.45323C16.4812 9.21457 16.4029 8.77392 16.6602 8.3913C16.8636 8.09419 16.9925 7.75013 17.0356 7.38959C17.0786 7.02905 17.0345 6.66316 16.907 6.32434C16.7796 5.98552 16.5728 5.68423 16.3049 5.44715C16.0371 5.21008 15.7165 5.04454 15.3715 4.9652C14.7626 4.82452 14.2027 4.9537 13.6811 5.30129C13.2762 5.57116 12.7909 5.43595 12.6034 5.01337C12.4526 4.67344 12.5597 4.31545 12.8815 4.08281C14.1457 3.16703 15.9213 3.22614 17.1338 4.23334C18.0229 4.97395 18.4609 5.94502 18.4864 6.98123Z" fill="#FE3850"/>
<path d="M15.6134 7.12628C15.6118 7.31933 15.5361 7.50394 15.4027 7.63989C15.2693 7.77584 15.089 7.85212 14.9011 7.85211C14.7111 7.85211 14.5288 7.77454 14.3944 7.63647C14.2601 7.4984 14.1846 7.31114 14.1846 7.11588C14.1846 6.92061 14.2601 6.73335 14.3944 6.59528C14.5288 6.45721 14.7111 6.37964 14.9011 6.37964C14.9959 6.37962 15.0897 6.39903 15.1771 6.43673C15.2644 6.47443 15.3436 6.52966 15.4099 6.59919C15.4763 6.66873 15.5284 6.75116 15.5634 6.84167C15.5983 6.93217 15.6153 7.02893 15.6134 7.12628Z" fill="#FE3850"/>
<path d="M8.28568 12.1261C8.58241 10.8052 8.86583 9.54458 9.14925 8.28395C9.16097 8.22921 9.17162 8.1772 9.18761 8.1252C9.21114 8.03534 9.26691 7.95795 9.3437 7.9086C9.42048 7.85925 9.51261 7.84159 9.60155 7.85917C9.64762 7.86771 9.69151 7.88579 9.73057 7.9123C9.76962 7.93882 9.80302 7.97322 9.82874 8.01341C9.85445 8.0536 9.87194 8.09875 9.88014 8.1461C9.88834 8.19346 9.88708 8.24203 9.87644 8.28887C9.78428 8.74922 9.67879 9.20684 9.57597 9.66501C9.32736 10.7667 9.07875 11.8684 8.83014 12.9701C8.75768 13.2915 8.65753 13.3747 8.33415 13.3768C7.89571 13.3796 7.79822 13.3221 7.72364 12.9877C7.37842 11.455 7.03409 9.92228 6.69065 8.38959C6.63418 8.13724 6.69917 7.97139 6.88084 7.88818C7.10566 7.78527 7.32248 7.92103 7.38854 8.21114C7.52386 8.80834 7.65491 9.40609 7.79023 10.0033C7.93726 10.6602 8.08466 11.317 8.2324 11.9739C8.24093 12.004 8.25424 12.0341 8.28568 12.1261Z" fill="white"/>
<path d="M11.3375 10.4315C11.7972 10.4315 12.2351 10.4315 12.6736 10.4315C12.9543 10.4315 13.1062 10.5612 13.1067 10.7949C13.1072 11.0287 12.9501 11.165 12.6762 11.1661C12.2325 11.1661 11.7882 11.1661 11.3332 11.1661V12.6292C11.411 12.6325 11.4818 12.638 11.5521 12.6385C11.957 12.6385 12.363 12.6352 12.7679 12.644C12.8114 12.6431 12.8546 12.6509 12.8951 12.6672C12.9356 12.6834 12.9727 12.7077 13.004 12.7387C13.0354 12.7697 13.0605 12.8067 13.078 12.8476C13.0954 12.8886 13.1048 12.9327 13.1056 12.9774C13.1137 13.0665 13.0887 13.1555 13.0357 13.2266C12.9826 13.2976 12.9054 13.3455 12.8195 13.3605C12.7669 13.371 12.7133 13.3756 12.6597 13.3742C12.127 13.3742 11.5942 13.3742 11.0647 13.3742C10.7296 13.3742 10.606 13.2478 10.6055 12.904C10.6055 11.3739 10.6055 9.8443 10.6055 8.31526C10.6055 7.9715 10.7285 7.85162 11.0663 7.85107C11.6044 7.85107 12.1426 7.85107 12.681 7.85107C12.9533 7.85107 13.1072 7.99175 13.1072 8.22604C13.1035 8.45046 12.9474 8.58512 12.6885 8.58622C12.2436 8.58622 11.7988 8.58622 11.3385 8.58622L11.3375 10.4315Z" fill="white"/>
<path d="M2.72728 12.6396H3.88066C3.96697 12.6396 4.0538 12.6369 4.13957 12.6396C4.36279 12.6494 4.51729 12.8005 4.51676 13.0042C4.51676 13.199 4.37078 13.355 4.15929 13.372C4.02717 13.3824 3.89292 13.3758 3.7608 13.3758C3.32235 13.3758 2.8839 13.3786 2.44546 13.3758C2.1386 13.3758 2.01074 13.2395 2.01074 12.9231C2.01074 11.3806 2.01074 9.83806 2.01074 8.29552C2.01074 8.10831 2.05549 7.93589 2.24089 7.891C2.35276 7.86363 2.52004 7.88826 2.59942 7.96107C2.6788 8.03387 2.72142 8.20028 2.72142 8.32344C2.72994 9.67494 2.72675 11.0264 2.72675 12.3779L2.72728 12.6396Z" fill="white"/>
<path d="M5.23598 10.5979C5.23598 9.83371 5.23598 9.06974 5.23598 8.30595C5.23598 8.0224 5.36651 7.85709 5.58546 7.85381C5.80442 7.85052 5.95146 8.02295 5.95146 8.31471C5.95146 9.84958 5.95146 11.3843 5.95146 12.9188C5.95146 13.094 5.91683 13.2675 5.74582 13.3228C5.63554 13.3589 5.46666 13.349 5.38195 13.2828C5.29725 13.2166 5.24237 13.0524 5.24078 12.9303C5.23012 12.1552 5.23598 11.3752 5.23598 10.5979Z" fill="white"/>
</g>
<defs>
<clipPath id="clip0_3237_2938">
<rect width="20.412" height="14" fill="white" transform="translate(0.93457 0.487549)"/>
</clipPath>
</defs>
</svg>
