<svg width="28" height="19" viewBox="0 0 28 19" fill="none" xmlns="http://www.w3.org/2000/svg">
<g clip-path="url(#clip0_2489_7993)">
<path d="M-2.30572e-05 9.86394C0.19192 9.26411 0.543089 8.8257 1.19381 8.70064C1.31864 8.6792 1.44524 8.66971 1.57187 8.67229C5.59832 8.67229 9.62452 8.67229 13.6505 8.67229C15.1964 8.66714 16.6821 9.27157 17.7853 10.3545C18.8886 11.4375 19.5205 12.9117 19.544 14.4575C19.5622 15.4543 19.5549 16.4525 19.544 17.4501C19.5367 18.2774 18.9747 18.8678 18.1502 18.9362C18.0419 18.9449 17.9321 18.942 17.8238 18.942C12.501 18.942 7.17821 18.9318 1.85543 18.9514C0.939336 18.9551 0.292982 18.6606 -0.00292969 17.7583L-2.30572e-05 9.86394ZM10.0334 15.812C9.99047 15.6898 9.97229 15.6499 9.96066 15.6084C9.75951 14.7359 9.55835 13.8635 9.3572 12.991C9.17471 12.1978 8.99367 11.4038 8.809 10.6106C8.71884 10.2253 8.42293 10.045 8.11612 10.1817C7.86819 10.2922 7.77949 10.5125 7.85656 10.8476C8.32575 12.8834 8.79567 14.9192 9.26632 16.9549C9.3681 17.397 9.50116 17.4755 10.0995 17.4719C10.5408 17.4719 10.6812 17.3584 10.7764 16.9317C11.1157 15.4683 11.455 14.005 11.7943 12.5417C11.9346 11.9331 12.0786 11.3253 12.2044 10.7139C12.2189 10.6517 12.2206 10.5871 12.2094 10.5242C12.1982 10.4613 12.1743 10.4014 12.1393 10.348C12.1042 10.2946 12.0586 10.2489 12.0053 10.2137C11.952 10.1785 11.8921 10.1545 11.8292 10.1431C11.7078 10.1198 11.5821 10.1432 11.4773 10.2088C11.3725 10.2743 11.2964 10.3771 11.2643 10.4965C11.2425 10.5655 11.2279 10.6368 11.2119 10.7073C10.8244 12.3832 10.4362 14.0576 10.0326 15.812H10.0334ZM14.1987 13.5581V11.1137C14.8268 11.1137 15.4347 11.1137 16.041 11.1137C16.398 11.1137 16.6074 10.9334 16.6125 10.6353C16.6183 10.3242 16.406 10.1388 16.0309 10.1373C15.2965 10.1373 14.562 10.1373 13.8271 10.1373C13.3662 10.1373 13.199 10.2973 13.1982 10.7539C13.1982 12.7853 13.1982 14.8169 13.1982 16.8488C13.1982 17.3054 13.3676 17.4719 13.825 17.4733C14.552 17.4733 15.2791 17.4733 16.0018 17.4733C16.0749 17.4751 16.148 17.469 16.2199 17.4551C16.3371 17.4351 16.4425 17.3716 16.5149 17.2772C16.5873 17.1828 16.6214 17.0646 16.6103 16.9462C16.6092 16.8868 16.5964 16.8283 16.5726 16.7739C16.5488 16.7195 16.5145 16.6703 16.4717 16.6292C16.4289 16.5881 16.3784 16.5558 16.323 16.5342C16.2677 16.5126 16.2087 16.5022 16.1494 16.5034C15.5968 16.4918 15.0428 16.4983 14.4902 16.4962C14.3943 16.4962 14.2976 16.4882 14.1914 16.4838V14.5375C14.8123 14.5375 15.4187 14.5375 16.0243 14.5375C16.398 14.5375 16.6118 14.3528 16.6118 14.0445C16.6118 13.7362 16.4038 13.5632 16.0207 13.5617C15.423 13.5596 14.8254 13.561 14.1979 13.561L14.1987 13.5581ZM2.44652 16.494V16.1486C2.44652 14.3535 2.45089 12.5584 2.43925 10.7633C2.43925 10.5975 2.38182 10.3816 2.26912 10.2798C2.15643 10.178 1.9325 10.1504 1.77981 10.1867C1.5268 10.2464 1.46572 10.4776 1.46572 10.724C1.4696 12.7729 1.4696 14.8217 1.46572 16.8706C1.46572 17.2908 1.64022 17.469 2.059 17.4719C2.65737 17.477 3.25574 17.4719 3.85411 17.4719C4.03514 17.4719 4.21764 17.4806 4.39795 17.4668C4.68877 17.4442 4.88507 17.237 4.8858 16.9782C4.8858 16.7077 4.67568 16.5071 4.37105 16.494C4.25399 16.4889 4.13548 16.494 4.01769 16.494H2.44652ZM5.87024 13.782C5.87024 14.8145 5.86224 15.8476 5.87896 16.88C5.87896 17.0422 5.95166 17.2581 6.07163 17.3483C6.19159 17.4384 6.41771 17.4493 6.56821 17.4013C6.80159 17.3286 6.84958 17.0974 6.84885 16.8648C6.84885 14.829 6.84885 12.7906 6.84885 10.7495C6.84885 10.362 6.65764 10.1329 6.34936 10.1373C6.04109 10.1417 5.87314 10.3612 5.87242 10.7379C5.86999 11.7523 5.86927 12.7671 5.87024 13.782Z" fill="white"/>
<path d="M19.0836 0.353517C23.4401 0.359333 27.1539 3.55984 27.7588 7.8851C28.1841 10.9387 27.215 13.5278 24.9887 15.6508C24.535 16.0834 23.9207 16.0827 23.5346 15.6668C23.1485 15.2509 23.2016 14.6489 23.6597 14.22C26.1702 11.8737 26.6675 8.25445 24.7815 5.41238C23.3099 3.19486 21.1797 2.16316 18.5143 2.34638C16.6436 2.47434 15.1029 3.30464 13.8676 4.70932C13.5172 5.10702 13.0439 5.21244 12.6237 4.99142C12.428 4.89135 12.273 4.72673 12.1849 4.52545C12.0968 4.32417 12.081 4.09862 12.1402 3.88702C12.1902 3.7232 12.2739 3.57164 12.3859 3.44205C13.2122 2.47319 14.2391 1.69526 15.3954 1.16202C16.5518 0.628769 17.8102 0.352918 19.0836 0.353517Z" fill="white"/>
<path d="M23.9537 8.97803C23.9457 10.1777 23.6556 11.1054 23.0812 11.9415C22.7308 12.4505 22.1549 12.5784 21.686 12.2614C21.217 11.9444 21.1101 11.3591 21.4613 10.8509C21.7389 10.4563 21.9149 9.99931 21.9736 9.52043C22.0324 9.04155 21.9721 8.55557 21.7982 8.10554C21.6243 7.65551 21.342 7.25532 20.9765 6.94043C20.6109 6.62554 20.1734 6.40566 19.7026 6.30028C18.8715 6.11342 18.1074 6.28501 17.3956 6.74669C16.843 7.10513 16.1807 6.92555 15.9248 6.36426C15.719 5.91276 15.8652 5.43726 16.3043 5.12826C18.0296 3.91189 20.4529 3.99042 22.1077 5.3282C23.3211 6.31191 23.9188 7.60171 23.9537 8.97803Z" fill="white"/>
<path d="M20.0335 9.17139C20.0314 9.42781 19.928 9.67302 19.7459 9.85359C19.5639 10.0342 19.3178 10.1355 19.0614 10.1355C18.802 10.1355 18.5533 10.0324 18.3699 9.84905C18.1865 9.66566 18.0835 9.41693 18.0835 9.15758C18.0835 8.89823 18.1865 8.6495 18.3699 8.46611C18.5533 8.28272 18.802 8.17969 19.0614 8.17969C19.1907 8.17966 19.3187 8.20544 19.438 8.25551C19.5572 8.30559 19.6653 8.37895 19.7558 8.47131C19.8463 8.56366 19.9175 8.67315 19.9652 8.79336C20.0129 8.91358 20.0361 9.0421 20.0335 9.17139Z" fill="white"/>
<path d="M10.0329 15.8129C10.4378 14.0586 10.8246 12.3841 11.2114 10.7097C11.2274 10.637 11.242 10.5679 11.2638 10.4989C11.2959 10.3795 11.372 10.2767 11.4768 10.2112C11.5816 10.1456 11.7073 10.1222 11.8287 10.1455C11.8916 10.1569 11.9515 10.1809 12.0048 10.2161C12.0581 10.2513 12.1037 10.297 12.1388 10.3504C12.1738 10.4038 12.1977 10.4637 12.2089 10.5266C12.2201 10.5895 12.2184 10.6541 12.2039 10.7163C12.0781 11.3277 11.9341 11.9355 11.7938 12.5441C11.4545 14.0074 11.1152 15.4707 10.7759 16.9341C10.677 17.3608 10.5404 17.4714 10.099 17.4743C9.50066 17.4779 9.36761 17.4016 9.26582 16.9573C8.79469 14.9216 8.32477 12.8858 7.85606 10.85C7.77899 10.5149 7.86769 10.2946 8.11562 10.1841C8.42243 10.0474 8.71834 10.2277 8.8085 10.613C8.99317 11.4062 9.17203 12.2002 9.3567 12.9934C9.55737 13.8659 9.75852 14.7383 9.96016 15.6108C9.97179 15.6508 9.98997 15.6908 10.0329 15.8129Z" fill="#FE3850"/>
<path d="M14.1982 13.5621C14.8256 13.5621 15.4233 13.5621 16.0217 13.5621C16.4048 13.5621 16.612 13.7344 16.6128 14.0449C16.6135 14.3553 16.399 14.5364 16.0253 14.5378C15.4197 14.5378 14.8133 14.5378 14.1924 14.5378V16.4812C14.2985 16.4856 14.3952 16.4929 14.4912 16.4936C15.0438 16.4936 15.5978 16.4892 16.1503 16.5009C16.2097 16.4996 16.2687 16.5101 16.324 16.5317C16.3793 16.5533 16.4298 16.5855 16.4727 16.6267C16.5155 16.6678 16.5498 16.717 16.5735 16.7714C16.5973 16.8257 16.6102 16.8843 16.6113 16.9437C16.6223 17.0621 16.5883 17.1803 16.5159 17.2747C16.4435 17.369 16.3381 17.4326 16.2209 17.4526C16.149 17.4665 16.0759 17.4726 16.0028 17.4708C15.2757 17.4708 14.5486 17.4708 13.8259 17.4708C13.3686 17.4708 13.1999 17.3028 13.1992 16.8462C13.1992 14.8139 13.1992 12.7822 13.1992 10.7513C13.1992 10.2947 13.3672 10.1355 13.8281 10.1348C14.5625 10.1348 15.297 10.1348 16.0318 10.1348C16.4034 10.1348 16.6135 10.3216 16.6135 10.6328C16.6084 10.9309 16.3954 11.1097 16.042 11.1112C15.4349 11.1112 14.8278 11.1112 14.1997 11.1112L14.1982 13.5621Z" fill="#FE3850"/>
<path d="M2.44664 16.4935H4.02072C4.1385 16.4935 4.25701 16.4899 4.37407 16.4935C4.67871 16.5066 4.88955 16.7073 4.88883 16.9778C4.88883 17.2366 4.68961 17.4438 4.40097 17.4663C4.22066 17.4802 4.03744 17.4714 3.85713 17.4714C3.25877 17.4714 2.6604 17.4751 2.06203 17.4714C1.64324 17.4714 1.46875 17.2904 1.46875 16.8702C1.46875 14.8213 1.46875 12.7725 1.46875 10.7236C1.46875 10.475 1.52982 10.2459 1.78284 10.1863C1.93552 10.15 2.16382 10.1827 2.27215 10.2794C2.38048 10.3761 2.43864 10.5971 2.43864 10.7607C2.45028 12.5558 2.44592 14.3509 2.44592 16.146L2.44664 16.4935Z" fill="#FE3850"/>
<path d="M5.87036 13.7815C5.87036 12.7665 5.87036 11.7518 5.87036 10.7373C5.87036 10.3607 6.04849 10.1411 6.34731 10.1368C6.64613 10.1324 6.8468 10.3614 6.8468 10.749C6.8468 12.7876 6.8468 14.8261 6.8468 16.8642C6.8468 17.0969 6.79954 17.3274 6.56615 17.4008C6.41565 17.4488 6.18517 17.4357 6.06957 17.3477C5.95397 17.2598 5.87908 17.0416 5.8769 16.8795C5.86236 15.85 5.87036 14.8139 5.87036 13.7815Z" fill="#FE3850"/>
</g>
<defs>
<clipPath id="clip0_2489_7993">
<rect width="27.8572" height="18.5952" fill="white" transform="translate(0 0.353516)"/>
</clipPath>
</defs>
</svg>
