<svg width="10" height="13" viewBox="0 0 10 13" fill="none" xmlns="http://www.w3.org/2000/svg">
    <path d="M8.46555 4.7775C9.12692 4.83336 9.58457 5.13705 9.79862 5.75055C9.85682 5.91765 9.87607 6.10588 9.87701 6.28472C9.88264 7.87126 9.88264 9.4578 9.87935 11.0443C9.87748 11.9568 9.28229 12.5487 8.36979 12.5492C6.08667 12.5506 3.80355 12.5502 1.52042 12.5492C0.596662 12.5487 0.00288117 11.9578 0.00147299 11.0354C-0.000873965 9.46672 6.48183e-05 7.89755 0.0010036 6.32884C0.0010036 5.43324 0.476967 4.89719 1.36553 4.78689C1.37585 4.78548 1.38571 4.77703 1.41716 4.7606C1.41716 4.52731 1.41246 4.28276 1.4181 4.03821C1.45377 2.36483 2.5728 0.998426 4.20441 0.631831C6.15567 0.19342 8.14448 1.56264 8.42095 3.54018C8.45475 3.78239 8.45522 4.02976 8.46461 4.27478C8.47071 4.43766 8.46601 4.60101 8.46601 4.7775H8.46555ZM2.8488 4.77938H7.05221C7.05221 4.51464 7.05784 4.25882 7.05127 4.003C7.01137 2.42538 5.23942 1.43731 3.8871 2.2517C2.8535 2.87412 2.75305 3.75892 2.84833 4.77891L2.8488 4.77938ZM4.23679 8.30967C4.23679 8.54953 4.23257 8.78986 4.23773 9.02972C4.24618 9.42025 4.54753 9.71738 4.93243 9.72066C5.32625 9.72442 5.63793 9.42636 5.64309 9.02831C5.64919 8.55423 5.64873 8.08014 5.64309 7.60605C5.63887 7.20754 5.32813 6.90291 4.93947 6.90337C4.55082 6.90337 4.2443 7.20895 4.23726 7.60793C4.23304 7.84216 4.23633 8.07638 4.23679 8.31014V8.30967Z" fill="black"/>
</svg>
