<svg width="75" height="120" viewBox="0 0 75 120" fill="none" xmlns="http://www.w3.org/2000/svg">
<path d="M45.6528 9.18374C44.7212 15.1073 40.7763 18.5858 34.2696 18.5858C27.7628 18.5858 24.8515 15.1073 25.7831 9.18374C26.7147 3.49302 30.6595 0 37.1663 0C43.6731 0 46.5262 3.49302 45.6528 9.18374ZM73.4266 9.18374C72.3786 15.1073 68.4192 18.5858 62.0288 18.5858C55.4056 18.5858 52.6253 15.1073 53.557 9.18374C54.3721 3.49302 58.4334 0 64.9401 0C71.4469 0 74.2418 3.49302 73.4266 9.18374Z" fill="#110628"/>
<path d="M46.1918 27.886C67.8082 27.886 76.5713 35.789 74.1694 52.8611C72.7138 63.4275 67.9538 69.8168 58.5648 74.4742C68.1867 78.7677 72.146 84.5748 70.6321 95.3741C68.274 112.112 56.0757 120 33.1201 120H30.9074C7.90817 120 -2.01937 112.112 0.338782 95.1413C1.79443 84.4584 7.89364 77.8362 18.9275 72.8441C10.2663 68.3032 7.77717 62.0303 9.08726 52.7447C11.4745 35.789 22.6976 27.886 44.183 27.886H46.1918ZM32.9017 81.0673C25.4196 83.8617 22.9888 87.1073 22.4065 91.2553C21.4894 97.761 25.7691 101.254 34.0517 101.254H35.3472C43.7026 101.254 48.681 98.9253 49.4961 93.2346C50.224 88.0096 46.5848 85.4481 42.2179 84.0655L32.9017 81.0673ZM42.0578 46.5591C35.9004 46.5591 31.3005 48.6549 30.4126 54.5785C29.6993 59.687 32.4504 62.3651 37.4433 64.1116L44.2267 66.1928C46.3644 65.279 48.2271 63.824 49.631 61.9711C51.0349 60.1182 51.9317 57.9314 52.2328 55.6264C53.0334 49.9357 50.3549 46.5591 43.164 46.5591H42.0578Z" fill="#110628"/>
</svg>
