<svg width="24" height="25" viewBox="0 0 24 25" fill="none" xmlns="http://www.w3.org/2000/svg">
<path d="M11.2491 0.768555C11.6641 0.827109 12.0833 0.872782 12.4949 0.953001C15.4146 1.51922 17.712 3.04162 19.3712 5.49562C20.6458 7.38223 21.2206 9.48373 21.1266 11.7533C21.0356 13.9467 20.3129 15.9235 18.9854 17.6801C18.8956 17.7972 18.804 17.9143 18.7042 18.0431C18.7629 18.107 18.8216 18.1685 18.8803 18.2276C20.4604 19.8035 22.041 21.3792 23.6218 22.9547C23.9183 23.2474 24.0816 23.5806 23.9588 24.0057C23.9166 24.1563 23.8383 24.2943 23.7306 24.408C23.6229 24.5216 23.489 24.6073 23.3407 24.6578C23.1923 24.7083 23.0338 24.722 22.879 24.6978C22.7241 24.6735 22.5775 24.612 22.4517 24.5186C22.3596 24.447 22.2729 24.3687 22.1922 24.2844C20.6333 22.7308 19.0755 21.1766 17.5188 19.6218C17.4601 19.5632 17.4079 19.4906 17.3503 19.4221C17.0039 19.6692 16.6898 19.911 16.3593 20.1247C14.4658 21.3626 12.3816 21.9259 10.1224 21.8492C5.31806 21.6858 1.09203 18.0683 0.200207 13.353C0.115076 12.9027 0.0657565 12.446 0 11.9928V10.6361C0.0174901 10.577 0.0308298 10.5167 0.0399232 10.4557C0.154067 8.8575 0.649667 7.30964 1.4854 5.94121C3.13988 3.24012 5.5259 1.56548 8.64816 0.952415C9.05913 0.871611 9.47833 0.829451 9.89342 0.768555H11.2491ZM1.95508 11.2813C1.93454 15.9446 5.70497 19.8671 10.5187 19.9052C15.1909 19.9397 19.1492 16.1759 19.1798 11.3563C19.2097 6.69715 15.4416 2.74885 10.6079 2.72309C5.9263 2.69557 1.98561 6.46059 1.95508 11.2813Z" fill="black"/>
</svg>
