<svg width="47" height="55" viewBox="0 0 47 55" fill="none" xmlns="http://www.w3.org/2000/svg">
<path d="M22.0283 0H24.9118C25.7679 0.11888 26.6298 0.204818 27.4784 0.36237C43.0483 3.26276 50.2698 20.9874 40.9246 33.3753C40.6802 33.699 40.6802 33.9339 40.8416 34.2848C42.8331 38.6275 44.8147 42.9745 46.7864 47.3258C47.0974 48.009 47.1019 48.6535 46.5702 49.225C46.0385 49.7965 45.4091 49.8724 44.6967 49.6375C43.9843 49.4026 43.2986 49.182 42.6011 48.9514L37.7137 47.343C37.6145 47.5492 37.5242 47.7211 37.4457 47.8987C36.597 49.8008 35.7351 51.6971 34.9131 53.6107C34.6347 54.2566 34.2585 54.7565 33.561 55H32.7849C32.1051 54.7393 31.7482 54.2237 31.452 53.5892C29.7681 49.8409 28.0457 46.1055 26.3632 42.3586C26.2003 41.9991 26.0241 41.8702 25.5961 41.8816C24.1802 41.9217 22.7599 41.9217 21.3426 41.8816C20.9146 41.8702 20.7383 41.9991 20.5769 42.3586C18.8886 46.1055 17.1706 49.8409 15.4881 53.5892C15.2023 54.2237 14.835 54.735 14.1552 55H13.3792C12.6861 54.7565 12.2966 54.2624 12.027 53.6107C11.5427 52.4333 11.0021 51.276 10.4823 50.1116C10.0736 49.1978 9.66331 48.284 9.24122 47.3444L8.57773 47.5607C6.44803 48.2582 4.31981 48.9658 2.18567 49.6504C1.21856 49.9598 0.211477 49.5158 0.0307931 48.6249C-0.0458222 48.1364 0.0235546 47.637 0.230735 47.1854C2.16889 42.8589 4.13123 38.5425 6.11777 34.2361C6.26587 33.9224 6.26586 33.7119 6.04667 33.4182C1.43331 27.0359 0.507686 20.1523 3.55413 12.9651C6.32659 6.42383 11.4553 2.31602 18.542 0.56862C19.6824 0.286459 20.8672 0.184766 22.0283 0ZM23.4442 3.22266C13.3733 3.23841 5.18176 11.2349 5.1788 21.0504C5.1788 30.8143 13.3895 38.7779 23.4678 38.7793C33.5461 38.7807 41.7613 30.8215 41.7613 21.0547C41.7613 11.2177 33.5328 3.2069 23.4442 3.22266V3.22266ZM13.7687 49.3525L17.4831 41.1884C14.234 40.2632 11.2494 38.6256 8.76137 36.4031L4.64712 45.4466C6.28957 44.9081 7.78835 44.4139 9.28861 43.9241C10.6038 43.4944 11.2895 43.7923 11.8389 45.0255C12.4669 46.4349 13.0963 47.8385 13.7687 49.3525ZM38.1758 36.3974C35.6907 38.6238 32.7074 40.2649 29.4585 41.1927L33.1611 49.3367C33.2781 49.0861 33.3655 48.907 33.4454 48.7309C33.9954 47.502 34.5439 46.2721 35.0908 45.0413C35.6433 43.7995 36.329 43.4973 37.6338 43.9198L38.5224 44.2063L42.2827 45.4309L38.1758 36.3974Z" fill="#110628"/>
<path d="M34.7535 18.1445C34.4899 18.5541 34.2899 19.0253 33.9493 19.3619C32.7763 20.5278 31.5619 21.6536 30.3445 22.778C30.066 23.0343 30.0201 23.2678 30.0883 23.6244C30.3978 25.2415 30.6599 26.8671 30.9547 28.4871C31.0791 29.1688 30.8925 29.736 30.3297 30.1543C29.7669 30.5725 29.1375 30.594 28.508 30.2746C26.9722 29.494 25.4334 28.7177 23.9065 27.9199C23.7785 27.84 23.6294 27.7975 23.477 27.7975C23.3247 27.7975 23.1755 27.84 23.0475 27.9199C21.5872 28.6876 20.1077 29.4166 18.6459 30.1786C17.9558 30.5381 17.2819 30.647 16.6229 30.1643C15.9934 29.7031 15.8675 29.0843 16.0097 28.3438C16.3237 26.7282 16.6021 25.104 16.8583 23.474C16.8665 23.359 16.8507 23.2435 16.8118 23.1345C16.7728 23.0255 16.7116 22.9252 16.6318 22.8395C15.4469 21.6851 14.2458 20.5455 13.0284 19.4207C12.4582 18.8936 12.1532 18.2992 12.4153 17.5501C12.6774 16.801 13.295 16.5174 14.074 16.4214C15.6854 16.2238 17.2893 15.9717 18.8992 15.7597C19.0699 15.75 19.2342 15.6934 19.3727 15.5965C19.5112 15.4995 19.6182 15.3664 19.6812 15.2126C20.392 13.7602 21.1503 12.328 21.8701 10.8785C22.2048 10.2067 22.695 9.77418 23.4889 9.78134C24.256 9.78993 24.7359 10.211 25.0617 10.8642C25.8022 12.3437 26.5694 13.8104 27.3069 15.2914C27.3561 15.4116 27.4395 15.5158 27.5475 15.5918C27.6556 15.6679 27.7837 15.7127 27.9171 15.7211C29.6173 15.9459 31.3146 16.1937 33.0133 16.4372C33.9937 16.5804 34.6157 17.2049 34.6187 18.0571L34.7535 18.1445ZM19.8174 25.9247C20.7771 25.4377 21.6509 25.0152 22.501 24.5554C22.7923 24.38 23.1286 24.287 23.4718 24.287C23.815 24.287 24.1513 24.38 24.4426 24.5554C24.8603 24.7846 25.2898 24.9937 25.7148 25.2071C26.1399 25.4205 26.6034 25.6483 27.1218 25.9061C26.9396 24.8863 26.7871 23.9696 26.6108 23.0587C26.4746 22.3526 26.6271 21.7539 27.1914 21.2583C27.6357 20.8615 28.0682 20.439 28.5021 20.0237C28.7672 19.7701 29.0279 19.5123 29.3611 19.1872C28.3422 19.044 27.4535 18.9007 26.5575 18.8005C25.7119 18.7117 25.1135 18.3593 24.764 17.5787C24.4426 16.8626 24.0546 16.1651 23.6903 15.4618C23.6135 15.3331 23.53 15.2084 23.44 15.088C23.0134 15.9273 22.5884 16.6807 22.2404 17.4684C21.8627 18.3192 21.2392 18.7317 20.2913 18.8119C19.4205 18.8864 18.5585 19.054 17.701 19.1786C18.3823 19.8747 19.0043 20.5593 19.6826 21.1838C19.9628 21.4186 20.1704 21.7237 20.2825 22.0654C20.3946 22.4072 20.4069 22.7722 20.318 23.1203C20.1329 24.014 19.9951 24.9221 19.8174 25.9247Z" fill="#110628"/>
</svg>
