<svg width="17" height="12" viewBox="0 0 17 12" fill="none" xmlns="http://www.w3.org/2000/svg">
    <path
        d="M12.7437 9.35692C12.7437 9.64244 12.7452 9.89741 12.7437 10.1524C12.7371 11.2143 11.9493 11.9967 10.8716 11.9977C7.87587 12.0008 4.8806 12.0008 1.88483 11.9977C0.787954 11.9972 0.00164658 11.2123 0.00113994 10.1248C-0.000379981 7.3753 -0.000379981 4.62627 0.00113994 1.87675C0.00215323 0.784253 0.79454 0.00182246 1.90307 0.00132154C4.88618 -0.000181202 7.86928 -0.000682117 10.8524 0.00132154C11.9523 0.00232338 12.7391 0.781748 12.7437 1.86723C12.7447 2.11569 12.7437 2.36414 12.7437 2.64115C12.8207 2.60708 12.8764 2.58454 12.9301 2.55799C13.9505 2.04956 14.9805 1.56017 15.9862 1.02519C16.5415 0.729653 17.004 1.09933 17 1.6333C16.9802 4.55765 16.9909 7.48199 16.9903 10.4058C16.9903 10.7805 16.8201 11.035 16.4933 11.0731C16.3368 11.0911 16.1534 11.0435 16.0085 10.9729C14.9785 10.4705 13.9551 9.95451 12.9296 9.44308C12.88 9.41803 12.8283 9.39649 12.7437 9.35742V9.35692ZM6.36456 10.8021C7.84902 10.8021 9.33398 10.8021 10.8184 10.8021C11.3155 10.8021 11.5293 10.5872 11.5293 10.0913C11.5293 7.36778 11.5293 4.64431 11.5293 1.92083C11.5293 1.4139 11.3155 1.20202 10.8063 1.20151C7.84952 1.20151 4.89276 1.20151 1.936 1.20151C1.42886 1.20151 1.21404 1.41641 1.21404 1.92333C1.21404 4.6403 1.21404 7.35777 1.21404 10.0747C1.21404 10.5932 1.4243 10.8016 1.94816 10.8016C3.41996 10.8016 4.89226 10.8016 6.36405 10.8016L6.36456 10.8021ZM15.7704 9.51821V2.50189C15.7263 2.51792 15.6908 2.52694 15.6589 2.54297C14.7236 3.00932 13.7894 3.47768 12.8516 3.94002C12.7508 3.98961 12.7427 4.05673 12.7427 4.1484C12.7442 5.38566 12.7452 6.62292 12.7417 7.86018C12.7417 7.96738 12.7726 8.02549 12.8724 8.07357C13.2751 8.26693 13.6734 8.4703 14.0731 8.67016C14.6299 8.94817 15.1862 9.22618 15.7698 9.51771L15.7704 9.51821Z"
        fill="white"/>
</svg>
