<svg width="14" height="15" viewBox="0 0 14 15" fill="none" xmlns="http://www.w3.org/2000/svg">
<g clip-path="url(#clip0_1119:7586)">
<path d="M9.00288 12.9509C8.78081 14.2321 8.06455 14.9411 7.00485 14.9512C5.91701 14.9612 5.19824 14.2692 4.95114 12.9509H2.12738C1.95034 12.9509 1.77393 12.9509 1.59752 12.9509C1.33354 12.9597 1.12273 12.8731 1.02889 12.6102C0.935058 12.3473 1.05141 12.1509 1.26535 11.9941C1.61692 11.7356 1.9616 11.4677 2.31316 11.2098C2.77545 10.871 2.99752 10.4211 2.99252 9.84573C2.98501 8.88763 2.97563 7.92891 2.99252 6.97144C3.02442 5.32505 3.78323 4.11598 5.2364 3.35615C5.41718 3.26203 5.50852 3.17482 5.48662 2.96337C5.47129 2.76603 5.47129 2.56779 5.48662 2.37045C5.50824 1.98144 5.67935 1.61599 5.96398 1.35086C6.24861 1.08574 6.62461 0.941578 7.01299 0.948675C7.79619 0.961852 8.49618 1.6169 8.45928 2.40684C8.43238 2.98596 8.60128 3.29466 9.12111 3.60587C10.3378 4.33432 10.9352 5.49132 10.9621 6.91497C10.9828 7.8831 10.9753 8.85187 10.9621 9.82063C10.9546 10.4223 11.1867 10.8841 11.6721 11.2324C12.0181 11.4833 12.3515 11.7462 12.6949 11.9985C12.8982 12.1478 13.0152 12.3354 12.9364 12.5876C12.8544 12.8493 12.6561 12.9515 12.3847 12.9503C11.3669 12.9453 10.3491 12.9503 9.33193 12.9503L9.00288 12.9509ZM3.03568 11.9263H10.8983C10.1076 11.0749 9.96938 10.721 9.96938 9.58095C9.96938 8.7176 9.97438 7.85362 9.96938 6.98963C9.95687 5.28552 8.64757 3.95347 6.98859 3.95096C5.31585 3.95096 3.99654 5.28991 3.98966 7.00407C3.9859 7.87872 3.96902 8.75336 3.99467 9.62675C4.01906 10.5209 3.77259 11.2882 3.03568 11.9263ZM5.99833 12.9591C5.96205 13.5156 6.49877 13.9956 7.05552 13.9492C7.58036 13.9059 7.98323 13.461 7.93631 12.9591H5.99833ZM7.46339 2.9502C7.46339 2.61891 7.59413 2.25186 7.24069 2.04794C7.15645 2.00921 7.06462 1.9899 6.97196 1.99142C6.87929 1.99294 6.78815 2.01525 6.70521 2.05673C6.36178 2.2688 6.49315 2.63146 6.4969 2.9502H7.46339Z" fill="#110628"/>
<path d="M0 6.66023C0.0938338 4.92976 0.72377 3.39756 1.93047 2.11069C2.21635 1.80638 2.51162 1.76873 2.7437 1.99587C2.96327 2.21233 2.92636 2.50911 2.64361 2.81467C1.59059 3.95117 1.04343 5.29472 1.00214 6.84532C0.992129 7.22743 0.795711 7.45958 0.485434 7.45017C0.185791 7.44139 0.00499989 7.21426 0.00312321 6.8447L0 6.66023Z" fill="#110628"/>
<path d="M13.9551 6.69723V6.82272C13.9551 7.21612 13.7768 7.44639 13.4653 7.45016C13.1538 7.45392 12.9692 7.23494 12.958 6.83778C12.9163 5.28675 12.3658 3.94467 11.3065 2.81151C11.1307 2.62328 11.0119 2.43003 11.1013 2.17027C11.2264 1.81452 11.6693 1.74926 11.9646 2.05169C12.7959 2.88805 13.3927 3.92945 13.6949 5.07092C13.8344 5.60047 13.8994 6.14948 13.9983 6.6897L13.9551 6.69723Z" fill="#110628"/>
</g>
<defs>
<clipPath id="clip0_1119:7586">
<rect width="14" height="14" fill="white" transform="translate(0 0.951172)"/>
</clipPath>
</defs>
</svg>
