<svg width="46" height="46" viewBox="0 0 46 46" fill="none" xmlns="http://www.w3.org/2000/svg">
    <path fill-rule="evenodd" clip-rule="evenodd"
          d="M46 23C46 35.7025 35.7025 46 23 46C10.2975 46 0 35.7025 0 23C0 10.2975 10.2975 0 23 0C35.7025 0 46 10.2975 46 23ZM15.0938 16.375C15.0938 15.2704 15.9892 14.375 17.0938 14.375H18.8438C19.9483 14.375 20.8438 15.2704 20.8438 16.375V29.625C20.8438 30.7296 19.9483 31.625 18.8438 31.625H17.0938C15.9892 31.625 15.0938 30.7296 15.0938 29.625V16.375ZM26.677 14.375C25.5725 14.375 24.677 15.2704 24.677 16.375V29.625C24.677 30.7296 25.5725 31.625 26.677 31.625H28.427C29.5316 31.625 30.427 30.7296 30.427 29.625V16.375C30.427 15.2704 29.5316 14.375 28.427 14.375H26.677Z"
          fill="white"/>
</svg>
