<svg width="56" height="56" viewBox="0 0 56 56" fill="none" xmlns="http://www.w3.org/2000/svg">
<path fill-rule="evenodd" clip-rule="evenodd" d="M56 28C56 43.464 43.464 56 28 56C12.536 56 0 43.464 0 28C0 12.536 12.536 0 28 0C43.464 0 56 12.536 56 28ZM18.375 19.5C18.375 18.3954 19.2704 17.5 20.375 17.5H23.375C24.4796 17.5 25.375 18.3954 25.375 19.5V36.5C25.375 37.6046 24.4796 38.5 23.375 38.5H20.375C19.2704 38.5 18.375 37.6046 18.375 36.5V19.5ZM32.0416 17.5C30.937 17.5 30.0416 18.3954 30.0416 19.5V36.5C30.0416 37.6046 30.937 38.5 32.0416 38.5H35.0416C36.1462 38.5 37.0416 37.6046 37.0416 36.5V19.5C37.0416 18.3954 36.1462 17.5 35.0416 17.5H32.0416Z" fill="white"/>
</svg>
