<svg width="375" height="810" viewBox="0 0 375 810" fill="none" xmlns="http://www.w3.org/2000/svg">
    <rect width="375" height="812" fill="#FFD84E"/>
    <path d="M178.65 459.91L163.545 467.502L162.293 471.428L156.885 473.337C156.568 473.451 156.228 473.486 155.894 473.44C155.561 473.395 155.243 473.269 154.968 473.075C154.693 472.881 154.469 472.623 154.314 472.324C154.159 472.025 154.079 471.693 154.079 471.357V467.715L76.2386 468.765L74.9812 471.428L70.5985 473.112C70.2798 473.234 69.9363 473.277 69.5975 473.237C69.2586 473.197 68.9346 473.075 68.6534 472.882C68.3721 472.688 68.142 472.43 67.9829 472.128C67.8237 471.826 67.7403 471.49 67.7398 471.149V468.646H58.8438V452.633H178.704L178.65 459.91Z" fill="#6F6F82"/>
    <path d="M53.0965 459.91H178.431C180.003 459.91 181.277 458.636 181.277 457.063V446.868C181.277 445.296 180.003 444.022 178.431 444.022H53.0965C51.5243 444.022 50.2498 445.296 50.2498 446.868V457.063C50.2498 458.636 51.5243 459.91 53.0965 459.91Z" fill="#A3A3C5"/>
    <path d="M161.055 444.016H168.593C170.165 444.016 171.439 442.742 171.439 441.169V392.377C171.439 390.805 170.165 389.531 168.593 389.531H161.055C159.483 389.531 158.208 390.805 158.208 392.377V441.169C158.208 442.742 159.483 444.016 161.055 444.016Z" fill="#4E4D63"/>
    <path d="M114.765 440.349L121.813 443.022C123.283 443.579 124.927 442.84 125.484 441.37L142.787 395.748C143.344 394.278 142.604 392.635 141.134 392.077L134.086 389.404C132.616 388.846 130.973 389.586 130.415 391.056L113.113 436.677C112.555 438.147 113.295 439.791 114.765 440.349Z" fill="#F4F3F7"/>
    <path d="M105.593 442.346L107.368 443.019C108.838 443.577 110.481 442.837 111.039 441.367L128.341 395.746C128.899 394.276 128.159 392.632 126.689 392.075L124.915 391.402C123.445 390.844 121.801 391.584 121.243 393.054L103.941 438.675C103.383 440.145 104.123 441.789 105.593 442.346Z" fill="#6F6F82"/>
    <path d="M162.169 471.428H159.565C159.205 471.428 158.86 471.284 158.605 471.03C158.35 470.775 158.207 470.43 158.207 470.069V459.91H163.545L163.545 470.069C163.545 470.249 163.509 470.427 163.44 470.593C163.371 470.759 163.269 470.91 163.141 471.036C163.013 471.163 162.861 471.262 162.694 471.329C162.527 471.397 162.349 471.43 162.169 471.428V471.428Z" fill="#A3A3C5"/>
    <path d="M147.811 444.022H153.884C155.456 444.022 156.73 442.747 156.73 441.175V398.32C156.73 396.748 155.456 395.473 153.884 395.473H147.811C146.238 395.473 144.964 396.748 144.964 398.32V441.175C144.964 442.747 146.238 444.022 147.811 444.022Z" fill="#6F6F82"/>
    <path d="M89.8305 440.529L95.3475 443.068C96.7758 443.725 98.4664 443.1 99.1236 441.672L117.038 402.74C117.695 401.312 117.07 399.621 115.642 398.964L110.125 396.426C108.697 395.768 107.006 396.393 106.349 397.822L88.4344 436.753C87.7772 438.181 88.4023 439.872 89.8305 440.529Z" fill="#F4F3F7"/>
    <path d="M285.605 533.896L300.729 541.493L301.986 545.42L307.395 547.329C307.713 547.441 308.052 547.475 308.386 547.429C308.719 547.382 309.037 547.256 309.312 547.062C309.586 546.867 309.811 546.609 309.965 546.31C310.12 546.011 310.2 545.679 310.2 545.342V541.701L388.041 542.751L389.298 545.42L393.681 547.104C394 547.226 394.343 547.269 394.682 547.229C395.021 547.188 395.345 547.067 395.626 546.873C395.907 546.68 396.138 546.422 396.297 546.12C396.456 545.818 396.539 545.482 396.54 545.141V542.632H405.466V526.619H285.605V533.896Z" fill="#6F6F82"/>
    <path d="M411.154 518.008H285.819C284.247 518.008 282.973 519.282 282.973 520.855V531.049C282.973 532.622 284.247 533.896 285.819 533.896H411.154C412.726 533.896 414 532.622 414 531.049V520.855C414 519.282 412.726 518.008 411.154 518.008Z" fill="#A3A3C5"/>
    <path d="M300.729 533.896H306.066V544.055C306.066 544.416 305.923 544.761 305.668 545.016C305.414 545.27 305.068 545.413 304.708 545.413H302.087C301.726 545.413 301.381 545.27 301.126 545.016C300.872 544.761 300.729 544.416 300.729 544.055V533.896Z" fill="#A3A3C5"/>
    <path d="M199.568 492.274H256.924" stroke="#A3A3C5" stroke-width="2" stroke-linecap="round" stroke-linejoin="round"/>
    <path d="M231.736 492.274V500.471" stroke="#A3A3C5" stroke-width="2" stroke-linecap="round" stroke-linejoin="round"/>
    <path d="M211.104 492.274V474.98" stroke="#A3A3C5" stroke-width="2" stroke-linecap="round" stroke-linejoin="round"/>
    <path d="M118.674 599.395H61.3242" stroke="#A3A3C5" stroke-width="2" stroke-linecap="round" stroke-linejoin="round"/>
    <path d="M86.5117 599.395V607.591" stroke="#A3A3C5" stroke-width="2" stroke-linecap="round" stroke-linejoin="round"/>
    <path d="M107.145 599.395V582.101" stroke="#A3A3C5" stroke-width="2" stroke-linecap="round" stroke-linejoin="round"/>
    <path d="M39 693.267H359.259" stroke="#150F28" stroke-width="2" stroke-miterlimit="10"/>
    <path d="M193.501 836.174C244.12 836.174 285.155 820.707 285.155 801.627C285.155 782.548 244.12 767.081 193.501 767.081C142.882 767.081 101.848 782.548 101.848 801.627C101.848 820.707 142.882 836.174 193.501 836.174Z" fill="#E0BF4C"/>
    <path d="M307.627 481.415V500.987C307.627 505.264 309.048 509.421 311.667 512.802C314.287 516.184 317.956 518.599 322.098 519.668C323.672 520.069 325.29 520.268 326.914 520.262H329.387C331.92 520.262 334.429 519.764 336.769 518.795C339.11 517.826 341.237 516.406 343.028 514.615C344.82 512.824 346.241 510.697 347.211 508.357C348.18 506.017 348.679 503.508 348.679 500.975V481.403C348.67 480.299 348.225 479.243 347.441 478.466C346.656 477.688 345.597 477.252 344.492 477.252H311.814C310.707 477.25 309.645 477.688 308.86 478.468C308.075 479.249 307.632 480.308 307.627 481.415V481.415Z" fill="#EEBE21"/>
    <path d="M322.104 519.674C323.677 520.075 325.295 520.274 326.919 520.267H329.392C331.926 520.268 334.434 519.77 336.775 518.801C339.116 517.832 341.242 516.412 343.034 514.621C344.826 512.83 346.247 510.703 347.216 508.363C348.186 506.023 348.685 503.514 348.685 500.981V481.409C348.676 480.305 348.23 479.249 347.446 478.472C346.662 477.694 345.602 477.258 344.498 477.258H338.466C339.445 482.88 344.563 517.699 322.104 519.674Z" fill="#C2912C"/>
    <path d="M337.103 477.234H319.839C318.064 476.129 316.432 474.808 314.982 473.302L314.91 473.231C314.827 473.142 314.738 473.053 314.655 472.958L314.62 472.916C311.21 469.228 308.814 462.994 310.688 457.87C311.595 455.391 314.442 455.047 316.168 457.508C316.624 458.161 317.075 458.89 317.514 459.649V459.685C318.907 462.205 320.144 464.807 321.221 467.478C321.221 467.478 321.007 466.476 320.717 464.791C319.299 456.613 315.883 432.398 324.471 428.727C326.025 428.068 327.264 428.294 328.243 429.201C333.782 434.343 330.846 461.298 328.243 471.084C329.14 468.913 330.192 466.81 331.392 464.791C334.12 460.219 338.39 455 343.253 456.073C344.099 456.21 344.901 456.544 345.594 457.048C346.288 457.552 346.853 458.211 347.245 458.973V458.973C349.487 463.558 345.347 472.039 337.103 477.234Z" fill="#4E4D63"/>
    <path d="M337.102 477.234H319.838C318.062 476.129 316.431 474.808 314.98 473.302C315.941 474.233 318.539 476.267 319.6 472.217C320.893 467.27 316.297 457.775 316.167 457.509L317.513 459.65V459.685C318.905 462.205 320.143 464.808 321.22 467.478C321.22 467.478 321.006 466.476 320.715 464.791C323.983 471.025 325.768 466.808 325.768 466.808C333.805 445.955 328.342 429.498 328.242 429.201C333.781 434.343 330.845 461.298 328.242 471.084C329.139 468.913 330.191 466.81 331.391 464.791C328.242 473.421 336.622 471.025 336.622 471.025C348.068 467.561 347.244 458.973 347.244 458.973C349.485 463.558 345.346 472.039 337.102 477.234Z" fill="#150F28"/>
    <path d="M182.269 441.519C182.269 441.519 183.876 431.212 194.344 431.336C204.812 431.461 217.112 443.126 211.994 474.583C210.464 483.989 221.258 496.04 202.819 497.464C187.897 498.614 178.859 478.171 180.33 458.843C181.801 439.515 182.269 441.519 182.269 441.519Z" fill="#150F28"/>
    <path d="M193.383 436.164C193.383 436.164 204.117 430.867 208.803 450.19" stroke="#2E2942" stroke-linecap="round" stroke-linejoin="round"/>
    <path d="M196.396 488.591C197.576 490.51 199.401 491.945 201.545 492.636C203.688 493.328 206.008 493.231 208.086 492.363" stroke="#2E2942" stroke-linecap="round" stroke-linejoin="round"/>
    <path d="M204.562 481.558C204.562 481.558 204.746 485.507 207.907 486.895" stroke="#2E2942" stroke-linecap="round" stroke-linejoin="round"/>
    <path d="M147.751 463.089C148.854 468.094 150.236 473.005 151.689 477.916C153.142 482.826 154.702 487.654 156.38 492.458C157.211 494.866 158.029 497.28 158.901 499.67L160.188 503.264L161.528 506.822C163.307 511.567 167.696 520.006 169.653 527.704C171.385 531.666 178.787 540.159 186.396 535.794C193.797 531.547 186.076 506.099 180.661 500.974C175.246 495.85 167.412 464.963 166.101 461.488C166.101 461.488 163.408 452.663 155.076 454.181C146.743 455.699 147.751 463.089 147.751 463.089Z" fill="#FBD1DA"/>
    <path d="M109.961 632.281C104.974 628.26 104.754 620.686 109.012 615.9C109.994 614.796 111.177 613.89 112.5 613.232L113.277 612.852C118.786 610.124 124.397 607.752 130.037 605.486C135.677 603.221 141.371 601.163 147.088 599.188C152.805 597.213 158.534 595.291 164.376 593.773C167.11 593.085 169.85 592.444 172.625 591.928C172.625 591.928 187.126 588.275 191.444 599.395C195.761 610.515 190.145 617.923 187.292 619.162C182.568 621.282 177.688 623.039 172.697 624.417C166.89 626.066 160.966 627.276 155.041 628.491C151.953 629.112 148.851 629.705 145.736 630.271C145.736 630.271 117.233 638.164 109.961 632.281Z" fill="#F4F3F7"/>
    <path d="M200.155 799.142C196.004 807.611 184.943 806.466 178.212 805.416C171.48 804.367 172.998 800.079 179.113 796.811C182.055 795.105 184.81 793.096 187.333 790.815C187.618 790.56 187.819 790.4 187.861 790.358C191.651 787.013 197.184 781.083 197.943 779.855C200.357 776.024 197.291 761.814 197.291 761.814L207.93 760.414C206.744 769.553 207.93 779.066 209.253 781.51C210.593 783.959 212.278 784.789 212.456 787.506C212.912 793.549 203.459 792.363 200.155 799.142Z" fill="#FBD1DA"/>
    <path d="M200.156 799.142C194.664 809.461 184.279 808.862 177.815 806.852C170.609 804.64 173.028 800.043 179.143 796.77C182.085 795.064 184.84 793.054 187.363 790.774C185.892 792.126 180.703 795.073 185.103 798.074C188.78 800.577 210.961 791.064 209.307 781.468C210.647 783.918 212.331 784.748 212.509 787.464C212.913 793.549 203.696 792.482 200.156 799.142Z" fill="#150F28"/>
    <path d="M167.412 511.359C167.412 511.359 167.525 506.282 176.984 503.281C176.984 503.281 182.749 500.909 183.17 496.68C183.662 491.71 192.861 492.31 193.205 494.729C193.549 497.149 201.555 502.819 208.275 504.218C212.165 505.031 207.267 513.886 203.975 524.614C200.683 535.343 179.137 544.512 175.638 537.941C172.139 531.369 167.412 511.359 167.412 511.359Z" fill="#FBD1DA"/>
    <path d="M218.517 604.905C218.517 604.905 200.215 606.31 186.491 605.367C178.105 604.81 171.427 603.374 171.629 600.231C171.67 599.567 171.747 598.808 171.83 597.954C172.423 592.616 173.888 583.874 175.11 577.018C176.142 571.265 176.99 566.835 176.99 566.835L174.309 542.519C168.379 536.98 168.224 529.365 171.629 520.575C173.779 514.93 175.561 509.151 176.966 503.276L180.525 501.716C172.352 525.545 178.746 527.046 178.746 527.046C195.073 530.504 193.916 523.571 193.916 523.571C196.212 500.737 201.52 503.406 201.52 503.406C214.84 513.785 214.84 521.857 214.84 521.857L211.964 549.606C211.964 549.606 208.026 567.31 211.234 578.193C211.445 578.926 211.703 579.645 212.005 580.345C217.924 593.873 218.517 604.905 218.517 604.905Z" fill="#FBD1DA"/>
    <path d="M184.73 513.435C184.09 513.359 183.472 513.157 182.91 512.842C182.336 512.53 181.829 512.108 181.418 511.601C181.008 511.093 180.701 510.509 180.517 509.882C180.332 509.256 180.273 508.599 180.343 507.95C180.412 507.301 180.609 506.672 180.923 506.099C184.523 499.492 183.455 490.222 183.449 490.127C183.366 489.48 183.411 488.823 183.582 488.194C183.753 487.564 184.046 486.975 184.445 486.459C184.843 485.943 185.34 485.51 185.906 485.186C186.472 484.862 187.096 484.653 187.743 484.57C190.465 484.22 196.853 480.638 195.916 483.218C195.109 485.418 193.543 499.083 196.271 501.989C197.701 503.537 186.676 513.654 184.73 513.435Z" fill="#FBD1DA"/>
    <path d="M176.985 503.281C175.582 509.157 173.799 514.936 171.647 520.581C168.237 529.353 167.004 539.732 172.911 545.271L176.25 562.856C176.25 562.856 179.63 565.56 197.268 565.453C202.039 565.386 206.703 564.036 210.773 561.545L214.894 521.851C214.894 521.851 215.855 509.693 210.601 505.648C208.175 503.774 204.943 502.226 200.234 500.963C200.234 500.963 195.276 500.963 193.971 523.582C193.971 523.582 195.157 530.504 178.8 527.046C178.8 527.046 172.502 524.792 180.68 500.951L176.985 503.281Z" fill="#EF3E54"/>
    <path d="M204.205 502.226C204.205 502.226 194.775 514.68 201.098 526.245C207.42 537.81 215.231 525.059 214.691 517.225C214.151 509.39 208.535 501.912 204.205 502.226Z" fill="#FBD1DA"/>
    <path d="M172.893 545.271C172.893 545.271 173.824 546.594 178.782 546.422" stroke="#D33350" stroke-linecap="round" stroke-linejoin="round"/>
    <path d="M186.396 546.439C186.396 546.439 189.617 549.191 198.614 547.981" stroke="#D33350" stroke-linecap="round" stroke-linejoin="round"/>
    <path d="M187.298 619.186C187.238 619.713 187.167 620.235 187.114 620.763C186.408 627.88 186.005 634.997 185.963 642.179C185.922 649.361 186.373 656.531 186.847 663.725C187.321 670.919 187.772 678.113 187.79 685.278V686.428C188.158 689.933 188.312 693.45 188.425 696.967C188.537 700.484 188.597 704.001 188.893 707.512C189.19 711.023 189.652 714.528 190.079 718.027C190.506 721.526 190.981 725.037 191.497 728.542C192.487 735.546 193.531 742.551 194.67 749.555C195.808 756.559 196.514 760.954 197.926 767.94C199.035 769.091 201.004 769.073 202.818 768.847C204.924 768.592 206.484 768.124 207.64 766.54C208.548 759.465 207.64 756.12 208.281 749.057C208.921 741.993 209.467 734.93 209.935 727.872C210.202 724.314 210.374 720.815 210.6 717.286C210.825 713.757 211.074 710.228 211.056 706.705C211.038 703.182 210.914 699.671 210.76 696.155C210.605 692.638 210.522 689.121 210.635 685.598V686.748C211.578 679.632 212.924 672.568 214.348 665.499C215.771 658.429 217.141 651.354 218.001 644.249C218.861 637.144 219.401 630.015 219.62 622.863C219.709 619.304 219.964 615.93 219.851 612.341C219.739 608.753 218.582 598.108 217.829 596.69C216.91 592.343 214.769 586.608 212.058 580.357C211.756 579.656 211.499 578.937 211.288 578.204V578.204C189.302 587.996 175.11 577.018 175.11 577.018C174.28 581.674 173.331 587.183 172.625 591.928C172.625 591.928 158.712 598.63 165.224 612.899C170.923 625.389 187.298 619.186 187.298 619.186Z" fill="#F4F3F7"/>
    <path d="M187.298 619.162L188.561 609.062L185.596 602.058" stroke="#150F28" stroke-linecap="round" stroke-linejoin="round"/>
    <path d="M190.654 685.385C190.654 685.385 195.909 688.172 200.351 684.738" stroke="#150F28" stroke-linecap="round" stroke-linejoin="round"/>
    <path d="M171.961 653.898C171.961 653.898 185.602 661.169 181.943 667.64C178.657 673.47 174.061 670.647 162.448 664.081C150.836 657.516 150.587 651.508 152.313 647.76C154.038 644.012 165.259 647.274 171.961 653.898Z" fill="#FBD1DA"/>
    <path d="M109.961 632.281C114.951 636.596 120.258 640.532 125.837 644.053C131.359 647.647 137.106 650.909 142.912 654.088C148.718 657.267 154.613 660.315 160.615 663.215C162.667 664.194 164.725 665.167 166.795 666.116C170.175 664.87 171.296 663.026 172.322 660.576C173.145 658.506 173.407 656.256 173.081 654.052C168.236 649.486 159.441 641.74 154.4 637.446C151.545 635.011 148.659 632.621 145.741 630.276C145.741 630.276 118.673 603.517 107.144 617.638C100.448 625.804 109.961 632.281 109.961 632.281Z" fill="#F4F3F7"/>
    <path d="M126.021 620.508C133.54 621.334 140.527 624.785 145.753 630.253" stroke="#150F28" stroke-linecap="round" stroke-linejoin="round"/>
    <path d="M176.142 672.485C178.769 675.753 181.361 680.581 182.909 687.662C183.458 689.96 183.759 692.31 183.805 694.672C183.805 694.672 184.86 700.763 188.015 698.272C191.171 695.781 186.966 665.339 187.167 659.473C187.316 655.648 184.493 657.101 180.3 656.698C179.511 656.621 175.027 656.437 173.461 661.027C172.376 664.2 171.759 667.041 176.142 672.485Z" fill="#FBD1DA"/>
    <path d="M182.92 687.609C183.508 689.915 183.809 692.286 183.816 694.666C183.816 694.666 184.871 700.793 188.026 698.29C191.182 695.787 186.977 665.149 187.178 659.242C187.327 655.399 184.504 656.87 180.311 656.455C180.566 657.398 190.772 694.702 182.92 687.609Z" fill="#150F28"/>
    <path d="M151.518 466.546C145.332 462.668 147.597 457.65 148.837 455.355L148.878 455.278C151.275 451.076 154.108 447.138 157.33 443.529L162.163 438.079C163.765 436.258 165.402 434.461 167.044 432.67C168.687 430.879 170.312 429.07 171.985 427.332C173.657 425.595 175.3 423.774 176.996 421.995C180.353 418.436 182.268 415.969 185.596 410.726C186.497 409.333 188.401 408.627 190.471 409.938C192.303 411.088 192.019 413.644 191.58 414.617C189.52 419.073 187.371 423.466 185.133 427.795C184.036 429.972 182.897 432.124 181.77 434.277C180.643 436.43 179.487 438.577 178.33 440.718C177.174 442.859 176.023 444.994 174.837 447.111L171.279 453.469C169.702 456.248 167.97 458.935 166.089 461.517C166.089 461.517 158.332 470.822 151.518 466.546Z" fill="#FBD1DA"/>
    <path d="M184.137 412.957C184.137 412.957 187.654 409.819 185.916 402.821C184.179 395.823 188.461 388.682 189.433 387.229C190.406 385.776 193.413 386.873 192.476 394.684C191.539 402.495 193.662 406.83 190.347 417.221C190.347 417.221 188.567 420.506 185.216 418.365C181.866 416.224 184.137 412.957 184.137 412.957Z" fill="#FBD1DA"/>
    <path d="M198.841 414.439C198.841 414.439 195.347 410.436 197.061 403.438C198.775 396.439 195.875 387.893 194.92 386.44C193.966 384.987 191.528 386.873 192.471 394.684C193.414 402.495 186.297 404.814 192.139 415.957C192.139 415.957 194.654 419.67 197.732 417.832C198.035 417.69 198.306 417.488 198.528 417.238C198.75 416.987 198.918 416.694 199.022 416.376C199.126 416.058 199.164 415.722 199.132 415.389C199.101 415.056 199.002 414.732 198.841 414.439Z" fill="#FBD1DA"/>
    <path d="M192.66 416.634C192.66 416.634 186.599 409.843 190.519 403.942C194.937 397.299 191.587 389.708 192.927 387.229" stroke="#150F28" stroke-linecap="round" stroke-linejoin="round"/>
    <path d="M219.709 454.644C218.25 452.977 216.886 451.234 215.594 449.425C213.037 445.783 210.505 442.13 208.05 438.406C206.816 436.549 193.223 417.933 192.149 415.958C191.556 414.943 190.815 412.459 192.659 411.545C194.504 410.632 196.378 412.429 197.024 412.951C198.804 414.368 200.494 415.827 202.184 417.298L204.717 419.51L207.213 421.752C208.886 423.241 210.511 424.771 212.154 426.283C213.797 427.795 215.404 429.343 217.017 430.879C220.255 433.946 223.416 437.077 226.559 440.226C228.113 441.816 229.596 443.458 230.984 445.184C232.397 446.91 233.663 448.751 234.768 450.688L234.922 450.961C236.037 452.977 237.68 456.138 234.726 459.626C232.265 462.532 225.415 460.45 219.709 454.644Z" fill="#FBD1DA"/>
    <path d="M221.298 456.381C219.519 459.774 217.864 463.219 216.275 466.683C214.11 471.428 212.123 476.202 210.166 481.023C208.209 485.845 206.43 490.708 204.829 495.643C203.155 500.575 201.745 505.594 200.606 510.677C199.876 514.093 199.028 521.673 202.261 523.416C206.181 525.534 209.769 526.382 211.88 522.444C214.371 517.83 220.183 506.828 222.14 502.024C224.098 497.22 225.883 492.339 227.549 487.423C229.216 482.506 230.787 477.554 232.211 472.548C233.634 467.543 234.945 462.466 235.947 457.33C235.947 457.33 236.938 452.271 230.61 450.213C224.281 448.155 221.298 456.381 221.298 456.381Z" fill="#FBD1DA"/>
    <path d="M211.863 523.416C211.863 523.416 215.101 514.799 219.188 508.334" stroke="#150F28" stroke-linecap="round" stroke-linejoin="round"/>
    <path d="M186.094 491.971C193.544 491.441 198.88 481.14 198.014 468.963C197.147 456.786 190.406 447.345 182.957 447.875C175.508 448.405 170.171 458.706 171.038 470.883C171.904 483.059 178.645 492.501 186.094 491.971Z" fill="#FBD1DA"/>
    <path d="M169.879 466.618C174.961 466.357 182.891 465.201 185.684 459.442C185.684 459.442 184.646 467.858 190.897 462.117C190.897 462.117 193.139 459.744 193.685 457.728C193.685 457.728 193.685 465.373 199.55 469.085C199.55 469.085 198.631 475.52 197.041 479.879C197.041 479.879 203.453 476.232 205.143 462.68C206.833 449.128 194.977 440.392 186.028 440.671C177.986 440.932 169.327 446.56 166 460.836C165.324 463.759 167.649 466.731 169.879 466.618Z" fill="#150F28"/>
    <path d="M201.274 472.856C202.087 470.652 201.415 468.375 199.774 467.77C198.133 467.165 196.144 468.46 195.331 470.663C194.518 472.867 195.19 475.144 196.831 475.749C198.472 476.354 200.461 475.059 201.274 472.856Z" fill="#FBD1DA"/>
    <path d="M186.082 491.989C186.082 491.989 191.864 491.989 194.978 485.21" stroke="#150F28" stroke-linecap="round" stroke-linejoin="round"/>
    <path d="M182.268 441.424C182.268 441.424 186.508 439.828 193.127 441.821" stroke="#2E2942" stroke-linecap="round" stroke-linejoin="round"/>
    <path d="M204.206 470.461C202.426 476.048 199.461 478.473 197.99 479.393" stroke="#2E2942" stroke-linecap="round" stroke-linejoin="round"/>
    <path d="M205.481 464.311C205.38 465.224 205.25 466.09 205.102 466.902" stroke="#2E2942" stroke-linecap="round" stroke-linejoin="round"/>
    <path d="M198.814 445.416C198.814 445.416 203.197 448.173 204.953 455.017" stroke="#2E2942" stroke-linecap="round" stroke-linejoin="round"/>
    <path d="M183.502 455.948C183.502 455.948 180.092 463.065 174.072 464.957" stroke="#2E2942" stroke-linecap="round" stroke-linejoin="round"/>
    <path d="M181.035 450.451C181.035 450.451 176.801 454.365 173.396 461.832" stroke="#2E2942" stroke-linecap="round" stroke-linejoin="round"/>
    <path d="M186.259 441.649C183.436 441.649 186.383 434.687 194.959 437.919C200.89 440.149 199.982 446.489 197.841 445.38C195.7 444.271 191.839 441.602 186.259 441.649Z" fill="#EF3E54"/>
    <path d="M196.756 447.45C199.355 450.669 200.815 454.659 200.907 458.795" stroke="#2E2942" stroke-linecap="round" stroke-linejoin="round"/>
    <path d="M170.969 466.547C170.969 466.547 170.524 482.305 178.786 489.232" stroke="#150F28" stroke-linecap="round" stroke-linejoin="round"/>
    <path d="M170.959 470.917C170.959 470.917 173.758 468.189 178.076 470.158" stroke="#150F28" stroke-linecap="round" stroke-linejoin="round"/>
    <path d="M193.572 469.293C193.572 469.293 189.326 466.535 185.316 468.972" stroke="#150F28" stroke-linecap="round" stroke-linejoin="round"/>
    <path d="M179.48 486.171C179.48 486.171 183.003 489.137 185.755 485.649" stroke="#150F28" stroke-linecap="round" stroke-linejoin="round"/>
    <path d="M180.643 473.569C180.643 473.569 181.609 478.313 180.115 481.095C179.971 481.369 179.939 481.689 180.028 481.986C180.117 482.283 180.318 482.534 180.589 482.684C181.24 483.092 181.986 483.323 182.754 483.355" stroke="#150F28" stroke-linecap="round" stroke-linejoin="round"/>
    <path d="M175.946 475.238C176.626 475.159 177.077 474.232 176.953 473.168C176.829 472.104 176.177 471.306 175.497 471.385C174.817 471.465 174.366 472.391 174.49 473.455C174.614 474.519 175.266 475.317 175.946 475.238Z" fill="#150F28"/>
    <path d="M188.386 474.102C189.122 474.016 189.615 473.069 189.489 471.985C189.363 470.902 188.664 470.093 187.929 470.179C187.194 470.264 186.7 471.212 186.826 472.296C186.953 473.379 187.651 474.188 188.386 474.102Z" fill="#150F28"/>
    <path d="M188.975 470.668L186.312 469.743" stroke="#150F28" stroke-linecap="round" stroke-linejoin="round"/>
    <path d="M176.273 471.676L174.072 470.852" stroke="#150F28" stroke-linecap="round" stroke-linejoin="round"/>
</svg>
