<svg width="74" height="70" viewBox="0 0 74 70" fill="none" xmlns="http://www.w3.org/2000/svg">
<g clip-path="url(#clip0_3621_4264)">
<path d="M73.9339 50.0527H0.278451V49.2226C0.278451 41.6017 0.278451 33.9802 0.278451 26.3579C0.266401 25.1019 0.504164 23.8561 0.977814 22.6934C1.45146 21.5307 2.1515 20.4745 3.03695 19.5865C3.9224 18.6985 4.97546 17.9966 6.13455 17.5219C7.29364 17.0472 8.53549 16.8091 9.78737 16.8218C19.0018 16.8218 28.2223 16.8218 37.4487 16.8218H38.284C39.4859 25.4033 43.7726 31.732 51.9194 34.839C60.0662 37.946 67.3957 35.8861 73.9319 30.2448L73.9339 50.0527ZM19.6228 32.0756C19.6228 30.6467 19.6348 29.2198 19.6228 27.7909C19.6068 26.2997 18.8435 25.4837 17.3793 25.4696C14.4827 25.4455 11.5855 25.4455 8.68763 25.4696C7.2694 25.4817 6.44213 26.3077 6.43211 27.7165C6.40808 30.6239 6.40808 33.5307 6.43211 36.4367C6.43211 37.7873 7.20531 38.6474 8.5414 38.6796C11.5381 38.7359 14.5341 38.7359 17.5295 38.6796C18.8856 38.6535 19.6027 37.8034 19.6208 36.4347C19.6368 34.9817 19.6228 33.5287 19.6228 32.0756Z" fill="#110628"/>
<path d="M73.6915 59.999C73.7236 63.3734 72.4896 66.0423 69.7654 67.9596C68.4278 68.9026 66.8443 69.4322 65.2102 69.4829C64.8857 69.497 64.5592 69.503 64.2347 69.503C46.0729 69.503 27.9058 69.5064 9.73328 69.5131C6.12762 69.5131 3.32321 68.1324 1.50436 64.9932C0.943481 64.0225 0.72515 62.8488 0.388622 61.7555C0.216352 61.1968 0.132207 60.612 0 59.999H73.6915Z" fill="#110628"/>
<path d="M59.2188 0.512731C67.2314 0.494644 74.01 7.28351 74 15.3063C73.9921 19.2124 72.4435 22.9565 69.6926 25.7206C66.9417 28.4846 63.2122 30.044 59.319 30.0578C51.3064 30.0799 44.5158 23.3272 44.4957 15.3023C44.4957 11.383 46.0463 7.62396 48.8069 4.85089C51.5675 2.07783 55.3124 0.517525 59.2188 0.512731ZM62.5641 15.2481C63.4034 14.4442 64.1906 13.7146 64.9418 12.9549C65.9914 11.8918 66.0495 10.4327 65.1101 9.46002C64.1706 8.48731 62.6482 8.50943 61.5705 9.57258C60.8073 10.3262 60.0742 11.114 59.2909 11.924C58.2753 11.0196 57.3379 10.1614 56.3724 9.33542C56.002 9.01202 55.5418 8.81019 55.0537 8.75701C54.5656 8.70384 54.073 8.80188 53.6421 9.03798C52.7547 9.54846 52.29 10.3604 52.4702 11.3572C52.6046 11.9553 52.8894 12.5088 53.2975 12.965C53.9926 13.7689 54.8079 14.4643 55.537 15.1757C55.4948 15.2722 55.4446 15.365 55.3868 15.453C54.7017 16.1464 54.0127 16.8357 53.3256 17.5291C52.2359 18.6324 52.1237 20.0835 53.0552 21.0803C53.9866 22.0771 55.4409 22.049 56.6047 21.028C57.4821 20.2583 58.3515 19.4785 59.2949 18.6425C60.0501 19.4283 60.7532 20.1719 61.4723 20.8994C62.5821 22.0188 64.0764 22.1052 65.078 21.1486C66.0796 20.192 66.0095 18.6807 64.8917 17.5452C64.1486 16.8036 63.3994 16.0781 62.5581 15.2481H62.5641Z" fill="#110628"/>
<path d="M19.6228 32.0753C19.6228 33.5283 19.6368 34.9814 19.6228 36.4344C19.6048 37.803 18.8876 38.6451 17.5315 38.6793C14.5375 38.7369 11.5414 38.7369 8.54342 38.6793C7.20732 38.6531 6.44412 37.787 6.4341 36.4364C6.41007 33.5303 6.41007 30.6236 6.4341 27.7162C6.4341 26.3094 7.27142 25.4814 8.68964 25.4693C11.5862 25.4425 14.4834 25.4425 17.3813 25.4693C18.8456 25.4834 19.6088 26.2993 19.6248 27.7906C19.6348 29.2195 19.6228 30.6464 19.6228 32.0753Z" fill="url(#paint0_radial_3621_4264)"/>
<path d="M19.6228 32.0753C19.6228 33.5283 19.6368 34.9814 19.6228 36.4344C19.6048 37.803 18.8876 38.6451 17.5315 38.6793C14.5375 38.7369 11.5414 38.7369 8.54342 38.6793C7.20732 38.6531 6.44412 37.787 6.4341 36.4364C6.41007 33.5303 6.41007 30.6236 6.4341 27.7162C6.4341 26.3094 7.27142 25.4814 8.68964 25.4693C11.5862 25.4425 14.4834 25.4425 17.3813 25.4693C18.8456 25.4834 19.6088 26.2993 19.6248 27.7906C19.6348 29.2195 19.6228 30.6464 19.6228 32.0753Z" fill="url(#paint1_angular_3621_4264)" style="mix-blend-mode:difference"/>
<path d="M19.6228 32.0753C19.6228 33.5283 19.6368 34.9814 19.6228 36.4344C19.6048 37.803 18.8876 38.6451 17.5315 38.6793C14.5375 38.7369 11.5414 38.7369 8.54342 38.6793C7.20732 38.6531 6.44412 37.787 6.4341 36.4364C6.41007 33.5303 6.41007 30.6236 6.4341 27.7162C6.4341 26.3094 7.27142 25.4814 8.68964 25.4693C11.5862 25.4425 14.4834 25.4425 17.3813 25.4693C18.8456 25.4834 19.6088 26.2993 19.6248 27.7906C19.6348 29.2195 19.6228 30.6464 19.6228 32.0753Z" fill="url(#paint2_angular_3621_4264)" style="mix-blend-mode:screen"/>
<path d="M62.558 15.2483C63.3934 16.0743 64.1425 16.8038 64.8757 17.5474C65.9934 18.6829 66.0635 20.16 65.062 21.1508C64.0604 22.1416 62.5761 22.0211 61.4563 20.9016C60.7372 20.1741 60.0341 19.4305 59.2789 18.6447C58.3354 19.4808 57.4761 20.2525 56.5887 21.0303C55.4248 22.0512 53.9586 22.0673 53.0391 21.0825C52.1197 20.0977 52.2198 18.6347 53.3095 17.5313C53.9966 16.838 54.6857 16.1486 55.3708 15.4553C55.4285 15.3672 55.4788 15.2744 55.521 15.1779C54.7919 14.4725 53.9766 13.7711 53.2815 12.9672C52.8733 12.511 52.5885 11.9575 52.4542 11.3594C52.2739 10.3546 52.7387 9.55068 53.626 9.04021C54.057 8.8041 54.5496 8.70604 55.0377 8.75921C55.5258 8.81239 55.986 9.01425 56.3563 9.33765C57.3218 10.1636 58.2593 11.0218 59.2749 11.9262C60.0581 11.1223 60.7913 10.3285 61.5545 9.57481C62.6322 8.51166 64.1405 8.47547 65.094 9.46225C66.0475 10.449 65.9754 11.894 64.9257 12.9572C64.1906 13.7148 63.4034 14.4424 62.558 15.2483Z" fill="white"/>
</g>
<defs>
<radialGradient id="paint0_radial_3621_4264" cx="0" cy="0" r="1" gradientUnits="userSpaceOnUse" gradientTransform="translate(10.7124 25.9481) rotate(69.5946) scale(13.3751 13.3292)">
<stop stop-color="#2AD0CA"/>
<stop offset="0.197917" stop-color="#E1F664"/>
<stop offset="0.402468" stop-color="#FEB0FE"/>
<stop offset="0.577627" stop-color="#ABB3FC"/>
<stop offset="0.786458" stop-color="#5DF7A4"/>
<stop offset="1" stop-color="#58C4F6"/>
</radialGradient>
<radialGradient id="paint1_angular_3621_4264" cx="0" cy="0" r="1" gradientUnits="userSpaceOnUse" gradientTransform="translate(13.0226 32.0858) rotate(90) scale(6.63662 6.60647)">
<stop stop-color="white"/>
<stop offset="0.15625"/>
<stop offset="0.265625" stop-color="white"/>
<stop offset="0.395833"/>
<stop offset="0.536458" stop-color="white"/>
<stop offset="0.703125"/>
<stop offset="0.828125" stop-color="white"/>
<stop offset="1"/>
</radialGradient>
<radialGradient id="paint2_angular_3621_4264" cx="0" cy="0" r="1" gradientUnits="userSpaceOnUse" gradientTransform="translate(13.0226 32.0858) rotate(90) scale(6.63662 6.60647)">
<stop stop-color="white"/>
<stop offset="0.135417"/>
<stop offset="0.270833" stop-color="white"/>
<stop offset="0.395833"/>
<stop offset="0.541667" stop-color="white" stop-opacity="0.819672"/>
<stop offset="0.697917"/>
<stop offset="0.833333" stop-color="white"/>
<stop offset="1" stop-opacity="0"/>
</radialGradient>
<clipPath id="clip0_3621_4264">
<rect width="74" height="69" fill="white" transform="translate(0 0.512695)"/>
</clipPath>
</defs>
</svg>
