<svg width="8" height="7" viewBox="0 0 8 7" fill="none" xmlns="http://www.w3.org/2000/svg">
<path d="M3.64746 6.93652C3.87207 6.93652 4.04297 6.84375 4.16992 6.6582L7.71973 1.10645C7.8125 0.964844 7.84668 0.847656 7.84668 0.730469C7.84668 0.4375 7.6416 0.232422 7.34375 0.232422C7.13379 0.232422 7.01172 0.305664 6.88477 0.510742L3.62793 5.70605L1.93359 3.47461C1.80664 3.31348 1.67969 3.24512 1.49414 3.24512C1.19141 3.24512 0.976562 3.45508 0.976562 3.74805C0.976562 3.87988 1.02051 4.00195 1.12793 4.13379L3.12012 6.66309C3.27148 6.84863 3.42773 6.93652 3.64746 6.93652Z" fill="#110628"/>
</svg>
