<svg width="56" height="56" viewBox="0 0 56 56" fill="none" xmlns="http://www.w3.org/2000/svg">
<path fill-rule="evenodd" clip-rule="evenodd" d="M28 56C43.464 56 56 43.464 56 28C56 12.536 43.464 0 28 0C12.536 0 0 12.536 0 28C0 43.464 12.536 56 28 56ZM23.4901 17.2485L38.2168 26.5557C38.4561 26.707 38.6537 26.9193 38.7909 27.1722C38.928 27.4252 39 27.7103 39 28.0003C39 28.2903 38.928 28.5754 38.7909 28.8284C38.6537 29.0813 38.4561 29.2936 38.2168 29.4449L23.4901 38.7521C23.242 38.9087 22.9581 38.9941 22.6675 38.9997C22.3769 39.0053 22.0901 38.9307 21.8365 38.7837C21.583 38.6367 21.3719 38.4226 21.2249 38.1633C21.0779 37.904 21.0002 37.6089 21 37.3083V18.6923C21 18.3916 21.0775 18.0964 21.2244 17.8369C21.3714 17.5775 21.5825 17.3632 21.8362 17.2162C22.0898 17.0691 22.3767 16.9946 22.6674 17.0003C22.9581 17.006 23.2421 17.0917 23.4901 17.2485Z" fill="white"/>
</svg>
