<svg
    width="289"
    height="50"
    viewBox="0 0 289 50"
    fill="none"
    xmlns="http://www.w3.org/2000/svg">
    <defs>
        <radialGradient
            id="paint0_radial_5068_7150"
            cx="0"
            cy="0"
            r="1"
            gradientUnits="userSpaceOnUse"
            gradientTransform="translate(95.6284 0.443582) rotate(13.5339) scale(200.967 119.475)">
            <stop stop-color="#2AD0CA"/>
            <stop
                offset="0.197917"
                stop-color="#E1F664"/>
            <stop
                offset="0.402468"
                stop-color="#FEB0FE"/>
            <stop
                offset="0.577627"
                stop-color="#ABB3FC"/>
            <stop
                offset="0.786458"
                stop-color="#5DF7A4"/>
            <stop
                offset="1"
                stop-color="#58C4F6"/>
        </radialGradient>
        <linearGradient
            id="paint1_linear_5068_7150"
            x1="-71.0257"
            y1="-11.6923"
            x2="84.2403"
            y2="225.947"
            gradientUnits="userSpaceOnUse">
            <stop stop-color="white"/>
            <stop offset="0.15625"/>
            <stop
                offset="0.265625"
                stop-color="white"/>
            <stop offset="0.395833"/>
            <stop
                offset="0.536458"
                stop-color="white"/>
            <stop offset="0.703125"/>
            <stop
                offset="0.828125"
                stop-color="white"/>
            <stop offset="1"/>
        </linearGradient>
        <linearGradient
            id="paint2_linear_5068_7150"
            x1="-39.1346"
            y1="-29.3422"
            x2="110.621"
            y2="203.375"
            gradientUnits="userSpaceOnUse">
            <stop stop-color="white"/>
            <stop offset="0.135417"/>
            <stop
                offset="0.270833"
                stop-color="white"/>
            <stop offset="0.395833"/>
            <stop
                offset="0.541667"
                stop-color="white"
                stop-opacity="0.819672"/>
            <stop offset="0.697917"/>
            <stop
                offset="0.833333"
                stop-color="white"/>
            <stop
                offset="1"
                stop-opacity="0"/>
        </linearGradient>
    </defs>
    <path
        d="M8 1.064C1.76 1.064 0.00800008 3.248 0.00800008 10.616C0.00800008 17.936 1.76 20.12 8 20.12C14.24 20.12 16.016 17.936 16.016 10.616C16.016 3.248 14.24 1.064 8 1.064ZM8 4.928C10.904 4.928 11.504 6.32 11.504 10.616C11.504 14.864 10.904 16.256 8 16.256C5.12 16.256 4.496 14.864 4.496 10.616C4.496 6.32 5.12 4.928 8 4.928ZM17.8154 6.392C17.5754 6.392 17.4554 6.512 17.4554 6.752V9.896C17.4554 10.136 17.5754 10.256 17.8154 10.256H21.1994V19.64C21.1994 19.88 21.3194 20 21.5594 20H25.2794C25.5194 20 25.6394 19.88 25.6394 19.64V10.256H29.0234C29.2634 10.256 29.3834 10.136 29.3834 9.896V6.752C29.3834 6.512 29.2634 6.392 29.0234 6.392H17.8154ZM39.5163 6.392C39.3243 6.392 39.2043 6.44 39.1323 6.56L35.5563 12.128V6.752C35.5563 6.512 35.4363 6.392 35.1963 6.392H31.4763C31.2363 6.392 31.1163 6.512 31.1163 6.752V19.64C31.1163 19.88 31.2363 20 31.4763 20H35.1963C35.4363 20 35.5563 19.88 35.5563 19.64V13.568L39.5403 19.808C39.6123 19.952 39.7323 20 39.9483 20H44.3403C44.6283 20 44.7483 19.808 44.6043 19.568L40.0443 12.584L43.9083 6.776C44.0523 6.56 43.9323 6.392 43.6203 6.392H39.5163ZM51.8111 6.272C50.2271 6.272 48.2591 6.464 46.3871 6.776C46.0271 6.848 45.8111 7.088 45.8111 7.472V24.512C45.8111 24.752 45.9311 24.872 46.1711 24.872H49.6271C49.8671 24.872 49.9871 24.752 49.9871 24.512V19.976C51.0191 20.096 51.9071 20.12 52.8431 20.12C57.1151 20.12 58.4111 18.512 58.4111 12.92C58.4111 7.76 57.0911 6.272 51.8111 6.272ZM52.0271 9.872C54.0911 9.872 54.2111 10.808 54.2111 13.184C54.2111 15.944 53.8511 16.496 51.7151 16.496C51.2591 16.496 50.5391 16.472 49.9871 16.376V9.872H52.0271ZM66.5533 6.272C61.3933 6.272 60.1693 7.64 60.1693 13.208C60.1693 18.752 61.3933 20.12 66.5533 20.12C71.7133 20.12 72.9613 18.752 72.9613 13.208C72.9613 7.64 71.7133 6.272 66.5533 6.272ZM66.5533 9.872C68.4013 9.872 68.7613 10.544 68.7613 13.208C68.7613 15.848 68.4013 16.52 66.5533 16.52C64.7293 16.52 64.3693 15.848 64.3693 13.208C64.3693 10.544 64.7293 9.872 66.5533 9.872ZM83.8914 0.92C83.6754 0.92 83.5554 0.991999 83.4834 1.208C83.0994 2.072 82.5714 2.36 81.4914 2.36C80.4114 2.36 79.8834 2.072 79.4994 1.208C79.4274 0.991999 79.3074 0.92 79.0914 0.92H77.3874C77.1474 0.92 77.0034 1.04 77.0514 1.304C77.3874 3.872 78.5394 4.736 81.4914 4.736C84.4674 4.736 85.6194 3.848 85.9314 1.28C85.9794 1.016 85.8594 0.92 85.5954 0.92H83.8914ZM85.1874 6.392C84.5394 6.392 84.2274 6.656 83.9154 7.064L79.2834 13.112V6.704C79.2834 6.512 79.1874 6.392 78.9954 6.392H75.4434C75.2514 6.392 75.1554 6.512 75.1554 6.704V19.688C75.1554 19.904 75.2514 20 75.4434 20H77.8194C78.4674 20 78.8034 19.832 79.1154 19.424L83.8434 13.376V19.688C83.8434 19.904 83.9154 20 84.1074 20H87.6594C87.8514 20 87.9474 19.904 87.9474 19.688V6.704C87.9474 6.512 87.8514 6.392 87.6594 6.392H85.1874ZM101.074 6.272C99.1304 6.272 97.4504 6.344 95.4824 6.536C95.2664 6.56 95.1944 6.656 95.1944 6.824V19.544C95.1944 19.688 95.2664 19.832 95.4824 19.856C97.4264 20.072 99.4424 20.12 101.386 20.12C105.37 20.12 106.786 18.992 106.786 16.304C106.786 14.096 106.09 13.376 104.002 13.232V13.184C105.85 12.944 106.498 12.176 106.498 10.04C106.498 7.376 105.082 6.272 101.074 6.272ZM100.666 9.656C102.082 9.656 102.586 10.016 102.586 10.736C102.586 11.432 102.082 11.84 100.618 11.84H99.4184V9.656H100.666ZM100.978 14.48C102.394 14.48 102.898 14.864 102.898 15.584C102.898 16.352 102.394 16.664 100.978 16.688L99.4184 16.664V14.48H100.978ZM114.905 6.272C109.577 6.272 108.545 7.64 108.545 13.184C108.545 18.728 109.577 20.12 114.905 20.12C115.745 20.12 117.617 20.072 118.985 19.736C119.249 19.664 119.393 19.568 119.393 19.232V16.904C119.393 16.64 119.249 16.52 118.985 16.52H114.905C113.081 16.52 112.721 15.848 112.721 13.184C112.721 10.544 113.081 9.872 114.905 9.872H118.985C119.249 9.872 119.393 9.752 119.393 9.488V7.16C119.393 6.824 119.249 6.728 118.985 6.656C117.617 6.32 115.745 6.272 114.905 6.272ZM127.419 6.272C122.403 6.272 121.107 7.64 121.107 13.208C121.107 18.752 122.403 20.12 127.419 20.12C129.075 20.12 130.971 20.024 132.315 19.736C132.531 19.688 132.651 19.616 132.651 19.328V16.88C132.651 16.64 132.531 16.52 132.291 16.52H127.875C126.003 16.52 125.403 16.304 125.379 14.528H132.867C133.419 14.528 133.587 14.384 133.587 13.88V13.136C133.587 7.64 132.363 6.272 127.419 6.272ZM127.419 9.872C128.811 9.872 129.363 10.352 129.387 11.984H125.355C125.355 10.352 126.003 9.872 127.419 9.872ZM0.656 30.392C0.416 30.392 0.296 30.512 0.296 30.752V43.64C0.296 43.88 0.416 44 0.656 44H4.376C4.616 44 4.736 43.88 4.736 43.64V34.256H7.496V43.64C7.496 43.88 7.616 44 7.856 44H11.576C11.816 44 11.936 43.88 11.936 43.64V30.752C11.936 30.512 11.816 30.392 11.576 30.392H0.656ZM20.4986 30.272C18.9146 30.272 16.9466 30.464 15.0746 30.776C14.7146 30.848 14.4986 31.088 14.4986 31.472V48.512C14.4986 48.752 14.6186 48.872 14.8586 48.872H18.3146C18.5546 48.872 18.6746 48.752 18.6746 48.512V43.976C19.7066 44.096 20.5946 44.12 21.5306 44.12C25.8026 44.12 27.0986 42.512 27.0986 36.92C27.0986 31.76 25.7786 30.272 20.4986 30.272ZM20.7146 33.872C22.7786 33.872 22.8986 34.808 22.8986 37.184C22.8986 39.944 22.5386 40.496 20.4026 40.496C19.9466 40.496 19.2266 40.472 18.6746 40.376V33.872H20.7146ZM35.1688 30.272C30.1528 30.272 28.8568 31.64 28.8568 37.208C28.8568 42.752 30.1528 44.12 35.1688 44.12C36.8248 44.12 38.7208 44.024 40.0648 43.736C40.2808 43.688 40.4008 43.616 40.4008 43.328V40.88C40.4008 40.64 40.2808 40.52 40.0408 40.52H35.6248C33.7528 40.52 33.1528 40.304 33.1288 38.528H40.6168C41.1688 38.528 41.3368 38.384 41.3368 37.88V37.136C41.3368 31.64 40.1128 30.272 35.1688 30.272ZM35.1688 33.872C36.5608 33.872 37.1128 34.352 37.1368 35.984H33.1048C33.1048 34.352 33.7528 33.872 35.1688 33.872ZM52.1113 30.392C51.8713 30.392 51.7513 30.512 51.7513 30.752V40.352C51.1993 40.472 50.5033 40.496 50.0473 40.496C47.9113 40.496 47.3833 39.944 47.3833 37.184V30.752C47.3833 30.512 47.2633 30.392 47.0233 30.392H43.5673C43.3273 30.392 43.2073 30.512 43.2073 30.752V38.12C43.2073 42.296 44.6473 44.12 48.9193 44.12C49.8553 44.12 50.7193 44.048 51.7513 43.808V43.976C51.7513 45.272 51.2953 45.656 49.4713 45.656H44.9353C44.6953 45.656 44.6233 45.752 44.6233 46.016V48.248C44.6233 48.512 44.7193 48.584 44.9353 48.632C46.3993 48.92 48.0793 49.016 49.9033 49.016C55.3513 49.016 55.9513 47.216 55.9513 44.168V30.752C55.9513 30.512 55.8313 30.392 55.5912 30.392H52.1113ZM71.3542 30.392C70.5862 30.392 70.1542 30.488 69.9142 31.088L67.1062 38.072L64.2982 31.112C64.0582 30.512 63.6262 30.392 62.8582 30.392H59.8342C59.6422 30.392 59.5222 30.512 59.4982 30.704L57.9622 43.712C57.9382 43.904 58.0582 44 58.2502 44H61.9222C62.1142 44 62.1862 43.904 62.2102 43.688L63.0022 36.632L65.4982 43.28C65.5942 43.496 65.7382 43.592 65.9302 43.592H68.2822C68.4742 43.592 68.6182 43.496 68.7142 43.28L71.2342 36.632L72.0022 43.688C72.0262 43.904 72.0982 44 72.2902 44H75.9622C76.1542 44 76.2742 43.904 76.2502 43.688L74.7382 30.68C74.7142 30.512 74.6182 30.392 74.4262 30.392H71.3542ZM87.08 30.392C86.84 30.392 86.72 30.512 86.72 30.752V40.352C86.168 40.472 85.472 40.496 85.016 40.496C82.88 40.496 82.352 39.944 82.352 37.184V30.752C82.352 30.512 82.232 30.392 81.992 30.392H78.536C78.296 30.392 78.176 30.512 78.176 30.752V38.12C78.176 42.296 79.616 44.12 83.888 44.12C84.824 44.12 85.688 44.048 86.72 43.808V43.976C86.72 45.272 86.264 45.656 84.44 45.656H79.904C79.664 45.656 79.592 45.752 79.592 46.016V48.248C79.592 48.512 79.688 48.584 79.904 48.632C81.368 48.92 83.048 49.016 84.872 49.016C90.32 49.016 90.92 47.216 90.92 44.168V30.752C90.92 30.512 90.8 30.392 90.56 30.392H87.08ZM110.427 40.136V30.752C110.427 30.536 110.283 30.392 110.067 30.392H106.347C106.131 30.392 105.987 30.536 105.987 30.752V40.136H104.187V30.752C104.187 30.536 104.043 30.392 103.827 30.392H100.107C99.8909 30.392 99.7469 30.536 99.7469 30.752V40.136H97.9469V30.752C97.9469 30.536 97.8029 30.392 97.5869 30.392H93.8669C93.6509 30.392 93.5069 30.536 93.5069 30.752V43.64C93.5069 43.856 93.6509 44 93.8669 44H107.643V45.92C107.643 46.136 107.787 46.28 108.003 46.28H111.555C111.771 46.28 111.915 46.136 111.915 45.92V40.496C111.915 40.28 111.771 40.136 111.555 40.136H110.427ZM119.708 30.272C114.692 30.272 113.396 31.64 113.396 37.208C113.396 42.752 114.692 44.12 119.708 44.12C121.364 44.12 123.26 44.024 124.604 43.736C124.82 43.688 124.94 43.616 124.94 43.328V40.88C124.94 40.64 124.82 40.52 124.58 40.52H120.164C118.292 40.52 117.692 40.304 117.668 38.528H125.156C125.708 38.528 125.876 38.384 125.876 37.88V37.136C125.876 31.64 124.652 30.272 119.708 30.272ZM119.708 33.872C121.1 33.872 121.652 34.352 121.676 35.984H117.644C117.644 34.352 118.292 33.872 119.708 33.872ZM133.842 30.272C128.514 30.272 127.482 31.64 127.482 37.184C127.482 42.728 128.514 44.12 133.842 44.12C134.682 44.12 136.554 44.072 137.922 43.736C138.186 43.664 138.33 43.568 138.33 43.232V40.904C138.33 40.64 138.186 40.52 137.922 40.52H133.842C132.018 40.52 131.658 39.848 131.658 37.184C131.658 34.544 132.018 33.872 133.842 33.872H137.922C138.186 33.872 138.33 33.752 138.33 33.488V31.16C138.33 30.824 138.186 30.728 137.922 30.656C136.554 30.32 134.682 30.272 133.842 30.272ZM139.948 30.392C139.708 30.392 139.588 30.512 139.588 30.752V33.896C139.588 34.136 139.708 34.256 139.948 34.256H143.332V43.64C143.332 43.88 143.452 44 143.692 44H147.412C147.652 44 147.772 43.88 147.772 43.64V34.256H151.156C151.396 34.256 151.516 34.136 151.516 33.896V30.752C151.516 30.512 151.396 30.392 151.156 30.392H139.948ZM159.129 30.272C157.185 30.272 155.505 30.344 153.537 30.536C153.321 30.56 153.249 30.656 153.249 30.824V43.544C153.249 43.688 153.321 43.832 153.537 43.856C155.481 44.072 157.497 44.12 159.441 44.12C163.425 44.12 164.841 42.992 164.841 40.304C164.841 38.096 164.145 37.376 162.057 37.232V37.184C163.905 36.944 164.553 36.176 164.553 34.04C164.553 31.376 163.137 30.272 159.129 30.272ZM158.721 33.656C160.137 33.656 160.641 34.016 160.641 34.736C160.641 35.432 160.137 35.84 158.673 35.84H157.473V33.656H158.721ZM159.033 38.48C160.449 38.48 160.953 38.864 160.953 39.584C160.953 40.352 160.449 40.664 159.033 40.688L157.473 40.664V38.48H159.033ZM172.36 30.272C170.632 30.272 169.144 30.368 167.656 30.68C167.416 30.728 167.32 30.776 167.32 31.064V33.512C167.32 33.8 167.392 33.872 167.656 33.872H172.36C173.536 33.872 174.184 34.28 174.184 35.288V35.768L171.544 35.792C168.112 35.792 166.36 36.416 166.312 39.68V40.304C166.36 43.856 168.472 44.12 172.288 44.12C173.584 44.12 175.696 44.048 177.784 43.616C178.216 43.52 178.384 43.328 178.384 42.848V34.592C178.384 32.024 177.592 30.272 172.36 30.272ZM174.184 38.288V40.568C173.584 40.712 172.432 40.76 172.072 40.76C170.848 40.76 170.44 40.544 170.44 39.656V39.392C170.44 38.648 170.632 38.288 171.952 38.288H174.184Z"
        fill="#110628"/>
    <path
        d="M193.226 25.064C190.946 25.064 188.546 25.16 186.194 25.352C185.906 25.376 185.834 25.448 185.834 25.688V43.616C185.834 43.928 185.906 44 186.194 44H189.914C190.202 44 190.274 43.928 190.274 43.616V37.304H193.226C198.41 37.304 200.186 36.152 200.186 31.376C200.186 26.648 198.41 25.064 193.226 25.064ZM192.746 28.928C195.05 28.928 195.674 29.552 195.674 31.52C195.674 33.512 195.05 33.992 192.746 33.992H190.274V28.928H192.746ZM206.653 30.272C204.085 30.272 202.045 30.752 202.045 33.944V43.616C202.045 43.88 202.165 44 202.405 44H205.885C206.125 44 206.245 43.88 206.245 43.616V35.072C206.245 34.04 206.677 33.872 207.709 33.872H210.085C210.349 33.872 210.493 33.752 210.493 33.512V31.064C210.493 30.728 210.373 30.608 210.085 30.56C209.077 30.344 207.397 30.272 206.653 30.272ZM217.958 30.272C212.942 30.272 211.646 31.64 211.646 37.208C211.646 42.752 212.942 44.12 217.958 44.12C219.614 44.12 221.51 44.024 222.854 43.736C223.07 43.688 223.19 43.616 223.19 43.328V40.88C223.19 40.64 223.07 40.52 222.83 40.52H218.414C216.542 40.52 215.942 40.304 215.918 38.528H223.406C223.958 38.528 224.126 38.384 224.126 37.88V37.136C224.126 31.64 222.902 30.272 217.958 30.272ZM217.958 33.872C219.35 33.872 219.926 34.352 219.926 35.984H215.894C215.894 34.352 216.542 33.872 217.958 33.872ZM240.084 30.272C238.812 30.272 237.156 30.512 235.764 31.064C234.9 30.632 233.316 30.272 231.3 30.272C230.004 30.272 227.772 30.368 226.428 30.704C226.212 30.752 226.092 30.8 226.092 31.064V43.616C226.116 43.88 226.212 44 226.452 44H229.932C230.172 44 230.292 43.88 230.292 43.616V33.872H231.54C233.172 33.872 233.46 34.016 233.484 36.224V43.616C233.484 43.88 233.58 44 233.82 44H237.324C237.588 44 237.66 43.88 237.66 43.616L237.684 36.104C237.684 35.264 237.612 34.568 237.42 33.992C237.9 33.92 238.428 33.872 238.932 33.872C240.66 33.872 240.876 34.064 240.876 37.4V43.616C240.876 43.88 240.972 44 241.212 44H244.716C244.956 44 245.052 43.88 245.052 43.616V35.168C245.076 31.544 243.66 30.272 240.084 30.272ZM249.65 24.512C248.09 24.512 247.202 25.328 247.202 26.696C247.202 28.088 248.09 28.904 249.65 28.904C251.162 28.904 252.05 28.088 252.05 26.696C252.05 25.328 251.162 24.512 249.65 24.512ZM247.898 30.392C247.658 30.392 247.538 30.536 247.538 30.776V43.616C247.538 43.88 247.658 44 247.898 44H251.354C251.594 44 251.714 43.88 251.714 43.616V30.776C251.714 30.536 251.594 30.392 251.354 30.392H247.898ZM262.736 30.392C262.496 30.392 262.376 30.512 262.376 30.776V40.52H260.768C258.608 40.52 258.416 40.328 258.416 36.992V30.776C258.416 30.512 258.296 30.392 258.056 30.392H254.6C254.36 30.392 254.216 30.512 254.216 30.776V38.264C254.216 43.088 255.368 44.12 260.12 44.12C262.256 44.12 264.728 43.976 266.24 43.688C266.504 43.64 266.576 43.592 266.576 43.28V30.776C266.576 30.512 266.48 30.392 266.24 30.392H262.736ZM283.116 30.272C281.844 30.272 280.188 30.512 278.796 31.064C277.932 30.632 276.348 30.272 274.332 30.272C273.036 30.272 270.804 30.368 269.46 30.704C269.244 30.752 269.124 30.8 269.124 31.064V43.616C269.148 43.88 269.244 44 269.484 44H272.964C273.204 44 273.324 43.88 273.324 43.616V33.872H274.572C276.204 33.872 276.492 34.016 276.516 36.224V43.616C276.516 43.88 276.612 44 276.852 44H280.356C280.62 44 280.692 43.88 280.692 43.616L280.716 36.104C280.716 35.264 280.644 34.568 280.452 33.992C280.932 33.92 281.46 33.872 281.964 33.872C283.692 33.872 283.908 34.064 283.908 37.4V43.616C283.908 43.88 284.004 44 284.244 44H287.748C287.988 44 288.084 43.88 288.084 43.616V35.168C288.108 31.544 286.692 30.272 283.116 30.272Z"
        fill="url(#paint0_radial_5068_7150)"/>
    <path
        d="M193.226 25.064C190.946 25.064 188.546 25.16 186.194 25.352C185.906 25.376 185.834 25.448 185.834 25.688V43.616C185.834 43.928 185.906 44 186.194 44H189.914C190.202 44 190.274 43.928 190.274 43.616V37.304H193.226C198.41 37.304 200.186 36.152 200.186 31.376C200.186 26.648 198.41 25.064 193.226 25.064ZM192.746 28.928C195.05 28.928 195.674 29.552 195.674 31.52C195.674 33.512 195.05 33.992 192.746 33.992H190.274V28.928H192.746ZM206.653 30.272C204.085 30.272 202.045 30.752 202.045 33.944V43.616C202.045 43.88 202.165 44 202.405 44H205.885C206.125 44 206.245 43.88 206.245 43.616V35.072C206.245 34.04 206.677 33.872 207.709 33.872H210.085C210.349 33.872 210.493 33.752 210.493 33.512V31.064C210.493 30.728 210.373 30.608 210.085 30.56C209.077 30.344 207.397 30.272 206.653 30.272ZM217.958 30.272C212.942 30.272 211.646 31.64 211.646 37.208C211.646 42.752 212.942 44.12 217.958 44.12C219.614 44.12 221.51 44.024 222.854 43.736C223.07 43.688 223.19 43.616 223.19 43.328V40.88C223.19 40.64 223.07 40.52 222.83 40.52H218.414C216.542 40.52 215.942 40.304 215.918 38.528H223.406C223.958 38.528 224.126 38.384 224.126 37.88V37.136C224.126 31.64 222.902 30.272 217.958 30.272ZM217.958 33.872C219.35 33.872 219.926 34.352 219.926 35.984H215.894C215.894 34.352 216.542 33.872 217.958 33.872ZM240.084 30.272C238.812 30.272 237.156 30.512 235.764 31.064C234.9 30.632 233.316 30.272 231.3 30.272C230.004 30.272 227.772 30.368 226.428 30.704C226.212 30.752 226.092 30.8 226.092 31.064V43.616C226.116 43.88 226.212 44 226.452 44H229.932C230.172 44 230.292 43.88 230.292 43.616V33.872H231.54C233.172 33.872 233.46 34.016 233.484 36.224V43.616C233.484 43.88 233.58 44 233.82 44H237.324C237.588 44 237.66 43.88 237.66 43.616L237.684 36.104C237.684 35.264 237.612 34.568 237.42 33.992C237.9 33.92 238.428 33.872 238.932 33.872C240.66 33.872 240.876 34.064 240.876 37.4V43.616C240.876 43.88 240.972 44 241.212 44H244.716C244.956 44 245.052 43.88 245.052 43.616V35.168C245.076 31.544 243.66 30.272 240.084 30.272ZM249.65 24.512C248.09 24.512 247.202 25.328 247.202 26.696C247.202 28.088 248.09 28.904 249.65 28.904C251.162 28.904 252.05 28.088 252.05 26.696C252.05 25.328 251.162 24.512 249.65 24.512ZM247.898 30.392C247.658 30.392 247.538 30.536 247.538 30.776V43.616C247.538 43.88 247.658 44 247.898 44H251.354C251.594 44 251.714 43.88 251.714 43.616V30.776C251.714 30.536 251.594 30.392 251.354 30.392H247.898ZM262.736 30.392C262.496 30.392 262.376 30.512 262.376 30.776V40.52H260.768C258.608 40.52 258.416 40.328 258.416 36.992V30.776C258.416 30.512 258.296 30.392 258.056 30.392H254.6C254.36 30.392 254.216 30.512 254.216 30.776V38.264C254.216 43.088 255.368 44.12 260.12 44.12C262.256 44.12 264.728 43.976 266.24 43.688C266.504 43.64 266.576 43.592 266.576 43.28V30.776C266.576 30.512 266.48 30.392 266.24 30.392H262.736ZM283.116 30.272C281.844 30.272 280.188 30.512 278.796 31.064C277.932 30.632 276.348 30.272 274.332 30.272C273.036 30.272 270.804 30.368 269.46 30.704C269.244 30.752 269.124 30.8 269.124 31.064V43.616C269.148 43.88 269.244 44 269.484 44H272.964C273.204 44 273.324 43.88 273.324 43.616V33.872H274.572C276.204 33.872 276.492 34.016 276.516 36.224V43.616C276.516 43.88 276.612 44 276.852 44H280.356C280.62 44 280.692 43.88 280.692 43.616L280.716 36.104C280.716 35.264 280.644 34.568 280.452 33.992C280.932 33.92 281.46 33.872 281.964 33.872C283.692 33.872 283.908 34.064 283.908 37.4V43.616C283.908 43.88 284.004 44 284.244 44H287.748C287.988 44 288.084 43.88 288.084 43.616V35.168C288.108 31.544 286.692 30.272 283.116 30.272Z"
        fill="url(#paint1_linear_5068_7150)"
        fill-opacity="0.9"
        style="mix-blend-mode:difference"/>
    <path
        d="M193.226 25.064C190.946 25.064 188.546 25.16 186.194 25.352C185.906 25.376 185.834 25.448 185.834 25.688V43.616C185.834 43.928 185.906 44 186.194 44H189.914C190.202 44 190.274 43.928 190.274 43.616V37.304H193.226C198.41 37.304 200.186 36.152 200.186 31.376C200.186 26.648 198.41 25.064 193.226 25.064ZM192.746 28.928C195.05 28.928 195.674 29.552 195.674 31.52C195.674 33.512 195.05 33.992 192.746 33.992H190.274V28.928H192.746ZM206.653 30.272C204.085 30.272 202.045 30.752 202.045 33.944V43.616C202.045 43.88 202.165 44 202.405 44H205.885C206.125 44 206.245 43.88 206.245 43.616V35.072C206.245 34.04 206.677 33.872 207.709 33.872H210.085C210.349 33.872 210.493 33.752 210.493 33.512V31.064C210.493 30.728 210.373 30.608 210.085 30.56C209.077 30.344 207.397 30.272 206.653 30.272ZM217.958 30.272C212.942 30.272 211.646 31.64 211.646 37.208C211.646 42.752 212.942 44.12 217.958 44.12C219.614 44.12 221.51 44.024 222.854 43.736C223.07 43.688 223.19 43.616 223.19 43.328V40.88C223.19 40.64 223.07 40.52 222.83 40.52H218.414C216.542 40.52 215.942 40.304 215.918 38.528H223.406C223.958 38.528 224.126 38.384 224.126 37.88V37.136C224.126 31.64 222.902 30.272 217.958 30.272ZM217.958 33.872C219.35 33.872 219.926 34.352 219.926 35.984H215.894C215.894 34.352 216.542 33.872 217.958 33.872ZM240.084 30.272C238.812 30.272 237.156 30.512 235.764 31.064C234.9 30.632 233.316 30.272 231.3 30.272C230.004 30.272 227.772 30.368 226.428 30.704C226.212 30.752 226.092 30.8 226.092 31.064V43.616C226.116 43.88 226.212 44 226.452 44H229.932C230.172 44 230.292 43.88 230.292 43.616V33.872H231.54C233.172 33.872 233.46 34.016 233.484 36.224V43.616C233.484 43.88 233.58 44 233.82 44H237.324C237.588 44 237.66 43.88 237.66 43.616L237.684 36.104C237.684 35.264 237.612 34.568 237.42 33.992C237.9 33.92 238.428 33.872 238.932 33.872C240.66 33.872 240.876 34.064 240.876 37.4V43.616C240.876 43.88 240.972 44 241.212 44H244.716C244.956 44 245.052 43.88 245.052 43.616V35.168C245.076 31.544 243.66 30.272 240.084 30.272ZM249.65 24.512C248.09 24.512 247.202 25.328 247.202 26.696C247.202 28.088 248.09 28.904 249.65 28.904C251.162 28.904 252.05 28.088 252.05 26.696C252.05 25.328 251.162 24.512 249.65 24.512ZM247.898 30.392C247.658 30.392 247.538 30.536 247.538 30.776V43.616C247.538 43.88 247.658 44 247.898 44H251.354C251.594 44 251.714 43.88 251.714 43.616V30.776C251.714 30.536 251.594 30.392 251.354 30.392H247.898ZM262.736 30.392C262.496 30.392 262.376 30.512 262.376 30.776V40.52H260.768C258.608 40.52 258.416 40.328 258.416 36.992V30.776C258.416 30.512 258.296 30.392 258.056 30.392H254.6C254.36 30.392 254.216 30.512 254.216 30.776V38.264C254.216 43.088 255.368 44.12 260.12 44.12C262.256 44.12 264.728 43.976 266.24 43.688C266.504 43.64 266.576 43.592 266.576 43.28V30.776C266.576 30.512 266.48 30.392 266.24 30.392H262.736ZM283.116 30.272C281.844 30.272 280.188 30.512 278.796 31.064C277.932 30.632 276.348 30.272 274.332 30.272C273.036 30.272 270.804 30.368 269.46 30.704C269.244 30.752 269.124 30.8 269.124 31.064V43.616C269.148 43.88 269.244 44 269.484 44H272.964C273.204 44 273.324 43.88 273.324 43.616V33.872H274.572C276.204 33.872 276.492 34.016 276.516 36.224V43.616C276.516 43.88 276.612 44 276.852 44H280.356C280.62 44 280.692 43.88 280.692 43.616L280.716 36.104C280.716 35.264 280.644 34.568 280.452 33.992C280.932 33.92 281.46 33.872 281.964 33.872C283.692 33.872 283.908 34.064 283.908 37.4V43.616C283.908 43.88 284.004 44 284.244 44H287.748C287.988 44 288.084 43.88 288.084 43.616V35.168C288.108 31.544 286.692 30.272 283.116 30.272Z"
        fill="url(#paint2_linear_5068_7150)"
        style="mix-blend-mode:screen"/>

</svg>