<svg width="29" height="29" viewBox="0 0 29 29" fill="none" xmlns="http://www.w3.org/2000/svg">
<circle cx="14.5" cy="14.5" r="13.7564" stroke="white" stroke-width="1.48718"/>
<g clip-path="url(#clip0)">
<path d="M21.4502 21.9658C21.5076 22.4214 21.1299 22.7955 20.6707 22.7955C20.2115 22.7955 19.8466 22.4204 19.7699 21.9677C19.3611 19.555 17.1957 17.709 14.5923 17.709C11.989 17.709 9.82432 19.5555 9.41557 21.9677C9.33885 22.4204 8.97393 22.7955 8.51475 22.7955C8.05558 22.7955 7.67786 22.4214 7.73525 21.9658C8.15515 18.6331 11.071 16.0461 14.5931 16.0461C18.1145 16.0461 21.0303 18.6331 21.4502 21.9658Z" fill="white"/>
<path d="M14.5953 15.5056C12.082 15.5056 10.0359 13.4587 10.0359 10.9453C10.0351 8.43116 12.0811 6.38507 14.5953 6.38507C17.1103 6.38507 19.1564 8.43033 19.1564 10.9453C19.1564 13.4603 17.1103 15.5056 14.5953 15.5056ZM14.5953 8.04788C12.9974 8.04788 11.6979 9.34736 11.6979 10.9453C11.6979 12.5433 12.9974 13.8428 14.5953 13.8428C16.1941 13.8428 17.4936 12.5433 17.4936 10.9453C17.4936 9.34736 16.1924 8.04788 14.5953 8.04788Z" fill="white"/>
</g>
<defs>
<clipPath id="clip0">
<rect width="16.4103" height="16.4103" fill="white" transform="translate(6.38452 6.38458)"/>
</clipPath>
</defs>
</svg>
