<svg width="44" height="32" viewBox="0 0 44 32" fill="none" xmlns="http://www.w3.org/2000/svg">
    <path d="M41.088 0C28.928 2.304 23.296 11.776 23.296 20.224C23.296 27.52 28.416 31.488 34.432 32C38.144 31.616 43.008 26.624 41.6 21.12C39.04 20.224 35.072 18.432 33.152 16.896C32.256 10.368 36.608 6.4 43.136 4.35201L41.088 0ZM17.792 0C5.632 2.304 0 11.776 0 20.224C0 27.52 5.12 31.488 11.136 32C14.848 31.616 19.712 26.624 18.304 21.12C15.744 20.224 11.776 18.432 9.856 16.896C8.96 10.368 13.312 6.4 19.84 4.35201L17.792 0Z"
          fill="#FFD84E"/>
</svg>
