<svg width="22" height="25" viewBox="0 0 22 25" fill="none" xmlns="http://www.w3.org/2000/svg">
<g clip-path="url(#clip0_2584_1816)">
<path d="M13.0194 0.00130451C13.5375 0.0991596 14.0639 0.163744 14.5717 0.300741C17.6122 1.12272 19.9413 3.84375 20.3316 7.0149C20.3813 7.41023 20.4077 7.80824 20.4105 8.20678C20.4189 10.233 20.4144 12.2599 20.4144 14.2862V14.5406H18.9725V14.2647C18.9725 12.2221 18.9783 10.1789 18.9725 8.13632C18.9629 5.40812 17.399 3.01589 14.9601 1.97798C14.8855 1.94266 14.8035 1.92653 14.7213 1.93101C14.8626 2.0667 15.0083 2.19848 15.1444 2.33874C16.8636 4.11709 17.6693 6.25294 17.4812 8.7378C17.261 11.6421 14.9486 14.1453 12.113 14.6091C8.61482 15.1786 5.39529 12.9965 4.64354 9.4802C4.20314 7.41872 4.65959 5.49293 5.75609 3.71784C6.17145 3.0459 6.68888 2.45942 7.26217 1.89643C7.18898 1.92318 7.11259 1.94405 7.04261 1.97667C4.49075 3.17833 3.11884 5.20524 3.03987 8.06195C2.98338 10.1195 3.02896 12.1797 3.02832 14.2392V14.5406H1.58643V14.3097C1.58643 12.2501 1.57873 10.1913 1.58643 8.13241C1.60762 4.40348 3.95854 1.27538 7.4997 0.281823C7.98247 0.146783 8.48706 0.0919837 8.98139 0H10.137C10.7064 0.141064 11.3009 0.141064 11.8703 0L13.0194 0.00130451ZM16.0695 8.04173C16.0542 6.71592 15.6509 5.42474 14.911 4.33266C14.1711 3.24057 13.128 2.39703 11.9146 1.90948C11.2874 1.65375 10.7212 1.6544 10.0946 1.90948C7.30903 3.03612 5.55643 5.99525 5.99233 8.8898C6.19092 10.1732 6.85831 11.3334 7.86139 12.139C8.86448 12.9445 10.1295 13.3362 11.4042 13.2359C14.0505 13.0121 16.1048 10.7275 16.0695 8.04042V8.04173Z" fill="#110628"/>
<path d="M11.8657 0.000976562C11.2962 0.14204 10.7018 0.14204 10.1323 0.000976562H11.8657Z" fill="#110628"/>
<path d="M17.4001 16.0264H21.9865C22.0507 16.7675 21.8934 17.4335 21.3881 17.9835C21.3337 18.0404 21.2914 18.1081 21.264 18.1825C21.2366 18.2568 21.2247 18.3361 21.2289 18.4153C21.2328 20.5068 21.2328 22.5983 21.2289 24.6898V24.9912H18.1551V24.7126C18.1551 22.6125 18.1551 20.5127 18.1551 18.4134C18.1596 18.3378 18.1483 18.2621 18.1219 18.1913C18.0956 18.1205 18.0548 18.0561 18.0023 18.0024C17.4945 17.4531 17.327 16.7877 17.4001 16.0264Z" fill="#110628"/>
<path d="M3.84564 25H0.769275V24.7149C0.769275 22.6147 0.769275 20.515 0.769275 18.4156C0.773703 18.3364 0.761769 18.2571 0.734239 18.1829C0.706708 18.1086 0.664192 18.041 0.609422 17.9844C0.108036 17.4404 -0.0479651 16.7776 0.00852913 16.0352H4.59547C4.67572 16.7704 4.51137 17.4332 4.0087 17.9851C3.9512 18.0446 3.90654 18.1157 3.87758 18.1938C3.84862 18.2718 3.83599 18.3552 3.8405 18.4385C3.84521 20.5221 3.84521 22.6056 3.8405 24.6888L3.84564 25Z" fill="#110628"/>
</g>
<defs>
<clipPath id="clip0_2584_1816">
<rect width="22" height="25" fill="white"/>
</clipPath>
</defs>
</svg>
