<svg width="12" height="13" viewBox="0 0 12 13" fill="none" xmlns="http://www.w3.org/2000/svg">
<g clip-path="url(#clip0_3582_7670)">
<path d="M11.9963 6.02894V6.98946C11.949 7.06867 11.9612 7.15915 11.9496 7.24462C11.887 7.70359 11.7887 8.15255 11.6168 8.58428H3.29551C2.32393 8.58428 1.35245 8.58428 0.381067 8.58428C0.374491 8.57438 0.368832 8.5639 0.364161 8.55297C-0.114849 7.19735 -0.122989 5.83984 0.350699 4.48076C0.36103 4.45165 0.3651 4.41815 0.399539 4.40625C0.43836 4.40625 0.477182 4.41095 0.516004 4.41095H11.4819C11.5207 4.41095 11.5598 4.40782 11.5987 4.40625C11.6328 4.4194 11.6369 4.45165 11.6475 4.48076C11.7748 4.84016 11.8691 5.21039 11.9293 5.58687C11.9521 5.73433 11.9418 5.8868 11.9963 6.02894Z" fill="#0052B3"/>
<path d="M11.6002 4.40796C11.5614 4.40796 11.5223 4.41266 11.4834 4.41266H0.517222C0.478401 4.41266 0.439579 4.40953 0.400757 4.40796C0.432065 4.17503 0.552287 3.97403 0.65623 3.7721C1.02368 3.06092 1.5275 2.42902 2.13897 1.91241C2.50973 1.59632 2.91855 1.32781 3.35591 1.11312C3.95667 0.813675 4.60566 0.622887 5.27289 0.549578C5.30608 0.546134 5.33551 0.540499 5.34428 0.50293H6.65357C6.66328 0.540499 6.69177 0.546447 6.72496 0.549578C7.03825 0.583966 7.34793 0.645776 7.65042 0.734295C8.50969 0.974533 9.30231 1.40887 9.9672 2.00383C10.6118 2.57708 11.1237 3.25615 11.47 4.04855C11.5226 4.1622 11.5955 4.27271 11.6002 4.40796Z" fill="white"/>
<path d="M11.6168 8.58398C11.3615 9.29844 10.9653 9.95437 10.4518 10.5129C9.47082 11.5911 8.2569 12.2344 6.81006 12.4427C4.2137 12.8209 1.57068 11.35 0.521555 8.94308C0.470523 8.82568 0.42763 8.70483 0.380981 8.58555C1.35257 8.58555 2.32405 8.58555 3.29543 8.58555L11.6168 8.58398Z" fill="#D70027"/>
</g>
<defs>
<clipPath id="clip0_3582_7670">
<rect width="11.9959" height="12" fill="white" transform="translate(0 0.5)"/>
</clipPath>
</defs>
</svg>
