<svg width="30" height="24" viewBox="0 0 30 24" fill="none" xmlns="http://www.w3.org/2000/svg">
<g clip-path="url(#clip0_3610_5038)">
<path d="M15.9433 8.08091V8.50433C15.9433 13.2273 15.9433 17.9501 15.9433 22.6725C15.9488 22.8063 15.945 22.9403 15.9318 23.0735C15.8878 23.3307 15.7525 23.5629 15.5511 23.7268C15.3498 23.8907 15.0962 23.9751 14.8377 23.9641C14.5792 23.9531 14.3335 23.8476 14.1465 23.6673C13.9595 23.4869 13.844 23.244 13.8215 22.984C13.8127 22.8399 13.8215 22.694 13.8215 22.5489V8.08717C11.3812 7.31641 10.4947 5.01041 10.9188 3.16901C11.13 2.25312 11.6471 1.43838 12.3833 0.861521C13.1194 0.284666 14.0299 -0.0191964 14.9619 0.000940149C16.8636 0.0358525 18.5115 1.41534 18.8664 3.25584C19.2649 5.2915 18.1512 7.40862 15.9433 8.08091ZM12.943 4.11612C12.9441 4.50247 13.0586 4.87983 13.2722 5.20053C13.4858 5.52122 13.7888 5.77087 14.143 5.9179C14.4972 6.06493 14.8866 6.10276 15.2621 6.02661C15.6375 5.95046 15.9822 5.76373 16.2525 5.49004C16.5229 5.21635 16.7067 4.86797 16.7808 4.48892C16.8549 4.10988 16.816 3.71717 16.6689 3.36043C16.5219 3.00369 16.2733 2.69893 15.9546 2.48465C15.6359 2.27037 15.2614 2.1562 14.8784 2.15655C14.6235 2.15571 14.3708 2.20589 14.1352 2.30416C13.8995 2.40243 13.6855 2.54685 13.5055 2.72908C13.3256 2.9113 13.1832 3.12771 13.0866 3.36579C12.9901 3.60386 12.9413 3.85889 12.943 4.11612Z" fill="#A09BAE"/>
<path d="M26.7652 19.6063C26.7652 20.702 26.7741 21.795 26.7652 22.8881C26.7563 23.6704 26.0508 24.1807 25.3525 23.9309C25.1414 23.8574 24.9589 23.7182 24.8313 23.5334C24.7037 23.3485 24.6376 23.1276 24.6425 22.9024C24.6372 21.898 24.6345 20.8936 24.6425 19.8883C24.6425 19.6806 24.5937 19.5803 24.3843 19.5087C23.5861 19.2361 22.8925 18.7183 22.4007 18.0279C21.9089 17.3376 21.6437 16.5093 21.6421 15.6592C21.6405 14.809 21.9027 13.9798 22.392 13.2876C22.8812 12.5954 23.5729 12.075 24.3701 11.7994C24.5928 11.7224 24.6425 11.6149 24.6425 11.3947C24.6354 8.00107 24.6425 4.60742 24.6345 1.21465C24.6345 0.72051 24.8023 0.34005 25.2557 0.12431C25.955 -0.21049 26.7341 0.287236 26.7643 1.08843C26.7803 1.53602 26.7643 1.98362 26.7643 2.43121C26.7643 5.41159 26.7643 8.39197 26.7643 11.3723C26.7643 11.5738 26.7776 11.7062 27.0172 11.7904C28.6953 12.3785 29.7682 13.9013 29.7611 15.6585C29.754 17.4158 28.6749 18.9179 26.995 19.5177C26.9223 19.54 26.8522 19.5705 26.7652 19.6063ZM27.6384 15.6478C27.6391 15.2612 27.5262 14.8832 27.314 14.5613C27.1018 14.2395 26.7997 13.9884 26.4461 13.8396C26.0924 13.6909 25.703 13.6513 25.327 13.7257C24.951 13.8002 24.6053 13.9854 24.3336 14.258C24.062 14.5305 23.8765 14.8782 23.8006 15.2571C23.7247 15.6359 23.7619 16.029 23.9074 16.3866C24.0529 16.7442 24.3002 17.0502 24.618 17.2661C24.9359 17.4819 25.3101 17.5979 25.6932 17.5993C25.9485 17.6007 26.2015 17.5511 26.4376 17.4535C26.6738 17.3558 26.8885 17.212 27.0693 17.0302C27.2501 16.8485 27.3935 16.6325 27.4912 16.3946C27.5888 16.1567 27.6389 15.9017 27.6384 15.6442V15.6478Z" fill="#A09BAE"/>
<path d="M5.12051 4.45941C5.12051 5.56497 5.12583 6.67053 5.11518 7.77161C5.11518 7.98466 5.17641 8.07328 5.3814 8.1449C6.17667 8.41939 6.86728 8.93725 7.35703 9.62635C7.84679 10.3154 8.11131 11.1415 8.11375 11.9894C8.1162 12.8373 7.85644 13.6648 7.37066 14.3568C6.88488 15.0487 6.19726 15.5706 5.40359 15.8498C5.16399 15.933 5.11341 16.0458 5.1143 16.2768C5.12139 18.4772 5.1143 20.6766 5.1143 22.877C5.1143 23.3488 4.90486 23.6943 4.48423 23.8913C4.0636 24.0882 3.68557 24.0023 3.34392 23.7051C3.06439 23.4607 2.98896 23.1348 2.98896 22.7705C2.9934 20.6149 2.98896 18.4601 2.99783 16.3045C2.99783 16.036 2.92418 15.9259 2.67216 15.8337C1.89087 15.5523 1.21466 15.0347 0.735822 14.3513C0.256981 13.6679 -0.00117099 12.8522 -0.00340337 12.0153C-0.00563574 11.1785 0.24816 10.3613 0.723349 9.67536C1.19854 8.9894 1.87197 8.46807 2.65175 8.1825C2.93838 8.07597 2.99961 7.9408 2.99783 7.65702C2.98541 5.49067 2.98541 3.32432 2.99783 1.15796C2.99783 0.352292 3.68912 -0.171398 4.40792 0.078359C4.84718 0.230541 5.11784 0.624421 5.11784 1.13826C5.12317 2.24829 5.11962 3.35386 5.12051 4.45941ZM4.07603 13.9627C4.45881 13.9599 4.83218 13.8428 5.14906 13.6262C5.46594 13.4095 5.71215 13.1031 5.85661 12.7455C6.00107 12.3879 6.03732 11.9952 5.9608 11.6169C5.88428 11.2385 5.69841 10.8915 5.42663 10.6196C5.15485 10.3476 4.80933 10.163 4.43365 10.0889C4.05798 10.0148 3.66897 10.0546 3.31569 10.2033C2.9624 10.352 2.66067 10.6028 2.44854 10.9243C2.23642 11.2457 2.1234 11.6233 2.12374 12.0094C2.12361 12.2673 2.17414 12.5227 2.27241 12.7608C2.37067 12.9989 2.51472 13.215 2.69625 13.3966C2.87777 13.5782 3.09317 13.7218 3.32999 13.8189C3.56682 13.9161 3.82038 13.965 4.07603 13.9627Z" fill="#A09BAE"/>
</g>
<defs>
<clipPath id="clip0_3610_5038">
<rect width="29.76" height="24" fill="white"/>
</clipPath>
</defs>
</svg>
