<svg width="32" height="32" viewBox="0 0 32 32" fill="none" xmlns="http://www.w3.org/2000/svg">
<rect width="32" height="32" rx="16" fill="#F8C925"/>
<path d="M13.8698 20.6255C14.191 22.1746 14.4512 23.2414 14.6504 23.826C15.2763 25.6631 15.2289 26.1947 16.1522 24.5587C17.0755 22.9228 21.4917 14.9174 22.479 13.1346C23.766 10.8106 23.8457 10.8795 21.0186 11.0326C18.8653 11.1491 9.87506 11.6578 8.14103 11.7381C6.407 11.8185 6.76446 12.0412 8.14126 13.4092C8.58503 13.8502 9.439 14.5569 10.7032 15.5295C11.5874 16.2097 12.762 16.3804 13.8031 15.9799L18.1874 14.2937C18.2287 14.2781 18.2748 14.2989 18.2905 14.3402C18.3019 14.3705 18.294 14.4046 18.2705 14.4267L14.8237 17.6328C14.0044 18.395 13.6427 19.5298 13.8698 20.6255Z" fill="white"/>
</svg>
