<svg width="25" height="25" viewBox="0 0 25 25" fill="none" xmlns="http://www.w3.org/2000/svg">
<g clip-path="url(#clip0_2584_1828)">
<path d="M11.607 6.72593C11.607 8.17568 11.607 9.62568 11.607 11.0759C11.607 12.4473 10.6649 13.3904 9.29648 13.3919C6.96117 13.3919 4.62785 13.3919 2.29651 13.3919C0.947497 13.3919 0.00393203 12.4414 0.00244141 11.0863C0.00244141 8.15808 0.00244141 5.23007 0.00244141 2.30231C0.00244141 0.948005 0.947498 0.00274202 2.29949 0.00125459C4.63481 -0.00172028 6.96813 -0.00172028 9.29947 0.00125459C10.6686 0.00125459 11.6055 0.944287 11.6099 2.31867C11.6104 3.78826 11.6094 5.25734 11.607 6.72593ZM1.78672 6.69544C1.78672 8.14569 1.78672 9.59593 1.78672 11.0462C1.78672 11.4649 1.92311 11.6062 2.33005 11.6062C4.64599 11.6062 6.96117 11.6062 9.27562 11.6062C9.6833 11.6062 9.82119 11.4649 9.82119 11.0484C9.82119 8.14792 9.82119 5.24743 9.82119 2.34694C9.82119 1.92079 9.68479 1.78766 9.24953 1.78766H2.36061C1.91342 1.78766 1.78672 1.91855 1.78672 2.37296V6.69544Z" fill="#A09BAE"/>
<path d="M13.3926 18.2877C13.3926 16.8375 13.3926 15.3872 13.3926 13.937C13.3926 12.5462 14.3287 11.6091 15.718 11.6084C18.0419 11.6084 20.3657 11.6084 22.6896 11.6084C24.0588 11.6084 24.9964 12.5522 25.0001 13.9266C25.0001 16.8449 25.0001 19.7635 25.0001 22.6823C25.0001 24.0537 24.058 24.9968 22.6896 24.9983C20.3543 24.9983 18.021 24.9983 15.6896 24.9983C14.3406 24.9983 13.3978 24.0478 13.3956 22.6927C13.3916 21.2246 13.3906 19.7563 13.3926 18.2877ZM23.2136 18.3093C23.2136 16.8496 23.2136 15.3899 23.2136 13.9303C23.2136 13.5361 23.0705 13.3941 22.6747 13.3933H15.7291C15.317 13.3933 15.1791 13.5324 15.1784 13.9459C15.1784 16.8464 15.1784 19.7469 15.1784 22.6474C15.1784 23.078 15.3133 23.2126 15.7448 23.2126H22.6345C23.0816 23.2126 23.2128 23.0817 23.2128 22.6318C23.2138 21.1909 23.2141 19.7501 23.2136 18.3093Z" fill="#A09BAE"/>
<path d="M19.1903 9.82175C18.0284 9.82175 16.8664 9.82175 15.7045 9.82175C14.3354 9.82175 13.394 8.87723 13.394 7.50656C13.394 5.77816 13.394 4.04952 13.394 2.32063C13.394 0.94624 14.3331 0.00395143 15.7045 0.00320771C18.0398 0.000232847 20.3729 0.000232847 22.7037 0.00320771C24.055 0.00320771 24.9985 0.949959 25.0008 2.30352C25.0037 4.04134 25.0037 5.7794 25.0008 7.51771C25.0008 8.87276 24.0572 9.81803 22.7067 9.82323C21.5328 9.82621 20.3612 9.82175 19.1903 9.82175ZM19.1963 1.78961C18.0346 1.78961 16.8726 1.78961 15.7105 1.78961C15.3289 1.78961 15.1798 1.93389 15.1791 2.30501C15.1791 4.04382 15.1791 5.78213 15.1791 7.51994C15.1791 7.8918 15.3281 8.04055 15.7082 8.04055C18.0331 8.04055 20.3572 8.04055 22.6806 8.04055C23.0704 8.04055 23.2128 7.8918 23.2128 7.49763C23.2128 5.77767 23.2128 4.0577 23.2128 2.33773C23.2128 1.92943 23.0719 1.79259 22.6545 1.79259L19.1963 1.78961Z" fill="#A09BAE"/>
<path d="M5.82217 15.1807C6.97492 15.1807 8.12743 15.1807 9.27968 15.1807C10.6667 15.1807 11.6021 16.1207 11.6036 17.5115C11.6036 19.231 11.6036 20.9504 11.6036 22.6699C11.6036 24.0599 10.666 24.9992 9.27893 25C6.95505 25 4.63141 25 2.30803 25C0.939633 25 -0.00244141 24.0547 -0.00244141 22.6833C-0.00244141 20.9544 -0.00244141 19.2255 -0.00244141 17.4966C-0.00244141 16.1245 0.938143 15.1837 2.30803 15.1807C3.48264 15.1762 4.65427 15.1807 5.82217 15.1807ZM5.7864 23.2128H9.25061C9.68662 23.2128 9.82376 23.0797 9.82376 22.6543C9.82376 20.9437 9.82376 19.2332 9.82376 17.5227C9.82376 17.1054 9.68737 16.9641 9.27893 16.9641H2.33188C1.92345 16.9641 1.78705 17.1047 1.78631 17.5219C1.78631 19.2325 1.78631 20.943 1.78631 22.6535C1.78631 23.0797 1.9227 23.2121 2.35871 23.2128H5.7864Z" fill="#A09BAE"/>
</g>
<defs>
<clipPath id="clip0_2584_1828">
<rect width="25" height="25" fill="white"/>
</clipPath>
</defs>
</svg>
