<svg width="22" height="22" viewBox="0 0 22 22" fill="none" xmlns="http://www.w3.org/2000/svg">
<g clip-path="url(#clip0_4495_8812)">
<path d="M10.9958 22.001H1.90201C0.766567 22.001 0.00320389 21.2363 0.00256348 20.0983C0.00256348 17.244 0.00256348 14.1707 0.00256348 11.0365C0.00256348 10.5088 0.331739 10.1002 0.840225 9.99709C0.902444 9.98477 0.965715 9.97855 1.02914 9.97852C1.22506 9.9777 1.41686 10.0348 1.58046 10.1425C1.74407 10.2503 1.87219 10.404 1.94876 10.5844C2.01276 10.7551 2.04469 10.9361 2.04292 11.1185C2.04804 13.3791 2.04739 15.6775 2.04739 17.9004V19.8108C2.04739 19.8447 2.06089 19.8773 2.08491 19.9013C2.10893 19.9253 2.1415 19.9388 2.17547 19.9388H19.8201C19.854 19.9388 19.8866 19.9253 19.9106 19.9013C19.9346 19.8773 19.9481 19.8447 19.9481 19.8108V17.1934C19.9481 15.1441 19.9481 13.0948 19.9481 11.0455C19.9481 10.4473 20.3926 9.97917 20.9593 9.97917C21.0608 9.97949 21.1617 9.99415 21.2591 10.0227C21.7029 10.1508 21.9898 10.5498 21.9911 11.0352C21.9911 12.1751 21.9911 13.3149 21.9911 14.4544V17.0916C21.9911 18.0932 21.9911 19.0946 21.9911 20.0957C21.9911 21.2337 21.2264 21.9984 20.0916 21.999L10.9958 22.001Z" fill="white"/>
<path d="M10.9645 17.3948C10.7097 17.3863 10.4672 17.2832 10.2844 17.1056C10.1015 16.928 9.99146 16.6886 9.97567 16.4342C9.97182 16.3701 9.97567 16.299 9.97567 16.2273V3.79952C9.97572 3.7742 9.96827 3.74942 9.95425 3.72834C9.94023 3.70725 9.92027 3.69079 9.8969 3.68104C9.88122 3.67473 9.86448 3.67147 9.84758 3.67144C9.81376 3.67141 9.78131 3.68476 9.75729 3.70858L9.03875 4.43032C8.48736 4.98428 7.96607 5.50813 7.43773 6.03583C7.20334 6.26958 6.93181 6.39318 6.65323 6.39318C6.46111 6.39115 6.27343 6.33514 6.11162 6.23155C5.9498 6.12796 5.82037 5.98097 5.73809 5.80734C5.65582 5.63372 5.62403 5.44046 5.64633 5.24963C5.66864 5.0588 5.74415 4.87809 5.86424 4.72811C5.91227 4.6692 5.96734 4.61476 6.02498 4.55648L6.03586 4.54559C7.40848 3.17256 8.78109 1.79973 10.1537 0.42712C10.438 0.142778 10.723 -0.00195312 11.001 -0.00195312C11.2789 -0.00195312 11.5632 0.142139 11.8469 0.42584L13.1707 1.75021C14.0916 2.6724 15.0439 3.62533 15.9834 4.56033C16.3279 4.90295 16.4355 5.26477 16.3132 5.67015C16.254 5.87872 16.1279 6.06206 15.9543 6.192C15.7808 6.32193 15.5693 6.39126 15.3525 6.38934C15.0758 6.38789 14.8107 6.27745 14.6148 6.08194C14.1153 5.59523 13.6151 5.09186 13.131 4.60899C12.9021 4.37845 12.6731 4.14854 12.4438 3.91928C12.4079 3.88277 12.3695 3.84819 12.3215 3.80464C12.2965 3.78287 12.2696 3.75789 12.2376 3.72907C12.214 3.70734 12.1832 3.69523 12.1511 3.69513C12.1335 3.69498 12.116 3.69869 12.0999 3.70602C12.0771 3.71597 12.0577 3.73236 12.044 3.75317C12.0304 3.77399 12.0231 3.79833 12.0231 3.82321V7.17127C12.0231 10.2136 12.0231 13.2564 12.0231 16.2997C12.0231 16.9356 11.5927 17.3973 10.9984 17.3973L10.9645 17.3948Z" fill="white"/>
</g>
<defs>
<clipPath id="clip0_4495_8812">
<rect width="21.9917" height="22" fill="white"/>
</clipPath>
</defs>
</svg>
