<svg width="22" height="22" viewBox="0 0 22 22" fill="none" xmlns="http://www.w3.org/2000/svg">
<path fill-rule="evenodd" clip-rule="evenodd" d="M14.6428 22H12C11.4477 22 11 21.5523 11 21C11 20.4477 11.4477 20 12 20H14.6C15.7366 20 16.5289 19.9992 17.1458 19.9488C17.7509 19.8994 18.0986 19.8072 18.362 19.673C18.9265 19.3854 19.3854 18.9265 19.673 18.362C19.8072 18.0986 19.8994 17.7509 19.9488 17.1458C19.9992 16.5289 20 15.7366 20 14.6V7.4C20 6.26339 19.9992 5.47108 19.9488 4.85424C19.8994 4.24907 19.8072 3.90138 19.673 3.63803C19.3854 3.07354 18.9265 2.6146 18.362 2.32698C18.0986 2.1928 17.7509 2.10062 17.1458 2.05118C16.5289 2.00078 15.7366 2 14.6 2H12C11.4477 2 11 1.55228 11 1C11 0.447716 11.4477 2.44024e-07 12 2.44024e-07H14.6428H14.6429C15.7267 -9.29327e-06 16.6008 -1.69836e-05 17.3086 0.0578177C18.0375 0.117367 18.6777 0.24318 19.27 0.544968C20.2108 1.02433 20.9757 1.78924 21.455 2.73005C21.7568 3.32234 21.8826 3.96253 21.9422 4.69138C22 5.39926 22 6.27341 22 7.35719V14.6428C22 15.7266 22 16.6007 21.9422 17.3086C21.8826 18.0375 21.7568 18.6777 21.455 19.27C20.9757 20.2108 20.2108 20.9757 19.27 21.455C18.6777 21.7568 18.0375 21.8826 17.3086 21.9422C16.6007 22 15.7266 22 14.6428 22ZM0 11C0 10.4477 0.447715 10 1 10H10.5858L8.29289 7.70711C7.90237 7.31658 7.90237 6.68342 8.29289 6.29289C8.68342 5.90237 9.31658 5.90237 9.70711 6.29289L13.7064 10.2922C13.7088 10.2946 13.7112 10.297 13.7136 10.2995C13.8063 10.3938 13.8764 10.502 13.9241 10.6172C13.9727 10.7343 13.9996 10.8625 14 10.997C14 10.998 14 10.999 14 11C14 11.001 14 11.002 14 11.003C13.9992 11.2746 13.8901 11.5208 13.7136 11.7005C13.7112 11.703 13.7088 11.7054 13.7064 11.7078L9.70711 15.7071C9.31658 16.0976 8.68342 16.0976 8.29289 15.7071C7.90237 15.3166 7.90237 14.6834 8.29289 14.2929L10.5858 12H1C0.447715 12 0 11.5523 0 11Z" fill="#FF3850"/>
</svg>
