<svg width="13" height="11" viewBox="0 0 13 11" fill="none" xmlns="http://www.w3.org/2000/svg">
<g clip-path="url(#clip0_3906_5480)">
<path d="M0.996476 4.31032C1.04345 4.06164 1.07445 3.80896 1.14021 3.56521C1.53476 2.10581 2.84085 0.987844 4.363 0.800489C4.55276 0.776627 4.7438 0.763969 4.9351 0.762587C5.9077 0.75858 6.88062 0.760737 7.85322 0.760737H7.97534V1.45284H7.84288C6.86246 1.45284 5.88171 1.45007 4.90128 1.45284C3.59175 1.45747 2.44348 2.20812 1.94528 3.37878C1.92833 3.4146 1.92058 3.45396 1.92273 3.49341C1.98786 3.42562 2.05112 3.35567 2.11844 3.29034C2.97205 2.46512 3.99726 2.07839 5.18999 2.16868C6.58408 2.27437 7.78558 3.38433 8.00822 4.74543C8.28159 6.42454 7.23415 7.96991 5.54634 8.33075C4.55683 8.54214 3.63246 8.32305 2.78041 7.79673C2.45788 7.59735 2.17637 7.34898 1.90614 7.07381C1.91897 7.10894 1.929 7.14561 1.94465 7.17919C2.52145 8.40409 3.49436 9.06261 4.86559 9.10051C5.85322 9.12763 6.8421 9.10575 7.83067 9.10606H7.97534V9.79816H7.86449C6.87592 9.79816 5.88766 9.80186 4.8994 9.79816C3.10952 9.78799 1.60803 8.65955 1.13112 6.95979C1.06631 6.72806 1.04 6.48586 0.99585 6.24858V5.69391C1.06356 5.42058 1.06356 5.13524 0.99585 4.86191L0.996476 4.31032ZM4.85588 2.8463C4.21949 2.85363 3.59972 3.0472 3.07552 3.40237C2.55133 3.75754 2.14642 4.25823 1.9124 4.84064C1.78965 5.14171 1.78996 5.4135 1.9124 5.71425C2.45319 7.05131 3.87357 7.89256 5.26296 7.68333C5.879 7.58801 6.43589 7.26766 6.82255 6.78618C7.20921 6.3047 7.39721 5.69747 7.34907 5.08562C7.24166 3.81543 6.14506 2.82935 4.85525 2.8463H4.85588Z" fill="white"/>
<path d="M0.996582 4.86428C1.06429 5.13762 1.06429 5.42296 0.996582 5.69629V4.86428Z" fill="white"/>
<path d="M8.68872 2.20699V0.00555587C9.04444 -0.0252595 9.36416 0.0502379 9.62813 0.292754C9.65545 0.318888 9.68797 0.33917 9.72365 0.352323C9.75933 0.365476 9.79738 0.371213 9.83543 0.369175C10.8393 0.367326 11.8433 0.367326 12.8472 0.369175H12.9918V1.84461H12.8581C11.85 1.84461 10.8422 1.84461 9.83449 1.84461C9.79821 1.84247 9.76189 1.8479 9.72789 1.86054C9.69389 1.87318 9.66299 1.89274 9.63721 1.91795C9.37355 2.1617 9.05415 2.24212 8.68872 2.20699Z" fill="white"/>
<path d="M12.9958 8.71347V10.1901H12.8589C11.8508 10.1901 10.8429 10.1901 9.83526 10.1901C9.79723 10.188 9.75917 10.1937 9.72352 10.2069C9.68788 10.2202 9.65543 10.2406 9.62828 10.2669C9.36712 10.5075 9.04898 10.5824 8.69263 10.5553V8.35355C9.04553 8.31503 9.36368 8.39391 9.62859 8.6352C9.65717 8.6628 9.69129 8.68424 9.72876 8.69814C9.76623 8.71204 9.80624 8.7181 9.84622 8.71593C10.8464 8.71367 11.8464 8.71367 12.8464 8.71593L12.9958 8.71347Z" fill="white"/>
</g>
<defs>
<clipPath id="clip0_3906_5480">
<rect width="10.56" height="12" fill="white" transform="translate(0.99585 10.5596) rotate(-90)"/>
</clipPath>
</defs>
</svg>
