<svg width="37" height="47" viewBox="0 0 37 47" fill="none" xmlns="http://www.w3.org/2000/svg">
<g clip-path="url(#clip0_3023_11393)">
<path d="M21.8961 0.901819C22.7674 1.08221 23.6528 1.20127 24.5068 1.45382C29.6202 2.96913 33.5373 7.98529 34.1938 13.8313C34.2774 14.56 34.3218 15.2938 34.3266 16.0285C34.3406 19.7638 34.3331 23.5004 34.3331 27.2357V27.7048H31.9081V27.196C31.9081 23.4306 31.9178 19.664 31.9081 15.8986C31.8919 10.8692 29.2618 6.45916 25.16 4.54578C25.0345 4.48068 24.8966 4.45094 24.7584 4.45919C24.9959 4.70933 25.241 4.95226 25.4699 5.21083C28.3613 8.48919 29.7163 12.4266 29.4 17.0074C29.0296 22.3615 25.1406 26.976 20.3716 27.831C14.4883 28.8809 9.07368 24.8581 7.80936 18.376C7.06869 14.5757 7.83635 11.0255 9.68047 7.75318C10.379 6.51448 11.2493 5.43332 12.2134 4.39545C12.0903 4.44476 11.9619 4.48324 11.8442 4.54337C7.5524 6.75861 5.24509 10.4952 5.11229 15.7615C5.01728 19.5546 5.09394 23.3524 5.09286 27.1491V27.7048H2.66787V27.279C2.66787 23.4823 2.65491 19.6868 2.66787 15.8914C2.7035 9.01714 6.65733 3.25055 12.6129 1.41895C13.4248 1.17 14.2735 1.06898 15.1048 0.899414H17.0483C18.006 1.15946 19.0058 1.15946 19.9635 0.899414L21.8961 0.901819ZM27.0257 15.7242C27 13.2801 26.3218 10.8998 25.0774 8.88658C23.8329 6.87335 22.0786 5.3183 20.038 4.4195C18.9831 3.94807 18.0308 3.94927 16.977 4.4195C12.2922 6.49644 9.34469 11.9515 10.0778 17.2876C10.4118 19.6536 11.5342 21.7924 13.2212 23.2773C14.9082 24.7623 17.0358 25.4844 19.1796 25.2995C23.6301 24.887 27.0851 20.6754 27.0257 15.7218V15.7242Z" fill="#110628"/>
<path d="M19.9562 0.901611C18.9985 1.16415 17.9987 1.16415 17.041 0.901611H19.9562Z" fill="#110628"/>
<path d="M29.2638 30.4443H36.9772C37.0852 31.8105 36.8206 33.0384 35.9709 34.0522C35.8794 34.1571 35.8083 34.282 35.7622 34.4191C35.7161 34.5561 35.696 34.7023 35.7032 34.8484C35.7096 38.704 35.7096 42.5596 35.7032 46.4152V46.9709H30.5336V46.4573C30.5336 42.5857 30.5336 38.7148 30.5336 34.8448C30.541 34.7054 30.522 34.5659 30.4777 34.4353C30.4335 34.3048 30.3649 34.1861 30.2766 34.0871C29.4225 33.0745 29.1407 31.8478 29.2638 30.4443Z" fill="#110628"/>
<path d="M6.46689 46.9865H1.293V46.4609C1.293 42.5893 1.293 38.7184 1.293 34.8484C1.30045 34.7023 1.28038 34.5561 1.23408 34.4192C1.18778 34.2823 1.11627 34.1577 1.02416 34.0534C0.18092 33.0504 -0.0814453 31.8286 0.0135676 30.46H7.72797C7.86293 31.8153 7.58653 33.0372 6.74113 34.0546C6.64442 34.1644 6.56931 34.2954 6.5206 34.4393C6.4719 34.5832 6.45066 34.7369 6.45825 34.8904C6.46617 38.7316 6.46617 42.5724 6.45825 46.4128L6.46689 46.9865Z" fill="#110628"/>
</g>
<defs>
<clipPath id="clip0_3023_11393">
<rect width="37" height="46.087" fill="white" transform="translate(0 0.899414)"/>
</clipPath>
</defs>
</svg>
