<svg width="12" height="13" viewBox="0 0 12 13" fill="none" xmlns="http://www.w3.org/2000/svg">
<g clip-path="url(#clip0_3023_9689)">
<path d="M9.81104 2.11614C9.81104 1.82627 9.80695 1.56679 9.81104 1.30731C9.81855 0.931744 10.1265 0.682504 10.4782 0.761032C10.5962 0.78581 10.7024 0.850007 10.7791 0.943075C10.8559 1.03614 10.8987 1.15255 10.9005 1.27317C10.905 2.0144 10.906 2.75597 10.9005 3.4972C10.8994 3.63355 10.8447 3.76399 10.7484 3.86047C10.652 3.95695 10.5217 4.01176 10.3853 4.01309C9.63988 4.01924 8.89444 4.01924 8.149 4.01309C7.85606 4.01036 7.63072 3.76249 7.63174 3.47125C7.63167 3.33127 7.68609 3.19676 7.78346 3.0962C7.88084 2.99564 8.01353 2.93692 8.15344 2.93249C8.3023 2.92702 8.4515 2.93044 8.6007 2.93044H9.06777C9.01075 2.8823 8.98173 2.85567 8.95032 2.83211C6.09739 0.65758 1.90677 2.23018 1.18637 5.74548C1.05289 6.38479 1.04849 7.04434 1.17343 7.68538C1.29836 8.32642 1.55011 8.93604 1.9139 9.47845C2.27768 10.0208 2.74617 10.4851 3.29185 10.844C3.83754 11.2028 4.44941 11.449 5.09156 11.5681C5.3787 11.6217 5.67437 11.6364 5.96731 11.6507C6.30498 11.6675 6.54193 11.8897 6.53783 12.2086C6.53373 12.5197 6.29064 12.746 5.96014 12.746C3.08366 12.746 0.572494 10.6224 0.0876737 7.779C-0.458602 4.56688 1.60086 1.52172 4.7894 0.876433C6.58665 0.511451 8.2265 0.915014 9.68916 2.02601C9.72057 2.05093 9.75471 2.07517 9.81104 2.11614Z" fill="#A09BAE"/>
<path d="M5.45297 5.10708C5.45297 4.55329 5.44853 3.99951 5.45467 3.44606C5.45732 3.31906 5.50577 3.19729 5.59109 3.10318C5.67642 3.00907 5.79287 2.94897 5.91901 2.93393C6.19898 2.90252 6.44446 3.05855 6.51582 3.32281C6.53308 3.40124 6.5402 3.48156 6.53698 3.5618C6.53835 4.50345 6.53835 5.44486 6.53698 6.38605C6.53529 6.4278 6.54279 6.46941 6.55895 6.50793C6.57512 6.54646 6.59956 6.58096 6.63053 6.609C7.09077 7.06423 7.54851 7.52196 8.00374 7.9822C8.30624 8.28948 8.19254 8.77464 7.79308 8.89824C7.59471 8.95935 7.40795 8.92248 7.26012 8.77601C6.70337 8.22472 6.14924 7.6706 5.59773 7.11362C5.48643 7.00164 5.45126 6.85994 5.45194 6.70391C5.45433 6.17164 5.45194 5.63902 5.45194 5.1064L5.45297 5.10708Z" fill="#A09BAE"/>
<path d="M10.3925 10.6037C10.3904 10.7476 10.3317 10.8848 10.229 10.9856C10.1264 11.0865 9.98807 11.1427 9.84418 11.1421C9.70035 11.14 9.56306 11.0816 9.46173 10.9795C9.36039 10.8774 9.30306 10.7397 9.302 10.5959C9.30267 10.5234 9.3176 10.4519 9.34593 10.3852C9.37426 10.3186 9.41544 10.2582 9.46712 10.2075C9.5188 10.1567 9.57996 10.1167 9.64712 10.0896C9.71428 10.0625 9.78611 10.0489 9.85852 10.0496C10.0026 10.0528 10.1396 10.1129 10.2397 10.2167C10.3397 10.3205 10.3946 10.4596 10.3925 10.6037Z" fill="#A09BAE"/>
<path d="M8.08193 11.2439C8.22587 11.2439 8.364 11.3007 8.46629 11.402C8.56858 11.5032 8.62677 11.6408 8.62821 11.7847C8.62821 11.857 8.61394 11.9286 8.5862 11.9954C8.55847 12.0622 8.51782 12.1228 8.46659 12.1739C8.41536 12.2249 8.35456 12.2653 8.28767 12.2928C8.22078 12.3203 8.14912 12.3343 8.07681 12.3341C7.93287 12.3312 7.79575 12.2723 7.69466 12.1698C7.59357 12.0673 7.53651 11.9293 7.53564 11.7854C7.53691 11.6413 7.59501 11.5036 7.69733 11.4022C7.79964 11.3008 7.93787 11.2439 8.08193 11.2439Z" fill="#A09BAE"/>
<path d="M11.4431 7.28901C11.3717 7.28892 11.3011 7.27469 11.2352 7.24712C11.1693 7.21956 11.1095 7.17922 11.0593 7.12842C11.0092 7.07762 10.9695 7.01739 10.9428 6.95119C10.916 6.88499 10.9026 6.81414 10.9034 6.74273C10.9037 6.67129 10.9181 6.60062 10.9459 6.53481C10.9737 6.46899 11.0143 6.40934 11.0653 6.35931C11.1163 6.30927 11.1767 6.26983 11.243 6.24329C11.3093 6.21674 11.3802 6.20361 11.4517 6.20465C11.5232 6.20473 11.5939 6.21896 11.6599 6.24651C11.7258 6.27406 11.7857 6.31438 11.836 6.36516C11.8863 6.41593 11.926 6.47616 11.9529 6.54237C11.9799 6.60857 11.9934 6.67946 11.9928 6.75093C11.9924 6.82243 11.9777 6.89313 11.9498 6.95895C11.9218 7.02477 11.8811 7.08441 11.83 7.13443C11.7789 7.18445 11.7184 7.22386 11.652 7.25039C11.5856 7.27692 11.5146 7.29005 11.4431 7.28901Z" fill="#A09BAE"/>
<path d="M11.0396 8.29593C11.1112 8.2957 11.1821 8.3097 11.2483 8.33712C11.3145 8.36454 11.3746 8.40483 11.425 8.45565C11.4755 8.50647 11.5154 8.56681 11.5423 8.63317C11.5693 8.69952 11.5828 8.77058 11.5821 8.8422C11.5821 8.91367 11.5679 8.98442 11.5404 9.05038C11.5129 9.11633 11.4725 9.17617 11.4217 9.22643C11.3709 9.2767 11.3107 9.31639 11.2444 9.3432C11.1782 9.37002 11.1073 9.38343 11.0358 9.38266C10.9644 9.38299 10.8936 9.36909 10.8275 9.3418C10.7615 9.3145 10.7016 9.27435 10.6512 9.22367C10.6009 9.17299 10.5611 9.11281 10.5342 9.04661C10.5073 8.98042 10.4939 8.90954 10.4947 8.8381C10.4942 8.76656 10.5081 8.69565 10.5354 8.6295C10.5626 8.56336 10.6028 8.5033 10.6535 8.45284C10.7042 8.40238 10.7645 8.36251 10.8308 8.33557C10.897 8.30864 10.968 8.29516 11.0396 8.29593Z" fill="#A09BAE"/>
</g>
<defs>
<clipPath id="clip0_3023_9689">
<rect width="11.9932" height="12" fill="white" transform="translate(0 0.746094)"/>
</clipPath>
</defs>
</svg>
