<svg width="12" height="13" viewBox="0 0 12 13" fill="none" xmlns="http://www.w3.org/2000/svg">
<g clip-path="url(#clip0_3023_9681)">
<path d="M9.13854 0.746094C9.41852 0.841751 9.53415 1.03952 9.51478 1.33089C9.50745 1.44298 9.51478 1.55595 9.51478 1.68301C9.68089 1.68301 9.83966 1.68682 9.99814 1.68301C10.4621 1.6698 10.8883 1.78189 11.2577 2.07004C11.7255 2.43447 11.9727 2.91599 11.9964 3.50783C12.0079 3.79715 11.8203 4.01106 11.5524 4.02426C11.2845 4.03747 11.0828 3.84175 11.0611 3.55302C11.0268 3.0809 10.7456 2.71235 10.3221 2.65014C10.0633 2.61229 9.79388 2.6431 9.51478 2.6431C9.51478 2.76605 9.51478 2.90513 9.51478 3.04422C9.51273 3.34821 9.31668 3.55948 9.04052 3.55625C8.76935 3.55302 8.58006 3.34381 8.578 3.04451C8.578 2.90836 8.578 2.77221 8.578 2.62784H6.44559C6.44559 2.7681 6.44559 2.90748 6.44559 3.04656C6.44325 3.34498 6.2519 3.55419 5.98043 3.55625C5.70456 3.5583 5.51087 3.34733 5.50852 3.04187C5.50852 2.90601 5.50852 2.77016 5.50852 2.62696H3.39959C3.39959 2.77016 3.39959 2.90953 3.39959 3.04921C3.39519 3.34703 3.20326 3.55771 2.93003 3.55771C2.6568 3.55771 2.4634 3.34938 2.46046 3.05273C2.459 2.91306 2.46046 2.77338 2.46046 2.60965C2.18606 2.62286 1.91724 2.60642 1.66074 2.65455C1.2305 2.73494 0.947294 3.11611 0.938197 3.57092C0.933794 3.78952 0.938197 4.00813 0.938197 4.22673C0.938197 6.41668 0.938197 8.60662 0.938197 10.7966C0.938197 11.2021 1.09286 11.5234 1.46646 11.7C1.61559 11.7659 1.77678 11.8002 1.93984 11.8007C2.56817 11.8118 3.19709 11.8024 3.82572 11.8065C4.20988 11.8089 4.43615 12.1962 4.24422 12.5146C4.20611 12.5836 4.15003 12.641 4.08192 12.6806C4.01382 12.7203 3.93623 12.7408 3.85742 12.7399C3.15307 12.7423 2.45107 12.7581 1.74937 12.7332C0.888893 12.7038 0.15109 12.0084 0.0251886 11.1545C0.0193683 11.1288 0.0115162 11.1036 0.00170898 11.0791V3.34674C0.0110495 3.32623 0.018515 3.30492 0.0240136 3.28307C0.116459 2.71059 0.410817 2.27192 0.89887 1.96264C1.24723 1.74169 1.63256 1.66922 2.03903 1.68301C2.17785 1.68741 2.31666 1.68301 2.46222 1.68301C2.46222 1.55478 2.46839 1.44181 2.46222 1.33089C2.44256 1.04099 2.55878 0.842631 2.83817 0.746974H3.0257C3.30509 0.842631 3.42131 1.0404 3.40194 1.33089C3.39431 1.44562 3.40194 1.56153 3.40194 1.67626H5.51087C5.51087 1.55595 5.51703 1.44152 5.51087 1.33089C5.4915 1.04099 5.60772 0.842631 5.88711 0.746974H6.07464C6.35403 0.842631 6.47025 1.0404 6.45088 1.33089C6.44325 1.44562 6.44941 1.56153 6.44941 1.67626H8.58182C8.58182 1.55595 8.58827 1.44152 8.58182 1.33089C8.56245 1.04099 8.67867 0.842631 8.95806 0.746974L9.13854 0.746094Z" fill="#A09BAE"/>
<path d="M11.0605 6.16932C11.0605 5.93751 11.0561 5.70893 11.0605 5.48035C11.0685 5.15406 11.3649 4.9381 11.668 5.03522C11.8573 5.09625 11.9832 5.23211 11.9879 5.42695C11.9979 5.82835 12.0135 6.23387 11.9694 6.63C11.8964 7.29197 11.3129 7.79901 10.6488 7.81779C10.326 7.82718 10.0005 7.82425 9.67651 7.81955C9.61465 7.82026 9.55327 7.8086 9.49598 7.78526C9.43869 7.76191 9.38664 7.72736 9.3429 7.68362C9.29915 7.63988 9.26459 7.58785 9.24124 7.53057C9.2179 7.47329 9.20623 7.41192 9.20694 7.35007C9.20841 7.09126 9.41003 6.89056 9.68091 6.88557C9.91334 6.88117 10.1455 6.88557 10.3964 6.88557C10.1843 6.59631 9.91747 6.35146 9.61106 6.16492C8.74266 5.63968 7.82085 5.52642 6.87438 5.90318C5.80583 6.32835 5.1502 7.12472 4.96678 8.26292C4.7587 9.57307 5.34742 10.7761 6.50695 11.4161C7.44608 11.9331 8.41455 11.9343 9.38303 11.4748C9.47723 11.4302 9.57438 11.3785 9.67651 11.3639C9.78211 11.3496 9.88937 11.3731 9.97928 11.4303C10.0692 11.4875 10.136 11.5747 10.1678 11.6764C10.2397 11.8938 10.1596 12.1297 9.9424 12.2339C9.65831 12.3694 9.37011 12.5112 9.06813 12.591C7.74748 12.9393 6.53336 12.6928 5.46598 11.8401C4.66274 11.1984 4.17674 10.3524 4.03352 9.32982C3.85098 8.02407 4.22076 6.87912 5.14492 5.94485C6.07554 5.00353 7.22479 4.62296 8.54045 4.79666C9.51979 4.92607 10.3327 5.38146 10.9883 6.11914C11.0013 6.13381 11.0145 6.14848 11.0286 6.16139C11.0327 6.16404 11.0412 6.16374 11.0605 6.16932Z" fill="#A09BAE"/>
<path d="M8.45907 8.036C8.45907 8.26223 8.45907 8.48846 8.45907 8.7144C8.46188 8.79072 8.44697 8.86666 8.4155 8.93625C8.38403 9.00584 8.33687 9.0672 8.27771 9.11551C8.03324 9.32091 7.79083 9.53042 7.54401 9.73171C7.49719 9.77175 7.44291 9.80214 7.38429 9.82111C7.32567 9.84008 7.26387 9.84726 7.20246 9.84224C7.14105 9.83722 7.08124 9.8201 7.02648 9.79187C6.97172 9.76363 6.92309 9.72483 6.8834 9.67772C6.71876 9.48435 6.73666 9.20648 6.93387 9.0269C7.10145 8.8749 7.28106 8.7367 7.44834 8.5847C7.48982 8.54297 7.51438 8.48736 7.51731 8.4286C7.52347 8.06211 7.51731 7.69503 7.5223 7.32913C7.52133 7.21865 7.55981 7.11144 7.63082 7.02679C7.70182 6.94213 7.80071 6.88557 7.90969 6.86728C8.01229 6.84894 8.11808 6.86602 8.20969 6.91571C8.30131 6.96541 8.37331 7.04476 8.41388 7.14075C8.4412 7.21337 8.45541 7.29027 8.45585 7.36786C8.4626 7.59145 8.45907 7.8124 8.45907 8.036Z" fill="#A09BAE"/>
<path d="M11.056 8.96383C11.0562 8.90242 11.0687 8.84168 11.0926 8.78513C11.1166 8.72858 11.1515 8.67734 11.1954 8.6344C11.2393 8.59146 11.2913 8.55767 11.3484 8.53498C11.4055 8.5123 11.4665 8.50118 11.5279 8.50227C11.652 8.50389 11.7704 8.55456 11.8572 8.64319C11.944 8.73182 11.9922 8.85121 11.9913 8.97528C11.9887 9.09932 11.9374 9.21736 11.8485 9.30393C11.7596 9.3905 11.6402 9.43865 11.5162 9.43801C11.4548 9.43725 11.3941 9.42436 11.3377 9.40008C11.2813 9.37581 11.2302 9.34063 11.1875 9.29656C11.1447 9.2525 11.1111 9.20042 11.0885 9.14332C11.066 9.08622 11.0549 9.02522 11.056 8.96383Z" fill="#A09BAE"/>
<path d="M10.4663 10.7147C10.4659 10.6531 10.4778 10.5921 10.5012 10.5351C10.5247 10.4782 10.5594 10.4265 10.6031 10.3831C10.6469 10.3398 10.6988 10.3056 10.756 10.2825C10.8131 10.2595 10.8743 10.2481 10.9359 10.2491C10.9974 10.2493 11.0582 10.2617 11.1148 10.2856C11.1715 10.3094 11.2229 10.3443 11.266 10.3881C11.3091 10.4319 11.3431 10.4838 11.366 10.5408C11.3889 10.5979 11.4004 10.6589 11.3996 10.7203C11.3983 10.8424 11.349 10.9591 11.2623 11.0451C11.1756 11.1312 11.0586 11.1797 10.9365 11.1801C10.8749 11.1811 10.8137 11.1697 10.7565 11.1467C10.6994 11.1237 10.6474 11.0895 10.6036 11.0462C10.5598 11.0029 10.5251 10.9512 10.5016 10.8943C10.478 10.8374 10.466 10.7763 10.4663 10.7147Z" fill="#A09BAE"/>
</g>
<defs>
<clipPath id="clip0_3023_9681">
<rect width="12" height="12" fill="white" transform="translate(0 0.746094)"/>
</clipPath>
</defs>
</svg>
