<svg width="375" height="810" viewBox="0 0 375 810" fill="none" xmlns="http://www.w3.org/2000/svg">
    <rect width="375" height="810" fill="#A09BAE"/>
    <g clip-path="url(#clip0_5200_7804)">
        <path d="M135.249 535.2C135.249 535.2 124.549 535.32 101.639 546.75C65.4292 564.75 115.949 599.06 142.019 594.13C200.549 583.05 191.759 615.37 259.929 581.93C259.929 581.93 289.799 561.18 282.929 517.55C276.059 473.92 135.249 535.2 135.249 535.2Z" fill="#2E2942"/>
        <path d="M158.22 483.55C158.22 483.55 182.07 495.86 214.89 477.44C247.71 459.02 285.01 480.14 284.83 516.06C284.65 551.98 205.01 579.58 175.25 569.6C175.25 569.6 163.48 560.07 182.25 558.78C182.25 558.78 180.53 556.95 181.25 552.54C181.97 548.13 188.53 544.83 188.53 544.83L178.79 546.74C178.79 546.74 184.71 563.92 144.89 563.12C105.07 562.32 122.56 549.95 122.56 549.95C122.56 549.95 107.97 560.53 103.13 551.15C98.2898 541.77 142.25 532.73 129.97 515.06C124.15 506.68 127.09 492.57 135.05 486.98C143.93 480.78 158.22 483.55 158.22 483.55Z" fill="#EEBE21"/>
        <path d="M122.6 549.95C122.6 549.95 134.9 539.33 137.89 539.71C140.88 540.09 143.33 542.86 143.16 544.83C142.99 546.8 129.92 547.95 129.92 547.95" stroke="#150F28" stroke-linecap="round" stroke-linejoin="round"/>
        <path d="M178.829 546.74C178.829 546.74 179.379 536.84 172.289 529.95" stroke="#150F28" stroke-linecap="round" stroke-linejoin="round"/>
        <path d="M188.568 544.83C196.12 542.496 204.07 541.73 211.928 542.58C211.928 542.58 201.068 508.26 235.068 507.9" stroke="#150F28" stroke-linecap="round" stroke-linejoin="round"/>
        <path d="M182.25 558.78C182.25 558.78 250.25 554.7 265.17 521.93" stroke="#150F28" stroke-linecap="round" stroke-linejoin="round"/>
        <path d="M188.57 564.41C188.57 564.41 188.33 568.76 193.81 571.66" stroke="#150F28" stroke-linecap="round" stroke-linejoin="round"/>
        <path d="M212.449 562.2C213.289 564.41 215.229 566.96 219.759 567.42" stroke="#150F28" stroke-linecap="round" stroke-linejoin="round"/>
        <path d="M211.839 558.78C211.832 559.168 211.852 559.556 211.899 559.94" stroke="#150F28" stroke-linecap="round" stroke-linejoin="round"/>
        <path d="M239.559 554.95C240.729 556.29 242.779 557.43 246.379 557.67" stroke="#150F28" stroke-linecap="round" stroke-linejoin="round"/>
        <path d="M145.691 525.18C162.055 525.18 175.321 511.914 175.321 495.55C175.321 479.186 162.055 465.92 145.691 465.92C129.326 465.92 116.061 479.186 116.061 495.55C116.061 511.914 129.326 525.18 145.691 525.18Z" fill="#EEBE21"/>
        <path d="M152.561 524.38C151.561 524.61 150.561 524.79 149.561 524.93" stroke="#150F28" stroke-linecap="round" stroke-linejoin="round"/>
        <path d="M171.221 510.61C168.597 515.054 164.861 518.738 160.381 521.3" stroke="#150F28" stroke-linecap="round" stroke-linejoin="round"/>
        <path d="M137.981 524.2C132.332 522.674 127.262 519.51 123.407 515.108C119.553 510.705 117.088 505.261 116.321 499.46L116.201 498.46" stroke="#150F28" stroke-linecap="round" stroke-linejoin="round"/>
        <path d="M136.68 502.3C137.91 500.93 142.47 502.43 143.48 505C144.49 507.57 138.87 507.67 138.87 507.67C138.87 507.67 134.8 504.42 136.68 502.3Z" fill="#150F28"/>
        <path d="M130.871 508.66C130.871 508.66 134.621 512.66 138.931 507.34C138.931 507.34 137.051 513.42 142.701 513.54" stroke="#150F28" stroke-linecap="round" stroke-linejoin="round"/>
        <path d="M130.35 499.14L123.07 492.32" stroke="#150F28" stroke-linecap="round" stroke-linejoin="round"/>
        <path d="M125.93 501.7L120.5 500.17" stroke="#150F28" stroke-linecap="round" stroke-linejoin="round"/>
        <path d="M148.16 508.21L160.85 512.38" stroke="#150F28" stroke-linecap="round" stroke-linejoin="round"/>
        <path d="M149.871 512.97L154.811 518.08" stroke="#150F28" stroke-linecap="round" stroke-linejoin="round"/>
        <path d="M139.828 489.946C140.34 487.632 139.396 485.456 137.719 485.085C136.042 484.714 134.267 486.288 133.755 488.601C133.243 490.915 134.188 493.091 135.865 493.462C137.542 493.833 139.316 492.259 139.828 489.946Z" fill="#150F28"/>
        <path d="M155.556 500.797C157.526 499.48 158.349 497.255 157.395 495.827C156.441 494.399 154.07 494.309 152.1 495.625C150.13 496.941 149.307 499.166 150.261 500.594C151.215 502.022 153.586 502.113 155.556 500.797Z" fill="#150F28"/>
        <path d="M170.229 499.99C177.389 497.17 186.77 485.99 186.77 485.99C176.91 478.06 162.77 480.89 162.77 480.89L170.229 499.99Z" fill="#EEBE21"/>
        <path d="M186.771 486.03C186.771 486.03 177.39 497.17 170.23 500.03" stroke="#150F28" stroke-linecap="round" stroke-linejoin="round"/>
        <path d="M183.42 487.91C183.42 487.91 174.72 487.35 168.98 490.62C168.98 490.62 174.32 489.62 173.13 491.62C171.94 493.62 169.391 492.8 169.391 492.8C169.391 492.8 172.67 494.73 169.81 495" stroke="#150F28" stroke-linecap="round" stroke-linejoin="round"/>
        <path d="M145.63 468.2C145.63 468.2 136.44 457.13 125.13 455.49C125.13 455.49 122.26 468.06 126.57 474.29C126.57 474.3 144.07 471.33 145.63 468.2Z" fill="#EEBE21"/>
        <path d="M125.13 455.5C125.13 455.5 122.26 468.07 126.57 474.3" stroke="#150F28" stroke-linecap="round" stroke-linejoin="round"/>
        <path d="M126.35 457.64C126.35 457.64 133.01 463.03 134.97 469.21C134.97 469.21 131.79 464.92 131.28 467.21C130.77 469.5 133.19 470.55 133.19 470.55C133.19 470.55 129.55 469.76 131.43 471.86" stroke="#150F28" stroke-linecap="round" stroke-linejoin="round"/>
    </g>
    <defs>
        <clipPath id="clip0_5200_7804">
            <rect width="195.82" height="142.56" fill="white" transform="translate(89 455)"/>
        </clipPath>
    </defs>
</svg>
