<svg width="48" height="48" viewBox="0 0 48 48" fill="none" xmlns="http://www.w3.org/2000/svg">
<circle cx="24" cy="24" r="24" fill="#00A861"/>
<g clip-path="url(#clip0_4663_9861)">
<path d="M37.0002 24.7507C36.9308 25.2214 36.8789 25.695 36.7892 26.1622C36.3229 28.602 35.1514 30.6953 33.3163 32.4519C32.9396 32.8107 32.4025 32.8107 32.0401 32.4799C31.9537 32.4018 31.8848 32.3078 31.8374 32.2038C31.79 32.0997 31.7651 31.9876 31.7642 31.8741C31.7633 31.7606 31.7864 31.6482 31.8321 31.5434C31.8778 31.4386 31.9452 31.3437 32.0303 31.2643C32.9682 30.3429 33.7382 29.3132 34.2791 28.1363C34.9858 26.6253 35.2923 24.9722 35.1718 23.322C35.0786 21.9257 34.6831 20.5628 34.0101 19.3192C33.5134 18.4138 32.8858 17.5792 32.1456 16.8399C31.9773 16.6738 31.8558 16.4699 31.7922 16.2472C31.7026 15.8819 31.9158 15.5375 32.2533 15.371C32.4242 15.2791 32.6232 15.2465 32.8164 15.2787C33.0097 15.3109 33.1853 15.4059 33.3133 15.5475C33.8715 16.1582 34.4501 16.7617 34.9254 17.4291C36.1308 19.1212 36.7968 21.0077 36.9595 23.0514C36.9695 23.1169 36.9844 23.1817 37.0039 23.2452L37.0002 24.7507Z" fill="white"/>
<path d="M26.196 24.0118C26.196 27.6529 26.196 31.294 26.196 34.9351C26.2044 35.0852 26.191 35.2356 26.1561 35.3822C25.9971 35.9146 25.3636 36.1715 24.8716 35.8708C24.3947 35.5759 23.9608 35.2178 23.5156 34.8784C21.0657 33.0127 18.6153 31.1481 16.1644 29.2847C16.0421 29.1961 15.8939 29.146 15.7403 29.1412C14.4754 29.1305 13.2098 29.1412 11.9442 29.134C10.7494 29.129 10.0058 28.4165 10.0043 27.2819C10.0043 26.2295 10.0043 25.1748 10.0043 24.1181C10.0043 22.9548 9.99902 21.7909 10.0043 20.6277C10.0096 19.7594 10.5377 19.1078 11.3995 18.9054C11.5977 18.867 11.8 18.8509 12.0022 18.8574C13.2414 18.853 14.4807 18.8609 15.7192 18.848C15.8895 18.8428 16.0538 18.7871 16.1893 18.6887C18.9862 16.5675 21.7789 14.441 24.5673 12.3093C24.8505 12.094 25.1413 11.9218 25.5278 12.0287C25.7123 12.0728 25.8768 12.1726 25.9967 12.3132C26.1167 12.4538 26.1855 12.6277 26.193 12.8087C26.1998 12.9092 26.1983 13.0097 26.1983 13.1101L26.196 24.0118ZM24.3819 33.3406V14.6659C24.3149 14.7111 24.2727 14.7376 24.2313 14.7671C21.9331 16.518 19.6363 18.2711 17.3411 20.0263C17.2558 20.1127 17.2088 20.2271 17.2101 20.3456C17.2025 22.7819 17.2055 25.2174 17.201 27.6536C17.1964 27.7231 17.2105 27.7926 17.242 27.8554C17.2735 27.9182 17.3214 27.9723 17.3811 28.0124C19.2017 29.3931 21.02 30.7771 22.8361 32.1645C23.3408 32.5505 23.8471 32.9344 24.3819 33.3406ZM15.3809 27.4118V20.5882H11.8184V27.4118H15.3809Z" fill="white"/>
<path d="M33.3943 24.2098C33.3679 26.331 32.5113 28.3482 30.7892 30.0224C30.42 30.3812 29.8791 30.3969 29.5085 30.0704C29.4205 29.9939 29.3498 29.9011 29.3005 29.7977C29.2512 29.6943 29.2245 29.5825 29.2219 29.469C29.2193 29.3555 29.2409 29.2427 29.2853 29.1374C29.3298 29.0321 29.3962 28.9364 29.4806 28.8563C30.0879 28.2508 30.5909 27.5577 30.9707 26.8025C32.1316 24.4416 31.6337 21.3588 29.7699 19.445C29.6561 19.3287 29.5439 19.2132 29.4369 19.0862C29.2885 18.9179 29.2142 18.7015 29.2297 18.4822C29.2451 18.263 29.3491 18.0579 29.5198 17.9101C29.6029 17.8344 29.7009 17.7752 29.8082 17.7359C29.9155 17.6966 30.0299 17.6779 30.1448 17.681C30.2597 17.6841 30.3728 17.7088 30.4776 17.7538C30.5824 17.7988 30.6768 17.8631 30.7553 17.9431C31.1673 18.3542 31.547 18.7936 31.8913 19.2577C32.9046 20.6864 33.3852 22.2745 33.3943 24.2098Z" fill="white"/>
</g>
<defs>
<clipPath id="clip0_4663_9861">
<rect width="27" height="24" fill="white" transform="translate(10 12)"/>
</clipPath>
</defs>
</svg>
