<svg width="46" height="46" viewBox="0 0 46 46" fill="none" xmlns="http://www.w3.org/2000/svg">
    <path fill-rule="evenodd" clip-rule="evenodd"
          d="M46 23C46 35.7025 35.7025 46 23 46C10.2975 46 0 35.7025 0 23C0 10.2975 10.2975 0 23 0C35.7025 0 46 10.2975 46 23ZM28 14.9432C28 14.1298 27.0806 13.6567 26.4188 14.1295L21 18H18C16.8954 18 16 18.8954 16 20V26C16 26.3556 16.0928 26.6895 16.2555 26.9789L13.3861 29.2106C12.9501 29.5497 12.8716 30.178 13.2106 30.6139C13.5497 31.0499 14.178 31.1284 14.6139 30.7894L18.2003 28H18.2283L28 20.3998V20.378L32.6139 16.7894C33.0499 16.4503 33.1284 15.822 32.7894 15.3861C32.4503 14.9501 31.822 14.8716 31.3861 15.2106L28 17.8442V14.9432ZM28 22.9335L21.2533 28.1809L26.4188 31.8705C27.0806 32.3433 28 31.8702 28 31.0568V22.9335Z"
          fill="#FE3850"/>
</svg>
