<svg width="32" height="32" viewBox="0 0 32 32" fill="none" xmlns="http://www.w3.org/2000/svg">
<path fill-rule="evenodd" clip-rule="evenodd" d="M32 16C32 24.8366 24.8366 32 16 32C7.16344 32 0 24.8366 0 16C0 7.16344 7.16344 0 16 0C24.8366 0 32 7.16344 32 16ZM15.0854 10.4628C15.7473 9.99003 16.6667 10.4632 16.6667 11.2765V14.1302L17.8695 12.8858C17.8149 12.6283 17.8885 12.3491 18.0896 12.1503C18.2815 11.9606 18.5451 11.8878 18.7921 11.9315L19.7319 10.9592C19.6862 10.7094 19.7599 10.442 19.9531 10.2489C20.1394 10.0626 20.3947 9.98737 20.6367 10.0232L22.781 7.80498C23.1649 7.40789 23.7979 7.39716 24.195 7.78101C24.5921 8.16486 24.6028 8.79794 24.219 9.19502L22.0607 11.4278C22.9476 12.7306 23.4667 14.3051 23.4667 16C23.4667 18.2457 22.5554 20.2802 21.0845 21.7511C20.772 22.0636 20.2655 22.0636 19.9531 21.7511C19.6407 21.4387 19.6407 20.9322 19.9531 20.6198C21.1363 19.4366 21.8667 17.8044 21.8667 16C21.8667 14.758 21.5206 13.5975 20.9189 12.6089L20.1471 13.4073C20.5634 14.1789 20.8 15.0621 20.8 16C20.8 17.4917 20.2014 18.8453 19.2332 19.8309C18.9236 20.146 18.4171 20.1505 18.1019 19.8409C17.7867 19.5313 17.7822 19.0248 18.0918 18.7096C18.7781 18.011 19.2 17.0556 19.2 16C19.2 15.5215 19.1133 15.0636 18.9546 14.6409L16.6667 17.0078V20.7235C16.6667 21.5369 15.7473 22.01 15.0854 21.5372L13.4307 20.3553L9.71899 24.195C9.33514 24.5921 8.70206 24.6028 8.30498 24.219C7.90789 23.8351 7.89716 23.2021 8.28101 22.805L11.6369 19.3333H10.6667C9.5621 19.3333 8.66667 18.4379 8.66667 17.3333V14.6667C8.66667 13.5621 9.5621 12.6667 10.6667 12.6667H12L15.0854 10.4628Z" fill="#E1DFE7"/>
</svg>
