<svg width="48" height="48" viewBox="0 0 48 48" fill="none" xmlns="http://www.w3.org/2000/svg">
<circle cx="24" cy="24" r="24" fill="#FE3850"/>
<g clip-path="url(#clip0_4663_9863)">
<path d="M29.8121 35.9997C29.5987 35.8594 29.3726 35.7353 29.174 35.5777C26.5408 33.4785 23.9103 31.3777 21.2825 29.2754C21.1796 29.1982 21.0554 29.1549 20.9269 29.1513C19.7078 29.1425 18.4894 29.1466 17.2703 29.1459C16.6665 29.1459 16.1525 28.96 15.7741 28.4655C15.5383 28.15 15.4154 27.7643 15.4252 27.3705C15.4212 25.1208 15.4152 22.8705 15.4252 20.6201C15.4306 19.57 16.1398 18.883 17.2052 18.8528C17.3273 18.8488 17.4488 18.8528 17.6212 18.8528C17.5293 18.7535 17.4756 18.6911 17.4199 18.6327C15.7242 16.9366 14.0281 15.2402 12.3316 13.5435C12.0632 13.2752 11.9223 12.9752 12.0444 12.5935C12.0854 12.4626 12.1576 12.3437 12.2548 12.2469C12.3519 12.1501 12.4711 12.0783 12.6021 12.0378C12.7331 11.9973 12.872 11.9892 13.0069 12.0142C13.1417 12.0393 13.2685 12.0967 13.3762 12.1815C13.4548 12.246 13.5294 12.3153 13.5996 12.3888C20.9195 19.7089 28.2385 27.0304 35.5567 34.3532C35.7338 34.5296 35.8545 34.7618 36.0022 34.9684V35.3448C35.9448 35.4941 35.8567 35.6297 35.7435 35.7428C35.6304 35.8558 35.4947 35.9438 35.3453 36.001H34.9703C34.7636 35.8541 34.5321 35.7326 34.3537 35.5569C33.252 34.4719 32.1624 33.3742 31.0661 32.2819C31.009 32.2249 30.9487 32.1719 30.85 32.0806V32.3698C30.85 33.2132 30.8326 34.0573 30.8567 34.9C30.8722 35.4321 30.693 35.8064 30.1858 36.001L29.8121 35.9997ZM29.1204 33.34C29.1306 33.3048 29.1382 33.269 29.1432 33.2327C29.1432 32.3195 29.1485 31.4057 29.1385 30.4925C29.1257 30.3879 29.0771 30.2909 29.0009 30.2181C26.8289 28.0402 24.6546 25.8647 22.4781 23.6917C22.4271 23.6414 22.3708 23.5971 22.2768 23.5179V23.8266C22.2768 25.0833 22.2822 26.34 22.2721 27.5973C22.2664 27.6846 22.2835 27.7719 22.3218 27.8506C22.36 27.9293 22.418 27.9967 22.4902 28.0462C24.0669 29.2986 25.64 30.5556 27.2095 31.817L29.1204 33.34ZM17.1549 27.4041H20.572C20.572 25.5563 20.572 23.7286 20.5673 21.9023C20.556 21.8127 20.5146 21.7297 20.4499 21.6668C20.1352 21.3407 19.8178 21.0173 19.4871 20.708C19.3966 20.6303 19.2828 20.585 19.1637 20.5792C18.6799 20.5657 18.1955 20.5731 17.7111 20.5731H17.1549V27.4041Z" fill="white"/>
<path d="M29.1445 14.6366L27.6181 15.8564C26.338 16.8812 25.0574 17.9057 23.7763 18.9301C23.2812 19.3239 22.6888 19.236 22.411 18.7362C22.1976 18.3524 22.2936 17.9243 22.6794 17.6123C23.2913 17.1151 23.9105 16.626 24.5265 16.1362C26.1367 14.8484 27.7469 13.5609 29.3572 12.2735C29.6195 12.0629 29.898 11.9381 30.2421 12.0447C30.4084 12.0925 30.5557 12.1905 30.6638 12.3255C30.772 12.4604 30.8356 12.6256 30.846 12.7982C30.8534 12.8915 30.8527 12.9854 30.8527 13.0794C30.8527 17.0398 30.8527 21.0002 30.8527 24.9606C30.8595 25.101 30.8501 25.2417 30.8245 25.3799C30.7756 25.5792 30.6556 25.7538 30.4871 25.8709C30.3186 25.988 30.1132 26.0396 29.9094 26.016C29.7097 25.9954 29.5239 25.9043 29.3853 25.7591C29.2467 25.6139 29.1644 25.424 29.1532 25.2236C29.1465 25.1223 29.1479 25.0223 29.1479 24.919C29.1479 21.609 29.1479 18.2969 29.1479 14.9828L29.1445 14.6366Z" fill="white"/>
</g>
<defs>
<clipPath id="clip0_4663_9863">
<rect width="24" height="24" fill="white" transform="translate(12 12)"/>
</clipPath>
</defs>
</svg>
