<svg width="32" height="32" viewBox="0 0 32 32" fill="none" xmlns="http://www.w3.org/2000/svg">
<path fill-rule="evenodd" clip-rule="evenodd" d="M16 32C24.8366 32 32 24.8366 32 16C32 7.16344 24.8366 0 16 0C7.16344 0 0 7.16344 0 16C0 24.8366 7.16344 32 16 32ZM16.6667 11.2765C16.6667 10.4632 15.7473 9.99003 15.0854 10.4628L12 12.6667H10.6667C9.5621 12.6667 8.66667 13.5621 8.66667 14.6667V17.3333C8.66667 18.4379 9.5621 19.3333 10.6667 19.3333H12L15.0854 21.5372C15.7473 22.01 16.6667 21.5369 16.6667 20.7235V11.2765ZM18.0896 12.1503C18.4038 11.8396 18.9103 11.8425 19.221 12.1567C20.1964 13.1434 20.8 14.502 20.8 16C20.8 17.4917 20.2014 18.8453 19.2332 19.8309C18.9236 20.146 18.4171 20.1505 18.1019 19.8409C17.7867 19.5313 17.7822 19.0248 18.0918 18.7096C18.7781 18.011 19.2 17.0556 19.2 16C19.2 14.94 18.7745 13.9809 18.0832 13.2816C17.7725 12.9674 17.7754 12.4609 18.0896 12.1503ZM21.0845 10.2489C20.772 9.93645 20.2655 9.93645 19.9531 10.2489C19.6407 10.5613 19.6407 11.0678 19.9531 11.3802C21.1363 12.5634 21.8667 14.1956 21.8667 16C21.8667 17.8044 21.1363 19.4366 19.9531 20.6198C19.6407 20.9322 19.6407 21.4387 19.9531 21.7511C20.2655 22.0636 20.772 22.0636 21.0845 21.7511C22.5554 20.2802 23.4667 18.2457 23.4667 16C23.4667 13.7543 22.5554 11.7198 21.0845 10.2489Z" fill="#FFD84E"/>
</svg>
