<svg width="46" height="46" viewBox="0 0 46 46" fill="none" xmlns="http://www.w3.org/2000/svg">
    <path fill-rule="evenodd" clip-rule="evenodd"
          d="M23 46C35.7025 46 46 35.7025 46 23C46 10.2975 35.7025 0 23 0C10.2975 0 0 10.2975 0 23C0 35.7025 10.2975 46 23 46ZM24 14.9432C24 14.1298 23.0806 13.6567 22.4188 14.1295L17 18H14C12.8954 18 12 18.8954 12 20V26C12 27.1046 12.8954 28 14 28H17L22.4188 31.8705C23.0806 32.3433 24 31.8702 24 31.0568V14.9432ZM26.2751 17.3676C26.6678 16.9794 27.301 16.983 27.6892 17.3757C29.1169 18.8197 30 20.8077 30 23C30 25.1831 29.1242 27.1636 27.7071 28.6061C27.3201 29.0001 26.687 29.0057 26.293 28.6187C25.899 28.2316 25.8934 27.5985 26.2804 27.2045C27.345 26.1208 28 24.6379 28 23C28 21.3552 27.3395 19.8667 26.267 18.7818C25.8787 18.3891 25.8823 17.7559 26.2751 17.3676ZM30.4853 14.5147C30.0948 14.1242 29.4616 14.1242 29.0711 14.5147C28.6805 14.9052 28.6805 15.5384 29.0711 15.9289C30.8818 17.7397 32 20.2383 32 23C32 25.7617 30.8818 28.2603 29.0711 30.0711C28.6805 30.4616 28.6805 31.0948 29.0711 31.4853C29.4616 31.8758 30.0948 31.8758 30.4853 31.4853C32.6558 29.3148 34 26.3134 34 23C34 19.6866 32.6558 16.6852 30.4853 14.5147Z"
          fill="#FFD84E"/>
</svg>
