<svg width="25" height="21" viewBox="0 0 25 21" fill="none" xmlns="http://www.w3.org/2000/svg">
<path d="M24.9989 1.75311C24.8529 2.40811 24.6989 3.0621 24.5639 3.7181C23.4972 8.71343 22.4306 13.7088 21.3639 18.7041C21.2839 19.0771 21.2119 19.4521 21.1149 19.8201C20.7559 21.1911 19.7559 21.1081 18.9809 20.5521C17.3809 19.4071 15.8079 18.2351 14.2239 17.0751C13.9879 16.9021 13.7449 16.7381 13.5189 16.5541C13.3899 16.4541 13.3119 16.4621 13.1949 16.5751C12.2769 17.4601 11.3519 18.3371 10.4319 19.2191C10.3039 19.3544 10.1485 19.4609 9.97601 19.5312C9.80354 19.6016 9.61803 19.6343 9.4319 19.6271C9.45589 19.2691 9.4779 18.9271 9.5029 18.5781C9.6109 17.0641 9.7159 15.5501 9.8339 14.0361C9.84924 13.9048 9.9101 13.7831 10.0059 13.6921C13.4512 10.5888 16.8992 7.48876 20.3499 4.39209C20.3919 4.35409 20.4499 4.3231 20.4739 4.2761C20.5289 4.1691 20.5679 4.0541 20.6139 3.9431C20.4959 3.9111 20.3659 3.83409 20.2599 3.85909C20.0639 3.90648 19.8768 3.98516 19.7059 4.09209C15.4119 6.77343 11.1202 9.45877 6.8309 12.1481C6.76348 12.1955 6.68538 12.2255 6.60355 12.2355C6.52173 12.2454 6.43871 12.235 6.3619 12.2051C4.5679 11.6411 2.7699 11.0891 0.9769 10.5211C0.738155 10.4458 0.51273 10.3334 0.308895 10.1881C-0.0181052 9.95009 -0.0601011 9.60709 0.231899 9.33409C0.476064 9.09843 0.761923 8.91025 1.0749 8.77911C2.8609 8.07211 4.6579 7.39311 6.4519 6.70611C12.0519 4.56144 17.6536 2.4181 23.2569 0.276104C23.4375 0.204553 23.6274 0.159087 23.8209 0.141094C24.4099 0.097094 24.7939 0.386085 24.9479 0.957085C24.9629 1.01209 24.9829 1.06409 25.0009 1.11709L24.9989 1.75311Z" fill="#110628"/>
</svg>
