<svg width="36" height="37" viewBox="0 0 36 37" fill="none" xmlns="http://www.w3.org/2000/svg">
<g clip-path="url(#clip0_3023_11588)">
<path d="M34.8556 12.3411C37.6713 19.7301 35.2993 29.5327 26.5565 34.3825C18.5149 38.8437 8.01565 36.1998 2.97553 28.4498C-2.26563 20.3918 -0.427539 9.85766 7.283 4.1046C14.8026 -1.50542 24.509 0.0364648 29.9737 5.17007C29.3565 5.84997 28.74 6.52949 28.1243 7.20864C27.5736 6.79642 27.0544 6.38477 26.5143 6.00859C24.3879 4.5309 22.0193 3.66141 19.4519 3.44629C14.4873 3.03013 10.2626 4.65873 6.8522 8.29382C4.55796 10.739 3.24809 13.669 2.90514 17.0028C2.56725 20.269 3.24302 23.3353 4.90035 26.1736C6.57964 29.0456 8.96173 31.1495 12.0027 32.4808C14.552 33.598 17.2236 33.9528 19.9869 33.5907C22.7793 33.2389 25.413 32.0967 27.5781 30.2986C30.4405 27.9447 32.2347 24.9268 32.9279 21.2782C33.3261 19.1771 33.2506 17.0794 32.7646 14.9952C32.7353 14.8702 32.75 14.6804 32.8266 14.5931C33.4821 13.8436 34.159 13.1092 34.8556 12.3411Z" fill="#FFD84E"/>
<path d="M18.1605 22.3662L33.8936 5.0946L35.9738 6.98338C30.0845 13.4505 24.1944 19.9176 18.3036 26.3848C15.0936 23.3314 11.8961 20.291 8.67383 17.2258L10.6082 15.1878L18.1605 22.3662Z" fill="#FFD84E"/>
</g>
<defs>
<clipPath id="clip0_3023_11588">
<rect width="35.9797" height="36" fill="white" transform="translate(0 0.549438)"/>
</clipPath>
</defs>
</svg>
