<svg width="12" height="13" viewBox="0 0 12 13" fill="none" xmlns="http://www.w3.org/2000/svg">
<g clip-path="url(#clip0_2546_12481)">
<path d="M0.262581 12.9282C0.0597578 12.8343 0.00310482 12.6734 0.000287829 12.4561C-0.00597215 11.9597 0.0578798 11.4824 0.301706 11.043C0.72582 10.278 1.37748 9.85105 2.2423 9.74182C2.88458 9.66044 3.5256 9.57311 4.16818 9.4886C4.19041 9.48578 4.21263 9.48234 4.24487 9.47765C4.24487 9.28233 4.24831 9.09172 4.24174 8.90141C4.24174 8.86855 4.20355 8.82848 4.17257 8.80595C3.42356 8.25444 2.98317 7.52109 2.85797 6.59742C2.85161 6.57521 2.8407 6.55455 2.82594 6.53677C2.81118 6.51899 2.79288 6.50447 2.77221 6.49413C2.36938 6.29914 2.14339 5.98144 2.13901 5.53416C2.13463 5.08689 2.35373 4.76137 2.75625 4.56731C2.82698 4.53319 2.84076 4.49438 2.83919 4.42552C2.83137 4.06995 2.84482 3.71689 2.92714 3.36727C3.28834 1.83357 4.75099 0.788779 6.31348 0.949974C7.8115 1.1046 9.00214 2.29587 9.14268 3.78857C9.16303 4.00548 9.16021 4.22489 9.16209 4.44336C9.16209 4.50596 9.18212 4.53726 9.24065 4.56418C9.64411 4.75761 9.86446 5.08157 9.86258 5.52853C9.8607 5.97549 9.63628 6.29444 9.2347 6.49194C9.21262 6.50325 9.19312 6.51903 9.17744 6.53826C9.16176 6.55749 9.15025 6.57977 9.14362 6.60368C9.01842 7.51806 8.58471 8.24839 7.84248 8.79468C7.81342 8.81255 7.78994 8.83821 7.77473 8.86876C7.75951 8.8993 7.75317 8.93349 7.75641 8.96746C7.76204 9.1274 7.75891 9.28765 7.75954 9.4476C7.76154 9.4583 7.76458 9.46878 7.76861 9.4789C8.05031 9.51176 8.33639 9.53774 8.6206 9.58C9.15614 9.66012 9.70013 9.71208 10.2235 9.84323C11.1487 10.0752 11.8583 10.9315 11.9763 11.8777C11.981 11.9156 11.9919 11.9528 11.9997 11.9904V12.6699C11.9463 12.7831 11.8551 12.8742 11.7418 12.9275L0.262581 12.9282ZM5.16665 8.56619C5.40328 8.60594 5.63834 8.66948 5.87622 8.68106C7.27783 8.7493 8.43186 7.66413 8.46222 6.26283C8.46754 6.02589 8.5893 5.89599 8.8253 5.87565C9.0228 5.85843 9.16459 5.71257 9.16522 5.5254C9.16584 5.33823 9.02343 5.19049 8.82718 5.17328C8.58585 5.1523 8.4641 5.01959 8.46285 4.77671C8.46285 4.66903 8.46285 4.56168 8.46285 4.46371C8.30416 4.43428 8.15986 4.42677 8.02997 4.3792C7.71697 4.26495 7.40397 4.14038 7.10036 4.0036C6.41646 3.69811 5.72723 3.67808 5.033 3.95258C4.79794 4.04648 4.57853 4.18013 4.34096 4.26558C4.08649 4.35635 3.81919 4.41081 3.54281 4.48468V4.75511C3.54281 5.02554 3.43483 5.14385 3.16377 5.17328C3.0762 5.18056 2.99452 5.22036 2.93482 5.28484C2.87511 5.34932 2.8417 5.4338 2.84115 5.52168C2.8406 5.60955 2.87295 5.69445 2.93185 5.75966C2.99074 5.82488 3.07191 5.8657 3.15939 5.87408C3.44109 5.90726 3.53499 6.01556 3.54407 6.29976C3.54969 6.56342 3.60083 6.82412 3.69524 7.07037C3.7159 7.0472 3.72905 7.03406 3.74031 7.01903C3.96505 6.72012 4.26459 6.57614 4.638 6.5777C5.08308 6.5799 5.52785 6.5777 5.97294 6.5777C6.19798 6.5777 6.35668 6.72857 6.35355 6.93359C6.35042 7.1386 6.19423 7.27789 5.97481 7.27976C5.85181 7.27976 5.7288 7.27976 5.60391 7.27976C5.69719 7.91327 5.61987 8.13237 5.16665 8.56619ZM0.713612 12.217H11.293C11.3318 11.4107 10.667 10.5951 9.85945 10.4714C9.18087 10.3675 8.49916 10.2836 7.81932 10.1897C7.73857 10.1788 7.69788 10.1947 7.66939 10.2836C7.56239 10.6166 7.35809 10.9099 7.08282 11.1257C6.80756 11.3414 6.47397 11.4698 6.12507 11.4942C5.77617 11.5186 5.42796 11.4379 5.12536 11.2625C4.82275 11.0871 4.57963 10.8251 4.42735 10.5102C4.37633 10.4063 4.33814 10.2965 4.2937 10.1882C4.27358 10.1869 4.25341 10.1869 4.23329 10.1882C3.52967 10.2821 2.82229 10.3544 2.12368 10.4767C1.2285 10.6351 0.695145 11.4768 0.713612 12.217ZM8.42623 3.74193C8.27974 2.60386 7.29192 1.76158 6.35417 1.673C6.35417 1.7669 6.35417 1.8608 6.35417 1.9547C6.35198 2.181 6.20644 2.33969 6.00142 2.33907C5.79641 2.33844 5.65305 2.17975 5.65149 1.9522C5.65149 1.8583 5.65149 1.76252 5.65149 1.6658C5.12798 1.74308 4.64328 1.98691 4.26918 2.36119C3.89508 2.73546 3.65147 3.22027 3.57443 3.74381C3.61136 3.73974 3.63076 3.73817 3.64986 3.73536C3.97225 3.6906 4.25927 3.54943 4.54378 3.40295C5.17761 3.07618 5.8493 3.01045 6.54698 3.10404C6.96827 3.16069 7.34356 3.33973 7.71697 3.5269C7.93861 3.64045 8.17884 3.71328 8.42623 3.74193ZM7.03745 9.21754C6.34885 9.45021 5.65284 9.44833 4.94943 9.21191C4.94943 9.41098 4.94536 9.59408 4.94943 9.77531C4.9585 10.035 5.0629 10.2822 5.24269 10.4698C5.42248 10.6574 5.66506 10.7722 5.92411 10.7922C6.46215 10.8298 6.95419 10.4589 7.03119 9.92868C7.06499 9.70175 7.03745 9.46481 7.03745 9.21754ZM4.59606 7.28195C4.52645 7.28215 4.45847 7.30302 4.40076 7.34191C4.34304 7.38081 4.29818 7.43599 4.27188 7.50043C4.24557 7.56487 4.23901 7.63568 4.25303 7.70385C4.26704 7.77203 4.301 7.83451 4.35059 7.88335C4.40018 7.93219 4.46317 7.96519 4.53155 7.97817C4.59994 7.99114 4.67063 7.98351 4.73467 7.95623C4.7987 7.92895 4.85318 7.88325 4.8912 7.82495C4.92922 7.76664 4.94905 7.69836 4.94818 7.62876C4.94606 7.53647 4.90808 7.44864 4.84228 7.38389C4.77648 7.31915 4.68805 7.28258 4.59574 7.28195H4.59606Z" fill="white"/>
<path d="M5.29939 4.82634C5.29851 4.89589 5.27699 4.96362 5.23757 5.02093C5.19814 5.07824 5.14259 5.12255 5.07795 5.14824C5.01331 5.17394 4.94249 5.17985 4.87448 5.16524C4.80647 5.15063 4.74433 5.11616 4.69594 5.06619C4.64755 5.01621 4.61509 4.953 4.60268 4.88455C4.59027 4.81611 4.59846 4.74552 4.62622 4.68174C4.65398 4.61796 4.70006 4.56386 4.75861 4.5263C4.81716 4.48874 4.88554 4.46941 4.95509 4.47077C5.04745 4.47362 5.13507 4.51234 5.19935 4.57873C5.26363 4.64511 5.29952 4.73393 5.29939 4.82634Z" fill="white"/>
<path d="M7.05536 4.47071C7.12491 4.47034 7.193 4.49062 7.25101 4.529C7.30901 4.56738 7.35432 4.62211 7.38118 4.68627C7.40804 4.75042 7.41524 4.82111 7.40188 4.88936C7.38852 4.95762 7.35518 5.02037 7.30612 5.06966C7.25705 5.11895 7.19445 5.15256 7.12625 5.16623C7.05806 5.1799 6.98734 5.17301 6.92306 5.14643C6.85879 5.11986 6.80385 5.0748 6.76522 5.01697C6.72658 4.95913 6.70599 4.89113 6.70605 4.82158C6.7071 4.72912 6.74419 4.64072 6.80943 4.57519C6.87467 4.50965 6.9629 4.47217 7.05536 4.47071Z" fill="white"/>
</g>
<defs>
<clipPath id="clip0_2546_12481">
<rect width="12.0007" height="11.9944" fill="white" transform="translate(0 0.933594)"/>
</clipPath>
</defs>
</svg>
