<svg width="12" height="15" viewBox="0 0 12 15" fill="none" xmlns="http://www.w3.org/2000/svg">
<path d="M0.634481 9.03725C0.634481 7.86458 0.634481 6.69204 0.634481 5.51963C0.634481 5.14617 0.833555 4.88977 1.16282 4.83044C1.24975 4.81476 1.339 4.81746 1.42482 4.83836C1.51065 4.85926 1.59115 4.89791 1.66114 4.9518C1.73112 5.0057 1.78904 5.07365 1.83118 5.15129C1.87331 5.22893 1.89872 5.31453 1.90577 5.40258C1.91055 5.4619 1.90855 5.52202 1.90855 5.58174C1.90855 7.87188 1.90855 10.1623 1.90855 12.4529C1.90855 13.1959 2.43131 13.7226 3.17067 13.7226C4.87421 13.7226 6.57801 13.7226 8.28208 13.7226C9.01268 13.7226 9.53943 13.1943 9.53943 12.4629C9.53943 10.1425 9.53943 7.82224 9.53943 5.50211C9.53943 5.16926 9.72217 4.91405 10.0092 4.84C10.0946 4.8165 10.184 4.81124 10.2716 4.82457C10.3592 4.8379 10.443 4.86951 10.5175 4.91736C10.5921 4.9652 10.6557 5.02821 10.7043 5.10227C10.7529 5.17634 10.7854 5.2598 10.7996 5.34724C10.8106 5.42075 10.8156 5.49506 10.8143 5.5694C10.8143 7.86458 10.8143 10.1605 10.8143 12.4573C10.8143 13.721 9.97818 14.7323 8.73716 14.9605C8.58544 14.9867 8.43166 14.9992 8.2777 14.9979C6.57416 15.0003 4.8705 15.0003 3.1667 14.9979C1.73775 14.9979 0.636472 13.8946 0.635278 12.4665C0.633951 11.3233 0.633685 10.1802 0.634481 9.03725Z" fill="black"/>
<path d="M3.18297 2.90696C3.18297 2.49846 3.18297 2.11066 3.18297 1.72566C3.18006 1.63656 3.1885 1.54746 3.20806 1.46049C3.28371 1.18179 3.52339 1.00143 3.83075 1.00063C5.09208 0.997184 6.35354 0.997184 7.61513 1.00063C8.00491 1.00063 8.25972 1.27137 8.26331 1.66554C8.26689 2.0179 8.26331 2.37066 8.26331 2.72341V2.90656H8.45043C9.2154 2.90656 9.98011 2.90656 10.7446 2.90656C10.9472 2.90656 11.1304 2.95474 11.2701 3.10802C11.4493 3.30709 11.499 3.53483 11.3971 3.78487C11.298 4.02774 11.1077 4.15515 10.8485 4.18063C10.8137 4.18242 10.7789 4.18242 10.7442 4.18063C7.39681 4.18063 4.04974 4.18063 0.702926 4.18063C0.30916 4.18063 0.029663 3.94652 0.00219093 3.59734C-0.0284663 3.20835 0.265761 2.90855 0.686999 2.90696C1.45184 2.90457 2.21667 2.90696 2.98151 2.90696H3.18297ZM4.45704 2.8974H6.98884V2.28466H4.45704V2.8974Z" fill="black"/>
<path d="M3.81688 8.9537C3.81688 8.20877 3.81449 7.46424 3.81688 6.71931C3.81709 6.57116 3.86948 6.42782 3.96486 6.31446C4.06024 6.20109 4.19251 6.12495 4.33844 6.0994C4.47634 6.07379 4.61884 6.09519 4.74314 6.16015C4.86744 6.22511 4.96635 6.3299 5.02405 6.45773C5.0645 6.55354 5.08587 6.65633 5.08696 6.76032C5.09094 8.22019 5.09094 9.68005 5.08696 11.1399C5.08696 11.5349 4.81065 11.8168 4.44396 11.814C4.07726 11.8112 3.81488 11.5261 3.81409 11.1288C3.81515 10.4039 3.81608 9.67886 3.81688 8.9537Z" fill="black"/>
<path d="M7.63182 8.95114C7.63182 9.6909 7.63182 10.4311 7.63182 11.1708C7.63488 11.3112 7.59064 11.4484 7.50622 11.5606C7.42179 11.6727 7.3021 11.7532 7.16639 11.7891C6.89366 11.866 6.59664 11.7593 6.46087 11.5104C6.39936 11.3976 6.36578 11.2718 6.36293 11.1433C6.35603 9.68347 6.35496 8.2236 6.35974 6.76373C6.35974 6.36956 6.63605 6.08688 7.00315 6.09086C7.37024 6.09484 7.63182 6.37872 7.63262 6.77647C7.63315 7.50136 7.63288 8.22625 7.63182 8.95114Z" fill="black"/>
</svg>
