<svg
    width="66"
    height="37"
    viewBox="0 0 66 37"
    fill="none"
    xmlns="http://www.w3.org/2000/svg">
    <defs>
        <linearGradient
            id="paint0_linear_2520_9382"
            x1="7.74985"
            y1="3.05719"
            x2="15.3816"
            y2="38.1245"
            gradientUnits="userSpaceOnUse">
            <stop stop-color="#FFCB80"/>
            <stop
                offset="0.5"
                stop-color="#FFDB4C"/>
            <stop
                offset="0.916667"
                stop-color="#FFD739"/>
        </linearGradient>
    </defs>
    <path
        d="M17.0896 17.835C18.2208 17.2924 19.3637 16.7777 20.5182 16.291L19.5132 16.7155C23.4495 15.0864 27.4863 13.7107 31.5989 12.5967C35.724 11.4585 39.9006 10.5209 44.0912 9.65792C46.4494 9.17046 48.8123 8.70866 51.1775 8.24686L47.9358 0.573523C41.8218 4.08445 35.7599 7.68088 29.7502 11.3628C23.7716 15.0277 17.8507 18.7758 11.9875 22.607C8.67335 24.7683 5.37635 26.9583 2.09649 29.1771C1.22471 29.7649 0.406695 30.6185 0.163627 31.6844L0.0140465 32.8016C-0.0147347 33.3611 0.106269 33.9182 0.364625 34.4156C0.460195 34.7681 0.646288 35.0897 0.904517 35.3485C1.19607 35.802 1.59814 36.1744 2.07311 36.4307L3.07811 36.8552C3.81044 37.0534 4.58246 37.0534 5.3148 36.8552C9.7134 35.9704 14.1229 35.1425 18.5433 34.3712C22.9637 33.6 27.3919 32.884 31.8279 32.2232C34.3303 31.85 36.8365 31.4955 39.3467 31.1596L38.2271 31.3089C44.3459 30.491 50.4779 29.7773 56.6232 29.1678C58.3371 28.9999 60.0511 28.839 61.765 28.685C62.3283 28.7103 62.8881 28.5855 63.387 28.3235C63.9053 28.1552 64.3714 27.8563 64.7403 27.4559C65.143 27.089 65.4427 26.6235 65.6097 26.1055C65.8733 25.608 65.9985 25.049 65.972 24.4868C65.9229 23.4 65.5653 22.2758 64.7403 21.5178C63.9596 20.8041 62.8705 20.1907 61.765 20.2887C54.205 20.9619 46.6597 21.7961 39.1293 22.7912C31.267 23.8315 23.4288 25.0318 15.6148 26.3923C11.4219 27.1309 7.23909 27.9192 3.06642 28.7573L6.30811 36.4307C12.1495 32.4844 18.0447 28.6213 23.9936 24.8414C29.9145 21.0848 35.8861 17.4114 41.9082 13.8211C45.3096 11.7998 48.7266 9.80175 52.1592 7.82705C52.6387 7.57384 53.0451 7.20202 53.3394 6.74718C53.7093 6.34398 53.9685 5.85232 54.092 5.3198L54.2416 4.20262C54.2683 3.64118 54.1432 3.08289 53.8793 2.58632C53.7847 2.23339 53.5985 1.9116 53.3394 1.65339C53.0452 1.1979 52.6388 0.825299 52.1592 0.571189L51.1542 0.146704C50.4218 -0.0515054 49.6498 -0.0515054 48.9175 0.146704C44.2548 1.06331 39.55 1.99623 34.906 3.08776C30.257 4.15522 25.6745 5.49314 21.182 7.09469C18.354 8.12325 15.5727 9.28242 12.8522 10.5932C12.3769 10.8489 11.9747 11.2214 11.6837 11.6754C11.3129 12.078 11.0536 12.5699 10.9311 13.1028C10.7561 13.6442 10.7303 14.2226 10.8563 14.7774C10.8801 15.3324 11.0519 15.8711 11.3541 16.3377C11.9337 17.2333 12.7962 18.024 13.8689 18.2665L14.9861 18.4158C15.7325 18.4168 16.4658 18.2196 17.1106 17.8444L17.0896 17.835Z"
        fill="url(#paint0_linear_2520_9382)"
        fill-opacity="0.5"/>

</svg>