<svg width="25" height="15" viewBox="0 0 25 15" fill="none" xmlns="http://www.w3.org/2000/svg">
<path d="M0.00102539 1.3824C0.0647216 1.27329 0.156004 1.18285 0.26571 1.12019C0.375417 1.05753 0.499685 1.02483 0.626025 1.02539C1.20203 1.01072 1.77835 1.00105 2.35502 0.996386C2.96402 0.989386 3.57302 0.990402 4.18302 0.987402C4.72502 0.987402 5.08302 1.22439 5.32302 1.72639C5.95369 3.04239 6.60568 4.34772 7.27902 5.64238C7.54858 6.19158 7.93291 6.67653 8.40602 7.0644C8.51937 7.15625 8.64532 7.23135 8.78002 7.2874C9.08002 7.4054 9.30801 7.30539 9.46501 7.02539C9.69901 6.60739 9.71702 6.1414 9.77102 5.6834C9.9052 4.62644 9.86874 3.55479 9.66302 2.5094C9.53302 1.8804 9.15302 1.54138 8.54302 1.41738C8.23202 1.35338 8.21202 1.2754 8.43002 1.0374C8.67438 0.760474 9.00804 0.577886 9.37302 0.521386C10.7704 0.29926 12.1936 0.29252 13.593 0.501391C14.293 0.611391 14.55 0.852385 14.613 1.67039C14.662 2.29939 14.613 2.93539 14.601 3.57039C14.592 4.41438 14.571 5.25939 14.581 6.10339C14.5879 6.36257 14.6394 6.61864 14.733 6.8604C14.87 7.2244 15.233 7.48039 15.697 7.07839C16.339 6.51739 16.79 5.8174 17.241 5.1134C17.9185 4.04367 18.4934 2.9123 18.958 1.7344C19.0109 1.59876 19.0748 1.46764 19.149 1.34238C19.2006 1.24969 19.2764 1.1728 19.3684 1.11995C19.4603 1.06709 19.565 1.04027 19.671 1.04238C21.133 1.02638 22.595 0.999386 24.057 0.996386C24.851 0.996386 25.108 1.3644 24.849 2.1104C24.529 3.0344 23.97 3.8254 23.402 4.6104C22.768 5.4834 22.102 6.33839 21.464 7.20539C21.3126 7.40616 21.1749 7.61698 21.052 7.8364C20.789 8.3154 20.832 8.7364 21.202 9.1364C21.521 9.4814 21.858 9.8114 22.202 10.1364C23.102 11.0024 24.009 11.8694 24.665 12.9504C24.7574 13.1019 24.8284 13.2654 24.876 13.4364C25.047 14.0654 24.767 14.4594 24.118 14.4964C23.567 14.5274 23.018 14.5344 22.463 14.5484C21.757 14.5664 21.051 14.5924 20.344 14.5924C19.7496 14.5928 19.1759 14.3738 18.733 13.9774C18.239 13.5474 17.802 13.0524 17.341 12.5844C17.005 12.2444 16.676 11.8964 16.333 11.5634C16.2244 11.4661 16.1013 11.3865 15.968 11.3274C15.8531 11.2651 15.721 11.242 15.5917 11.2617C15.4625 11.2813 15.3432 11.3427 15.252 11.4364C14.809 11.8364 14.692 12.3714 14.623 12.9244C14.592 13.1734 14.594 13.4244 14.578 13.6784C14.546 14.1784 14.31 14.4554 13.817 14.4954C11.673 14.6704 9.64302 14.4144 7.80002 13.1424C6.56802 12.2914 5.57302 11.2424 4.68602 10.0594C2.80602 7.5494 1.36102 4.79738 0.0990234 1.94038C0.0670234 1.86838 0.0330234 1.79739 -0.000976562 1.72639L0.00102539 1.3824Z" fill="#110628"/>
</svg>
