<svg width="375" height="180" viewBox="0 0 375 180" fill="none" xmlns="http://www.w3.org/2000/svg">
<path d="M-16.0908 71.1699L23.3015 64.224L34.2413 126.267L-5.15099 133.213L-16.0908 71.1699Z" fill="#FF3850"/>
<rect width="331" height="63" transform="translate(23.3018 64.2239) rotate(-10)" fill="#FF3850"/>
<path d="M48.9117 112.51L49.8714 85.0199L59.4502 83.3309L59.7037 76.2655L32.0521 81.1412L31.7986 88.2066L41.3774 86.5176L40.4408 114.004L48.9117 112.51ZM63.6044 75.5777L62.4144 110.13L70.8853 108.636L71.241 98.5062L76.7575 97.5335C85.8746 95.9259 90.8949 89.7097 89.4257 81.3773C88.3594 75.3299 83.2698 72.1101 76.0223 73.3881L63.6044 75.5777ZM71.8382 80.8372L75.4158 80.2064C78.5087 79.661 80.5383 80.7787 81.043 83.6408C81.7023 87.3799 79.6001 90.4399 75.6301 91.1399L71.4524 91.8766L71.8382 80.8372ZM116.286 93.6098L101.952 96.1372L102.206 89.0718L115.686 86.695L115.902 80.231L102.423 82.6078L102.659 75.7121L116.992 73.1847L117.246 66.1193L94.4412 70.1403L93.2281 104.696L116.056 100.671L116.286 93.6098ZM151.186 94.4768L152.399 59.9208L143.743 61.4471L143.239 75.0538L130.336 77.3289L130.841 63.7221L122.185 65.2483L120.972 99.8043L129.627 98.2781L130.136 84.2898L143.015 82.0188L142.53 96.003L151.186 94.4768ZM178.814 89.6052L187.1 88.1441L188.313 53.5881L180.212 55.0166L165.912 78.7907L165.473 78.868L166.248 57.4789L157.961 58.94L156.748 93.496L164.873 92.0634L179.154 68.3165L179.592 68.2392L178.814 89.6052ZM193.922 52.5991L192.732 87.151L201.203 85.6574L201.559 75.5276L207.075 74.5549C216.192 72.9473 221.213 66.7311 219.743 58.3987C218.677 52.3514 213.588 49.1316 206.34 50.4095L193.922 52.5991ZM202.156 57.8586L205.734 57.2278C208.826 56.6824 210.856 57.8001 211.361 60.6622C212.02 64.4014 209.918 67.4614 205.948 68.1614L201.77 68.898L202.156 57.8586ZM240.959 79.2424C251.114 77.4516 257.736 67.764 255.632 55.8309C254.183 47.6139 247.623 42.5352 238.183 44.1998C228.004 45.9946 221.456 55.6931 223.556 67.6031C225.009 75.8432 231.703 80.8744 240.959 79.2424ZM239.211 51.1106C243.181 50.4106 246.28 53.0056 247.131 57.8296C248.385 64.9387 245.216 71.3995 239.977 72.3234C236.007 73.0234 232.922 70.3782 232.08 65.6003C230.83 58.5143 233.972 52.0345 239.211 51.1106ZM277.21 72.2553C284.527 70.9651 288.962 65.6137 287.871 59.4279C287.269 56.0118 284.301 53.8934 280.612 53.7585L280.607 53.5928C284.949 51.899 287.571 48.0096 286.794 43.601C286.074 39.5156 282.116 37.0481 275.815 38.1592L261.228 40.7314L260.014 75.2873L277.21 72.2553ZM269.305 44.9712L273.783 44.1817C276.576 43.6892 278.25 44.6792 278.596 46.6411C279.056 49.2493 277.174 51.5327 273.827 52.1228L269.049 52.9653L269.305 44.9712ZM268.535 67.5972L268.836 58.6432L273.937 57.7437C277.076 57.1902 278.932 58.2671 279.331 60.5291C279.86 63.5297 277.86 65.9529 274.213 66.596L268.535 67.5972ZM300.973 48.0264L301.459 33.6376L292.988 35.1312L291.775 69.6872L300.245 68.1935L300.747 54.3016L301.024 54.2528L311.971 66.126L321.48 64.4492L308.31 50.0884L322.393 29.9462L312.584 31.6759L301.204 47.9857L300.973 48.0264ZM346.524 60.0334L355.133 58.5154L345.429 25.8844L335.065 27.7118L322.381 64.2905L331.336 62.7114L333.808 54.7312L344.68 52.8143L346.524 60.0334ZM339.953 34.5132L340.138 34.4807L343.259 46.7818L335.804 48.0964L339.953 34.5132Z" fill="white"/>
<path d="M349.272 6.74634L370.852 2.94122C378.384 1.61326 382.149 0.949275 384.353 3.1083C386.556 5.26732 385.968 9.04566 384.794 16.6023L377.145 65.8036L360.212 68.7892L349.272 6.74634Z" fill="#FF3850"/>
<path d="M20.413 128.359L34.4191 125.89L42.5806 172.176L28.1716 174.716C20.4036 176.086 16.5196 176.771 14.3081 174.531C12.0966 172.292 12.8301 168.417 14.2972 160.667L20.413 128.359Z" fill="#FF3850"/>
<rect width="317" height="47" transform="translate(34.4189 125.89) rotate(-10)" fill="#FF3850"/>
<path d="M56.5239 140.515L62.3606 139.485C62.3529 139.251 62.3308 138.934 62.2645 138.558C61.2978 133.553 56.6695 130.728 51.1107 131.708C43.0178 133.135 38.7382 139.841 40.2632 148.49C41.3328 154.555 46.0629 157.767 52.292 156.669C58.2759 155.614 62.2551 151.22 62.2279 145.712L56.3912 146.742C56.0389 149.332 54.296 151.207 51.7946 151.649C49.0152 152.139 46.9545 150.395 46.3664 147.059C45.4237 141.713 47.4958 137.403 51.4033 136.714C53.8067 136.29 55.9453 137.616 56.4172 139.91C56.5056 140.315 56.5229 140.414 56.5239 140.515ZM71.5699 138.654L71.9137 128.462L65.9135 129.52L65.0542 153.997L71.0544 152.939L71.4097 143.099L71.6059 143.064L79.3599 151.474L86.0958 150.287L76.7668 140.114L86.7426 125.847L79.7941 127.072L71.7334 138.625L71.5699 138.654ZM99.7542 148.3C106.948 147.031 111.638 140.169 110.148 131.717C109.121 125.896 104.475 122.299 97.7881 123.478C90.578 124.749 85.9397 131.619 87.4273 140.055C88.4564 145.892 93.1981 149.456 99.7542 148.3ZM98.5164 128.373C101.328 127.877 103.524 129.715 104.126 133.132C105.014 138.168 102.77 142.744 99.0586 143.399C96.2465 143.895 94.0618 142.021 93.465 138.637C92.58 133.617 94.8051 129.028 98.5164 128.373ZM114.111 121.021L113.268 145.495L119.269 144.437L119.521 137.262L123.428 136.573C129.886 135.434 133.442 131.031 132.401 125.129C131.646 120.846 128.041 118.565 122.907 119.47L114.111 121.021ZM119.944 124.747L122.478 124.3C124.669 123.914 126.106 124.705 126.464 126.733C126.931 129.381 125.442 131.549 122.63 132.044L119.67 132.566L119.944 124.747ZM147.429 139.893C154.623 138.625 159.313 131.763 157.822 123.31C156.796 117.49 152.15 113.893 145.463 115.072C138.253 116.343 133.614 123.213 135.102 131.649C136.131 137.486 140.873 141.049 147.429 139.893ZM146.191 119.967C149.003 119.471 151.198 121.309 151.801 124.726C152.689 129.762 150.445 134.338 146.733 134.993C143.921 135.488 141.736 133.615 141.14 130.23C140.255 125.211 142.48 120.621 146.191 119.967ZM189.391 132.073L190.25 107.596L184.119 108.677L183.762 118.315L174.623 119.927L174.98 110.288L168.849 111.369L167.99 135.847L174.121 134.766L174.481 124.857L183.604 123.249L183.26 133.154L189.391 132.073ZM208.765 128.657L214.863 127.582L207.989 104.468L200.648 105.762L191.664 131.672L198.007 130.554L199.758 124.901L207.459 123.543L208.765 128.657ZM204.111 110.58L204.242 110.557L206.452 119.27L201.172 120.201L204.111 110.58ZM235.578 123.929L236.437 99.4518L230.421 100.513L230.065 110.353C229.26 111.237 227.77 112.056 225.84 112.396C222.963 112.903 221.578 111.36 221.682 108.51L221.903 102.015L215.902 103.073L215.678 109.451C215.457 115.272 218.93 118.807 224.39 117.844C226.761 117.426 228.478 116.55 229.729 115.52L229.893 115.491L229.561 124.99L235.578 123.929ZM260.936 119.458L261.795 94.9806L255.664 96.0616L255.307 105.7L246.168 107.311L246.525 97.6731L240.394 98.7542L239.534 123.231L245.665 122.15L246.026 112.242L255.148 110.633L254.805 120.539L260.936 119.458ZM281.209 110.91L271.056 112.7L271.235 107.696L280.783 106.012L280.937 101.433L271.389 103.117L271.556 98.2325L281.709 96.4422L281.888 91.4376L265.735 94.2858L264.876 118.763L281.045 115.912L281.209 110.91ZM296.136 113.251L296.816 93.7785L303.601 92.5821L303.78 87.5775L284.194 91.0311L284.014 96.0358L290.799 94.8394L290.136 114.309L296.136 113.251ZM320.86 93.905L326.697 92.8758C326.689 92.6411 326.667 92.3247 326.601 91.9487C325.634 86.9439 321.006 84.1187 315.447 85.0989C307.354 86.5259 303.074 93.2312 304.599 101.88C305.669 107.946 310.399 111.157 316.628 110.059C322.612 109.004 326.591 104.61 326.564 99.1028L320.727 100.132C320.375 102.723 318.632 104.598 316.131 105.039C313.351 105.529 311.291 103.785 310.703 100.45C309.76 95.1036 311.832 90.7936 315.74 90.1046C318.143 89.6808 320.282 91.0063 320.753 93.3C320.842 93.7059 320.859 93.804 320.86 93.905ZM340.697 97.0323L342.74 96.6719L342.454 105.084L348.454 104.026L349.313 79.5488L339.013 81.365C332.555 82.5037 329.067 86.625 329.935 91.5462C330.425 94.3256 332.112 96.3377 334.46 97.0362L328.164 107.604L335.145 106.373L340.697 97.0323ZM340.13 92.7661C337.955 93.1495 336.356 92.302 336.016 90.3728C335.638 88.231 337.17 86.4944 339.949 86.0043L343.252 85.422L343.007 92.2587L340.13 92.7661Z" fill="white"/>
<path d="M346.604 70.843L385.996 63.8971L394.157 110.183L354.765 117.129L346.604 70.843Z" fill="#FF3850"/>
</svg>
