<svg width="25" height="25" viewBox="0 0 25 25" fill="none" xmlns="http://www.w3.org/2000/svg">
<path d="M24.9997 24.9993H0.000488281V0H24.9997V24.9993ZM0.861533 24.1455C0.968201 24.125 1.03198 24.1166 1.09356 24.1005C2.96765 23.6078 4.84137 23.1134 6.71473 22.6174C6.8059 22.5906 6.90152 22.5823 6.99595 22.593C7.09037 22.6037 7.1817 22.6332 7.26457 22.6797C9.39244 23.7662 11.6493 24.1661 14.0162 23.864C16.3831 23.562 18.4538 22.5899 20.2521 21.0173C23.6186 18.0731 25.043 13.1338 23.6028 8.9004C22.0405 4.30889 18.8188 1.57877 14.0019 0.869842C11.1318 0.4472 8.46175 1.12643 6.06262 2.75432C1.06277 6.14645 -0.494365 12.6704 2.39704 17.9771C2.45288 18.0888 2.46842 18.2163 2.44103 18.3382C2.2101 19.2249 1.96451 20.1075 1.72221 20.9913L0.861533 24.1455Z" fill="white"/>
<path d="M0.861328 24.1444L1.72347 20.9902C1.96504 20.1064 2.21136 19.2237 2.44229 18.337C2.46968 18.2152 2.45414 18.0877 2.39831 17.976C-0.493104 12.6693 1.06403 6.14532 6.06389 2.75319C8.46301 1.12604 11.133 0.446071 14.0032 0.868713C18.8201 1.57764 22.0418 4.30776 23.6041 8.89927C25.0443 13.1326 23.6198 18.072 20.2533 21.0162C18.455 22.5887 16.3851 23.5605 14.0175 23.8629C11.6499 24.1653 9.3937 23.765 7.26583 22.6786C7.18297 22.632 7.09163 22.6026 6.99721 22.5918C6.90278 22.5811 6.80717 22.5894 6.71599 22.6162C4.84264 23.1162 2.96843 23.6106 1.09336 24.0993C1.03178 24.1155 0.967997 24.1239 0.861328 24.1444ZM3.64387 21.3952C3.71718 21.3787 3.75677 21.3718 3.79416 21.3622C4.84508 21.087 5.89747 20.8168 6.94656 20.5316C7.18116 20.4675 7.36517 20.4884 7.58254 20.6137C10.412 22.2467 13.3643 22.4898 16.3642 21.1944C20.5264 19.3982 22.7679 15.1652 22.0326 10.6683C21.3204 6.31467 17.4382 2.89102 13.0186 2.7257C10.5769 2.63442 8.38017 3.32722 6.48763 4.87776C4.30184 6.66876 3.10686 8.99824 2.93201 11.8196C2.80115 13.9167 3.33523 15.8569 4.47926 17.623C4.52777 17.6906 4.55951 17.7687 4.57188 17.851C4.58424 17.9333 4.57687 18.0173 4.55037 18.0962C4.24283 19.1805 3.95104 20.2692 3.64387 21.3952Z" fill="black"/>
<path d="M3.64382 21.3962C3.951 20.2702 4.24278 19.1815 4.54885 18.0972C4.57535 18.0184 4.58273 17.9343 4.57036 17.852C4.558 17.7698 4.52625 17.6916 4.47774 17.624C3.33371 15.8579 2.79964 13.9177 2.9305 11.8206C3.10608 8.99815 4.30106 6.66977 6.48611 4.87877C8.37865 3.32822 10.5754 2.63543 13.0171 2.7267C17.4367 2.89202 21.3189 6.31567 22.0311 10.6693C22.7664 15.1662 20.5249 19.3985 16.3627 21.1954C13.3627 22.4908 10.4105 22.2478 7.58102 20.6147C7.36365 20.4894 7.17964 20.4681 6.94504 20.5326C5.89669 20.8178 4.8443 21.088 3.79264 21.3633C3.75672 21.3728 3.71897 21.3797 3.64382 21.3962ZM8.77563 7.0235C8.206 6.91353 7.81599 7.16792 7.47106 7.57334C6.67856 8.50586 6.49564 9.56228 6.79659 10.7202C7.04475 11.6755 7.59935 12.4669 8.17741 13.2447C9.78697 15.4096 11.7917 17.0228 14.4331 17.7585C15.4851 18.0518 16.4745 17.9887 17.418 17.378C18.1903 16.8784 18.4392 16.1559 18.4154 15.2949C18.4124 15.1941 18.3314 15.0471 18.2453 15.0046C17.4257 14.597 16.5987 14.2033 15.7692 13.8155C15.5302 13.7055 15.3433 13.7891 15.1827 14.0042C14.906 14.3745 14.6039 14.726 14.3147 15.087C14.1549 15.2865 13.9665 15.3209 13.7308 15.2271C12.0079 14.5405 10.6905 13.3884 9.74591 11.7987C9.62165 11.589 9.62752 11.4156 9.78514 11.2224C10.0311 10.9211 10.2569 10.6029 10.4904 10.2914C10.6418 10.0894 10.644 9.88338 10.5435 9.65135C10.2576 8.98861 9.97391 8.32478 9.71439 7.65178C9.54174 7.20201 9.30641 6.88457 8.7749 7.0235H8.77563Z" fill="white"/>
<path d="M8.77492 7.02322C9.30643 6.88429 9.53993 7.20137 9.71331 7.65224C9.97283 8.32524 10.2565 8.98907 10.5425 9.65181C10.6429 9.88384 10.6407 10.0917 10.4893 10.2918C10.2558 10.6034 10.03 10.9216 9.78405 11.2229C9.62643 11.4161 9.62057 11.5894 9.74483 11.7991C10.6895 13.3889 12.0076 14.541 13.7297 15.2275C13.9654 15.3214 14.1538 15.2869 14.3136 15.0875C14.6028 14.7265 14.9049 14.3749 15.1816 14.0047C15.3425 13.7895 15.5295 13.7041 15.7681 13.8159C16.5976 14.2037 17.4246 14.5974 18.2442 15.005C18.3304 15.0476 18.4114 15.1945 18.4143 15.2954C18.4381 16.1564 18.1892 16.8789 17.4169 17.3785C16.4734 17.9892 15.484 18.0519 14.432 17.759C11.7906 17.0233 9.78589 15.4101 8.17633 13.2452C7.59827 12.4673 7.04367 11.6759 6.79551 10.7207C6.49456 9.56274 6.67747 8.50632 7.46997 7.57379C7.81527 7.16765 8.20529 6.91252 8.77492 7.02322Z" fill="black"/>
</svg>
