<svg width="375" height="810" viewBox="0 0 375 810" fill="none" xmlns="http://www.w3.org/2000/svg">
    <g clip-path="url(#clip0_1731_2229)">
        <path d="M78 -2H297V-2C294.894 -1.39731 293.418 0.495246 293.345 2.68446L293.317 3.5618V3.5618C293.317 17.0587 282.375 28 268.878 28H106.122C92.6249 28 81.6835 17.0587 81.6835 3.5618V3.5618L81.6545 2.68447C81.5823 0.49525 80.1059 -1.39731 78 -2V-2Z" fill="black"/>
        <path opacity="0.35" d="M338.667 17.8335H355.333C356.53 17.8335 357.5 18.8035 357.5 20.0002V26.0002C357.5 27.1968 356.53 28.1668 355.333 28.1668H338.667C337.47 28.1668 336.5 27.1968 336.5 26.0002V20.0002C336.5 18.8035 337.47 17.8335 338.667 17.8335Z" stroke="black"/>
        <path opacity="0.4" d="M359 21V25C359.805 24.6612 360.328 23.8731 360.328 23C360.328 22.1269 359.805 21.3388 359 21" fill="black"/>
        <path d="M338 20.4335C338 19.826 338.492 19.3335 339.1 19.3335H354.9C355.508 19.3335 356 19.826 356 20.4335V25.5668C356 26.1743 355.508 26.6668 354.9 26.6668H339.1C338.492 26.6668 338 26.1743 338 25.5668V20.4335Z" fill="black"/>
        <path fill-rule="evenodd" clip-rule="evenodd" d="M323.331 19.6084C325.547 19.6085 327.678 20.4599 329.284 21.9867C329.405 22.1046 329.598 22.1031 329.717 21.9834L330.873 20.8167C330.934 20.756 330.967 20.6737 330.967 20.5882C330.966 20.5026 330.932 20.4207 330.871 20.3607C326.656 16.3212 320.006 16.3212 315.791 20.3607C315.73 20.4207 315.695 20.5025 315.694 20.5881C315.694 20.6737 315.727 20.7559 315.788 20.8167L316.944 21.9834C317.063 22.1033 317.256 22.1048 317.377 21.9867C318.983 20.4598 321.115 19.6084 323.331 19.6084ZM323.331 23.404C324.548 23.404 325.722 23.8565 326.625 24.6737C326.747 24.7897 326.939 24.7872 327.058 24.668L328.213 23.5014C328.274 23.4402 328.307 23.3572 328.307 23.2709C328.306 23.1846 328.27 23.1023 328.208 23.0424C325.46 20.486 321.204 20.486 318.456 23.0424C318.394 23.1023 318.358 23.1847 318.358 23.271C318.357 23.3573 318.391 23.4403 318.452 23.5014L319.606 24.668C319.725 24.7872 319.917 24.7897 320.039 24.6737C320.941 23.857 322.114 23.4046 323.331 23.404ZM325.644 25.9579C325.646 26.0444 325.612 26.1278 325.55 26.1884L323.553 28.204C323.494 28.2633 323.414 28.2966 323.331 28.2966C323.248 28.2966 323.168 28.2633 323.109 28.204L321.112 26.1884C321.05 26.1277 321.016 26.0443 321.018 25.9578C321.02 25.8713 321.057 25.7894 321.121 25.7314C322.397 24.6525 324.265 24.6525 325.541 25.7314C325.605 25.7894 325.642 25.8714 325.644 25.9579Z" fill="black"/>
        <path fill-rule="evenodd" clip-rule="evenodd" d="M309.667 17.667H308.667C308.115 17.667 307.667 18.1147 307.667 18.667V27.3337C307.667 27.8859 308.115 28.3337 308.667 28.3337H309.667C310.219 28.3337 310.667 27.8859 310.667 27.3337V18.667C310.667 18.1147 310.219 17.667 309.667 17.667ZM304 20.0003H305C305.553 20.0003 306 20.448 306 21.0003V27.3337C306 27.8859 305.553 28.3337 305 28.3337H304C303.448 28.3337 303 27.8859 303 27.3337V21.0003C303 20.448 303.448 20.0003 304 20.0003ZM300.334 22.3337H299.334C298.781 22.3337 298.334 22.7814 298.334 23.3337V27.3337C298.334 27.8859 298.781 28.3337 299.334 28.3337H300.334C300.886 28.3337 301.334 27.8859 301.334 27.3337V23.3337C301.334 22.7814 300.886 22.3337 300.334 22.3337ZM295.667 24.3337H294.667C294.115 24.3337 293.667 24.7814 293.667 25.3337V27.3337C293.667 27.8859 294.115 28.3337 294.667 28.3337H295.667C296.219 28.3337 296.667 27.8859 296.667 27.3337V25.3337C296.667 24.7814 296.219 24.3337 295.667 24.3337Z" fill="black"/>
        <path d="M37.5146 17.1675C35.2222 17.1675 33.5889 18.7349 33.5889 20.8809V20.8955C33.5889 22.9023 35.0098 24.3818 37.0386 24.3818C38.4888 24.3818 39.4116 23.6421 39.7998 22.8071H39.9463C39.9463 22.8877 39.939 22.9683 39.939 23.0488C39.8584 25.0703 39.1479 26.7109 37.4707 26.7109C36.5405 26.7109 35.8887 26.2275 35.6104 25.4878L35.5884 25.4146H33.728L33.7427 25.4951C34.0796 27.1138 35.5298 28.2637 37.4707 28.2637C40.1294 28.2637 41.7334 26.1543 41.7334 22.5947V22.5801C41.7334 18.7715 39.7705 17.1675 37.5146 17.1675ZM37.5073 22.9316C36.3062 22.9316 35.4346 22.0527 35.4346 20.8296V20.8149C35.4346 19.6357 36.3647 18.7056 37.5293 18.7056C38.7012 18.7056 39.6167 19.6504 39.6167 20.8589V20.8735C39.6167 22.0674 38.7012 22.9316 37.5073 22.9316ZM44.5586 21.1519C45.2324 21.1519 45.7231 20.6392 45.7231 19.9946C45.7231 19.3428 45.2324 18.8374 44.5586 18.8374C43.8921 18.8374 43.394 19.3428 43.394 19.9946C43.394 20.6392 43.8921 21.1519 44.5586 21.1519ZM44.5586 26.5864C45.2324 26.5864 45.7231 26.0811 45.7231 25.4292C45.7231 24.7773 45.2324 24.272 44.5586 24.272C43.8921 24.272 43.394 24.7773 43.394 25.4292C43.394 26.0811 43.8921 26.5864 44.5586 26.5864ZM52.5107 28H54.3198V25.9712H55.7407V24.4111H54.3198V17.4312H51.6465C50.2109 19.6138 48.7095 22.0454 47.3398 24.4258V25.9712H52.5107V28ZM49.0977 24.4551V24.3452C50.123 22.5508 51.3462 20.5952 52.4302 18.9399H52.54V24.4551H49.0977ZM59.6206 28H61.5103V17.4312H59.6279L56.8667 19.3721V21.1519L59.4961 19.2915H59.6206V28Z" fill="black"/>
    </g>
    <rect width="375" height="812" fill="#FFD84E"/>
    <path d="M217.296 447.352H208.13C207.212 447.352 206.469 448.096 206.469 449.015V458.195C206.469 459.113 207.212 459.858 208.13 459.858H217.296C218.214 459.858 218.957 459.113 218.957 458.195V449.015C218.957 448.096 218.214 447.352 217.296 447.352Z" fill="#605F75"/>
    <path d="M33.3359 582.906V605.038" stroke="#45455B" stroke-width="10" stroke-linecap="round" stroke-linejoin="round"/>
    <path d="M272.345 547.166V567.318" stroke="#45455B" stroke-width="6" stroke-linecap="round" stroke-linejoin="round"/>
    <path d="M181.909 469.271C181.508 467.821 181.211 462.039 179.771 461.77C177.087 461.112 174.456 460.254 171.9 459.203L174.575 463.325C172.028 465.213 170.76 468.632 172.064 472.601C175.462 482.946 184.248 492.151 185.812 503.134C189.005 502.946 186.827 486.209 181.909 469.271Z" fill="#FBD1DA"/>
    <path d="M-43.3428 826.779L262.961 693.471L404 713.691L194.819 861L-43.3428 826.779Z" fill="#7F7F99"/>
    <path d="M172.446 749.503C193.455 740.262 234.447 729.206 260.414 744.931C286.382 760.655 263.981 780.51 225.513 799.062C185.267 818.479 136.582 811.517 141.075 786.745C144.834 766.067 159.994 754.97 172.446 749.503Z" fill="#6B6A89"/>
    <path d="M-109.764 717.078L193.82 626.331L250.1 649.7L249.699 664.85C249.592 668.813 248.394 672.668 246.238 675.992C244.081 679.316 241.051 681.979 237.479 683.688L93.5963 752.508C89.3943 754.638 84.8027 755.888 80.1021 756.182C75.4015 756.475 70.6904 755.806 66.2567 754.215L-109.592 720.432C-109.967 720.355 -110.307 720.154 -110.556 719.863C-110.806 719.571 -110.953 719.205 -110.972 718.822C-110.992 718.438 -110.884 718.059 -110.665 717.743C-110.447 717.427 -110.13 717.193 -109.764 717.078V717.078Z" fill="#2E2942"/>
    <path d="M243.681 623.313C243.681 623.313 251.336 624.852 250.798 631.851C250.096 640.982 237.223 624.929 237.223 624.929L243.681 623.313Z" fill="#FFD84D"/>
    <path d="M79.3342 719.665L72.6628 716.274C72.4885 716.185 72.2945 716.143 72.0992 716.151C71.904 716.159 71.714 716.217 71.5474 716.319C71.3808 716.421 71.2432 716.565 71.1477 716.735C71.0522 716.906 71.002 717.099 71.002 717.294V739.704C71.0018 739.969 71.0938 740.226 71.2622 740.43C71.4305 740.635 71.6648 740.774 71.9246 740.825L79.4666 742.295C79.7234 742.347 79.9902 742.307 80.2208 742.183L84.5253 739.893C84.7087 739.796 84.8624 739.651 84.9698 739.473C85.0772 739.296 85.1343 739.092 85.1351 738.884V719.054C85.1348 718.857 85.0834 718.662 84.986 718.491C84.8886 718.319 84.7485 718.175 84.5793 718.074C84.4102 717.972 84.2176 717.916 84.0205 717.912C83.8234 717.907 83.6283 717.953 83.4542 718.046L80.3893 719.677C80.2252 719.759 80.0438 719.801 79.8603 719.799C79.6768 719.797 79.4964 719.751 79.3342 719.665V719.665Z" fill="#150F28"/>
    <path d="M237.752 655.027L234.142 653.179C233.725 652.966 233.261 652.863 232.793 652.881C232.325 652.899 231.87 653.037 231.471 653.282C231.072 653.527 230.742 653.87 230.514 654.279C230.285 654.688 230.166 655.149 230.166 655.618V673.223C230.166 673.84 230.375 674.439 230.758 674.922C231.141 675.406 231.676 675.746 232.276 675.886L238.169 677.272C238.726 677.405 239.31 677.357 239.838 677.136L242.606 675.991C243.107 675.785 243.535 675.434 243.836 674.985C244.137 674.535 244.299 674.005 244.299 673.464V657.426C244.298 656.954 244.175 656.491 243.943 656.082C243.711 655.672 243.376 655.329 242.973 655.086C242.569 654.844 242.11 654.71 241.639 654.698C241.169 654.685 240.703 654.795 240.287 655.015C239.897 655.222 239.463 655.331 239.021 655.333C238.58 655.335 238.144 655.23 237.752 655.027V655.027Z" fill="#150F28"/>
    <path d="M-54.0342 569.817C-54.0342 563.493 -50.1388 562.585 -50.1388 562.585L111.039 524.174C113.07 523.644 115.195 523.574 117.257 523.969L133.48 527.006L-29.2099 567.527C-29.2099 567.527 -54.0342 576.136 -54.0342 569.817Z" fill="#FFD84D"/>
    <path d="M79.6191 689.927C79.3062 699.453 78.8168 713.715 78.5721 722.067C78.5109 723.971 77.7152 725.778 76.3523 727.107C74.9893 728.436 73.1651 729.184 71.2628 729.194C66.21 729.219 61.1654 728.785 56.1909 727.897L25.1284 722.349L23.2189 722.007L23.0223 721.971L-29.2058 712.59C-58.1421 707.391 -54.1224 658.864 -54.0422 657.952V569.146C-54.0403 568.22 -53.8387 567.305 -53.4511 566.465C-53.0636 565.624 -52.4993 564.877 -51.7968 564.275C-51.0943 563.673 -50.2703 563.23 -49.381 562.977C-48.4918 562.723 -47.5584 562.665 -46.6446 562.806L-38.7617 564.052C-36.0957 564.471 -33.6673 565.832 -31.915 567.887C-30.1627 569.943 -29.2018 572.558 -29.2058 575.26L-28.9411 653.662C-28.9411 655.188 -20.4724 664.786 -18.964 665.019L70.3281 678.715C72.9786 679.121 75.3882 680.487 77.1005 682.554C78.8128 684.62 79.709 687.244 79.6191 689.927V689.927Z" fill="#DCAA27"/>
    <path d="M243.681 623.313L115.985 667.506L104.275 671.628L103.565 671.877L88.6576 677.1L88.0679 677.256L87.5825 677.381C87.2976 677.453 87.0168 677.521 86.732 677.586L86.2265 677.702L86.046 677.742L85.2436 677.907C84.8866 677.979 84.5255 678.048 84.1645 678.112L84.0241 678.136C83.8155 678.176 83.6029 678.208 83.3943 678.24L83.2378 678.269C82.8727 678.329 82.5117 678.381 82.1466 678.429H82.0503L81.3483 678.518C81.2039 678.538 81.0635 678.554 80.919 678.566C80.6302 678.602 80.3373 678.63 80.0445 678.658H79.9482C75.9164 679.015 71.8563 678.88 67.857 678.257L36.1366 673.351L35.1778 673.203L-16.5047 665.252L-19.4092 664.798C-21.2992 664.129 -23.0319 663.079 -24.5 661.713L-20.5284 660.399L7.31667 651.187L137.893 607.991L243.681 623.313Z" fill="#FFD84D"/>
    <path d="M137.724 532.675L137.889 607.963L7.27633 651.131L-20.5327 660.371L-24.5082 661.693C-25.9912 660.314 -27.1739 658.644 -27.9823 656.786C-28.7906 654.929 -29.2072 652.924 -29.2059 650.898V575.116C-29.2269 573.192 -29.7556 571.309 -30.7384 569.656L-31.7373 568.113L-28.8008 567.426L131.241 527.167C134.539 526.336 137.724 528.834 137.724 532.675Z" fill="#EEBE21"/>
    <path d="M250.854 632.811V654.666C250.854 661.371 249.25 666.964 242.341 669.631C233.708 672.958 149.423 705.712 115.689 718.158C101.363 723.445 87.2858 729.154 71.7445 729.186C73.5583 729.058 75.2599 728.26 76.5198 726.947C77.7798 725.634 78.5083 723.899 78.5644 722.079C78.8332 713.711 79.2985 699.453 79.6154 689.94C79.7066 687.255 78.8118 684.63 77.1003 682.561C75.3889 680.492 72.9796 679.124 70.3284 678.715L70.0355 678.67C69.7146 678.598 69.3616 678.534 68.9805 678.482C79.812 679.9 88.6377 677.136 98.5987 673.629C106.622 670.816 205.542 636.491 239.501 624.712C240.79 624.265 242.167 624.134 243.517 624.329C244.867 624.523 246.151 625.039 247.262 625.831C248.373 626.624 249.279 627.671 249.903 628.885C250.528 630.099 250.854 631.445 250.854 632.811V632.811Z" fill="#EEBE21"/>
    <path d="M-16.1116 745.405C-16.1116 745.405 -53.1033 731.746 -63.2409 749.531C-69.2584 760.069 -68.1592 786.026 -42.6529 787.87C-29.8596 788.798 0.966142 786.026 20.6394 756.895L-16.1116 745.405Z" fill="#2E2942"/>
    <path d="M7.60499 696.399C7.87244 697.698 8.13988 699.011 8.40733 700.337L-8.185 700.116C-8.185 700.116 -9.43263 688.288 -9.3885 672.54C-9.3885 665.891 -9.13577 658.539 -8.47384 651.082C-7.49098 639.958 -5.57339 628.584 -2.08724 618.999L-2.05113 618.886C0.853326 610.919 4.83693 604.17 10.2647 599.775C10.2728 599.767 -4.75501 635.012 7.60499 696.399Z" fill="#6F6F82"/>
    <path d="M8.42784 700.337L-8.16449 700.116C-8.16449 700.116 -9.41213 688.288 -9.368 672.54L-8.45333 651.082C-7.47047 639.958 -5.55288 628.584 -2.06673 618.999C-2.4358 620.204 -4.82276 628.335 -3.54303 632.598C-3.54303 632.598 1.0664 668.14 -0.931421 693.374C-0.931421 693.374 -1.4048 697.034 7.61748 696.399C7.87155 697.698 8.14167 699.011 8.42784 700.337Z" fill="#535266"/>
    <path d="M18.2807 703.47C18.7089 704.823 19.2679 706.131 19.9496 707.375H10.2734C10.2734 707.375 6.57461 677.622 16.0743 651.737C17.1715 648.717 18.4646 645.771 19.9456 642.919C19.9456 642.919 13.6031 676.734 16.8365 697.243C17.1535 699.354 17.6364 701.436 18.2807 703.47V703.47Z" fill="#605F75"/>
    <path d="M18.2807 703.47C18.1724 704.788 17.9758 706.15 17.7672 707.375H10.2734C10.2734 707.375 6.57461 677.622 16.0743 651.737C15.9218 652.392 10.2975 676.686 12.1147 694.146C12.1147 694.146 11.4368 698.143 16.0783 697.223C16.329 697.165 16.5898 697.165 16.8405 697.223C18.3369 697.629 18.5334 700.433 18.2807 703.47Z" fill="#4E4D63"/>
    <path d="M29.0078 704.904V736.892C29.0089 743.882 26.69 750.675 22.4157 756.202C18.1413 761.729 12.154 765.677 5.39505 767.425V767.425C2.83005 768.084 0.192244 768.416 -2.45581 768.413H-6.49959C-10.6342 768.415 -14.7287 767.601 -18.5491 766.018C-22.3696 764.435 -25.841 762.113 -28.7652 759.186C-31.6894 756.259 -34.0089 752.783 -35.5913 748.958C-37.1737 745.132 -37.9878 741.032 -37.9873 736.892V704.904C-37.9873 703.093 -37.2688 701.356 -35.9898 700.075C-34.7108 698.794 -32.9762 698.075 -31.1674 698.075H22.188C23.9967 698.075 25.7314 698.794 27.0103 700.075C28.2893 701.356 29.0078 703.093 29.0078 704.904Z" fill="#EF3E54"/>
    <path d="M5.39505 767.421C2.83005 768.08 0.192244 768.412 -2.45581 768.409H-6.49959C-10.6339 768.411 -14.728 767.597 -18.5482 766.014C-22.3684 764.431 -25.8397 762.11 -28.7638 759.183C-31.6879 756.257 -34.0075 752.781 -35.5901 748.956C-37.1727 745.132 -37.9873 741.032 -37.9873 736.892V704.904C-37.9873 703.093 -37.2688 701.356 -35.9898 700.075C-34.7108 698.794 -32.9762 698.075 -31.1674 698.075H-21.2987C-22.8994 707.299 -31.2517 764.195 5.39505 767.421Z" fill="#D33350"/>
    <path d="M195.633 608.814L314.884 642.244C317.745 643.046 320.738 643.266 323.686 642.888C326.633 642.511 329.475 641.544 332.042 640.046L382.617 609.083L288.475 588.968C284.476 588.389 280.403 588.575 276.472 589.514L195.633 608.814Z" fill="#2E2942"/>
    <path d="M240.139 603.186C239.872 597.505 239.675 591.827 239.549 586.152C239.424 580.476 239.326 574.798 239.257 569.118L239.212 564.859L239.192 560.601V552.083C239.192 549.243 239.269 546.403 239.425 543.566C239.582 540.73 239.774 537.886 240.159 535.049H241.764C242.165 537.886 242.35 540.726 242.498 543.566C242.646 546.407 242.715 549.243 242.731 552.083L242.711 560.601V564.859L242.667 569.118C242.61 574.793 242.513 580.471 242.374 586.152C242.235 591.832 242.038 597.511 241.784 603.186H240.139Z" fill="#150F28"/>
    <path d="M268.858 590.977C268.73 588.406 268.662 585.835 268.574 583.263C268.485 580.692 268.433 578.121 268.369 575.55L268.233 567.84L268.156 560.127C268.156 554.984 268.092 549.846 268.18 544.703C268.269 539.561 268.437 534.419 268.858 529.276H270.463C270.864 534.419 271.049 539.561 271.141 544.703C271.233 549.846 271.177 554.984 271.165 560.127L271.085 567.84L270.952 575.55C270.888 578.121 270.84 580.692 270.744 583.263C270.648 585.835 270.587 588.406 270.463 590.977H268.858Z" fill="#150F28"/>
    <path d="M333.47 626.989C333.225 620.987 333.069 614.985 332.937 608.983C332.872 605.982 332.812 602.981 332.772 599.98C332.732 596.979 332.672 593.978 332.652 590.977L332.572 581.973L332.548 572.97C332.491 566.968 332.519 560.966 333.47 554.964H335.075C336.03 560.966 336.058 566.968 336.002 572.97L335.978 581.973L335.893 590.977C335.893 593.978 335.821 596.979 335.777 599.98C335.733 602.981 335.677 605.982 335.612 608.983C335.484 614.985 335.324 620.987 335.075 626.989H333.47Z" fill="#150F28"/>
    <path d="M362.19 613.736C361.986 609.316 361.861 604.861 361.741 600.422L361.592 593.765L361.484 587.112C361.425 582.674 361.381 578.236 361.352 573.798L361.332 567.141C361.404 564.919 360.971 562.722 362.19 560.484H363.795C365.018 562.702 364.597 564.903 364.657 567.141L364.633 573.798C364.609 578.233 364.566 582.671 364.505 587.112L364.393 593.765L364.244 600.422C364.124 604.841 364.003 609.3 363.795 613.736H362.19Z" fill="#150F28"/>
    <path d="M345.426 572.914L385.771 557.732L250.85 531.715L209.951 541.618L345.426 572.914Z" fill="#7F7F99"/>
    <path d="M263.755 536.664L258.107 539.332C257.734 539.471 257.417 539.727 257.201 540.061C256.986 540.396 256.883 540.791 256.909 541.188C256.935 541.585 257.089 541.963 257.346 542.267C257.604 542.57 257.952 542.782 258.339 542.871L330.369 559.467C330.64 559.53 330.922 559.531 331.194 559.47C331.465 559.408 331.719 559.286 331.937 559.113C332.155 558.94 332.331 558.719 332.452 558.468C332.573 558.217 332.636 557.942 332.636 557.663V551.384L263.755 536.664Z" fill="#433E59"/>
    <path d="M260.306 538.291L332.636 555.555V551.38L263.034 537.006L260.306 538.291Z" fill="#312E47"/>
    <path d="M243.894 446.793V530.232C243.894 530.928 244.133 531.603 244.571 532.143C245.01 532.683 245.62 533.055 246.301 533.197L351.772 557.206C352.212 557.299 352.668 557.293 353.106 557.187C353.543 557.081 353.952 556.879 354.302 556.595C354.651 556.311 354.933 555.952 355.126 555.544C355.319 555.137 355.419 554.692 355.418 554.241V461.397C355.419 460.665 355.156 459.958 354.676 459.407C354.197 458.855 353.534 458.496 352.811 458.396L247.332 443.796C246.904 443.736 246.468 443.769 246.054 443.892C245.64 444.016 245.257 444.226 244.931 444.51C244.605 444.795 244.344 445.145 244.165 445.539C243.986 445.933 243.893 446.36 243.894 446.793V446.793Z" fill="#150F28"/>
    <path d="M351.655 465.522V549.251C351.657 549.678 351.564 550.1 351.382 550.486C351.2 550.872 350.934 551.212 350.603 551.482C350.273 551.751 349.886 551.944 349.472 552.044C349.058 552.145 348.626 552.151 348.209 552.063L309.452 543.663L301.634 541.967L276.841 536.592L258.608 532.643L249.622 530.694C248.979 530.557 248.403 530.203 247.99 529.691C247.577 529.179 247.353 528.54 247.355 527.882V451.12C247.355 450.709 247.443 450.303 247.614 449.929C247.784 449.555 248.033 449.222 248.343 448.953C248.653 448.684 249.017 448.485 249.411 448.37C249.805 448.254 250.219 448.225 250.625 448.283L260.313 449.698L266.206 450.557L276.276 452.032L293.378 454.535L312.834 457.379L325.034 459.155L334.766 460.577L343.146 461.802L349.196 462.686C349.879 462.78 350.505 463.12 350.958 463.642C351.41 464.163 351.658 464.832 351.655 465.522V465.522Z" fill="#F4F3F7"/>
    <path d="M351.655 465.523V549.251C351.657 549.678 351.564 550.1 351.382 550.486C351.2 550.872 350.934 551.212 350.603 551.482C350.273 551.752 349.886 551.944 349.472 552.044C349.058 552.145 348.626 552.151 348.209 552.063L309.452 543.663L301.634 541.967L276.841 536.592L249.622 530.666C248.979 530.53 248.403 530.175 247.99 529.663C247.577 529.151 247.353 528.512 247.355 527.854V480.448C248.158 480.906 258.227 474.59 282.799 500.511C302.773 521.579 328.251 486.916 312.818 457.371L325.034 459.155L334.766 460.577L343.146 461.802L349.196 462.686C349.879 462.781 350.505 463.12 350.958 463.642C351.41 464.163 351.658 464.832 351.655 465.523V465.523Z" fill="#C2912C"/>
    <path d="M209.934 541.618C209.934 541.618 209.866 541.59 209.862 541.65C209.858 541.71 209.862 541.855 209.862 541.855V543.554C209.862 543.947 209.995 544.329 210.238 544.637C210.481 544.945 210.82 545.163 211.202 545.254L343.772 576.55C344.811 576.916 345.943 576.916 346.982 576.55C348.538 575.919 385.048 561.388 385.048 561.388C385.048 561.388 385.787 561.283 385.767 559.95C385.746 558.616 385.767 557.732 385.767 557.732L345.421 572.914L209.934 541.618Z" fill="#312E47"/>
    <path d="M351.655 465.522V549.251C351.657 549.678 351.564 550.1 351.382 550.486C351.2 550.872 350.934 551.212 350.603 551.482C350.273 551.751 349.886 551.944 349.472 552.044C349.058 552.145 348.626 552.151 348.209 552.063L309.452 543.663L301.634 541.967L276.842 536.592L258.608 532.643C262.52 507.156 283.81 526.765 306.749 525.492C338.401 523.732 322.992 476.735 334.75 460.601L343.131 461.826L349.18 462.71C349.862 462.801 350.489 463.135 350.944 463.652C351.399 464.169 351.652 464.833 351.655 465.522V465.522Z" fill="#D33350"/>
    <path d="M293.518 456.656C293.519 458.806 293.037 460.929 292.108 462.868C291.179 464.807 289.827 466.512 288.152 467.858C286.477 469.203 284.522 470.154 282.43 470.641C280.339 471.128 278.165 471.138 276.069 470.671C273.973 470.204 272.009 469.271 270.321 467.941C268.633 466.611 267.266 464.919 266.319 462.989C265.372 461.059 264.871 458.94 264.851 456.79C264.832 454.64 265.295 452.512 266.207 450.565L276.276 452.04L293.378 454.535C293.477 455.237 293.524 455.946 293.518 456.656Z" fill="#FEE387"/>
    <path d="M351.655 465.522V549.251C351.657 549.678 351.564 550.1 351.382 550.486C351.2 550.872 350.934 551.212 350.603 551.482C350.273 551.751 349.886 551.944 349.472 552.044C349.058 552.145 348.626 552.151 348.209 552.063L309.452 543.663L305.24 542.751L301.63 541.947L276.837 536.572L258.604 532.622L249.618 530.674C248.975 530.537 248.399 530.183 247.986 529.671C247.573 529.159 247.349 528.52 247.352 527.862V451.12C247.351 450.709 247.439 450.303 247.61 449.929C247.78 449.555 248.029 449.222 248.339 448.953C248.649 448.684 249.014 448.485 249.407 448.37C249.801 448.254 250.215 448.225 250.621 448.283L260.309 449.698L266.202 450.557L276.272 452.032L293.378 454.535L312.834 457.379L325.034 459.155L334.766 460.577L343.147 461.802L349.196 462.686C349.88 462.78 350.506 463.12 350.958 463.642C351.41 464.163 351.658 464.832 351.655 465.522V465.522Z" fill="#45455B"/>
    <path d="M293.518 456.656C293.519 458.806 293.037 460.929 292.108 462.868C291.179 464.807 289.827 466.512 288.152 467.858C286.477 469.203 284.522 470.154 282.43 470.641C280.339 471.128 278.165 471.138 276.069 470.671C273.973 470.204 272.009 469.271 270.321 467.941C268.633 466.611 267.266 464.919 266.319 462.989C265.372 461.059 264.871 458.94 264.851 456.79C264.832 454.64 265.295 452.512 266.207 450.565L276.276 452.04L293.378 454.535C293.477 455.237 293.524 455.946 293.518 456.656Z" fill="#B76274"/>
    <path d="M351.655 465.522V549.251C351.657 549.678 351.564 550.1 351.382 550.486C351.2 550.872 350.934 551.212 350.603 551.482C350.273 551.751 349.886 551.944 349.472 552.044C349.058 552.145 348.626 552.151 348.209 552.063L309.452 543.662L301.634 541.967L276.841 536.592L249.622 530.666C248.979 530.529 248.403 530.175 247.99 529.663C247.577 529.151 247.353 528.512 247.355 527.854V480.447C248.158 480.905 256.526 496.553 269.66 476.141C284.58 452.948 312.818 457.371 312.818 457.371L325.034 459.155L334.766 460.577L343.146 461.802L349.196 462.686C349.879 462.78 350.505 463.12 350.958 463.642C351.41 464.163 351.658 464.832 351.655 465.522V465.522Z" fill="#6F6F82"/>
    <path d="M351.655 465.522V549.251C351.657 549.678 351.564 550.1 351.382 550.486C351.2 550.872 350.934 551.212 350.603 551.482C350.273 551.751 349.886 551.944 349.472 552.044C349.058 552.145 348.626 552.151 348.209 552.063L309.452 543.663L301.634 541.967L276.842 536.592L258.608 532.643C262.52 507.156 276.372 480.817 297.823 489.089C343.957 506.903 323.008 476.735 334.766 460.601L343.147 461.826L349.196 462.71C349.876 462.804 350.498 463.14 350.95 463.657C351.402 464.173 351.652 464.836 351.655 465.522V465.522Z" fill="#605F75"/>
    <path d="M351.656 481.472V549.251C351.658 549.678 351.564 550.1 351.382 550.486C351.2 550.872 350.934 551.212 350.604 551.482C350.273 551.752 349.887 551.944 349.472 552.045C349.058 552.145 348.627 552.152 348.21 552.063L309.453 543.663L305.24 542.751C304.899 542.349 304.715 542.12 304.715 542.12C307.996 530.939 319.646 531.839 335.649 534.314C351.652 536.789 347.901 492.95 351.656 481.472Z" fill="#D33350"/>
    <path d="M334.053 688.722C324.06 690.699 306.079 690.703 299.653 678.088C293.226 665.473 306.071 657.808 324.714 653.272C344.234 648.523 361.2 659.672 354.087 672.753C348.15 683.668 339.974 687.553 334.053 688.722Z" fill="#2E2942"/>
    <path d="M326.566 612.623C326.982 612.72 327.374 612.899 327.719 613.151C328.065 613.402 328.356 613.721 328.575 614.088C328.794 614.454 328.938 614.862 328.997 615.285C329.055 615.709 329.028 616.139 328.917 616.552C327.958 620.14 327.549 627.351 336.19 634.306C348.342 644.084 347.784 651.432 347.022 659.435C345.594 674.488 315.602 675.561 310.692 673.151C307.996 671.829 307.378 670.403 307.687 668.936C307.936 667.731 308.461 666.421 311.835 665.779C319.337 664.356 320.516 665.092 324.183 664.573L318.968 664.192C318.968 664.192 315.502 661.106 324.259 659.543C324.259 659.543 318.178 660.258 317.961 652.943C317.961 652.943 318.134 663.766 316.798 664.192C315.462 664.617 310.058 665.345 310.56 663.85C310.56 663.85 305.621 665.698 305.593 662.392C305.565 659.085 307.735 661.363 308.742 655.458C309.749 649.552 311.799 630.951 312.778 620.55C312.778 620.55 313.777 614.122 320.512 612.712C322.5 612.244 324.566 612.214 326.566 612.623V612.623Z" fill="#EEBE21"/>
    <path d="M310.576 663.882C309.946 658.968 313.232 661.716 313.785 653.649C314.319 645.835 313.978 642.035 314.74 635.386" stroke="#150F28" stroke-linecap="round" stroke-linejoin="round"/>
    <path d="M319.309 642.963C319.309 642.963 317.632 651.367 317.845 658.041" stroke="#150F28" stroke-linecap="round" stroke-linejoin="round"/>
    <path d="M322.463 664.67C322.463 664.67 334.975 665.168 342.802 652.886" stroke="#150F28" stroke-linecap="round" stroke-linejoin="round"/>
    <path d="M333.391 647.543C329.78 642.654 321.873 643.526 318.483 649.7" stroke="#150F28" stroke-linecap="round" stroke-linejoin="round"/>
    <path d="M319.197 625.664C325.762 625.664 331.084 620.334 331.084 613.76C331.084 607.185 325.762 601.856 319.197 601.856C312.632 601.856 307.311 607.185 307.311 613.76C307.311 620.334 312.632 625.664 319.197 625.664Z" fill="#EEBE21"/>
    <path d="M324.938 624.185C324.585 624.378 324.22 624.555 323.843 624.715" stroke="#150F28" stroke-linecap="round" stroke-linejoin="round"/>
    <path d="M330.686 616.854C330.149 618.855 329.1 620.682 327.642 622.153" stroke="#150F28" stroke-linecap="round" stroke-linejoin="round"/>
    <path d="M319.281 625.668C316.936 625.686 314.637 625.009 312.675 623.723C310.713 622.436 309.174 620.597 308.253 618.436C308.201 618.304 308.145 618.175 308.097 618.035" stroke="#150F28" stroke-linecap="round" stroke-linejoin="round"/>
    <path d="M316.433 617.343C316.758 616.676 318.684 616.773 319.35 617.657C320.016 618.54 317.853 619.187 317.853 619.187C317.853 619.187 315.932 618.364 316.433 617.343Z" fill="#150F28"/>
    <path d="M314.868 620.429C314.868 620.429 316.742 621.554 317.841 619.051C317.841 619.051 317.765 621.606 319.963 621.06" stroke="#150F28" stroke-linecap="round" stroke-linejoin="round"/>
    <path d="M313.649 616.793L310.103 614.937" stroke="#150F28" stroke-linecap="round" stroke-linejoin="round"/>
    <path d="M312.213 618.26L309.95 618.251" stroke="#150F28" stroke-linecap="round" stroke-linejoin="round"/>
    <path d="M321.508 618.396L326.859 618.649" stroke="#150F28" stroke-linecap="round" stroke-linejoin="round"/>
    <path d="M322.68 620.055L325.135 621.505" stroke="#150F28" stroke-linecap="round" stroke-linejoin="round"/>
    <path d="M315.339 614.005C315.929 613.935 316.328 613.213 316.232 612.391C316.136 611.569 315.579 610.959 314.99 611.028C314.4 611.098 314 611.82 314.096 612.642C314.193 613.464 314.749 614.074 315.339 614.005Z" fill="#150F28"/>
    <path d="M325.358 613.715C325.648 612.937 325.43 612.138 324.872 611.93C324.313 611.722 323.626 612.184 323.337 612.961C323.048 613.739 323.266 614.539 323.824 614.747C324.382 614.955 325.069 614.493 325.358 613.715Z" fill="#150F28"/>
    <path d="M329.154 612.844C331.617 610.984 334.053 605.664 334.053 605.664C329.391 603.656 324.212 606.271 324.212 606.271L329.154 612.844Z" fill="#EEBE21"/>
    <path d="M334.053 605.665C334.053 605.665 331.617 610.984 329.154 612.844" stroke="#150F28" stroke-linecap="round" stroke-linejoin="round"/>
    <path d="M332.961 606.753C332.961 606.753 329.535 607.469 327.666 609.353C327.666 609.353 329.62 608.389 329.383 609.309C329.146 610.229 328.067 610.168 328.067 610.168C328.067 610.168 329.535 610.57 328.468 610.972" stroke="#150F28" stroke-linecap="round" stroke-linejoin="round"/>
    <path d="M316.244 603.182C316.244 603.182 311.506 599.884 306.957 600.462C306.957 600.462 307.194 605.637 309.529 607.589C309.525 607.589 315.959 604.56 316.244 603.182Z" fill="#EEBE21"/>
    <path d="M306.953 600.462C306.953 600.462 307.19 605.636 309.525 607.589" stroke="#150F28" stroke-linecap="round" stroke-linejoin="round"/>
    <path d="M307.651 601.161C307.651 601.161 310.805 602.531 312.225 604.713C312.225 604.713 310.536 603.395 310.584 604.311C310.632 605.227 311.679 605.4 311.679 605.4C311.679 605.4 310.187 605.488 311.138 606.095" stroke="#150F28" stroke-linecap="round" stroke-linejoin="round"/>
    <path d="M308.306 712.819L306.749 720.734C306.678 721.096 306.688 721.469 306.778 721.827C306.868 722.184 307.036 722.518 307.27 722.803C307.504 723.088 307.798 723.317 308.131 723.475C308.464 723.633 308.828 723.714 309.196 723.715H327.59C327.965 723.714 328.335 723.629 328.673 723.465C329.01 723.302 329.307 723.064 329.54 722.77C329.773 722.475 329.937 722.132 330.02 721.766C330.102 721.4 330.101 721.019 330.017 720.653L328.147 712.542L308.306 712.819Z" fill="#6B6A89"/>
    <path d="M309.754 722.172C308.462 722.115 307.459 721.127 307.568 720.014L308.254 713.088C308.35 712.112 309.285 711.373 310.424 711.373H326.033C327.189 711.373 328.184 712.128 328.332 713.124L329.195 719.93C329.231 720.214 329.206 720.503 329.121 720.776C329.037 721.05 328.894 721.303 328.705 721.517C328.515 721.731 328.281 721.902 328.02 722.019C327.758 722.135 327.475 722.194 327.189 722.192L309.754 722.172Z" fill="#4E4D63"/>
    <path d="M327.201 722.172H309.758C308.462 722.115 307.459 721.127 307.568 720.014L307.624 719.444C307.774 719.892 308.061 720.281 308.444 720.557C308.827 720.833 309.286 720.982 309.758 720.983H327.201C327.643 720.984 328.073 720.838 328.424 720.57C328.775 720.301 329.028 719.923 329.142 719.496L329.195 719.898C329.232 720.182 329.209 720.471 329.126 720.745C329.043 721.02 328.902 721.273 328.714 721.488C328.525 721.704 328.292 721.876 328.031 721.994C327.77 722.112 327.487 722.173 327.201 722.172V722.172Z" fill="#150F28"/>
    <path d="M326.615 720.239L323.037 720.28H321.978L315.579 720.348H314.809L312.181 720.376H310.693C310.101 720.366 309.532 720.145 309.088 719.753C308.94 719.624 308.823 719.463 308.745 719.282C308.668 719.101 308.631 718.905 308.639 718.709L309.04 713.293C309.096 712.53 309.922 711.939 310.961 711.927L316.947 711.859H318.664L320.437 711.835L323.281 711.803L325.203 711.783C325.545 711.769 325.887 711.829 326.205 711.957C326.523 712.085 326.81 712.279 327.048 712.526C327.142 712.63 327.219 712.748 327.277 712.875C327.313 712.956 327.341 713.039 327.361 713.124L328.368 718.436C328.541 719.388 327.722 720.227 326.615 720.239Z" fill="#F4F3F7"/>
    <path d="M318.652 711.875L312.181 720.396H310.693C310.101 720.386 309.532 720.165 309.088 719.773L316.947 711.879L318.652 711.875Z" fill="#C5C5D6"/>
    <path d="M323.269 711.819L315.579 720.356L314.809 720.368L320.425 711.851L323.269 711.819Z" fill="#C5C5D6"/>
    <path d="M327.269 712.891L323.037 720.292H321.978L327.04 712.546C327.133 712.649 327.211 712.765 327.269 712.891V712.891Z" fill="#C5C5D6"/>
    <path d="M196.174 430.602C179.51 434.045 167.39 455.314 162.476 489.615C157.69 522.989 144.945 546.84 193.406 549.476C215.848 550.681 232.275 547.005 235.332 533.113C238.389 519.22 219.261 491.909 221.849 474.401C226.202 444.901 216.726 426.36 196.174 430.602Z" fill="#150F28"/>
    <path d="M194.887 434.757C194.887 434.757 181.753 443.169 176.967 458.601" stroke="#2E2942" stroke-linecap="round" stroke-linejoin="round"/>
    <path d="M174.102 483.191C174.102 483.191 168.197 499.093 167.246 508.698" stroke="#2E2942" stroke-linecap="round" stroke-linejoin="round"/>
    <path d="M186.603 541.16C186.603 541.16 187.437 553.57 186.944 562.211C186.45 570.853 226.876 561.589 226.876 561.589C226.876 561.589 223.45 554.208 224.77 542.839L186.603 541.16Z" fill="#FBD1DA"/>
    <path d="M186.94 554.293C187.012 555.317 187.076 557.129 187.06 559.319C187.023 562.402 186.603 565.468 185.808 568.447C185.03 571.398 183.867 574.235 182.35 576.883C177.236 585.722 177.135 605.99 191.084 612.772C212.025 622.948 234.482 618.958 233.158 596.517C231.835 574.075 226.876 561.601 226.876 561.601C226.876 561.601 225.067 557.792 224.798 550.854C224.778 559.134 187.57 557.009 186.94 554.293Z" fill="#EF3E54"/>
    <path d="M194.313 479.769C194.313 479.769 196.68 475.47 194.369 469.436C193.755 467.829 194.164 467.302 195.681 466.37C198.654 464.538 204.262 464.486 206.797 468.094C207.84 469.572 208.37 471.657 208.001 474.486C207.813 475.306 207.696 476.14 207.652 476.98C207.535 478.752 207.652 481.191 208.791 483.292C209.958 485.465 223.349 496.839 212.209 500.716C200.122 504.918 176.95 488.772 188.007 484.344C191.721 482.858 193.294 482.199 194.313 479.769Z" fill="#FBD1DA"/>
    <path d="M261.818 501.387C257.734 501.728 232.312 501.029 222.242 499.149C212.173 497.269 205.666 496.044 206.501 490.387C207.247 485.313 208.667 485.164 215.84 485.124C219.763 485.124 242.253 487.133 246.152 487.462C250.051 487.792 253.951 488.205 257.858 488.471C257.858 488.471 268.409 489.166 268.437 494.814C268.461 499.418 265.902 501.045 261.818 501.387Z" fill="#FBD1DA"/>
    <path d="M297.634 497.156C297.634 497.156 306.861 501.72 311.467 500.905C311.467 500.905 315.683 496.112 314.632 492.183C314.632 492.183 308.887 490.648 300.33 491.564C300.33 491.564 295.761 491.689 295.761 494.187C295.757 494.81 295.931 495.421 296.263 495.947C296.595 496.473 297.071 496.893 297.634 497.156V497.156Z" fill="#FBD1DA"/>
    <path d="M322.169 502.038C322.055 502.331 321.843 502.576 321.571 502.733C321.298 502.89 320.98 502.95 320.669 502.901L315.265 501.527L309.677 500.632C309.494 500.594 309.32 500.519 309.167 500.412C309.013 500.305 308.883 500.168 308.784 500.009C308.685 499.85 308.619 499.673 308.59 499.488C308.561 499.303 308.57 499.114 308.616 498.932C308.662 498.751 308.745 498.581 308.858 498.432C308.972 498.283 309.114 498.159 309.277 498.067C309.44 497.975 309.62 497.917 309.806 497.896C309.992 497.876 310.18 497.893 310.359 497.948L315.891 499.358L321.106 500.161C321.468 500.218 321.793 500.416 322.01 500.712C322.226 501.008 322.317 501.378 322.262 501.74C322.244 501.843 322.213 501.943 322.169 502.038V502.038Z" fill="#FBD1DA"/>
    <path d="M324.119 500.186C324.004 500.479 323.793 500.724 323.52 500.881C323.248 501.038 322.93 501.098 322.619 501.049L317.355 500.246L317.227 500.218L311.611 498.796C311.427 498.758 311.254 498.683 311.1 498.576C310.947 498.469 310.817 498.332 310.717 498.173C310.618 498.014 310.552 497.837 310.523 497.652C310.495 497.467 310.503 497.278 310.55 497.096C310.596 496.915 310.678 496.745 310.792 496.596C310.905 496.447 311.048 496.323 311.211 496.231C311.374 496.139 311.554 496.081 311.74 496.061C311.925 496.04 312.114 496.058 312.293 496.112L317.829 497.518L323.044 498.322C323.249 498.352 323.445 498.429 323.616 498.546C323.787 498.663 323.93 498.817 324.033 498.997C324.137 499.177 324.198 499.379 324.213 499.586C324.228 499.793 324.196 500.001 324.119 500.194V500.186Z" fill="#FBD1DA"/>
    <path d="M324.568 497.57C324.453 497.863 324.242 498.109 323.97 498.266C323.697 498.423 323.379 498.482 323.068 498.434L317.805 497.63L317.676 497.602L312.06 496.18C311.877 496.142 311.703 496.067 311.55 495.96C311.396 495.853 311.266 495.716 311.167 495.557C311.067 495.399 311.001 495.221 310.973 495.036C310.944 494.851 310.953 494.662 310.999 494.481C311.045 494.299 311.127 494.129 311.241 493.98C311.355 493.831 311.497 493.707 311.66 493.615C311.823 493.523 312.003 493.465 312.189 493.445C312.375 493.424 312.563 493.442 312.742 493.496L318.278 494.902L323.493 495.706C323.673 495.734 323.845 495.797 324 495.892C324.155 495.986 324.29 496.111 324.397 496.258C324.504 496.405 324.581 496.572 324.623 496.749C324.666 496.925 324.673 497.109 324.644 497.289C324.631 497.385 324.605 497.48 324.568 497.57V497.57Z" fill="#FBD1DA"/>
    <path d="M322.262 494.404C322.148 494.697 321.938 494.943 321.666 495.1C321.394 495.257 321.076 495.316 320.766 495.268L315.499 494.465L315.37 494.437L309.754 493.01C309.016 492.826 306.629 494.216 306.817 493.492C307.006 492.769 307.491 491.375 309.682 491.448C311.872 491.52 315.844 492.159 315.844 492.159L321.087 493.159C321.837 493.28 322.342 493.705 322.262 494.404Z" fill="#FBD1DA"/>
    <path d="M312.541 503.347C312.52 503.412 312.493 503.475 312.461 503.536C312.377 503.697 312.261 503.839 312.122 503.955C311.982 504.071 311.821 504.159 311.648 504.212C311.475 504.266 311.293 504.285 311.112 504.268C310.932 504.251 310.756 504.199 310.596 504.114L305.878 501.628L305.766 501.563L300.952 498.393C300.767 498.313 300.603 498.193 300.47 498.043C300.337 497.892 300.238 497.714 300.18 497.521C300.123 497.328 300.108 497.125 300.138 496.926C300.167 496.727 300.239 496.537 300.349 496.369C300.459 496.2 300.605 496.058 300.776 495.952C300.947 495.846 301.138 495.779 301.338 495.755C301.537 495.73 301.74 495.75 301.931 495.813C302.122 495.875 302.297 495.978 302.444 496.116L307.226 499.245L311.883 501.7C312.168 501.854 312.39 502.103 312.51 502.404C312.63 502.705 312.641 503.039 312.541 503.347Z" fill="#FBD1DA"/>
    <path d="M318.864 494.605C318.864 494.605 317.488 494.123 314.347 493.802" stroke="#150F28" stroke-linecap="round" stroke-linejoin="round"/>
    <path d="M320.886 497.666C318.638 496.916 316.319 496.396 313.966 496.116" stroke="#150F28" stroke-linecap="round" stroke-linejoin="round"/>
    <path d="M320.753 500.431C320.753 500.431 315.498 498.707 313.055 498.386" stroke="#150F28" stroke-linecap="round" stroke-linejoin="round"/>
    <path d="M310.817 500.937C308.832 500.651 306.865 500.248 304.928 499.731" stroke="#150F28" stroke-linecap="round" stroke-linejoin="round"/>
    <path d="M261.818 501.387C265.027 502.005 273.171 501.62 275.149 501.471C277.126 501.322 279.108 501.15 281.086 500.961C285.045 500.595 288.997 500.177 292.948 499.679C296.9 499.181 300.847 498.635 304.787 497.928C305.47 497.805 306.088 497.446 306.534 496.914C306.979 496.381 307.223 495.708 307.223 495.013C307.223 494.318 306.979 493.645 306.534 493.112C306.088 492.58 305.47 492.221 304.787 492.098V492.098C300.864 491.375 296.948 490.813 293.037 490.306C289.125 489.8 285.214 489.37 281.307 488.989C279.357 488.796 277.403 488.627 275.45 488.462C273.496 488.298 263.655 487.599 260.823 488.061C256.442 488.768 253.06 490.266 253.369 494.722C253.678 499.177 258.608 500.764 261.818 501.387Z" fill="#FBD1DA"/>
    <path d="M187.89 529.939C184.757 530.537 170.183 495.312 171.547 493.022C175.719 486.008 189.804 484.087 191.565 483.842C196.379 483.167 204.122 482.508 208.787 483.292C211.218 483.694 220.642 493.765 217.116 505.259C214.412 514.078 193.719 528.822 187.89 529.939Z" fill="#FBD1DA"/>
    <path d="M208.787 483.292C208.787 483.292 211.76 484.533 213.136 485.269C216.558 488.635 220.678 494.911 225.941 502.901C234.975 516.561 229.331 526.532 224.83 528.019C224.83 528.019 223.165 531.417 227.55 543.795C225.083 545.985 223.313 549.822 209.196 551.368C200.026 552.365 188.003 551.143 183.485 547.969C185.491 541.469 185.491 538.544 184.757 534.575L183.108 522.631C183.108 522.631 189.591 522.631 191.405 505.356C192.933 490.773 186.069 486.193 183.83 485.486C185.687 484.626 187.689 484.126 189.732 484.011C189.732 484.011 197.55 497.04 207.656 494.898C211.451 494.083 215.447 492.677 208.787 483.292Z" fill="#F4F3F7"/>
    <path d="M224.778 527.894C223.097 528.655 221.282 529.071 219.438 529.119" stroke="#150F28" stroke-linecap="round" stroke-linejoin="round"/>
    <path d="M192.139 529.34C192.139 529.34 201.598 534.009 210.111 528.649" stroke="#150F28" stroke-linecap="round" stroke-linejoin="round"/>
    <path d="M193.158 491.894C194.451 493.478 196.045 494.791 197.846 495.756C199.648 496.721 201.623 497.32 203.657 497.518" stroke="#150F28" stroke-linecap="round" stroke-linejoin="round"/>
    <path d="M207.732 497.494C207.732 497.494 208.936 497.494 209.61 496.795" stroke="#150F28" stroke-linecap="round" stroke-linejoin="round"/>
    <path d="M224.678 546.969C224.529 548.694 224.529 550.427 224.678 552.152" stroke="#150F28" stroke-linecap="round" stroke-linejoin="round"/>
    <path d="M187.168 549.685C187.168 549.685 198.83 553.433 211.427 551.095" stroke="#150F28" stroke-linecap="round" stroke-linejoin="round"/>
    <path d="M217.478 456.29C218.487 444.095 213.73 433.746 206.852 433.175C199.974 432.604 193.58 442.027 192.57 454.222C191.561 466.416 196.318 476.765 203.196 477.336C210.074 477.908 216.468 468.485 217.478 456.29Z" fill="#FBD1DA"/>
    <path d="M217.116 456.66C217.116 456.66 214.657 454.25 210.846 455.997" stroke="#150F28" stroke-linecap="round" stroke-linejoin="round"/>
    <path d="M197.258 455.25C197.258 455.25 200.985 452.839 204.507 454.973" stroke="#150F28" stroke-linecap="round" stroke-linejoin="round"/>
    <path d="M209.634 470.099C209.634 470.099 206.541 472.722 204.122 469.641" stroke="#150F28" stroke-linecap="round" stroke-linejoin="round"/>
    <path d="M208.611 459.014C208.611 459.014 207.764 463.16 209.076 465.631C209.206 465.871 209.237 466.152 209.162 466.414C209.087 466.676 208.912 466.899 208.675 467.033C208.103 467.392 207.448 467.595 206.773 467.624" stroke="#150F28" stroke-linecap="round" stroke-linejoin="round"/>
    <path d="M210.472 445.459C210.472 445.459 212.546 453.547 217.605 453.209C219.41 453.089 221.472 449.718 217.717 442.221C213.962 434.725 210.552 432.893 207.451 431.989C200.463 429.96 210.472 445.459 210.472 445.459Z" fill="#150F28"/>
    <path d="M194.209 455.583C194.209 455.583 190.771 468.913 186.779 469.219C184.685 469.379 181.997 463.775 184.484 454.049C186.972 444.322 190.197 442.976 193.523 441.269C196.848 439.562 194.209 455.583 194.209 455.583Z" fill="#150F28"/>
    <path d="M191.585 435.07C191.585 435.07 183.441 446.833 191.336 452.836C193.045 454.133 199.063 454.406 206.456 449.585C215.92 443.411 212.646 441.55 211.908 437.778C209.682 426.469 191.585 435.07 191.585 435.07Z" fill="#150F28"/>
    <path d="M193.841 464.641C195.436 464.215 196.226 461.979 195.606 459.647C194.986 457.314 193.19 455.767 191.595 456.193C190 456.618 189.21 458.854 189.83 461.187C190.45 463.52 192.246 465.066 193.841 464.641Z" fill="#FBD1DA"/>
    <path d="M196.219 453.534L193.86 456.833L192.087 453.241L196.219 453.534Z" fill="#150F28"/>
    <path d="M215.699 452.313L218.251 459.179L219.302 451.911L215.699 452.313Z" fill="#150F28"/>
    <path d="M206.97 440.919C206.97 440.919 202.361 448.396 193.062 450.429" stroke="#2E2942" stroke-linecap="round" stroke-linejoin="round"/>
    <path d="M212.976 437.593C212.976 437.593 217.16 440.526 218.006 447.774" stroke="#2E2942" stroke-linecap="round" stroke-linejoin="round"/>
    <path d="M207.684 476.527C207.684 476.527 203.271 479.226 198.786 475.446" stroke="#150F28" stroke-linecap="round" stroke-linejoin="round"/>
    <path d="M196.295 472.919C195.671 472.326 195.131 471.65 194.69 470.91" stroke="#150F28" stroke-linecap="round" stroke-linejoin="round"/>
    <path d="M214.034 458.932C214.143 457.998 213.748 457.184 213.152 457.114C212.555 457.045 211.983 457.746 211.875 458.68C211.766 459.615 212.161 460.429 212.758 460.498C213.354 460.568 213.926 459.867 214.034 458.932Z" fill="#150F28"/>
    <path d="M203.208 457.919C203.319 456.967 202.884 456.134 202.237 456.058C201.59 455.983 200.976 456.693 200.865 457.645C200.754 458.597 201.189 459.43 201.836 459.506C202.483 459.581 203.097 458.871 203.208 457.919Z" fill="#150F28"/>
    <path d="M201.294 456.463L203.633 455.652" stroke="#150F28" stroke-linecap="round" stroke-linejoin="round"/>
    <path d="M212.45 457.351L214.384 456.624" stroke="#150F28" stroke-linecap="round" stroke-linejoin="round"/>
    <path d="M88.9141 531.763C89.1869 532.402 90.6471 532.595 91.8145 531.542L94.9517 529.296L95.0479 529.216C95.0479 529.216 98.2573 526.99 99.1038 525.512C99.9502 524.033 99.9462 522.097 99.4608 521.554C98.9754 521.012 97.3065 522.053 96.769 522.543L93.343 527.215L89.9651 529.758C89.4396 530.152 88.6092 531.192 88.9141 531.763Z" fill="#FBD1DA"/>
    <path d="M99.9865 522.097C98.442 523.997 94.0332 529.517 89.6283 529.425C89.6283 529.425 84.8785 525.118 85.2877 521.261C85.2877 521.261 86.3347 519.229 96.3238 516.28C96.3238 516.28 99.6254 515.693 100.689 516.681C102.02 517.935 101.218 520.562 99.9865 522.097Z" fill="#FBD1DA"/>
    <path d="M79.6188 524.443L81.3438 523.037L81.8172 522.736L86.5269 520.405C86.6819 520.321 86.8524 520.268 87.0282 520.251C87.2039 520.234 87.3813 520.252 87.5498 520.305C87.7184 520.358 87.8746 520.444 88.0091 520.558C88.1437 520.673 88.2538 520.813 88.333 520.971C88.4122 521.129 88.4588 521.302 88.47 521.478C88.4813 521.655 88.457 521.832 88.3985 521.999C88.34 522.166 88.2486 522.319 88.1297 522.45C88.0108 522.58 87.8668 522.686 87.7063 522.76L82.8522 525.17L80.9787 526.701C80.365 527.103 78.7763 528.195 78.2829 527.665C77.4966 526.817 79.0852 524.772 79.6188 524.443Z" fill="#FBD1DA"/>
    <path d="M80.1326 526.769C80.1326 526.769 81.617 524.993 81.6531 524.973L86.2825 522.965C86.4367 522.888 86.6045 522.843 86.7762 522.832C86.9479 522.821 87.1201 522.844 87.2828 522.9C87.4455 522.956 87.5955 523.044 87.7241 523.158C87.8526 523.273 87.9571 523.412 88.0316 523.567C88.1824 523.882 88.2038 524.244 88.0913 524.574C87.9787 524.905 87.7413 525.178 87.4299 525.335L82.8566 527.344L81.7734 528.698C81.288 529.36 79.7395 531.417 79.0094 530.807C77.8941 529.863 79.6232 527.308 80.1326 526.769Z" fill="#FBD1DA"/>
    <path d="M81.4129 528.894L82.5361 527.613C82.5705 527.59 82.6067 527.57 82.6444 527.553L87.5547 525.142C87.7092 525.066 87.8772 525.022 88.049 525.011C88.2207 525.001 88.3928 525.024 88.5554 525.081C88.718 525.137 88.8679 525.225 88.9963 525.34C89.1248 525.454 89.2293 525.593 89.3038 525.749C89.4532 526.064 89.4735 526.426 89.3603 526.756C89.2471 527.086 89.0094 527.359 88.6981 527.516L83.848 529.927L82.8531 531.132C82.8531 531.132 80.779 533.683 79.9767 532.916C78.9096 531.839 81.4129 528.894 81.4129 528.894Z" fill="#FBD1DA"/>
    <path d="M81.5246 532.389C82.1545 531.702 86.1381 528.484 86.1381 528.484L86.2464 528.424L91.1567 526.014C91.3106 525.937 91.4781 525.892 91.6495 525.881C91.8209 525.87 91.9928 525.893 92.1552 525.949C92.3175 526.005 92.4672 526.093 92.5953 526.208C92.7235 526.322 92.8277 526.461 92.9018 526.616C93.0525 526.931 93.0739 527.293 92.9614 527.623C92.8489 527.954 92.6114 528.227 92.3 528.384L87.4459 530.794L83.4061 534.008C81.986 535.394 81.0432 535.39 80.7624 535.129C80.0564 534.454 80.8788 533.097 81.5246 532.389Z" fill="#FBD1DA"/>
    <path d="M80.5381 526.287C81.2802 525.615 82.0684 524.997 82.8969 524.435C83.8603 523.932 84.8592 523.499 85.8857 523.142" stroke="#150F28" stroke-linecap="round" stroke-linejoin="round"/>
    <path d="M81.5049 528.79C82.1564 528.135 82.8593 527.533 83.607 526.99C84.4414 526.352 85.6971 526.099 86.6639 525.645" stroke="#150F28" stroke-linecap="round" stroke-linejoin="round"/>
    <path d="M83.001 530.959C83.5862 530.365 84.2036 529.803 84.8504 529.276C85.6627 528.745 86.5112 528.271 87.3898 527.858" stroke="#150F28" stroke-linecap="round" stroke-linejoin="round"/>
    <path d="M90.499 529.26C92.2902 528.609 94.0063 527.767 95.6179 526.749" stroke="#150F28" stroke-linecap="round" stroke-linejoin="round"/>
    <path d="M137.383 511.587C135.574 512.27 127.137 515.03 125.268 515.556C123.399 516.083 121.525 516.581 119.652 517.071C115.891 518.051 112.11 518.968 108.307 519.823C106.405 520.253 104.491 520.626 102.57 521.028C100.648 521.43 98.7227 521.759 96.777 522.065C96.4299 522.118 96.0757 522.102 95.7347 522.018C95.3938 521.934 95.0728 521.783 94.7905 521.573C94.5082 521.364 94.27 521.101 94.0897 520.799C93.9095 520.497 93.7906 520.163 93.7402 519.815C93.6603 519.293 93.7347 518.758 93.9542 518.278C94.1738 517.797 94.5289 517.392 94.9758 517.111C96.6527 516.067 98.3456 515.062 100.055 514.098C101.76 513.13 103.469 512.17 105.194 511.25C108.636 509.396 112.103 507.614 115.596 505.902C117.342 505.037 119.093 504.191 120.847 503.363C122.604 502.536 124.349 501.676 126.163 501.009C127.976 500.342 132.862 498.526 134.724 497.984C145.531 494.665 151.115 497.144 151.368 500.201C151.565 502.656 151.364 507.328 137.383 511.587Z" fill="#FBD1DA"/>
    <path d="M174.131 504.404C171.651 505.231 145.72 508.65 145.72 508.65C141.532 509.349 135.121 510.149 134.363 504.44C133.605 498.731 140.16 496.518 140.16 496.518C154.57 491.427 160.014 490.286 164.904 489.495C170.167 488.639 178.921 486.369 184.136 486.904C188.079 487.305 190.663 490.953 187.397 496.337C183.891 502.142 176.261 503.697 174.131 504.404Z" fill="#FBD1DA"/>
    <path d="M157.057 507.108C157.057 507.108 170.508 505.501 176.261 503.85" stroke="#150F28" stroke-linecap="round" stroke-linejoin="round"/>
    <path d="M239.986 689.12C239.962 695.11 239.609 725.952 239.934 736.077C239.934 736.571 239.372 741.858 235.072 742.191C230.936 742.513 229.259 740.789 228.998 737.029C228.669 732.304 228.015 727.6 228.015 727.6C227.148 724.542 226.41 721.481 225.704 718.416C224.998 715.35 224.372 712.285 223.779 709.216C222.575 703.077 221.576 696.93 220.682 690.779L239.986 689.12Z" fill="#FBD1DA"/>
    <path d="M229.881 576.867C231.272 579.777 232.417 582.798 233.303 585.899C234.205 588.944 234.907 592.013 235.521 595.103C236.135 598.192 236.572 601.298 236.921 604.419C237.296 607.543 237.498 610.686 237.527 613.832C237.515 617.024 237.31 620.211 236.913 623.378C236.536 626.592 236.059 629.806 235.71 632.976C235.349 636.128 235.184 639.3 235.216 642.473C235.216 643.276 235.256 644.04 235.289 644.823L235.353 645.996V647.169C235.397 648.734 235.537 650.294 235.774 651.842C236.231 654.935 237.154 657.984 237.968 661.05C238.846 664.073 239.409 667.179 239.649 670.318C239.758 671.877 239.762 673.448 239.81 675.015C239.858 676.581 239.902 678.148 239.91 679.719L239.97 684.428V689.14C239.946 695.419 221.561 696.95 220.666 690.799L220.016 686.183L219.422 681.563C219.214 680.024 219.053 678.482 218.873 676.943C218.692 675.404 218.472 673.862 218.379 672.315C218.185 669.182 218.312 666.037 218.756 662.93C219.158 659.776 219.623 656.606 219.647 653.485C219.668 651.929 219.59 650.374 219.414 648.829C219.37 648.427 219.322 648.057 219.262 647.672L219.009 646.531C218.829 645.767 218.644 645.008 218.439 644.249C217.605 641.181 216.583 638.167 215.379 635.225C214.175 632.24 212.843 629.275 211.608 626.299C210.37 623.375 209.309 620.379 208.43 617.327C207.609 614.329 206.956 611.287 206.473 608.216C205.967 605.163 205.566 602.097 205.309 599.012C205.052 595.926 204.908 592.825 204.964 589.695C204.98 586.514 205.266 583.339 205.819 580.206V580.162C206.327 577.529 207.645 575.122 209.59 573.279C211.534 571.436 214.006 570.25 216.659 569.886C219.311 569.523 222.011 570 224.378 571.253C226.745 572.505 228.661 574.468 229.857 576.867H229.881Z" fill="#EF3E54"/>
    <path d="M234.807 730.737C238.193 730.609 240.74 733.425 240.279 742.227C240.279 742.227 241.302 750.636 235.26 750.945C229.219 751.254 228.167 746.417 228.601 742.227C229.463 733.814 230.707 730.89 234.807 730.737Z" fill="#FBD1DA"/>
    <path d="M266.828 760.402C266.828 760.402 269.484 765.018 263.342 766.569C257.2 768.12 245.988 771.39 239.517 764.46C233.046 757.53 230.37 757.297 226.278 757.056C219.498 756.654 220.975 749.627 223.618 747.056L266.828 760.402Z" fill="#F4F3F7"/>
    <path d="M236.115 741.612C236.62 741.166 229.696 736.51 239.324 734.871C239.324 734.871 245.173 733.858 242.533 740.813C242.533 740.813 246.248 747.204 254.665 751.768C264.096 756.883 266.403 756.738 266.828 760.402C267.253 764.066 250.2 770.108 238.63 759.261C238.63 759.261 236.343 755.553 230.607 753.528C224.87 751.503 223.354 749.772 223.35 747.904C223.35 744.87 228.942 739.35 228.942 739.35C228.942 739.35 233.423 743.97 236.115 741.612Z" fill="#C2912C"/>
    <path d="M245.101 744.155C245.101 744.155 242.57 742.749 238.983 745.899" stroke="#F4F3F7" stroke-width="2" stroke-linecap="round" stroke-linejoin="round"/>
    <path d="M247.644 746.972C247.644 746.972 244.295 745.144 241.852 748.579" stroke="#F4F3F7" stroke-width="2" stroke-linecap="round" stroke-linejoin="round"/>
    <path d="M201.787 674.565C201.743 677.751 200.423 681.121 200.311 684.295C200.186 690.663 199.629 696.548 197.992 702.651C196.262 708.733 194.301 714.778 192.111 720.786C187.345 732.891 186.29 739.045 185.781 744.585C185.271 750.126 183.478 754.332 179.121 754.328C175.049 754.328 172.57 751.419 173.762 744.871C174.351 741.613 174.52 738.636 174.247 727.238C174.062 724.024 173.986 720.81 173.95 717.596C173.923 711.206 174.129 704.854 174.568 698.541C175.097 692.246 175.25 685.882 177.292 679.852C178.259 676.827 179.482 673.846 180.501 670.832C181.52 667.819 201.831 671.379 201.787 674.565Z" fill="#FBD1DA"/>
    <path d="M210.139 596.404C212.004 610.156 208.43 630.874 205.911 639.46C203.155 648.861 203.102 653.147 202.938 662.986C202.882 666.22 202.003 669.414 201.847 672.66C201.654 676.589 201.903 680.531 201.759 684.464C201.614 688.397 200.824 692.177 199.833 695.946C199.352 697.778 198.826 699.602 198.325 701.43C198.096 702.269 197.96 703.077 197.378 703.744C195.336 706.09 190.847 705.837 188.095 705.592C184.376 705.266 180.284 704.386 177.123 702.293C175.955 701.522 174.756 700.465 174.575 698.995C174.363 697.263 174.816 695.243 174.952 693.499C175.117 691.406 175.301 689.309 175.602 687.228C176.874 678.389 181.512 670.511 182.775 661.648L182.627 663.492C182.266 651.601 179.349 640.095 178.238 628.295C177.396 619.384 177.705 610.317 178.318 601.378C179.69 581.463 187.413 576.47 194.907 577.161C202.312 577.844 208.274 582.653 210.139 596.404Z" fill="#EF3E54"/>
    <path d="M213.806 595.207C213.602 598.22 211.371 598.823 210.633 600.912C210.633 600.912 212.286 616.753 204.684 644.084" stroke="#BF284A" stroke-linecap="round" stroke-linejoin="round"/>
    <path d="M202.136 669.31C201.462 676.047 203.231 688.127 197.992 702.655" stroke="#BF284A" stroke-linecap="round" stroke-linejoin="round"/>
    <path d="M179.992 740.25C175.459 740.25 174.026 743.179 171.619 754.312C170.324 760.338 180.662 767.843 184.457 759.502C185.817 756.505 185.725 752.717 185.817 750.772C186.266 741.636 184.525 740.25 179.992 740.25Z" fill="#FBD1DA"/>
    <path d="M211.468 774.776C211.468 774.776 213.963 779.855 207.344 781.072C200.724 782.289 188.601 784.973 182.222 777.183C175.844 769.393 173.016 768.947 168.671 768.405C161.51 767.509 163.564 760.157 166.545 757.614L211.468 774.776Z" fill="#F4F3F7"/>
    <path d="M180.196 752.712C180.766 752.275 173.745 746.855 184.043 745.786C184.043 745.786 190.779 745.385 187.521 752.56C187.521 752.56 190.558 759.349 199.155 764.773C208.803 770.851 211.263 770.859 211.459 774.776C211.656 778.694 193.15 783.924 181.632 771.611C181.632 771.611 179.466 767.517 173.513 764.97C167.559 762.423 165.999 760.466 166.207 758.498C166.416 756.529 172.434 749.502 172.434 749.502C172.434 749.502 177.179 755.027 180.196 752.712Z" fill="#C2912C"/>
    <path d="M189.548 756.047C189.548 756.047 186.964 754.38 182.94 757.47" stroke="#F4F3F7" stroke-width="2" stroke-linecap="round" stroke-linejoin="round"/>
    <path d="M192.063 759.197C192.063 759.197 188.641 757.027 185.809 760.511" stroke="#F4F3F7" stroke-width="2" stroke-linecap="round" stroke-linejoin="round"/>
    <defs>
        <clipPath id="clip0_1731_2229">
            <rect width="375" height="44" fill="white"/>
        </clipPath>
    </defs>
</svg>
