<svg width="375" height="460" viewBox="0 0 375 460" fill="none" xmlns="http://www.w3.org/2000/svg">
    <g clip-path="url(#clip0_8121_23163)">
        <rect width="375" height="460" fill="white"/>
        <rect width="375" height="460" fill="#FF8EC2"/>
        <ellipse cx="345" cy="336.193" rx="113" ry="112.193" fill="white" fill-opacity="0.2"/>
        <ellipse cx="345" cy="336.5" rx="70" ry="69.5" fill="#FFF0B6"/>
        <path d="M344.999 179.036H287.438C287.438 165.21 300.327 154 316.218 154C332.11 154 344.999 165.21 344.999 179.036Z" fill="#FFAAD1"/>
        <path d="M297.562 179.036H240C240 165.21 252.889 154 268.781 154C284.673 154 297.556 165.21 297.556 179.036" fill="#FFAAD1"/>
        <path d="M97.9994 259.279H64.5586C64.5586 251.247 72.0466 244.734 81.279 244.734C90.5114 244.734 97.9994 251.247 97.9994 259.279Z" fill="#FFAAD1"/>
        <path d="M70.4408 259.279H37C37 251.247 44.488 244.734 53.7204 244.734C62.9528 244.734 70.4373 251.247 70.4373 259.279" fill="#FFAAD1"/>
        <path d="M403.522 343.694C397.625 343.688 391.91 345.739 387.359 349.496C385.873 343.238 382.603 337.549 377.947 333.12C373.291 328.69 367.449 325.712 361.134 324.548C354.818 323.384 348.301 324.084 342.375 326.562C336.449 329.041 331.371 333.191 327.758 338.509C322.048 335.815 315.702 334.762 309.43 335.469C303.157 336.176 297.204 338.614 292.234 342.512C287.265 346.409 283.473 351.613 281.284 357.543C279.095 363.472 278.593 369.894 279.835 376.093C273.437 377.836 267.952 381.973 264.512 387.649C260.793 384.33 256.195 382.158 251.272 381.397C246.348 380.635 241.31 381.317 236.765 383.358C232.219 385.4 228.36 388.715 225.653 392.903C222.946 397.092 221.506 401.975 221.508 406.965C221.509 408.426 221.634 409.884 221.879 411.324C215.941 411.906 210.246 413.981 205.322 417.355C200.398 420.729 196.405 425.295 193.712 430.627C191.019 435.96 189.715 441.887 189.919 447.859C190.123 453.831 191.83 459.655 194.881 464.79C192.072 465.425 189.421 466.627 187.092 468.324C184.762 470.02 182.803 472.175 181.334 474.656C179.48 471.041 176.891 467.855 173.733 465.303C170.575 462.751 166.919 460.89 162.999 459.84C166.368 453.287 167.14 445.701 165.16 438.601C163.181 431.502 158.596 425.415 152.324 421.558C146.053 417.702 138.558 416.361 131.341 417.805C124.125 419.249 117.72 423.371 113.409 429.345C109.314 421.627 102.598 415.63 94.474 412.437C94.474 412.173 94.4951 411.926 94.4951 411.667C94.4969 405.546 92.9621 399.523 90.0316 394.152C87.1011 388.781 82.8692 384.234 77.725 380.93C72.5809 377.625 66.6897 375.669 60.5934 375.242C54.4971 374.815 48.3913 375.93 42.8379 378.485C38.1114 358.28 20.0217 343.232 -1.59126 343.232C-8.30642 343.226 -14.9398 344.708 -21.0165 347.57C-27.0932 350.432 -32.4629 354.605 -36.7412 359.789C-42.062 355.344 -48.5374 352.511 -55.4086 351.621C-62.2798 350.731 -69.2619 351.82 -75.5367 354.763C-81.8115 357.705 -87.119 362.378 -90.8371 368.233C-94.5552 374.088 -96.5298 380.884 -96.5295 387.823L-100 586H429V369.215C429 365.863 428.342 362.545 427.061 359.448C425.781 356.352 423.904 353.539 421.539 351.169C419.173 348.799 416.364 346.919 413.272 345.636C410.181 344.354 406.868 343.694 403.522 343.694ZM257.79 430.621L257.229 431.196C257.184 431.104 257.147 431.012 257.103 430.933C257.334 430.824 257.563 430.724 257.79 430.621Z" fill="#FFAAD1"/>
    </g>
    <defs>
        <clipPath id="clip0_8121_23163">
            <rect width="375" height="460" fill="white"/>
        </clipPath>
    </defs>
</svg>
