<svg width="375" height="460" viewBox="0 0 375 460" fill="none" xmlns="http://www.w3.org/2000/svg">
    <g clip-path="url(#clip0_8121_23207)">
        <rect width="375" height="460" fill="white"/>
        <rect width="375" height="460" fill="#BDA3FF"/>
        <ellipse cx="256" cy="179" rx="66" ry="65" fill="white" fill-opacity="0.03"/>
        <ellipse cx="256" cy="178.5" rx="40" ry="39.5" fill="#A27CFF" fill-opacity="0.3"/>
        <path fill-rule="evenodd" clip-rule="evenodd" d="M229.669 198.196C229.846 198.472 230.4 199.254 230.901 199.933C240.923 213.531 259.528 217.59 274.489 209.444C285.435 203.484 292.168 192.297 292.34 179.786C292.442 172.365 289.795 164.66 285.072 158.628C279.567 151.598 271.169 147.031 262.271 146.228C260.901 146.105 257.241 146.027 257.074 146.118C257.056 146.128 257.699 146.742 258.503 147.484C261.083 149.866 262.759 152.1 264.332 155.254C265.397 157.389 265.964 158.902 266.464 160.938C268.762 170.305 265.761 180.292 258.677 186.847C257.137 188.273 256.016 189.115 254.219 190.196C245.943 195.177 234.835 195.208 226.447 190.275L225.408 189.663L225.702 190.38C226.754 192.947 228.47 196.328 229.669 198.196Z" fill="white"/>
        <path d="M381.371 245H345.33C345.33 236.343 353.4 229.324 363.35 229.324C373.301 229.324 381.371 236.343 381.371 245Z" fill="#A27CFF"/>
        <path d="M351.669 245H315.629C315.629 236.343 323.699 229.324 333.649 229.324C343.599 229.324 351.666 236.343 351.666 245" fill="#A27CFF"/>
        <path d="M403.522 343.694C397.625 343.688 391.91 345.739 387.359 349.496C385.873 343.238 382.603 337.549 377.947 333.12C373.291 328.69 367.449 325.712 361.134 324.548C354.818 323.384 348.301 324.084 342.375 326.562C336.449 329.041 331.371 333.191 327.758 338.509C322.048 335.815 315.702 334.762 309.43 335.469C303.157 336.176 297.204 338.614 292.234 342.512C287.265 346.409 283.473 351.613 281.284 357.543C279.095 363.472 278.593 369.894 279.835 376.093C273.437 377.836 267.952 381.973 264.512 387.649C260.793 384.33 256.195 382.158 251.272 381.397C246.348 380.635 241.31 381.317 236.765 383.358C232.219 385.4 228.36 388.715 225.653 392.903C222.946 397.092 221.506 401.975 221.508 406.965C221.509 408.426 221.634 409.884 221.879 411.324C215.941 411.906 210.246 413.981 205.322 417.355C200.398 420.729 196.405 425.295 193.712 430.627C191.019 435.96 189.715 441.887 189.919 447.859C190.123 453.831 191.83 459.655 194.881 464.79C192.072 465.425 189.421 466.627 187.092 468.324C184.762 470.02 182.803 472.175 181.334 474.656C179.48 471.041 176.891 467.855 173.733 465.303C170.575 462.751 166.919 460.89 162.999 459.84C166.368 453.287 167.14 445.701 165.16 438.601C163.181 431.502 158.596 425.415 152.324 421.558C146.053 417.702 138.558 416.361 131.341 417.805C124.125 419.249 117.72 423.371 113.409 429.345C109.314 421.627 102.598 415.63 94.474 412.437C94.474 412.173 94.4951 411.926 94.4951 411.667C94.4969 405.546 92.9621 399.523 90.0316 394.152C87.1011 388.781 82.8692 384.234 77.725 380.93C72.5809 377.625 66.6897 375.669 60.5934 375.242C54.4971 374.815 48.3913 375.93 42.8379 378.485C38.1114 358.28 20.0217 343.232 -1.59126 343.232C-8.30642 343.226 -14.9398 344.708 -21.0165 347.57C-27.0932 350.432 -32.4629 354.605 -36.7412 359.789C-42.062 355.344 -48.5374 352.511 -55.4086 351.621C-62.2798 350.731 -69.2619 351.82 -75.5367 354.763C-81.8115 357.705 -87.119 362.378 -90.8371 368.233C-94.5552 374.088 -96.5298 380.884 -96.5295 387.823L-100 586H429V369.215C429 365.863 428.342 362.545 427.061 359.448C425.781 356.352 423.904 353.539 421.539 351.169C419.173 348.799 416.364 346.919 413.272 345.636C410.181 344.354 406.868 343.694 403.522 343.694ZM257.79 430.621L257.229 431.196C257.184 431.104 257.147 431.012 257.103 430.933C257.334 430.824 257.563 430.724 257.79 430.621Z" fill="#A37DFF"/>
        <path d="M217.332 271.401C219.915 270.936 221.936 268.915 222.401 266.332L223 263L223.599 266.332C224.064 268.915 226.085 270.936 228.668 271.401L232 272L228.668 272.599C226.085 273.064 224.064 275.085 223.599 277.668L223 281L222.401 277.668C221.936 275.085 219.915 273.064 217.332 272.599L214 272L217.332 271.401Z" fill="white" fill-opacity="0.7"/>
        <path d="M330.332 145.401C332.915 144.936 334.936 142.915 335.401 140.332L336 137L336.599 140.332C337.064 142.915 339.085 144.936 341.668 145.401L345 146L341.668 146.599C339.085 147.064 337.064 149.085 336.599 151.668L336 155L335.401 151.668C334.936 149.085 332.915 147.064 330.332 146.599L327 146L330.332 145.401Z" fill="white" fill-opacity="0.7"/>
    </g>
    <defs>
        <clipPath id="clip0_8121_23207">
            <rect width="375" height="460" fill="white"/>
        </clipPath>
    </defs>
</svg>

